<svg width="100" height="100" viewBox="0 0 100 100" fill="none" xmlns="http://www.w3.org/2000/svg">
<path opacity="0.08" fill-rule="evenodd" clip-rule="evenodd" d="M78.9804 89.0251C87.8565 81.152 93.4403 69.7221 93.4403 57.0026C93.4403 33.2529 73.9726 14 49.958 14C25.9433 14 6.47559 33.2529 6.47559 57.0026C6.47559 69.5807 11.9361 80.8973 20.6406 88.7609C34.5109 88.7456 66.2113 89.3109 78.9804 89.0251Z" fill="#B2B2B2"/>
<path d="M27.9109 39.7691C27.5275 39.7691 27.168 39.8786 26.8685 40.0709C26.569 38.4882 25.1642 37.2871 23.4748 37.2871C21.7825 37.2871 20.3717 38.4911 20.0781 40.0798C19.7217 39.8815 19.3114 39.7691 18.8711 39.7691C17.5112 39.7691 16.4089 40.8578 16.4089 42.2008C16.4089 42.4612 16.4509 42.7127 16.5288 42.9493H29.3666C29.6691 42.612 29.8518 42.1683 29.8518 41.6832C29.8488 40.627 28.9832 39.7691 27.9109 39.7691Z" fill="#FEFEFE" stroke="#0053fa" stroke-width="0.373204" stroke-linecap="round" stroke-linejoin="round"/>
<path d="M78.6438 43.7067C78.0722 43.7067 77.536 43.8667 77.0891 44.1477C76.6423 41.8345 74.547 40.0791 72.0274 40.0791C69.5034 40.0791 67.3993 41.8388 66.9613 44.1606C66.4295 43.871 65.8176 43.7067 65.1611 43.7067C63.1326 43.7067 61.4885 45.2978 61.4885 47.2607C61.4885 47.6412 61.5509 48.0087 61.6673 48.3546H80.8152C81.2665 47.8617 81.539 47.2132 81.539 46.5041C81.5346 44.9606 80.2431 43.7067 78.6438 43.7067Z" fill="#FEFEFE" stroke="#0053fa" stroke-width="0.373204" stroke-linecap="round" stroke-linejoin="round"/>
<path d="M31.734 77.8178H24.2082L22.7963 78.3692L23.8232 76.4905L19.5957 71.4475C20.5668 71.4475 22.5575 71.5006 22.7517 71.713L21.0523 65.6081C21.2072 65.7223 21.3693 65.8433 21.5378 65.9705C23.3434 65.4678 27.4179 64.8972 30.6203 66.1389C30.5869 64.6348 30.6658 61.5205 31.2484 61.0958C31.293 61.0633 31.3623 61.0679 31.4535 61.1052C33.0894 61.1989 35.9336 61.7774 38.7742 63.3008C38.4505 60.7963 37.9974 55.6279 38.7742 54.9909C38.8515 54.9275 38.9905 54.9567 39.181 55.071C43.784 56.0563 52.8862 60.5846 55.525 71.713C57.2245 70.1203 62.0795 67.6784 67.9063 70.6512C68.1489 73.582 68.2215 80.0776 66.5706 82.6124L69.2724 82.7985L70.3335 81.534L70.308 81.4574C69.735 79.7466 68.6856 76.2656 68.8771 75.4288C68.8962 75.3454 68.9434 75.2894 69.0146 75.2599C69.02 75.2579 69.0254 75.2555 69.0308 75.2535C70.0492 74.873 72.6778 74.8067 75.189 77.5526C75.2013 77.5708 75.2136 77.5899 75.2264 77.6091C76.8326 76.4399 81.0639 74.5263 85.1426 76.2253L81.7435 83.6573L81.0973 83.6126L79.6335 83.512L76.8655 83.3215L75.5082 83.2277L69.2724 82.7985L66.5706 82.6124L65.7211 82.5539L64.5073 82.47L59.9891 82.1591L58.9844 82.0899L51.398 81.5674L50.9125 81.534L50.1842 81.2684L48.7959 80.7626L47.271 80.2067H43.8723H43.5081H43.144L42.5481 79.9411L39.5025 78.5848L36.5893 77.287L33.9189 77.5791L32.6298 77.7201L31.734 77.8178Z" fill="#FEFEFE"/>
<path d="M24.2639 77.2535H31.7896L32.6854 77.1558L33.9746 77.0148L36.645 76.7227L39.5581 78.0205L42.6038 79.3773L43.1997 79.6424H43.5638H43.9279H47.3267L48.8515 80.1983L50.2399 80.7041L50.9681 80.9697L51.4537 81.0031L59.0402 81.5256L60.0449 81.5948L64.5631 81.9062L65.7769 81.9896L66.6264 82.0481L69.3282 82.2342L75.5635 82.6639L76.9208 82.7572L79.6888 82.9477L81.1531 83.0488L81.7994 83.093C82.285 83.3587 83.1591 83.9956 82.7707 84.4203C82.6896 84.5087 82.7707 84.6325 83.7415 84.4203C84.7128 84.2077 84.7933 85.2163 84.7127 85.7476V86.0128H86.6548C86.9784 86.0128 87.577 86.3845 87.3831 87.8709C91.1862 88.1361 96.5112 88.6669 87.3831 88.6669H26.411H12.7986C9.72358 88.6669 4.59314 88.6139 8.6716 88.4018C12.7501 88.1891 12.4494 87.9593 12.3684 87.8709C12.0447 87.3401 11.6887 86.2785 12.8539 86.2785H16.0099C15.8481 85.5704 15.6215 84.1016 16.0099 83.8895C16.1529 83.8114 16.9066 83.641 17.936 83.453C17.8551 82.3913 18.0491 80.1733 19.4086 80.1733C19.5625 80.1733 19.7244 80.1669 19.8941 80.1556C19.8941 79.504 20.5415 78.8342 20.8652 78.5808L22.852 77.8049L24.2639 77.2535Z" fill="#0053fa"/>
<path d="M31.7886 77.2865H24.2629L22.851 77.838M31.7886 77.2865C31.2222 77.9057 30.1864 79.2507 30.5748 79.6755M31.7886 77.2865L32.6844 77.1888M22.851 77.838L20.8641 78.6138C20.5405 78.8672 19.8931 79.537 19.8931 80.1881M22.851 77.838L23.8779 75.9592M32.6844 77.1888C31.9003 76.602 29.9921 75.2693 28.6327 74.6324C27.2732 73.995 25.4767 74.19 24.7484 74.3668M32.6844 77.1888C32.1312 74.8917 28.7857 71.4713 25.567 68.6685M32.6844 77.1888L33.9735 77.0479M43.1986 79.6755L42.6027 79.4098M43.1986 79.6755H43.5628M43.1986 79.6755C40.6986 73.9985 37.5892 70.32 34.3532 67.8487M42.6027 79.4098L40.0426 76.2249L35.1873 74.3668L34.8268 75.1632M42.6027 79.4098L39.5571 78.0535M43.5628 79.6755H43.9269M43.5628 79.6755C43.6598 77.3396 40.6091 71.624 39.0716 69.0582C38.2928 68.0599 37.2395 66.742 36.1584 65.4421M34.3532 67.8487C34.0657 67.6292 33.7772 67.4191 33.488 67.2181M34.3532 67.8487C34.2685 67.5181 35.5214 66.1066 36.1584 65.4421M50.9671 81.0028L50.2388 80.7371M50.9671 81.0028C50.9671 79.4098 48.8505 73.0394 43.9269 66.9348C43.5441 66.4602 43.1407 66.0184 42.722 65.6077M50.9671 81.0028L51.4526 81.0362M50.9671 81.0028C50.7254 74.2636 47.9569 67.4592 45.1175 62.4225M50.2388 80.7371L49.2677 78.3482L44.898 77.0214L44.5203 78.0535M50.2388 80.7371L48.8505 80.2313M42.722 65.6077C42.4371 65.3281 42.1451 65.0629 41.8476 64.8114M42.722 65.6077C42.474 65.3574 44.2157 63.3799 45.1175 62.4225M51.4526 81.0362C52.0437 80.6104 52.5582 80.0511 53.0042 79.4098M51.4526 81.0362L59.0393 81.5586M45.1175 62.4225C44.0653 60.5561 43.0033 58.9324 42.0566 57.6448M81.7984 83.1261C82.2841 83.3912 83.1576 84.0286 82.7692 84.4534C82.6887 84.5418 82.7692 84.6655 83.7405 84.4534C84.7113 84.2408 84.7923 85.2494 84.7113 85.7802V86.0459M81.7984 83.1261L85.197 75.6941C81.1188 73.995 76.8869 75.9086 75.2812 77.0778M81.7984 83.1261L81.1522 83.0814M84.7113 86.0459H86.6534C86.9775 86.0459 87.5761 86.4171 87.3821 87.9035C91.1853 88.1691 96.5097 88.7 87.3821 88.7C80.0297 88.7 49.2959 88.7 26.41 88.7C20.8817 88.7 17.2126 88.6185 13.0403 88.6185C9.96528 88.6185 4.83484 88.5654 8.9133 88.3533C12.9918 88.1407 12.4483 87.9924 12.3674 87.9035C12.0437 87.3727 11.6876 86.311 12.8529 86.311C14.0182 86.311 15.4424 86.311 16.0089 86.311M84.7113 86.0459H76.2147M75.2812 77.0778C75.2684 77.0587 75.2562 77.0395 75.2439 77.0214C72.7189 74.2607 70.0751 74.3427 69.069 74.7287M75.2812 77.0778C75.7556 77.8056 76.4273 79.0813 76.7927 80.3345M81.1522 83.0814L79.9148 80.3345H76.7927M81.1522 83.0814L79.6879 82.9807M16.0089 86.311C15.847 85.6034 15.6204 84.1347 16.0089 83.9221C16.4944 83.6569 24.0201 82.3296 25.4767 82.8604L26.205 81.0028L26.3241 86.1946M16.0089 86.311L26.3241 86.1946M76.2147 86.0459V84.9842H74.7582V86.0459M76.2147 86.0459H74.7582M26.3241 86.1946L39.5571 86.0459M17.9349 83.486C17.854 82.4244 18.0481 80.2063 19.4076 80.2063C19.5615 80.2063 19.7234 80.1999 19.8931 80.1881M19.8931 80.1881C21.5967 80.0727 24.0852 79.4579 27.1761 79.9406C31.1413 81.976 39.1687 86.0459 39.5571 86.0459M39.5571 86.0459H52.4237M52.4237 86.0459V83.9221H53.6375V86.0459M52.4237 86.0459H53.6375M53.6375 86.0459H55.0941M55.0941 86.0459V84.1877L72.8162 84.9842V86.0459M55.0941 86.0459H72.8162M72.8162 86.0459H74.7582M23.8779 75.9592L19.6503 70.9162C20.6214 70.9162 22.6121 70.9693 22.8063 71.1817M23.8779 75.9592L24.5428 74.7429M24.7484 74.3668L24.5428 74.7429M24.7484 74.3668L25.567 68.6685M24.5428 74.7429C24.0449 73.6444 23.0005 71.394 22.8063 71.1817M25.567 68.6685C24.1304 67.4175 22.719 66.2895 21.5925 65.4392M33.9735 77.0479L36.6439 76.7557L39.5571 78.0535M33.9735 77.0479L34.8268 75.1632M22.8063 71.1817L21.1069 65.0768C21.2618 65.1911 21.4239 65.312 21.5925 65.4392M21.5925 65.4392C23.3981 64.9366 27.4726 64.3659 30.675 65.6077M30.675 65.6077C31.0606 65.7572 31.4337 65.9331 31.7886 66.1385C32.3559 66.4669 32.9232 66.8254 33.488 67.2181M30.675 65.6077C30.6416 64.1035 30.7205 60.9892 31.3031 60.5645M39.5571 78.0535L39.3144 77.0479L34.8268 75.1632M43.9269 79.6755H47.3256L48.8505 80.2313M43.9269 79.6755L44.5203 78.0535M48.8505 80.2313L48.5394 79.1447L44.5203 78.0535M33.488 67.2181C33.2938 67.02 33.7621 64.2924 34.0206 62.9534M31.3031 60.5645C32.8984 60.6195 35.8656 61.1803 38.8288 62.7696M31.3031 60.5645C31.5627 60.3753 32.6676 61.444 34.0206 62.9534M38.8288 62.7696C38.5051 60.265 38.052 55.0967 38.8288 54.4596M38.8288 62.7696C39.8546 63.3197 40.8799 63.9931 41.8476 64.8114M34.0206 62.9534C34.6961 63.707 35.4335 64.5705 36.1584 65.4421M38.8288 54.4596C43.2795 55.2559 52.8607 59.7151 55.5799 71.1817M38.8288 54.4596C39.1373 54.2067 40.426 55.4273 42.0566 57.6448M41.8476 64.8114C41.7379 64.3867 41.9412 59.8567 42.0566 57.6448M55.5799 71.1817C57.2789 69.5891 62.1344 67.1472 67.9607 70.12C68.2032 73.0507 68.2764 79.5463 66.6255 82.0811M55.5799 71.1817C55.4507 73.1038 54.7561 76.8907 53.0042 79.4098M55.5799 71.1817C57.5318 72.2248 61.2358 74.7375 64.0352 78.083M66.6255 82.0811C65.9724 80.6566 65.065 79.3136 64.0352 78.083M66.6255 82.0811L65.776 82.0227M66.6255 82.0811L69.3273 82.2672M53.0042 79.4098L55.5592 77.04M64.0352 78.083L60.2713 79.5498M59.0393 81.5586L59.221 80.2313L55.5799 78.3482L56.1927 77.6219M59.0393 81.5586L60.044 81.6279M65.776 82.0227L64.0352 79.1447L63.3482 79.4098L64.5621 81.9387M65.776 82.0227L64.5621 81.9387M69.3273 82.2672L70.3884 81.0028C70.3801 80.9772 70.3712 80.9522 70.3629 80.9262M69.3273 82.2672L75.5626 82.6964M55.5799 77.0214L55.5592 77.04M55.5592 77.04L55.5799 77.2865L56.1927 77.6219M60.2713 79.5498L59.9492 79.6755L56.1927 77.6219M60.2713 79.5498L60.044 81.6279M60.044 81.6279L64.5621 81.9387M70.3629 80.9262C69.7898 79.2154 68.7405 75.7343 68.932 74.8976C68.9506 74.8141 68.9978 74.7581 69.069 74.7287M70.3629 80.9262L71.6023 79.4098M75.5626 82.6964C75.2056 81.4914 74.6954 80.3875 74.1155 79.4098M75.5626 82.6964L79.6879 82.9807M74.1155 79.4098H71.6023M74.1155 79.4098C73.0219 77.5674 71.6779 76.1738 70.631 75.3975M79.6879 82.9807L78.885 81.0028M69.069 74.7287C69.3282 74.6206 69.9091 74.8622 70.631 75.3975M71.6023 79.4098L70.631 75.3975M76.9198 82.7902C77.16 82.1238 77.0554 81.235 76.7927 80.3345" stroke="#041630" stroke-width="0.490973"/>
</svg>
