<svg width="328" height="330" viewBox="0 0 328 330" fill="none" xmlns="http://www.w3.org/2000/svg">
<g clip-path="url(#clip0_5509_8334)">
<path d="M320 0H8C3.58172 0 0 3.58172 0 8V321.518C0 325.936 3.58172 329.518 8 329.518H320C324.418 329.518 328 325.936 328 321.518V8C328 3.58172 324.418 0 320 0Z" fill="#F9F9F9"/>
<path d="M299.657 52H28.3428C25.9443 52 24 53.7552 24 55.9203V192.08C24 194.245 25.9443 196 28.3428 196H299.657C302.056 196 304 194.245 304 192.08V55.9203C304 53.7552 302.056 52 299.657 52Z" fill="white"/>
<path d="M162.348 66.4766H40.1282C39.216 66.4766 38.4766 67.216 38.4766 68.1282V71.4314C38.4766 72.3436 39.216 73.0831 40.1282 73.0831H162.348C163.26 73.0831 164 72.3436 164 71.4314V68.1282C164 67.216 163.26 66.4766 162.348 66.4766Z" fill="#ECECEC"/>
<path opacity="0.4" d="M38.4766 84.6602H289.524" stroke="#B9B9B9" stroke-width="0.361897"/>
<path d="M54.4 104.93H48.6097C47.8102 104.93 47.1621 105.578 47.1621 106.377V112.168C47.1621 112.967 47.8102 113.615 48.6097 113.615H54.4C55.1995 113.615 55.8476 112.967 55.8476 112.168V106.377C55.8476 105.578 55.1995 104.93 54.4 104.93Z" fill="#0053fa"/>
<path d="M53.3258 107.975C53.3006 107.949 53.2705 107.929 53.2375 107.915C53.2044 107.902 53.1689 107.895 53.1331 107.895C53.0972 107.895 53.0618 107.902 53.0287 107.915C52.9956 107.929 52.9656 107.949 52.9404 107.975L50.9183 110L50.0687 109.147C50.0425 109.122 50.0116 109.102 49.9777 109.089C49.9438 109.075 49.9076 109.069 49.8712 109.07C49.8348 109.07 49.7988 109.078 49.7654 109.092C49.732 109.107 49.7018 109.128 49.6765 109.154C49.6512 109.18 49.6313 109.211 49.6179 109.245C49.6046 109.279 49.598 109.315 49.5987 109.352C49.5993 109.388 49.6071 109.424 49.6216 109.457C49.6361 109.491 49.6571 109.521 49.6833 109.546L50.7256 110.589C50.7508 110.614 50.7808 110.634 50.8139 110.648C50.847 110.662 50.8824 110.669 50.9183 110.669C50.9541 110.669 50.9896 110.662 51.0227 110.648C51.0557 110.634 51.0857 110.614 51.111 110.589L53.3258 108.374C53.3533 108.348 53.3753 108.318 53.3904 108.283C53.4054 108.249 53.4132 108.212 53.4132 108.174C53.4132 108.137 53.4054 108.1 53.3904 108.065C53.3753 108.031 53.3533 108 53.3258 107.975Z" fill="white"/>
<path d="M262.638 104.93H63.6377C62.5331 104.93 61.6377 105.825 61.6377 106.93V110.93C61.6377 112.034 62.5331 112.93 63.6377 112.93H262.638C263.742 112.93 264.638 112.034 264.638 110.93V106.93C264.638 105.825 263.742 104.93 262.638 104.93Z" fill="#F9F9F9"/>
<path d="M231.638 116.93H63.6377C62.5331 116.93 61.6377 117.825 61.6377 118.93V122.93C61.6377 124.034 62.5331 124.93 63.6377 124.93H231.638C232.742 124.93 233.638 124.034 233.638 122.93V118.93C233.638 117.825 232.742 116.93 231.638 116.93Z" fill="#F9F9F9"/>
<path d="M54.3997 142.48H48.6094C47.9099 142.48 47.3428 143.048 47.3428 143.747V149.537C47.3428 150.237 47.9099 150.804 48.6094 150.804H54.3997C55.0993 150.804 55.6664 150.237 55.6664 149.537V143.747C55.6664 143.048 55.0993 142.48 54.3997 142.48Z" fill="white" stroke="#B9B9B9" stroke-width="0.361897"/>
<path d="M243.638 142.301H63.6377C62.5331 142.301 61.6377 143.196 61.6377 144.301V148.986C61.6377 150.091 62.5331 150.986 63.6377 150.986H243.638C244.742 150.986 245.638 150.091 245.638 148.986V144.301C245.638 143.196 244.742 142.301 243.638 142.301Z" fill="#F9F9F9"/>
<path d="M54.4 168.355H48.6097C47.8102 168.355 47.1621 169.004 47.1621 169.803V175.593C47.1621 176.393 47.8102 177.041 48.6097 177.041H54.4C55.1995 177.041 55.8476 176.393 55.8476 175.593V169.803C55.8476 169.004 55.1995 168.355 54.4 168.355Z" fill="#0053fa"/>
<path d="M53.3258 171.401C53.3006 171.375 53.2705 171.355 53.2375 171.341C53.2044 171.327 53.1689 171.32 53.1331 171.32C53.0972 171.32 53.0618 171.327 53.0287 171.341C52.9956 171.355 52.9656 171.375 52.9404 171.401L50.9183 173.425L50.0687 172.573C50.0425 172.548 50.0116 172.528 49.9777 172.515C49.9438 172.501 49.9076 172.495 49.8712 172.495C49.8348 172.496 49.7988 172.504 49.7654 172.518C49.732 172.533 49.7018 172.554 49.6765 172.58C49.6512 172.606 49.6313 172.637 49.6179 172.671C49.6046 172.705 49.598 172.741 49.5987 172.777C49.5993 172.814 49.6071 172.85 49.6216 172.883C49.6361 172.917 49.6571 172.947 49.6833 172.972L50.7256 174.014C50.7508 174.04 50.7808 174.06 50.8139 174.074C50.847 174.088 50.8824 174.095 50.9183 174.095C50.9541 174.095 50.9896 174.088 51.0227 174.074C51.0557 174.06 51.0857 174.04 51.111 174.014L53.3258 171.8C53.3533 171.774 53.3753 171.743 53.3904 171.709C53.4054 171.675 53.4132 171.638 53.4132 171.6C53.4132 171.563 53.4054 171.526 53.3904 171.491C53.3753 171.457 53.3533 171.426 53.3258 171.401Z" fill="white"/>
<path d="M251.638 168.355H63.6377C62.5331 168.355 61.6377 169.251 61.6377 170.355V174.355C61.6377 175.46 62.5331 176.355 63.6377 176.355H251.638C252.742 176.355 253.638 175.46 253.638 174.355V170.355C253.638 169.251 252.742 168.355 251.638 168.355Z" fill="#F9F9F9"/>
<path d="M144.638 180.355H63.6377C62.5331 180.355 61.6377 181.251 61.6377 182.355V186.355C61.6377 187.46 62.5331 188.355 63.6377 188.355H144.638C145.742 188.355 146.638 187.46 146.638 186.355V182.355C146.638 181.251 145.742 180.355 144.638 180.355Z" fill="#F9F9F9"/>
<path d="M300 211.52H28C25.7909 211.52 24 213.31 24 215.52V305.52C24 307.729 25.7909 309.52 28 309.52H300C302.209 309.52 304 307.729 304 305.52V215.52C304 213.31 302.209 211.52 300 211.52Z" fill="white"/>
<path d="M40 227.52L59.2222 259.224L78.4444 266.136L97.6667 234.631L116.889 281.091L136.111 277.369L155.333 227.52L174.556 277.302L193.778 244.402L213 263.078V293.52H193.778H174.556H155.333H136.111H116.889H97.6667H78.4444H59.2222H40V227.52Z" fill="#0053fa"/>
<path d="M286 227.52H239C237.895 227.52 237 228.415 237 229.52V263.52C237 264.624 237.895 265.52 239 265.52H286C287.105 265.52 288 264.624 288 263.52V229.52C288 228.415 287.105 227.52 286 227.52Z" fill="#F9F9F9"/>
<path d="M286 273.52H239C237.895 273.52 237 274.415 237 275.52V279.52C237 280.624 237.895 281.52 239 281.52H286C287.105 281.52 288 280.624 288 279.52V275.52C288 274.415 287.105 273.52 286 273.52Z" fill="#F9F9F9"/>
<path d="M279 285.52H239C237.895 285.52 237 286.415 237 287.52V291.52C237 292.624 237.895 293.52 239 293.52H279C280.105 293.52 281 292.624 281 291.52V287.52C281 286.415 280.105 285.52 279 285.52Z" fill="#F9F9F9"/>
<path d="M111.023 28.0781H113.738C113.562 29.6146 112.869 30.8548 111.658 31.7988C110.486 32.7298 109.028 33.1953 107.283 33.1953C105.154 33.1953 103.452 32.5182 102.176 31.1641C100.913 29.7839 100.281 27.9707 100.281 25.7246C100.281 23.485 100.919 21.6784 102.195 20.3047C103.471 18.931 105.167 18.2441 107.283 18.2441C109.021 18.2441 110.48 18.7031 111.658 19.6211C112.817 20.5195 113.51 21.7533 113.738 23.3223H111.023C110.815 22.4564 110.376 21.7793 109.705 21.291C109.035 20.8027 108.221 20.5586 107.264 20.5586C105.968 20.5586 104.939 21.0273 104.178 21.9648C103.416 22.9023 103.035 24.1621 103.035 25.7441C103.035 27.3457 103.41 28.6022 104.158 29.5137C104.907 30.4251 105.929 30.8809 107.225 30.8809C108.221 30.8809 109.054 30.6302 109.725 30.1289C110.395 29.6211 110.828 28.9375 111.023 28.0781ZM115.281 27.7168C115.281 26.0827 115.76 24.7578 116.717 23.7422C117.687 22.7135 118.947 22.1992 120.496 22.1992C122.052 22.1992 123.305 22.7135 124.256 23.7422C125.219 24.7643 125.701 26.0892 125.701 27.7168C125.701 29.3379 125.219 30.6595 124.256 31.6816C123.325 32.6908 122.072 33.1953 120.496 33.1953C118.927 33.1953 117.667 32.6908 116.717 31.6816C115.76 30.666 115.281 29.3444 115.281 27.7168ZM123.162 27.6777C123.162 26.6426 122.921 25.8223 122.439 25.2168C121.964 24.6048 121.31 24.2988 120.477 24.2988C119.65 24.2988 118.999 24.6048 118.523 25.2168C118.042 25.8353 117.801 26.6621 117.801 27.6973C117.801 28.7324 118.032 29.5592 118.494 30.1777C118.969 30.7897 119.63 31.0957 120.477 31.0957C121.31 31.0957 121.964 30.7897 122.439 30.1777C122.921 29.5658 123.162 28.7324 123.162 27.6777ZM130.35 33H127.879V22.4043H130.037L130.33 24.3574H130.516C131.16 22.9186 132.205 22.1992 133.65 22.1992C134.393 22.1992 135.024 22.3945 135.545 22.7852C136.072 23.1693 136.463 23.7129 136.717 24.416H136.893C137.212 23.6934 137.664 23.1432 138.25 22.7656C138.842 22.388 139.523 22.1992 140.291 22.1992C141.398 22.1992 142.254 22.5898 142.859 23.3711C143.471 24.1523 143.777 25.2233 143.777 26.584V33H141.297V26.8379C141.297 25.1452 140.649 24.2988 139.354 24.2988C138.611 24.2988 138.045 24.556 137.654 25.0703C137.27 25.5846 137.078 26.2943 137.078 27.1992V33H134.578V26.7988C134.578 25.1322 133.937 24.2988 132.654 24.2988C131.951 24.2988 131.391 24.5625 130.975 25.0898C130.558 25.6107 130.35 26.3008 130.35 27.1602V33ZM149.002 21.0176H146.551V18.3418H149.002V21.0176ZM149.002 33H146.551V22.4043H149.002V33ZM154.393 33H151.922V22.4043H154.1L154.393 24.3574H154.559C154.891 23.6673 155.363 23.1367 155.975 22.7656C156.587 22.388 157.286 22.1992 158.074 22.1992C159.253 22.1992 160.158 22.5898 160.789 23.3711C161.421 24.1458 161.736 25.2168 161.736 26.584V33H159.236V26.8379C159.236 25.1452 158.51 24.2988 157.059 24.2988C156.251 24.2988 155.604 24.5885 155.115 25.168C154.633 25.7409 154.393 26.4928 154.393 27.4238V33ZM163.553 34.1816C163.553 33.6934 163.699 33.2669 163.992 32.9023C164.285 32.5312 164.673 32.2839 165.154 32.1602V32.0039C164.803 31.8802 164.526 31.6816 164.324 31.4082C164.129 31.1283 164.031 30.8125 164.031 30.4609C164.031 30.0247 164.161 29.6471 164.422 29.3281C164.689 29.0026 165.06 28.765 165.535 28.6152V28.4785C164.48 27.8665 163.953 26.9323 163.953 25.6758C163.953 24.6341 164.34 23.7943 165.115 23.1562C165.89 22.5182 166.896 22.1992 168.133 22.1992C168.842 22.1992 169.451 22.3132 169.959 22.541C170.167 21.9095 170.574 21.4049 171.18 21.0273C171.785 20.6497 172.492 20.4609 173.299 20.4609V22.4043C172.85 22.4043 172.443 22.4857 172.078 22.6484C171.72 22.8112 171.486 23.0163 171.375 23.2637C172.111 23.9212 172.479 24.7546 172.479 25.7637C172.479 26.7858 172.098 27.6191 171.336 28.2637C170.561 28.8887 169.568 29.2012 168.357 29.2012C167.856 29.2012 167.4 29.1556 166.99 29.0645C166.528 29.1621 166.297 29.4258 166.297 29.8555C166.297 30.3893 166.743 30.6562 167.635 30.6562H170.193C171.261 30.6562 172.091 30.9102 172.684 31.418C173.276 31.9193 173.572 32.6126 173.572 33.498C173.572 34.5723 173.104 35.3796 172.166 35.9199C171.229 36.4668 169.891 36.7402 168.152 36.7402C166.648 36.7402 165.506 36.5156 164.725 36.0664C163.943 35.6172 163.553 34.9889 163.553 34.1816ZM166.395 25.6953C166.395 26.2422 166.557 26.6784 166.883 27.0039C167.215 27.3229 167.658 27.4824 168.211 27.4824C168.777 27.4824 169.227 27.3197 169.559 26.9941C169.891 26.6686 170.057 26.2357 170.057 25.6953C170.057 25.1419 169.891 24.709 169.559 24.3965C169.227 24.0775 168.777 23.918 168.211 23.918C167.651 23.918 167.208 24.0807 166.883 24.4062C166.557 24.7318 166.395 25.1615 166.395 25.6953ZM165.838 33.7227C165.838 34.5365 166.652 34.9434 168.279 34.9434C170.167 34.9434 171.111 34.4941 171.111 33.5957C171.111 32.9447 170.685 32.6191 169.832 32.6191H167.254C166.31 32.6191 165.838 32.987 165.838 33.7227ZM179.246 28.459H181.941C181.98 29.3118 182.28 29.9661 182.84 30.4219C183.406 30.8711 184.207 31.0957 185.242 31.0957C186.16 31.0957 186.883 30.9004 187.41 30.5098C187.938 30.1191 188.201 29.5951 188.201 28.9375C188.201 28.2279 187.934 27.7428 187.4 27.4824C187.173 27.3392 186.977 27.2415 186.814 27.1895C186.658 27.1309 186.447 27.0755 186.18 27.0234L183.729 26.4961C183.475 26.444 183.152 26.3724 182.762 26.2812C182.586 26.2422 182.234 26.1087 181.707 25.8809C181.219 25.64 180.851 25.4056 180.604 25.1777C180.304 24.9043 180.053 24.5365 179.852 24.0742C179.65 23.6055 179.549 23.0944 179.549 22.541C179.549 21.2389 180.047 20.1973 181.043 19.416C182.033 18.6217 183.354 18.2246 185.008 18.2246C186.681 18.2246 188.006 18.6152 188.982 19.3965C189.965 20.1842 190.467 21.2259 190.486 22.5215H187.781C187.736 21.7988 187.456 21.2487 186.941 20.8711C186.434 20.4935 185.747 20.3047 184.881 20.3047C184.054 20.3047 183.416 20.4707 182.967 20.8027C182.524 21.1283 182.303 21.5872 182.303 22.1797C182.303 22.6354 182.482 23.0423 182.84 23.4004C183.029 23.5371 183.23 23.6445 183.445 23.7227C183.927 23.8789 184.308 23.9831 184.588 24.0352L187.088 24.543C188.312 24.7839 189.269 25.2493 189.959 25.9395C190.656 26.623 191.004 27.5312 191.004 28.6641C191.004 30.0964 190.477 31.2096 189.422 32.0039C188.393 32.7982 186.987 33.1953 185.203 33.1953C183.361 33.1953 181.902 32.7624 180.828 31.8965C179.793 31.0371 179.266 29.8913 179.246 28.459ZM192.664 27.7168C192.664 26.0827 193.143 24.7578 194.1 23.7422C195.07 22.7135 196.329 22.1992 197.879 22.1992C199.435 22.1992 200.688 22.7135 201.639 23.7422C202.602 24.7643 203.084 26.0892 203.084 27.7168C203.084 29.3379 202.602 30.6595 201.639 31.6816C200.708 32.6908 199.454 33.1953 197.879 33.1953C196.31 33.1953 195.05 32.6908 194.1 31.6816C193.143 30.666 192.664 29.3444 192.664 27.7168ZM200.545 27.6777C200.545 26.6426 200.304 25.8223 199.822 25.2168C199.347 24.6048 198.693 24.2988 197.859 24.2988C197.033 24.2988 196.382 24.6048 195.906 25.2168C195.424 25.8353 195.184 26.6621 195.184 27.6973C195.184 28.7324 195.415 29.5592 195.877 30.1777C196.352 30.7897 197.013 31.0957 197.859 31.0957C198.693 31.0957 199.347 30.7897 199.822 30.1777C200.304 29.5658 200.545 28.7324 200.545 27.6777ZM204.52 27.7168C204.52 26.0827 204.998 24.7578 205.955 23.7422C206.925 22.7135 208.185 22.1992 209.734 22.1992C211.29 22.1992 212.544 22.7135 213.494 23.7422C214.458 24.7643 214.939 26.0892 214.939 27.7168C214.939 29.3379 214.458 30.6595 213.494 31.6816C212.563 32.6908 211.31 33.1953 209.734 33.1953C208.165 33.1953 206.906 32.6908 205.955 31.6816C204.998 30.666 204.52 29.3444 204.52 27.7168ZM212.4 27.6777C212.4 26.6426 212.16 25.8223 211.678 25.2168C211.202 24.6048 210.548 24.2988 209.715 24.2988C208.888 24.2988 208.237 24.6048 207.762 25.2168C207.28 25.8353 207.039 26.6621 207.039 27.6973C207.039 28.7324 207.27 29.5592 207.732 30.1777C208.208 30.7897 208.868 31.0957 209.715 31.0957C210.548 31.0957 211.202 30.7897 211.678 30.1777C212.16 29.5658 212.4 28.7324 212.4 27.6777ZM219.588 33H217.117V22.4043H219.295L219.588 24.3574H219.754C220.086 23.6673 220.558 23.1367 221.17 22.7656C221.782 22.388 222.482 22.1992 223.27 22.1992C224.448 22.1992 225.353 22.5898 225.984 23.3711C226.616 24.1458 226.932 25.2168 226.932 26.584V33H224.432V26.8379C224.432 25.1452 223.706 24.2988 222.254 24.2988C221.447 24.2988 220.799 24.5885 220.311 25.168C219.829 25.7409 219.588 26.4928 219.588 27.4238V33Z" fill="#0053fa"/>
</g>
<defs>
<clipPath id="clip0_5509_8334">
<rect width="328" height="330" fill="white"/>
</clipPath>
</defs>
</svg>
