<svg width="100" height="100" viewBox="0 0 100 100" fill="none" xmlns="http://www.w3.org/2000/svg">
<path opacity="0.06" fill-rule="evenodd" clip-rule="evenodd" d="M78.7007 87.3415C87.478 79.4387 93 67.9658 93 55.1982C93 31.3589 73.7482 12.0332 50 12.0332C26.2518 12.0332 7 31.3589 7 55.1982C7 67.8239 12.3999 79.1835 21.0079 87.0767C34.7243 87.0612 66.0729 87.6288 78.7007 87.3415Z" fill="#B2B2B2"/>
<path d="M30.2021 36.8297C29.5218 36.8297 28.884 37.0288 28.3524 37.3786C27.8209 34.4994 25.3282 32.3145 22.3305 32.3145C19.3275 32.3145 16.8241 34.5048 16.3032 37.3948C15.6707 37.0342 14.9425 36.8297 14.1612 36.8297C11.7482 36.8297 9.79224 38.8102 9.79224 41.2535C9.79224 41.7271 9.86665 42.1845 10.0048 42.6151H32.7852C33.322 42.0015 33.6463 41.1943 33.6463 40.3117C33.6409 38.3904 32.1049 36.8297 30.2021 36.8297Z" fill="#FEFEFE" stroke="#886DE0" stroke-width="0.498323" stroke-linecap="round" stroke-linejoin="round"/>
<path d="M87.1385 28.356C86.6823 28.356 86.2547 28.4922 85.8984 28.7316C85.542 26.7616 83.8707 25.2666 81.8609 25.2666C79.8475 25.2666 78.1691 26.7653 77.8199 28.7426C77.3958 28.4959 76.9076 28.356 76.3838 28.356C74.766 28.356 73.4546 29.711 73.4546 31.3828C73.4546 31.7068 73.5045 32.0198 73.5971 32.3144H88.8703C89.2302 31.8946 89.4476 31.3423 89.4476 30.7384C89.4441 29.4238 88.4142 28.356 87.1385 28.356Z" fill="#FEFEFE" stroke="#886DE0" stroke-width="0.498323" stroke-linecap="round" stroke-linejoin="round"/>
<rect x="28.9207" y="82.7656" width="41.2741" height="2.23377" fill="#E4DCFF" stroke="#041630" stroke-width="0.5" stroke-linecap="round" stroke-linejoin="round"/>
<path d="M54.0948 58.9316C52.9606 54.3946 51.8263 35.8797 51.8263 26.8057L49.5578 28.3508L47.2893 26.8057C47.2893 35.8797 46.155 54.3946 45.0208 58.9316C43.8865 63.4686 41.618 68.0056 41.618 68.0056H46.155C46.155 68.0056 48.4236 62.1529 48.4236 58.7501H50.6921C50.6921 62.1529 52.9606 68.0056 52.9606 68.0056H57.4976C57.4976 68.0056 55.2291 63.4686 54.0948 58.9316ZM58.6319 70.1607H40.4838L33.6782 82.6375H39.3495C42.7523 75.832 44.5467 73.5635 49.5578 73.5635C54.569 73.5635 56.3633 75.832 59.7661 82.6375H65.4374L58.6319 70.1607Z" fill="white" stroke="black" stroke-width="0.5"/>
<path d="M53.0716 24.7772C53.0716 25.268 52.846 25.7317 52.4598 26.0347L50.5003 27.5715C49.8932 28.0476 49.0395 28.0476 48.4325 27.5715L46.4729 26.0347C46.0867 25.7317 45.8611 25.268 45.8611 24.7772C45.8611 24.2863 46.0867 23.8226 46.4729 23.5197L48.4325 21.9828C49.0395 21.5067 49.8932 21.5067 50.5003 21.9828L52.4598 23.5197C52.846 23.8226 53.0716 24.2863 53.0716 24.7772Z" fill="#886DE0" stroke="#041630" stroke-width="0.5" stroke-linecap="round" stroke-linejoin="round"/>
<path d="M53.6781 24.5883C53.6781 24.8727 53.4475 25.1033 53.1631 25.1033H45.9525C45.6681 25.1033 45.4375 24.8727 45.4375 24.5883C45.4375 24.3038 45.6681 24.0732 45.9525 24.0732H53.1631C53.4475 24.0732 53.6781 24.3038 53.6781 24.5883Z" fill="white" stroke="black" stroke-width="0.5"/>
<rect x="49.054" y="14.2822" width="1.00759" height="7.55695" rx="0.503797" stroke="black" stroke-width="0.5"/>
<path d="M39.6866 71.458C39.5486 71.4582 39.4368 71.5703 39.437 71.7084C39.4372 71.8465 39.5493 71.9582 39.6874 71.958L39.6866 71.458ZM39.6874 71.958L59.5652 71.9272L59.5644 71.4272L39.6866 71.458L39.6874 71.958Z" fill="black"/>
<path d="M51.7247 30.5578L49.5601 32.7641L51.9738 35.5911L49.5601 38.6839L52.2512 41.6438L49.5601 44.6037L52.6657 47.5636L49.5601 50.5235L53.2546 52.9541L49.5601 56.4433V28.3516L51.7247 30.5578Z" stroke="black" stroke-width="0.3" stroke-linejoin="round"/>
<path d="M47.3964 30.5578L49.561 32.7641L47.1473 35.5911L49.561 38.6839L46.8699 41.6438L49.561 44.6037L46.4554 47.5636L49.561 50.5235L45.8665 52.9541L49.561 56.4433V28.3516L47.3964 30.5578Z" stroke="black" stroke-width="0.3" stroke-linejoin="round"/>
<path d="M48.4574 58.7773L44.6277 60.622L47.8862 62.4667L43.4373 64.3114L46.7841 66.1561L41.6643 68.0008" stroke="black" stroke-width="0.3" stroke-linejoin="round"/>
<path d="M48.3447 58.8555L43.3567 64.343L46.0717 67.9828" stroke="black" stroke-width="0.3" stroke-linejoin="round"/>
<path d="M43.3281 75.9903H37.2851L45.35 71.7402L43.3281 75.9903ZM43.3281 75.9903L35.4146 79.2995H41.026L33.6782 82.4497" stroke="black" stroke-width="0.3" stroke-linejoin="round"/>
<path d="M39.351 82.7645L35.3225 79.3965" stroke="black" stroke-width="0.3" stroke-linejoin="round"/>
<path d="M41.002 79.3965L37.3352 76.0283" stroke="black" stroke-width="0.3" stroke-linejoin="round"/>
<path d="M43.3571 76.0286L39.687 71.709" stroke="black" stroke-width="0.3" stroke-linejoin="round"/>
<path d="M55.6736 75.9903H61.7166L53.6517 71.7402L55.6736 75.9903ZM55.6736 75.9903L63.5871 79.2995H57.9757L65.3235 82.4497" stroke="black" stroke-width="0.3" stroke-linejoin="round"/>
<path d="M59.6507 82.5966L63.6792 79.2285" stroke="black" stroke-width="0.3" stroke-linejoin="round"/>
<path d="M57.9995 79.3965L61.6663 76.0283" stroke="black" stroke-width="0.3" stroke-linejoin="round"/>
<path d="M55.6446 76.0286L59.3147 71.709" stroke="black" stroke-width="0.3" stroke-linejoin="round"/>
<path d="M50.6601 58.6562L54.5464 60.4869L51.336 62.9088L55.8286 64.3889L52.1013 65.4805L57.468 68.0143" stroke="black" stroke-width="0.3" stroke-linecap="round" stroke-linejoin="round"/>
<path d="M50.7727 58.7412L55.8418 64.3452L53.194 68.0612" stroke="black" stroke-width="0.3" stroke-linejoin="round"/>
<path d="M48.1721 56.4614L49.5775 28.3828L50.9829 56.4614H48.1721Z" fill="#E4DCFF" stroke="black" stroke-width="0.5"/>
<rect x="43.6802" y="56.4434" width="11.7553" height="2.18312" rx="1.09156" fill="#886DE0" stroke="#041630" stroke-width="0.5" stroke-linecap="round" stroke-linejoin="round"/>
<rect x="45.3594" y="43.8477" width="8.24064" height="1.03008" rx="0.51504" fill="#886DE0" stroke="#041630" stroke-width="0.5" stroke-linecap="round" stroke-linejoin="round"/>
<rect x="38.8103" y="68.0303" width="21.4953" height="2.09915" rx="1.04958" fill="#886DE0" stroke="#041630" stroke-width="0.5" stroke-linecap="round" stroke-linejoin="round"/>
</svg>
