<svg width="145" height="143" viewBox="0 0 145 143" fill="none" xmlns="http://www.w3.org/2000/svg">
<rect x="8.28979" y="3.79688" width="125.423" height="125.423" rx="62.7116" fill="#F8F6FF"/>
<path d="M111.145 103.268C112.085 104.19 112.088 105.697 111.166 106.638C110.244 107.579 108.737 107.606 107.797 106.684C106.856 105.762 106.841 104.243 107.763 103.302C108.685 102.361 110.204 102.346 111.145 103.268Z" fill="#C8B7FF"/>
<path d="M107.919 32.6111C107.919 33.9282 106.844 34.9854 105.527 34.9854C104.21 34.9854 103.153 33.9282 103.153 32.6111C103.153 31.294 104.21 30.2195 105.527 30.2195C106.844 30.2195 107.919 31.294 107.919 32.6111Z" fill="#C8B7FF"/>
<path d="M31.5362 44.8054C31.5362 46.1226 30.479 47.1797 29.1619 47.1797C27.8274 47.1797 26.7703 46.1226 26.7703 44.8054C26.7703 43.471 27.8274 42.4138 29.1619 42.4138C30.479 42.4138 31.5362 43.471 31.5362 44.8054Z" fill="#C8B7FF"/>
<path d="M31.5362 77.301C31.5362 78.6182 30.479 79.6927 29.1619 79.6927C27.8448 79.6927 26.7703 78.6182 26.7703 77.301C26.7703 75.9839 27.8448 74.9268 29.1619 74.9268C30.479 74.9268 31.5362 75.9839 31.5362 77.301Z" fill="#C8B7FF"/>
<path d="M109.487 104.985L93.1836 87.1237" stroke="#C8B7FF" stroke-width="0.34661" stroke-linecap="round" stroke-linejoin="round"/>
<path d="M30.6199 45.2959L46.0269 52.9435" stroke="#C8B7FF" stroke-width="0.34661" stroke-linecap="round" stroke-linejoin="round"/>
<mask id="mask0_1716_4163" style="mask-type:luminance" maskUnits="userSpaceOnUse" x="34" y="27" width="76" height="76">
<path d="M109.537 65.0189C109.537 85.7306 92.7469 102.52 72.0352 102.52C51.3218 102.52 34.532 85.7306 34.532 65.0189C34.532 44.3054 51.3218 27.5156 72.0352 27.5156C92.7469 27.5156 109.537 44.3054 109.537 65.0189Z" fill="white"/>
</mask>
<g mask="url(#mask0_1716_4163)">
<path d="M109.527 65.0189C109.527 85.7289 92.751 102.522 72.0237 102.522C51.3138 102.522 34.5378 85.7289 34.5378 65.0189C34.5378 44.3089 51.3138 27.5156 72.0237 27.5156C92.751 27.5156 109.527 44.3089 109.527 65.0189Z" fill="white"/>
</g>
<path d="M52.9277 42.8917C52.4945 42.5624 50.4148 43.273 50.4148 42.6491C50.4148 42.2331 51.8186 41.0893 52.0785 40.5694C52.4598 39.8242 52.2518 38.767 52.6158 38.0391C52.8064 37.6579 53.3437 36.7394 53.7942 36.3754C55.9086 34.5904 59.1147 32.6667 61.8009 32.528C62.7714 32.4761 64.0886 34.1398 64.2965 35.4222C64.4352 36.2021 64.2965 38.4724 63.6206 39.2696C62.5981 40.4654 60.3625 40.4828 59.184 41.4186C57.7976 42.5104 57.1217 45.0753 55.5273 45.9419C55.0767 46.1672 54.2448 45.6992 53.9502 45.4566C53.413 45.006 53.4303 43.2556 52.9277 42.8917Z" fill="#C8B7FF"/>
<path d="M96.4058 81.4535C96.2325 81.4015 95.8512 81.3841 95.6606 81.4881C95.0367 81.8521 94.1355 83.2038 93.8062 83.8624C93.4423 84.6249 93.009 86.2713 93.0437 86.9819C93.061 87.3805 93.2863 88.1777 93.6156 88.2124C93.8756 88.247 94.5341 87.7618 94.7594 87.4845C95.9552 86.046 97.3937 83.8104 97.2897 82.0254C97.2723 81.7654 96.6831 81.5228 96.4058 81.4535Z" fill="#C8B7FF"/>
<path d="M73.6721 47.1534C74.1227 47.1015 75.1105 46.8588 75.3878 46.4602C75.8384 45.8017 76.0117 43.826 75.5438 43.2714C75.3532 43.0288 74.6253 43.0808 74.3653 43.2887C74.0534 43.5487 74.14 44.6925 73.8107 44.9698C73.4988 45.2471 72.5803 44.8485 72.303 45.1778C72.0257 45.4897 71.939 46.5295 72.1643 46.8415C72.3723 47.1708 73.2735 47.1881 73.6721 47.1534Z" fill="#C8B7FF"/>
<path d="M96.0439 36.1867C95.6973 36.4814 95.3853 36.9146 95.368 37.3132C95.3506 37.6252 95.9745 38.509 95.8879 38.769C95.6972 39.4449 94.1375 39.9128 93.3576 39.4969C93.115 39.3582 92.907 38.6303 92.6817 38.4744C91.7112 37.7985 89.8742 38.2491 88.9384 38.1971C88.6091 38.1797 87.9332 38.2144 87.6039 38.1278C86.0268 37.6425 84.3804 35.9961 82.7687 35.9268C81.9715 35.8921 80.1518 37.0533 79.5972 37.9025C78.852 39.0116 78.3321 40.5887 78.3321 41.9231C78.3494 42.5124 78.8867 43.7775 79.3546 44.1068C79.8225 44.4361 81.1396 44.4881 81.5729 44.1241C81.8848 43.8642 81.7115 42.755 81.9542 42.4431C82.2314 42.0964 83.2019 41.5245 83.4966 41.8018C84.3978 42.6337 84.6057 44.9733 84.0685 45.9958C83.4792 47.0876 81.0703 48.2141 79.8225 47.6249C79.3719 47.4169 79.7532 45.6839 79.3546 45.2853C78.9906 44.904 77.7948 44.592 77.4136 44.956C76.9456 45.3892 77.7255 47.0876 77.3616 47.6249C76.9283 48.2315 75.2646 48.0408 74.6927 48.4914C74.2594 48.8207 73.5489 49.8085 73.4969 50.3458C73.4449 50.8137 74.4847 51.6109 74.2247 52.0095C73.8608 52.5814 72.0931 51.5242 71.6425 52.0442C71.0706 52.7374 71.4865 54.9904 72.1451 55.5449C72.6303 55.9609 74.2421 55.9435 74.7793 55.5276C75.1606 55.233 74.918 53.9679 75.3166 53.6732C75.8191 53.3093 77.1536 53.9852 77.7428 53.8465C78.2108 53.7252 78.9213 52.7547 79.3719 52.824C79.9958 52.9454 80.897 54.1931 81.0183 54.8517C81.105 55.337 80.0131 56.3595 80.3771 56.6887C80.8103 57.1047 82.3008 56.2381 82.5087 55.6836C82.786 54.9904 81.2263 53.5346 81.4862 52.8414C81.5729 52.5814 82.1795 52.2695 82.4394 52.3388C83.3406 52.5467 83.8952 55.1117 84.8137 55.3716C85.4549 55.5449 86.5814 54.2278 87.2226 54.3838C88.0025 54.5744 89.233 55.9782 89.4756 56.7407C89.6489 57.278 89.4409 58.5778 89.0597 58.907C87.7599 60.0682 85.3509 60.3282 83.5659 60.2242C82.734 60.1722 81.001 59.479 80.3944 58.8724C79.9611 58.4565 79.8745 56.966 79.3892 56.6887C78.1241 55.9609 76.1311 56.0822 74.762 56.5328C72.3184 57.33 69.3549 59.6523 67.9858 61.9052C67.5005 62.7198 67.9858 64.9207 67.5005 65.7353C67.3445 65.9779 66.634 66.1165 66.5127 66.3938C66.0967 67.191 66.2007 69.2534 66.6513 70.0332C67.4832 71.489 69.2856 72.9101 70.776 73.4127C72.4744 74.0019 74.814 73.0488 76.6164 73.4647C77.1883 73.6033 78.4187 74.2619 78.7307 74.8165C79.1466 75.5443 78.5054 77.4334 78.904 78.1786C79.2159 78.7678 80.9663 78.7505 81.2263 79.3397C82.1101 81.4541 79.9958 84.2963 80.3078 86.5492C80.4291 87.3118 81.6075 88.5076 81.7115 89.2181C81.9195 90.5699 81.1743 92.3723 81.6942 93.5854C82.0408 94.3653 84.0511 94.6772 84.7964 94.2786C86.4254 93.4294 88.2105 91.3844 88.973 89.7554C89.6662 88.2476 89.0597 85.9253 89.8222 84.6255C90.4288 83.5684 92.4045 83.0658 93.0457 82.0086C94.0162 80.4315 93.271 77.5374 94.1895 75.9083C94.9 74.6258 96.9797 73.8806 97.6556 72.5288C97.9329 72.0089 97.7942 70.4145 97.413 70.1026C96.4598 69.3227 94.2415 69.8599 93.3403 69.0107C92.9417 68.6468 93.5309 66.9831 93.271 66.3765C93.0457 65.8046 91.8325 65.146 91.6419 64.5568C91.4166 63.9329 91.3126 62.3732 91.7979 61.9052C92.0059 61.7146 92.7337 61.7839 92.9764 61.9226C94.2761 62.6504 95.368 64.2622 95.8012 65.7006C95.9572 66.1859 95.2813 67.399 95.5586 67.8323C95.7666 68.1615 96.6504 68.3695 97.0317 68.3175C98.7128 68.0576 101.572 66.7924 101.85 65.4926C102.179 63.8982 97.8289 62.0959 98.2968 60.3108C98.4355 59.7389 100.654 59.7562 101.295 60.1722C101.746 60.4668 101.711 61.7319 102.04 62.1132C102.924 63.153 104.311 63.8636 105.558 64.5221C106.148 64.8168 107.707 64.9034 108.037 65.4407C108.47 66.1512 107.222 68.0056 107.465 68.7508C107.707 69.4613 108.262 70.5532 108.99 71.4024C109.336 69.3227 109.527 67.1737 109.527 64.9901C109.527 53.4133 104.293 43.067 96.0439 36.1867Z" fill="#C8B7FF"/>
<path d="M52.4056 89.232C51.0018 87.8976 49.3728 85.8006 49.2341 84.1195C49.0435 82.1785 52.8389 81.2947 53.0468 79.1283C53.1161 78.3485 51.2271 76.2861 51.3831 75.4716C51.5391 74.6224 53.6361 73.8079 53.5494 72.924C53.3588 71.1216 51.4351 69.0766 49.9273 68.1061C49.1128 67.5689 46.7558 68.2274 46.0453 67.5515C45.6987 67.2223 46.2533 66.1651 45.9066 65.8532C45.4561 65.4719 44.1043 66.0438 43.5497 65.8185C42.9258 65.5585 42.2499 64.2068 41.6433 63.9988C39.581 63.3056 36.5655 65.004 34.5378 64.2068C34.5378 64.4609 34.5378 64.7209 34.5378 64.9866C34.5378 65.0444 34.5378 65.1079 34.5378 65.1773C34.8671 65.3332 35.2831 65.7318 35.387 65.9745C35.543 66.4077 35.2657 67.3782 34.9364 67.6555C34.8845 67.7075 34.7631 67.7422 34.6245 67.7595C34.7054 68.8224 34.8325 69.8796 35.0058 70.931C36.0283 71.5722 37.3974 72.0228 38.0733 72.924C38.4719 73.4613 37.6053 74.7437 38.0733 75.281C39.0091 76.3381 41.1061 76.4248 42.1459 77.3606C44.5549 79.5443 44.9535 83.9635 47.6744 86.4591C48.1423 86.9097 49.2861 87.3257 49.7367 87.7763C50.3952 88.4175 50.6725 89.596 51.3658 90.2025C52.5789 91.2597 54.6239 92.9754 55.733 92.8888C55.941 92.8714 55.1785 91.1384 54.5199 90.4625C54.052 89.9599 52.9082 89.7173 52.4056 89.232Z" fill="#C8B7FF"/>
<path d="M35.924 58.2362C36.1319 58.3228 36.7212 58.3575 36.9118 58.2015C37.397 57.8202 36.9811 56.6071 37.3624 56.1738C39.0434 54.3888 42.4229 54.5101 43.9826 52.5691C44.4332 52.0318 43.7573 50.6281 44.3466 50.2121C46.2183 48.9123 49.1991 51.6159 50.8455 50.4374C51.816 49.7442 52.6826 47.3179 52.232 46.2261C52.1453 46.0181 51.0881 46.5034 50.8802 46.3474C50.4469 46.0528 51.1575 44.1464 50.7762 44.0251C49.6497 43.6439 47.7954 44.6317 46.6169 45.2729C46.2876 45.4462 45.7157 46.1568 45.4037 46.2608C44.7452 46.4687 43.4281 46.0181 43.7747 45.5329C44.5545 44.4584 46.5822 44.1811 47.7087 43.3146C48.6792 42.5694 50.4123 40.9923 50.3949 40.1777C50.3603 39.0686 45.681 40.3164 44.5199 40.9056C43.8267 41.2522 42.3362 42.6907 41.6257 43.0373C38.6102 47.2139 36.4265 52.0318 35.3347 57.2483C35.4907 57.6469 35.6293 58.1148 35.924 58.2362Z" fill="#C8B7FF"/>
<path d="M47.9478 107.021L53.7246 97.7136" stroke="#886DE0" stroke-width="0.34661" stroke-linecap="round" stroke-linejoin="round"/>
<path d="M30.9382 76.5324L39.1625 73.3481" stroke="#C8B7FF" stroke-width="0.34661" stroke-linecap="round" stroke-linejoin="round"/>
<path d="M46.9868 23.1536L55.3311 35.991" stroke="#886DE0" stroke-width="0.34661" stroke-linecap="round" stroke-linejoin="round"/>
<path d="M121.121 64.3389H109.567" stroke="#886DE0" stroke-width="0.34661" stroke-linecap="round" stroke-linejoin="round"/>
<path d="M98.9792 38.8763L103.949 33.9971" stroke="#C8B7FF" stroke-width="0.34661" stroke-linecap="round" stroke-linejoin="round"/>
<path d="M140.062 64.606C140.062 69.8398 135.816 74.0858 130.582 74.0858C125.348 74.0858 121.102 69.8398 121.102 64.606C121.102 59.3722 125.348 55.1262 130.582 55.1262C135.816 55.1262 140.062 59.3722 140.062 64.606Z" fill="#886DE0"/>
<path opacity="0.2" d="M140.062 64.606C140.062 69.8398 135.816 74.0858 130.582 74.0858C125.348 74.0858 121.102 69.8398 121.102 64.606C121.102 59.3722 125.348 55.1262 130.582 55.1262C135.816 55.1262 140.062 59.3722 140.062 64.606Z" fill="#FEBFAA"/>
<mask id="mask1_1716_4163" style="mask-type:luminance" maskUnits="userSpaceOnUse" x="128" y="70" width="6" height="5">
<path d="M130.628 74.1455C131.506 74.1455 132.359 74.0225 133.167 73.7972L132.64 70.7002L128.172 70.9671L128 73.7729C128.836 74.0138 129.716 74.1455 130.628 74.1455Z" fill="white"/>
</mask>
<g mask="url(#mask1_1716_4163)">
<path d="M127.29 70.7175C128.104 72.0693 129.3 72.9358 130.634 72.9358C131.969 72.9358 133.165 72.0693 133.979 70.7175H127.29Z" fill="#263238" stroke="#263238" stroke-width="0.34661" stroke-linecap="round" stroke-linejoin="round"/>
<path d="M130.637 74.1497C131.503 74.1497 132.352 74.0284 133.167 73.8031L132.647 70.7009L128.176 70.9609L128.002 73.7684C128.834 74.0111 129.718 74.1497 130.637 74.1497Z" fill="#FEBFAA"/>
</g>
<path d="M135.918 65.7068C135.745 65.6201 135.537 65.6028 135.329 65.6548C135.207 62.258 133.093 59.5371 130.493 59.5371C127.894 59.5371 125.762 62.258 125.658 65.6548C125.45 65.6028 125.242 65.6201 125.052 65.7068C124.549 65.9494 124.41 66.7119 124.74 67.4052C125.017 67.9597 125.52 68.289 125.97 68.2544C126.663 70.6806 128.414 72.3964 130.493 72.3964C132.556 72.3964 134.323 70.6806 135.017 68.2544C135.467 68.289 135.952 67.9597 136.23 67.4052C136.576 66.7119 136.438 65.9494 135.918 65.7068Z" fill="#FFCDBC"/>
<path d="M125.991 65.6379C126.338 65.6726 127.36 63.3849 126.962 61.8772C126.563 60.3521 130.359 61.5132 132.733 61.2359C135.09 60.9587 133.547 64.5807 134.882 65.4473C136.216 66.2965 135.904 60.1788 134.639 59.9881C134.639 59.9881 133.686 58.1684 129.995 58.3244C126.303 58.4804 125.801 60.82 125.801 60.82C125.801 60.82 123.998 65.4473 125.991 65.6379Z" fill="#263238" stroke="#263238" stroke-width="0.34661" stroke-linecap="round" stroke-linejoin="round"/>
<path d="M52.4889 14.2057C52.4889 20.0287 47.775 24.7426 41.9693 24.7426C36.1463 24.7426 31.4324 20.0287 31.4324 14.2057C31.4324 8.3826 36.1463 3.6687 41.9693 3.6687C47.775 3.6687 52.4889 8.3826 52.4889 14.2057Z" fill="#886DE0"/>
<path opacity="0.3" d="M52.4889 14.2057C52.4889 20.0287 47.775 24.7426 41.9693 24.7426C36.1463 24.7426 31.4324 20.0287 31.4324 14.2057C31.4324 8.3826 36.1463 3.6687 41.9693 3.6687C47.775 3.6687 52.4889 8.3826 52.4889 14.2057Z" fill="#FEBFAA"/>
<mask id="mask2_1716_4163" style="mask-type:luminance" maskUnits="userSpaceOnUse" x="38" y="20" width="7" height="5">
<path d="M41.8276 24.807C42.8068 24.807 43.7513 24.6701 44.6508 24.4206L44.0632 20.9805L39.1015 21.2751L38.9109 24.3946C39.8381 24.6615 40.8155 24.807 41.8276 24.807Z" fill="white"/>
</mask>
<g mask="url(#mask2_1716_4163)">
<path d="M38.1199 21.4939C39.0384 23.0017 40.3555 23.9548 41.8459 23.9548C43.319 23.9548 44.6535 23.0017 45.5547 21.4939H38.1199Z" fill="#263238" stroke="#263238" stroke-width="0.34661" stroke-linecap="round" stroke-linejoin="round"/>
<path d="M41.8283 24.8103C42.7988 24.8103 43.752 24.6716 44.6531 24.429L44.0639 20.9802L39.1074 21.2748L38.9167 24.3943C39.8353 24.6543 40.8231 24.8103 41.8283 24.8103Z" fill="#FEBFAA"/>
</g>
<path d="M46.7606 9.77072C46.7606 9.77072 51.5611 18.296 48.5803 20.3064C45.4261 22.4554 37.87 22.5767 35.4784 19.9771C33.0868 17.3775 35.4957 12.5609 36.5182 11.2785C37.5407 9.99601 39.1351 9.09483 39.1351 9.09483L42.4106 8.38428L45.7554 9.59741L46.7606 9.77072Z" fill="#263238" stroke="#263238" stroke-width="0.34661" stroke-linecap="round" stroke-linejoin="round"/>
<path d="M47.9026 15.4979C47.6946 15.3939 47.4694 15.3939 47.2441 15.4459C47.1054 11.6679 44.7485 8.63501 41.8716 8.63501C38.9774 8.63501 36.6205 11.6679 36.4818 15.4459C36.2565 15.3939 36.0312 15.3939 35.8233 15.4979C35.2687 15.7752 35.1127 16.6244 35.4766 17.3869C35.7886 17.9935 36.3432 18.3574 36.8284 18.3401C37.6083 21.0263 39.5666 22.9327 41.8716 22.9327C44.1592 22.9327 46.1176 21.0263 46.8974 18.3401C47.3827 18.3574 47.9373 17.9935 48.2492 17.3869C48.6132 16.6244 48.4745 15.7752 47.9026 15.4979Z" fill="#FFCDBC"/>
<path d="M40.2249 10.4472C40.2249 10.4472 42.7032 13.6187 45.0081 13.8267C47.3131 14.052 45.788 18.6619 45.0081 18.8179C45.0081 18.8179 47.0704 18.8872 47.2437 15.4037C47.2437 15.4037 50.1206 10.6898 45.2334 8.69683C41.4727 7.13709 39.5837 8.59285 39.5837 8.59285C39.5837 8.59285 34.8004 9.78865 36.0482 14.6585C36.0482 14.6585 36.8974 17.2061 37.7986 17.5181C37.7986 17.5181 36.4642 14.6239 37.764 13.0641C39.0811 11.5217 40.1036 11.591 40.2249 10.4472Z" fill="#263238" stroke="#263238" stroke-width="0.34661" stroke-linecap="round" stroke-linejoin="round"/>
<path d="M52.9399 115.633C52.9399 121.456 48.226 126.17 42.4029 126.17C36.5799 126.17 31.866 121.456 31.866 115.633C31.866 109.828 36.5799 105.114 42.4029 105.114C48.226 105.114 52.9399 109.828 52.9399 115.633Z" fill="#886DE0"/>
<path opacity="0.2" d="M52.9399 115.633C52.9399 121.456 48.226 126.17 42.4029 126.17C36.5799 126.17 31.866 121.456 31.866 115.633C31.866 109.828 36.5799 105.114 42.4029 105.114C48.226 105.114 52.9399 109.828 52.9399 115.633Z" fill="#FEBFAA"/>
<mask id="mask3_1716_4163" style="mask-type:luminance" maskUnits="userSpaceOnUse" x="39" y="122" width="7" height="5">
<path d="M42.4038 126.142C43.383 126.142 44.3275 126.007 45.2269 125.757L44.6394 122.315L39.6777 122.61L39.4871 125.73C40.4142 125.996 41.3917 126.142 42.4038 126.142Z" fill="white"/>
</mask>
<g mask="url(#mask3_1716_4163)">
<path d="M38.7097 122.825C39.6109 124.333 40.928 125.286 42.4184 125.286C43.8915 125.286 45.226 124.333 46.1272 122.825H38.7097Z" fill="#263238" stroke="#263238" stroke-width="0.34661" stroke-linecap="round" stroke-linejoin="round"/>
<path d="M42.3986 126.142C43.3864 126.142 44.3223 126.003 45.2235 125.761L44.6342 122.312L39.6777 122.607L39.4871 125.726C40.4056 126.003 41.3934 126.142 42.3986 126.142Z" fill="#FEBFAA"/>
</g>
<path d="M48.4462 117.032C48.2382 116.928 47.9956 116.928 47.7703 116.98C47.649 113.202 45.2921 110.169 42.3979 110.169C39.521 110.169 37.164 113.202 37.0254 116.98C36.8001 116.928 36.5575 116.928 36.3668 117.032C35.7949 117.309 35.639 118.158 36.0202 118.921C36.3149 119.527 36.8694 119.891 37.372 119.874C38.1519 122.56 40.1102 124.466 42.3979 124.466C44.7028 124.466 46.6612 122.56 47.4237 119.874C47.9263 119.891 48.4809 119.527 48.7755 118.921C49.1568 118.158 49.0008 117.309 48.4462 117.032Z" fill="#FFCDBC"/>
<path d="M36.512 116.217C36.512 116.217 37.3439 117.898 37.7945 117.759C38.2277 117.603 37.5865 114.484 38.6783 113.687C39.7528 112.889 43.4962 113.929 45.0386 112.595C45.0386 112.595 45.004 114.432 46.0438 115.281C47.0663 116.13 46.685 117.846 47.1703 117.759C47.6729 117.655 47.8115 116.408 47.9155 115.888C48.2101 114.311 48.6434 109.839 45.9918 109.839C45.9918 109.839 45.3506 108.903 41.5032 109.007C37.6385 109.111 37.5345 108.02 37.5345 108.02C37.5345 108.02 34.5883 112.11 36.512 116.217Z" fill="#263238" stroke="#263238" stroke-width="0.34661" stroke-linecap="round" stroke-linejoin="round"/>
</svg>
