<svg xmlns="http://www.w3.org/2000/svg" width="198" height="8" viewBox="0 0 198 8" fill="none">
<rect width="189" height="8" fill="#0053fa"/>
<mask id="mask0_5579_15554" style="mask-type:alpha" maskUnits="userSpaceOnUse" x="0" y="0" width="198" height="8">
<rect width="198" height="8" fill="#0053fa"/>
</mask>
<g mask="url(#mask0_5579_15554)">
<rect x="4.19336" y="8.51953" width="12.1008" height="3" transform="rotate(-60 4.19336 8.51953)" fill="#B19CF3"/>
<rect x="11.1934" y="8.51953" width="12.1008" height="3" transform="rotate(-60 11.1934 8.51953)" fill="#B19CF3"/>
<rect x="18.1934" y="8.51953" width="12.1008" height="3" transform="rotate(-60 18.1934 8.51953)" fill="#B19CF3"/>
<rect x="25.1934" y="8.51953" width="12.1008" height="3" transform="rotate(-60 25.1934 8.51953)" fill="#B19CF3"/>
<rect x="32.1934" y="8.51953" width="12.1008" height="3" transform="rotate(-60 32.1934 8.51953)" fill="#B19CF3"/>
<rect x="39.1934" y="8.51953" width="12.1008" height="3" transform="rotate(-60 39.1934 8.51953)" fill="#B19CF3"/>
<rect x="46.1934" y="8.51953" width="12.1008" height="3" transform="rotate(-60 46.1934 8.51953)" fill="#B19CF3"/>
<rect x="53.1934" y="8.51953" width="12.1008" height="3" transform="rotate(-60 53.1934 8.51953)" fill="#B19CF3"/>
<rect x="60.1934" y="8.51953" width="12.1008" height="3" transform="rotate(-60 60.1934 8.51953)" fill="#B19CF3"/>
<rect x="67.1934" y="8.51953" width="12.1008" height="3" transform="rotate(-60 67.1934 8.51953)" fill="#B19CF3"/>
<rect x="74.1934" y="8.51953" width="12.1008" height="3" transform="rotate(-60 74.1934 8.51953)" fill="#B19CF3"/>
<rect x="81.1934" y="8.51953" width="12.1008" height="3" transform="rotate(-60 81.1934 8.51953)" fill="#B19CF3"/>
<rect x="88.1934" y="8.51953" width="12.1008" height="3" transform="rotate(-60 88.1934 8.51953)" fill="#B19CF3"/>
<rect x="95.1934" y="8.51953" width="12.1008" height="3" transform="rotate(-60 95.1934 8.51953)" fill="#B19CF3"/>
<rect x="102.193" y="8.51953" width="12.1008" height="3" transform="rotate(-60 102.193 8.51953)" fill="#B19CF3"/>
<rect x="109.193" y="8.51953" width="12.1008" height="3" transform="rotate(-60 109.193 8.51953)" fill="#B19CF3"/>
<rect x="116.193" y="8.51953" width="12.1008" height="3" transform="rotate(-60 116.193 8.51953)" fill="#B19CF3"/>
<rect x="123.193" y="8.51953" width="12.1008" height="3" transform="rotate(-60 123.193 8.51953)" fill="#B19CF3"/>
<rect x="130.193" y="8.51953" width="12.1008" height="3" transform="rotate(-60 130.193 8.51953)" fill="#B19CF3"/>
<rect x="137.193" y="8.51953" width="12.1008" height="3" transform="rotate(-60 137.193 8.51953)" fill="#B19CF3"/>
<rect x="144.193" y="8.51953" width="12.1008" height="3" transform="rotate(-60 144.193 8.51953)" fill="#B19CF3"/>
<rect x="151.193" y="8.51953" width="12.1008" height="3" transform="rotate(-60 151.193 8.51953)" fill="#B19CF3"/>
<rect x="158.193" y="8.51953" width="12.1008" height="3" transform="rotate(-60 158.193 8.51953)" fill="#B19CF3"/>
<rect x="165.193" y="8.51953" width="12.1008" height="3" transform="rotate(-60 165.193 8.51953)" fill="#B19CF3"/>
<rect x="172.193" y="8.51953" width="12.1008" height="3" transform="rotate(-60 172.193 8.51953)" fill="#B19CF3"/>
<rect x="179.193" y="8.51953" width="12.1008" height="3" transform="rotate(-60 179.193 8.51953)" fill="#B19CF3"/>
</g>
</svg>