<svg width="152" height="141" viewBox="0 0 152 141" fill="none" xmlns="http://www.w3.org/2000/svg">
<rect x="6.63184" y="4.12036" width="129.11" height="129.11" rx="64.5549" fill="#F8F6FF"/>
<path fill-rule="evenodd" clip-rule="evenodd" d="M32.2933 100.817H119.065C121.779 100.817 123.979 98.8283 123.979 96.3775V43.6946C123.979 41.2438 121.779 39.2554 119.065 39.2554H32.2933C29.5796 39.2554 27.3799 41.2438 27.3799 43.6946V96.3775C27.3799 98.8283 29.5796 100.817 32.2933 100.817Z" fill="#C9B8FF"/>
<path d="M31.2395 94.3537C31.2395 95.6353 32.2784 96.6742 33.56 96.6742H117.79C119.072 96.6742 120.111 95.6353 120.111 94.3537V45.4445C120.111 44.1629 119.072 43.124 117.79 43.124H33.56C32.2784 43.124 31.2395 44.1629 31.2395 45.4445V94.3537Z" fill="white"/>
<path fill-rule="evenodd" clip-rule="evenodd" d="M80.6284 87.5864C80.6284 88.0434 80.9989 88.4139 81.456 88.4139H101.482C101.94 88.4139 102.31 88.0434 102.31 87.5864C102.31 87.1293 101.94 86.7588 101.482 86.7588H81.456C80.9989 86.7588 80.6284 87.1293 80.6284 87.5864Z" fill="#E0D7FF"/>
<path fill-rule="evenodd" clip-rule="evenodd" d="M57.0272 69.1367C57.7738 69.1367 58.3791 68.5314 58.3791 67.7848V66.3506C58.3791 65.604 57.7738 64.9988 57.0272 64.9988H43.1797C42.4331 64.9988 41.8279 65.604 41.8279 66.3506V67.7848C41.8279 68.5314 42.4331 69.1367 43.1797 69.1367H57.0272Z" fill="#E0D7FF"/>
<path fill-rule="evenodd" clip-rule="evenodd" d="M73.1646 69.1369C73.9112 69.1369 74.5164 68.5317 74.5164 67.7851V66.3509C74.5164 65.6043 73.9112 64.999 73.1646 64.999H63.4549C62.7083 64.999 62.103 65.6043 62.103 66.3509V67.7851C62.103 68.5317 62.7083 69.1369 63.4549 69.1369H73.1646Z" fill="#E0D7FF"/>
<path fill-rule="evenodd" clip-rule="evenodd" d="M72.7796 61.164C73.1988 61.164 73.5387 60.8242 73.5387 60.4049V50.5975C73.5387 50.1782 73.1988 49.8384 72.7796 49.8384H42.5867C42.1675 49.8384 41.8276 50.1782 41.8276 50.5975V60.4049C41.8276 60.8242 42.1675 61.164 42.5867 61.164H72.7796Z" fill="#EAE4FF"/>
<path fill-rule="evenodd" clip-rule="evenodd" d="M60.4036 79.6475C60.6892 79.6475 60.9207 79.416 60.9207 79.1304V73.4691C60.9207 73.1836 60.6892 72.9521 60.4036 72.9521H54.3974C54.1119 72.9521 53.8804 73.1836 53.8804 73.4691V79.1304C53.8804 79.416 54.1119 79.6475 54.3974 79.6475H60.4036Z" fill="#CBC0EF"/>
<path fill-rule="evenodd" clip-rule="evenodd" d="M70.9505 79.6475C71.2361 79.6475 71.4676 79.416 71.4676 79.1304V73.4691C71.4676 73.1836 71.2361 72.9521 70.9505 72.9521H64.9443C64.6587 72.9521 64.4272 73.1836 64.4272 73.4691V79.1304C64.4272 79.416 64.6587 79.6475 64.9443 79.6475H70.9505Z" fill="#CBC0EF" stroke="#CBC0EF" stroke-width="0.103408"/>
<path fill-rule="evenodd" clip-rule="evenodd" d="M49.638 79.6475C49.9236 79.6475 50.1551 79.416 50.1551 79.1304V73.4691C50.1551 73.1836 49.9236 72.9521 49.638 72.9521H43.6318C43.3462 72.9521 43.1147 73.1836 43.1147 73.4691V79.1304C43.1147 79.416 43.3462 79.6475 43.6318 79.6475H49.638Z" fill="#E0D7FF"/>
<path fill-rule="evenodd" clip-rule="evenodd" d="M41.8279 89.2929C41.8279 89.75 42.1984 90.1205 42.6555 90.1205H62.4519C62.9089 90.1205 63.2794 89.75 63.2794 89.2929C63.2794 88.8359 62.9089 88.4653 62.4519 88.4653H42.6555C42.1984 88.4653 41.8279 88.8359 41.8279 89.2929Z" fill="#E0D7FF"/>
<path fill-rule="evenodd" clip-rule="evenodd" d="M41.8279 84.2829C41.8279 84.74 42.1984 85.1105 42.6555 85.1105H69.6024C70.0594 85.1105 70.43 84.74 70.43 84.2829C70.43 83.8258 70.0594 83.4553 69.6024 83.4553H42.6555C42.1984 83.4553 41.8279 83.8258 41.8279 84.2829Z" fill="#E0D7FF"/>
<path fill-rule="evenodd" clip-rule="evenodd" d="M80.6265 50.666C80.6265 51.123 80.997 51.4935 81.454 51.4935H108.708C109.165 51.4935 109.535 51.123 109.535 50.666C109.535 50.2089 109.165 49.8384 108.708 49.8384H81.454C80.997 49.8384 80.6265 50.2089 80.6265 50.666Z" fill="#E0D7FF"/>
<path fill-rule="evenodd" clip-rule="evenodd" d="M80.6245 58.0449C80.6245 58.5019 80.995 58.8724 81.4521 58.8724H108.706C109.163 58.8724 109.533 58.5019 109.533 58.0449C109.533 57.5878 109.163 57.2173 108.706 57.2173H81.4521C80.995 57.2173 80.6245 57.5878 80.6245 58.0449Z" fill="#E0D7FF"/>
<path fill-rule="evenodd" clip-rule="evenodd" d="M80.6265 65.4355C80.6265 65.8925 80.997 66.2631 81.454 66.2631H108.708C109.165 66.2631 109.535 65.8925 109.535 65.4355C109.535 64.9784 109.165 64.6079 108.708 64.6079H81.454C80.997 64.6079 80.6265 64.9784 80.6265 65.4355Z" fill="#E0D7FF"/>
<path fill-rule="evenodd" clip-rule="evenodd" d="M80.6245 72.8093C80.6245 73.2663 80.995 73.6368 81.4521 73.6368H108.706C109.163 73.6368 109.533 73.2663 109.533 72.8093C109.533 72.3522 109.163 71.9817 108.706 71.9817H81.4521C80.995 71.9817 80.6245 72.3522 80.6245 72.8093Z" fill="#E0D7FF"/>
<path fill-rule="evenodd" clip-rule="evenodd" d="M80.6284 80.1948C80.6284 80.6518 80.9989 81.0223 81.456 81.0223H108.71C109.167 81.0223 109.537 80.6518 109.537 80.1948C109.537 79.7377 109.167 79.3672 108.71 79.3672H81.456C80.9989 79.3672 80.6284 79.7377 80.6284 80.1948Z" fill="#E0D7FF"/>
<g filter="url(#filter0_d_1716_4387)">
<g filter="url(#filter1_d_1716_4387)">
<path d="M60.0392 42.9848C60.0392 46.0779 57.5318 48.58 54.4386 48.58H16.9961C13.903 48.58 11.3955 46.0779 11.3955 42.9848C11.3955 34.805 11.3955 20.2462 11.3955 12.28C11.3955 9.18692 13.903 6.69141 16.9961 6.69141H54.4386C57.5318 6.69141 60.0392 9.18692 60.0392 12.28C60.0392 20.2462 60.0392 34.805 60.0392 42.9848Z" fill="#EEE9FF"/>
</g>
<path d="M56.983 6.85132C57.6802 6.85132 58.2455 7.41654 58.2455 8.11379V42.0852C58.2455 42.7824 57.6802 43.3477 56.983 43.3477H16.1069C15.4097 43.3477 14.8445 42.7824 14.8445 42.0852V8.11379C14.8445 7.41654 15.4097 6.85132 16.1069 6.85132H56.983Z" fill="white"/>
<rect x="27.8975" y="30.9871" width="10.4291" height="12.8495" rx="1.53692" fill="#E0D7FF" stroke="white" stroke-width="0.126247"/>
<rect x="29.5361" y="34.9875" width="7.1501" height="0.58229" rx="0.291145" fill="white"/>
<rect x="29.5361" y="32.8984" width="3.76676" height="0.58229" rx="0.291145" fill="white"/>
<rect x="29.5361" y="39.1536" width="7.1501" height="0.58229" rx="0.291145" fill="white"/>
<rect x="29.5361" y="37.0776" width="7.1501" height="0.58229" rx="0.291145" fill="white"/>
<rect x="29.5361" y="41.2495" width="7.1501" height="0.58229" rx="0.291145" fill="white"/>
<rect x="16.3096" y="33.0913" width="10.4291" height="10.5988" rx="1.53692" fill="#E0D7FF" stroke="white" stroke-width="0.126247"/>
<rect x="17.9482" y="34.8364" width="7.1501" height="0.58229" rx="0.291145" fill="white"/>
<rect x="17.9482" y="39.0032" width="7.1501" height="0.58229" rx="0.291145" fill="white"/>
<rect x="17.9463" y="36.9338" width="7.1501" height="0.58229" rx="0.291145" fill="white"/>
<rect x="17.9463" y="41.0999" width="7.1501" height="0.58229" rx="0.291145" fill="white"/>
<path d="M49.8002 15.9652L54.1126 13.3277C54.1331 13.3152 54.1568 13.3084 54.1811 13.3081C54.2053 13.3078 54.2292 13.3139 54.25 13.3259C54.2708 13.3378 54.2878 13.355 54.299 13.3756C54.3101 13.3962 54.3151 13.4194 54.3133 13.4425L53.8903 18.3222C53.8885 18.3434 53.881 18.3638 53.8687 18.3815C53.8563 18.3992 53.8394 18.4136 53.8196 18.4234C53.7998 18.4331 53.7777 18.4378 53.7555 18.4371C53.7333 18.4364 53.7116 18.4302 53.6925 18.4193L52.127 17.5169L48.4683 23.8444C48.4588 23.8609 48.4455 23.8751 48.4295 23.8859C48.4134 23.8968 48.3951 23.904 48.3757 23.9072C48.3563 23.9103 48.3364 23.9092 48.3176 23.904C48.2987 23.8988 48.2813 23.8895 48.2666 23.877L41.9395 18.4743L37.8413 23.4541C37.8305 23.4673 37.8169 23.4783 37.8014 23.4864C37.786 23.4944 37.769 23.4995 37.7515 23.5011C37.734 23.5028 37.7163 23.501 37.6995 23.496C37.6827 23.491 37.6672 23.4828 37.6538 23.4718L29.1694 16.571C26.548 19.2058 18.7822 26.9972 18.7822 26.9972L18.7666 26.037L28.9763 15.6246C28.9992 15.6012 29.0307 15.5872 29.0641 15.5853C29.0975 15.5835 29.1304 15.5939 29.156 15.6146L37.7192 22.5562L41.8265 17.575C41.8375 17.5615 41.8513 17.5504 41.8671 17.5423C41.8828 17.5341 41.9 17.5292 41.9178 17.5277C41.9356 17.5262 41.9536 17.5282 41.9705 17.5335C41.9875 17.5389 42.0031 17.5476 42.0164 17.5589L48.2313 22.8753L51.4515 17.1273L49.8034 16.1779C49.7843 16.1669 49.7684 16.1515 49.7573 16.133C49.7462 16.1145 49.7402 16.0937 49.7399 16.0724C49.7396 16.0511 49.7449 16.03 49.7555 16.0113C49.766 15.9925 49.7814 15.9767 49.8002 15.9652Z" fill="#E0D7FF"/>
<path d="M29.2153 15.3064C28.9682 15.3064 28.7266 15.3765 28.5211 15.5078C28.3156 15.6392 28.1555 15.8258 28.0609 16.0442C27.9663 16.2626 27.9416 16.5029 27.9898 16.7348C28.0381 16.9666 28.1571 17.1796 28.3319 17.3467C28.5066 17.5139 28.7293 17.6277 28.9717 17.6737C29.2141 17.7198 29.4653 17.6961 29.6936 17.6056C29.9219 17.5151 30.117 17.3619 30.2543 17.1653C30.3916 16.9688 30.4648 16.7377 30.4648 16.5013C30.4645 16.1844 30.3327 15.8806 30.0985 15.6566C29.8642 15.4325 29.5466 15.3066 29.2153 15.3064Z" fill="#E0D7FF"/>
<path d="M29.2113 17.8207C28.9383 17.8207 28.6715 17.7433 28.4445 17.5982C28.2175 17.4531 28.0406 17.2469 27.9361 17.0057C27.8317 16.7644 27.8043 16.499 27.8576 16.2429C27.9108 15.9868 28.0423 15.7515 28.2353 15.5669C28.4284 15.3822 28.6743 15.2565 28.942 15.2055C29.2098 15.1546 29.4873 15.1807 29.7395 15.2807C29.9917 15.3806 30.2073 15.5498 30.359 15.7669C30.5106 15.9841 30.5916 16.2393 30.5916 16.5004C30.5913 16.8505 30.4457 17.1861 30.1869 17.4336C29.9282 17.6812 29.5773 17.8204 29.2113 17.8207ZM29.2113 15.4307C28.9901 15.4307 28.7738 15.4934 28.5898 15.611C28.4058 15.7286 28.2625 15.8957 28.1778 16.0913C28.0931 16.2868 28.071 16.502 28.1142 16.7095C28.1574 16.9171 28.2639 17.1078 28.4204 17.2574C28.5769 17.407 28.7762 17.5089 28.9932 17.5502C29.2103 17.5914 29.4352 17.5702 29.6396 17.4892C29.844 17.4082 30.0187 17.271 30.1416 17.095C30.2645 16.919 30.33 16.7121 30.33 16.5004C30.3296 16.2168 30.2117 15.9448 30.0019 15.7443C29.7922 15.5437 29.5079 15.4309 29.2113 15.4307Z" fill="white"/>
<path d="M41.9298 17.2808C41.7183 17.2807 41.5116 17.3407 41.3357 17.453C41.1598 17.5654 41.0228 17.7251 40.9418 17.912C40.8608 18.0989 40.8396 18.3045 40.8809 18.503C40.9221 18.7014 41.024 18.8836 41.1735 19.0267C41.3231 19.1697 41.5136 19.2671 41.721 19.3066C41.9285 19.346 42.1435 19.3258 42.3389 19.2483C42.5342 19.1709 42.7012 19.0398 42.8187 18.8715C42.9362 18.7033 42.9988 18.5055 42.9988 18.3032C42.9984 18.0322 42.8857 17.7723 42.6853 17.5806C42.4849 17.3889 42.2132 17.2811 41.9298 17.2808Z" fill="#E0D7FF"/>
<path d="M41.93 19.4649C41.6927 19.4649 41.4606 19.3977 41.2633 19.2716C41.0659 19.1455 40.912 18.9662 40.8212 18.7565C40.7303 18.5467 40.7065 18.3159 40.7528 18.0933C40.799 17.8706 40.9133 17.666 41.0811 17.5055C41.2489 17.3449 41.4628 17.2356 41.6955 17.1913C41.9283 17.147 42.1696 17.1697 42.3889 17.2565C42.6082 17.3434 42.7956 17.4905 42.9275 17.6793C43.0594 17.8681 43.1298 18.09 43.1298 18.317C43.1294 18.6213 43.0029 18.913 42.778 19.1282C42.5531 19.3434 42.2481 19.4645 41.93 19.4649ZM41.93 17.4197C41.7444 17.4196 41.5629 17.4722 41.4086 17.5708C41.2542 17.6695 41.1339 17.8096 41.0628 17.9737C40.9918 18.1377 40.9732 18.3182 41.0094 18.4923C41.0456 18.6665 41.135 18.8264 41.2662 18.952C41.3975 19.0775 41.5647 19.163 41.7467 19.1977C41.9288 19.2323 42.1175 19.2145 42.289 19.1465C42.4605 19.0786 42.607 18.9635 42.7101 18.8158C42.8132 18.6682 42.8682 18.4946 42.8682 18.317C42.8679 18.0791 42.769 17.851 42.5931 17.6828C42.4172 17.5146 42.1787 17.4199 41.93 17.4197Z" fill="white"/>
<path d="M18.7568 25.5659C18.5618 25.5659 18.3711 25.6211 18.2089 25.7248C18.0467 25.8284 17.9203 25.9757 17.8456 26.148C17.771 26.3204 17.7514 26.51 17.7894 26.693C17.8275 26.876 17.9214 27.0441 18.0593 27.176C18.1972 27.3079 18.3729 27.3977 18.5642 27.4341C18.7555 27.4705 18.9538 27.4518 19.134 27.3804C19.3142 27.309 19.4682 27.188 19.5765 27.0329C19.6848 26.8778 19.7426 26.6954 19.7425 26.5088C19.7422 26.2588 19.6382 26.0192 19.4534 25.8425C19.2687 25.6657 19.0181 25.5662 18.7568 25.5659Z" fill="#E0D7FF"/>
<path d="M18.7587 27.5731C18.5378 27.5731 18.3218 27.5105 18.1381 27.3932C17.9544 27.2758 17.8113 27.109 17.7267 26.9138C17.6421 26.7186 17.62 26.5038 17.663 26.2965C17.7061 26.0893 17.8124 25.8989 17.9686 25.7495C18.1248 25.6001 18.3238 25.4983 18.5405 25.4571C18.7571 25.4158 18.9817 25.437 19.1858 25.5178C19.3898 25.5987 19.5643 25.7356 19.687 25.9113C19.8097 26.087 19.8753 26.2935 19.8753 26.5048C19.8749 26.788 19.7572 27.0595 19.5479 27.2597C19.3385 27.46 19.0547 27.5727 18.7587 27.5731ZM18.7587 25.687C18.5895 25.687 18.4241 25.7349 18.2835 25.8248C18.1428 25.9146 18.0331 26.0424 17.9684 26.1919C17.9036 26.3414 17.8866 26.5059 17.9196 26.6646C17.9526 26.8233 18.0341 26.9691 18.1537 27.0835C18.2733 27.1979 18.4257 27.2758 18.5916 27.3074C18.7576 27.3389 18.9295 27.3227 19.0858 27.2608C19.2421 27.1988 19.3757 27.0939 19.4696 26.9594C19.5636 26.8248 19.6137 26.6666 19.6136 26.5048C19.6131 26.2882 19.5228 26.0806 19.3626 25.9275C19.2023 25.7744 18.9852 25.6883 18.7587 25.688V25.687Z" fill="white"/>
<path d="M37.7386 23.8546C38.3184 23.8546 38.7884 23.405 38.7884 22.8504C38.7884 22.2958 38.3184 21.8462 37.7386 21.8462C37.1588 21.8462 36.6887 22.2958 36.6887 22.8504C36.6887 23.405 37.1588 23.8546 37.7386 23.8546Z" fill="#E0D7FF"/>
<path d="M37.7424 23.9945C37.5089 23.9945 37.2806 23.9283 37.0864 23.8041C36.8922 23.68 36.7408 23.5036 36.6514 23.2972C36.562 23.0908 36.5386 22.8637 36.5842 22.6446C36.6298 22.4254 36.7423 22.2242 36.9074 22.0662C37.0726 21.9082 37.283 21.8006 37.5121 21.7571C37.7411 21.7135 37.9786 21.7358 38.1944 21.8213C38.4102 21.9068 38.5946 22.0516 38.7243 22.2374C38.8541 22.4231 38.9234 22.6415 38.9234 22.8649C38.923 23.1644 38.7985 23.4515 38.5771 23.6633C38.3557 23.8751 38.0555 23.9942 37.7424 23.9945ZM37.7424 21.9858C37.5606 21.9858 37.3829 22.0374 37.2317 22.1341C37.0805 22.2307 36.9627 22.368 36.8931 22.5287C36.8235 22.6894 36.8053 22.8662 36.8408 23.0368C36.8763 23.2074 36.9639 23.3641 37.0925 23.4871C37.2211 23.61 37.3849 23.6938 37.5633 23.7277C37.7416 23.7616 37.9265 23.7441 38.0944 23.6775C38.2624 23.6109 38.406 23.4982 38.5069 23.3535C38.6079 23.2089 38.6618 23.0389 38.6618 22.8649C38.6615 22.6318 38.5645 22.4083 38.3922 22.2435C38.2198 22.0787 37.9862 21.986 37.7424 21.9858Z" fill="white"/>
<path d="M48.316 24.2216C48.8351 24.2216 49.2559 23.819 49.2559 23.3224C49.2559 22.8259 48.8351 22.4233 48.316 22.4233C47.7968 22.4233 47.376 22.8259 47.376 23.3224C47.376 23.819 47.7968 24.2216 48.316 24.2216Z" fill="#E0D7FF"/>
<path d="M48.312 24.3473C48.1002 24.3473 47.8932 24.2872 47.7171 24.1747C47.541 24.0621 47.4038 23.9022 47.3227 23.715C47.2417 23.5279 47.2205 23.3219 47.2618 23.1232C47.3031 22.9246 47.4051 22.7421 47.5548 22.5988C47.7046 22.4556 47.8954 22.358 48.1031 22.3185C48.3108 22.279 48.5261 22.2993 48.7218 22.3768C48.9174 22.4543 49.0847 22.5856 49.2023 22.754C49.32 22.9225 49.3828 23.1205 49.3828 23.3231C49.3823 23.5946 49.2693 23.8548 49.0686 24.0468C48.8679 24.2388 48.5958 24.3468 48.312 24.3473ZM48.312 22.5491C48.152 22.5491 47.9955 22.5945 47.8624 22.6795C47.7294 22.7646 47.6257 22.8854 47.5644 23.0269C47.5032 23.1683 47.4872 23.3239 47.5184 23.4741C47.5496 23.6242 47.6267 23.7621 47.7398 23.8704C47.853 23.9786 47.9972 24.0523 48.1541 24.0822C48.3111 24.112 48.4738 24.0967 48.6217 24.0381C48.7695 23.9795 48.8959 23.8803 48.9848 23.7531C49.0737 23.6258 49.1212 23.4761 49.1212 23.3231C49.1207 23.1179 49.0353 22.9213 48.8836 22.7763C48.732 22.6312 48.5265 22.5495 48.312 22.5491Z" fill="white"/>
<path d="M41.9288 18.7394C42.1737 18.7394 42.3722 18.5495 42.3722 18.3153C42.3722 18.081 42.1737 17.8911 41.9288 17.8911C41.6839 17.8911 41.4854 18.081 41.4854 18.3153C41.4854 18.5495 41.6839 18.7394 41.9288 18.7394Z" fill="white"/>
<path d="M41.9314 18.8603C41.8175 18.8606 41.7061 18.8285 41.6112 18.7682C41.5164 18.7078 41.4424 18.6219 41.3987 18.5213C41.3549 18.4208 41.3433 18.31 41.3654 18.2032C41.3875 18.0963 41.4422 17.9981 41.5226 17.921C41.603 17.8438 41.7056 17.7913 41.8173 17.7699C41.929 17.7486 42.0447 17.7594 42.15 17.8011C42.2552 17.8427 42.3452 17.9133 42.4085 18.0038C42.4718 18.0944 42.5056 18.2009 42.5056 18.3098C42.5056 18.4556 42.4451 18.5954 42.3375 18.6986C42.2298 18.8018 42.0838 18.86 41.9314 18.8603ZM41.9314 18.012C41.8692 18.0118 41.8084 18.0292 41.7566 18.062C41.7048 18.0949 41.6643 18.1417 41.6404 18.1965C41.6164 18.2514 41.61 18.3118 41.622 18.3701C41.6339 18.4284 41.6637 18.4821 41.7076 18.5242C41.7514 18.5663 41.8074 18.595 41.8683 18.6067C41.9292 18.6184 41.9924 18.6125 42.0499 18.5899C42.1073 18.5672 42.1564 18.5287 42.191 18.4793C42.2255 18.4299 42.244 18.3717 42.244 18.3123C42.2441 18.2328 42.2113 18.1565 42.1527 18.1001C42.0941 18.0437 42.0145 18.0118 41.9314 18.0115V18.012Z" fill="white"/>
<path d="M37.7363 23.2643C37.9719 23.2643 38.163 23.0815 38.163 22.8561C38.163 22.6307 37.9719 22.448 37.7363 22.448C37.5006 22.448 37.3096 22.6307 37.3096 22.8561C37.3096 23.0815 37.5006 23.2643 37.7363 23.2643Z" fill="white"/>
<path d="M37.7362 23.3868C37.6259 23.3868 37.5182 23.3556 37.4265 23.297C37.3348 23.2384 37.2633 23.1551 37.2211 23.0576C37.179 22.9602 37.1679 22.853 37.1894 22.7495C37.2109 22.6461 37.264 22.5511 37.342 22.4765C37.42 22.4019 37.5193 22.3511 37.6274 22.3306C37.7356 22.31 37.8477 22.3205 37.9496 22.3609C38.0514 22.4013 38.1385 22.4696 38.1997 22.5573C38.261 22.645 38.2937 22.7481 38.2937 22.8536C38.2936 22.995 38.2348 23.1305 38.1303 23.2305C38.0257 23.3305 37.884 23.3867 37.7362 23.3868ZM37.7362 22.5706C37.6777 22.5706 37.6205 22.5872 37.5718 22.6182C37.5232 22.6493 37.4852 22.6935 37.4628 22.7453C37.4405 22.797 37.4346 22.8539 37.446 22.9088C37.4574 22.9637 37.4856 23.0141 37.527 23.0537C37.5684 23.0933 37.6211 23.1202 37.6785 23.1312C37.7359 23.1421 37.7954 23.1365 37.8494 23.115C37.9035 23.0936 37.9497 23.0574 37.9822 23.0108C38.0147 22.9643 38.0321 22.9095 38.0321 22.8536C38.032 22.7785 38.0008 22.7066 37.9454 22.6535C37.8899 22.6005 37.8147 22.5706 37.7362 22.5706Z" fill="white"/>
<path d="M29.2126 17.0459C29.5334 17.0459 29.7934 16.7972 29.7934 16.4903C29.7934 16.1835 29.5334 15.9348 29.2126 15.9348C28.8919 15.9348 28.6318 16.1835 28.6318 16.4903C28.6318 16.7972 28.8919 17.0459 29.2126 17.0459Z" fill="white"/>
<path d="M29.2145 17.1782C29.0738 17.1782 28.9362 17.1383 28.8192 17.0635C28.7022 16.9887 28.611 16.8824 28.5571 16.758C28.5032 16.6336 28.4891 16.4968 28.5166 16.3648C28.5441 16.2327 28.6118 16.1114 28.7113 16.0163C28.8109 15.9211 28.9377 15.8562 29.0757 15.83C29.2137 15.8037 29.3568 15.8172 29.4868 15.8687C29.6169 15.9202 29.728 16.0075 29.8062 16.1194C29.8844 16.2313 29.9261 16.3629 29.9261 16.4975C29.926 16.678 29.851 16.8511 29.7175 16.9787C29.5841 17.1063 29.4032 17.1781 29.2145 17.1782ZM29.2145 16.0674C29.1255 16.0674 29.0385 16.0926 28.9645 16.1399C28.8905 16.1872 28.8328 16.2545 28.7988 16.3331C28.7647 16.4118 28.7558 16.4984 28.7732 16.5819C28.7906 16.6654 28.8335 16.742 28.8964 16.8022C28.9594 16.8624 29.0396 16.9034 29.1269 16.92C29.2142 16.9365 29.3047 16.928 29.3869 16.8954C29.4691 16.8628 29.5394 16.8076 29.5888 16.7367C29.6382 16.6659 29.6645 16.5827 29.6645 16.4975C29.6644 16.3835 29.6169 16.2741 29.5325 16.1934C29.4482 16.1128 29.3338 16.0675 29.2145 16.0674Z" fill="white"/>
<path d="M18.7593 26.1343C18.6847 26.1343 18.6117 26.1555 18.5496 26.1951C18.4875 26.2348 18.4391 26.2912 18.4106 26.3572C18.382 26.4232 18.3745 26.4958 18.3891 26.5658C18.4037 26.6359 18.4396 26.7002 18.4924 26.7507C18.5452 26.8012 18.6125 26.8356 18.6857 26.8495C18.7589 26.8635 18.8348 26.8563 18.9038 26.829C18.9728 26.8016 19.0317 26.7554 19.0732 26.696C19.1147 26.6366 19.1369 26.5668 19.1369 26.4954C19.1368 26.3996 19.097 26.3078 19.0262 26.2401C18.9554 26.1724 18.8594 26.1343 18.7593 26.1343Z" fill="white"/>
<path d="M18.7573 26.989C18.6568 26.989 18.5585 26.9605 18.4749 26.9071C18.3913 26.8537 18.3262 26.7777 18.2877 26.6889C18.2492 26.6 18.2392 26.5023 18.2588 26.408C18.2784 26.3136 18.3268 26.227 18.3979 26.159C18.469 26.091 18.5596 26.0447 18.6582 26.0259C18.7568 26.0072 18.859 26.0168 18.9519 26.0536C19.0447 26.0904 19.1241 26.1527 19.18 26.2327C19.2358 26.3126 19.2657 26.4067 19.2657 26.5028C19.2655 26.6317 19.2119 26.7553 19.1166 26.8465C19.0213 26.9376 18.8921 26.9889 18.7573 26.989ZM18.7573 26.2668C18.7085 26.2668 18.6608 26.2807 18.6203 26.3066C18.5797 26.3325 18.5481 26.3694 18.5294 26.4125C18.5107 26.4556 18.5059 26.5031 18.5154 26.5489C18.5249 26.5946 18.5484 26.6367 18.5829 26.6697C18.6174 26.7027 18.6614 26.7252 18.7092 26.7343C18.7571 26.7434 18.8067 26.7387 18.8517 26.7208C18.8968 26.703 18.9354 26.6727 18.9625 26.6339C18.9896 26.5951 19.004 26.5495 19.004 26.5028C19.004 26.4403 18.978 26.3803 18.9317 26.336C18.8855 26.2918 18.8227 26.2669 18.7573 26.2668Z" fill="white"/>
<path d="M48.3121 22.9749C48.2409 22.9749 48.1712 22.9951 48.112 23.0329C48.0528 23.0708 48.0066 23.1246 47.9793 23.1876C47.9521 23.2505 47.9449 23.3198 47.9588 23.3867C47.9727 23.4535 48.007 23.5149 48.0574 23.5631C48.1078 23.6113 48.172 23.6441 48.2419 23.6574C48.3117 23.6707 48.3842 23.6639 48.45 23.6378C48.5158 23.6117 48.5721 23.5675 48.6117 23.5109C48.6513 23.4542 48.6724 23.3876 48.6724 23.3194C48.6723 23.2281 48.6343 23.1405 48.5668 23.0759C48.4993 23.0112 48.4077 22.9749 48.3121 22.9749Z" fill="white"/>
<path d="M48.3123 23.8002C48.2152 23.8002 48.1203 23.7727 48.0395 23.7211C47.9588 23.6695 47.8958 23.5961 47.8587 23.5103C47.8215 23.4245 47.8118 23.33 47.8307 23.2389C47.8497 23.1478 47.8964 23.0641 47.9651 22.9984C48.0338 22.9327 48.1213 22.888 48.2165 22.8699C48.3118 22.8517 48.4105 22.861 48.5003 22.8966C48.59 22.9321 48.6667 22.9923 48.7206 23.0696C48.7746 23.1468 48.8034 23.2376 48.8034 23.3305C48.8032 23.4551 48.7515 23.5745 48.6594 23.6625C48.5673 23.7506 48.4425 23.8001 48.3123 23.8002ZM48.3123 23.1111C48.267 23.1111 48.2226 23.1239 48.1849 23.1481C48.1471 23.1722 48.1177 23.2065 48.1004 23.2466C48.083 23.2867 48.0785 23.3308 48.0873 23.3734C48.0962 23.4159 48.118 23.455 48.1501 23.4857C48.1822 23.5164 48.2231 23.5373 48.2676 23.5458C48.3121 23.5542 48.3582 23.5499 48.4001 23.5333C48.4421 23.5167 48.4779 23.4886 48.5031 23.4525C48.5283 23.4164 48.5418 23.3739 48.5418 23.3305C48.5417 23.2724 48.5175 23.2166 48.4745 23.1754C48.4315 23.1343 48.3732 23.1111 48.3123 23.1111Z" fill="white"/>
<path d="M53.3237 37.5425C54.3142 37.5425 55.1172 38.3454 55.1172 39.3359C55.1172 40.3264 54.3142 41.1294 53.3237 41.1294H42.5559C41.5654 41.1294 40.7625 40.3264 40.7625 39.3359C40.7625 38.3454 41.5654 37.5425 42.5559 37.5425H53.3237Z" fill="#E0D7FF" stroke="white" stroke-width="0.504987"/>
<rect x="40.876" y="36.9248" width="12.4776" height="0.58229" rx="0.291145" fill="#E0D7FF"/>
<rect x="40.876" y="34.8379" width="12.4776" height="0.58229" rx="0.291145" fill="#E0D7FF"/>
<rect x="40.876" y="32.793" width="12.4776" height="0.58229" rx="0.291145" fill="#E0D7FF"/>
</g>
<g filter="url(#filter2_d_1716_4387)">
<rect x="94.0264" y="84.6035" width="42.5906" height="42.5909" rx="5.36199" fill="#EEE9FF"/>
</g>
<rect x="96.8617" y="87.4389" width="36.9158" height="36.9161" rx="3.65593" fill="white" stroke="#E3DAFF" stroke-width="0.155572"/>
<path fill-rule="evenodd" clip-rule="evenodd" d="M115.269 99.2649C112.809 99.2649 110.815 101.259 110.815 103.718C110.815 103.746 110.838 103.769 110.866 103.769H119.774C119.801 103.769 119.824 103.746 119.824 103.718C119.824 101.259 117.83 99.2649 115.37 99.2649H115.269Z" fill="#E9E3FF" stroke="#E9E3FF" stroke-width="0.573172" stroke-linecap="round" stroke-linejoin="round"/>
<ellipse cx="115.319" cy="97.0102" rx="2.25191" ry="2.25166" fill="#E9E3FF" stroke="#E9E3FF" stroke-width="0.573172" stroke-linecap="round" stroke-linejoin="round"/>
<path fill-rule="evenodd" clip-rule="evenodd" d="M124.757 99.2651C122.298 99.2651 120.304 101.259 120.304 103.719C120.304 103.746 120.326 103.769 120.354 103.769H129.262C129.29 103.769 129.312 103.746 129.312 103.719C129.312 101.259 127.318 99.2651 124.859 99.2651H124.757Z" fill="#E9E3FF" stroke="#E9E3FF" stroke-width="0.573172" stroke-linecap="round" stroke-linejoin="round"/>
<ellipse cx="124.808" cy="97.0102" rx="2.25191" ry="2.25166" fill="#E9E3FF" stroke="#E9E3FF" stroke-width="0.573172" stroke-linecap="round" stroke-linejoin="round"/>
<path fill-rule="evenodd" clip-rule="evenodd" d="M105.783 99.2664C103.323 99.2664 101.329 101.26 101.329 103.72C101.329 103.748 101.352 103.77 101.379 103.77H110.287C110.315 103.77 110.338 103.748 110.338 103.72C110.338 101.26 108.344 99.2664 105.884 99.2664H105.783Z" fill="#E9E3FF" stroke="#E9E3FF" stroke-width="0.573172" stroke-linecap="round" stroke-linejoin="round"/>
<ellipse cx="105.831" cy="97.0114" rx="2.25191" ry="2.25166" fill="#E9E3FF" stroke="#E9E3FF" stroke-width="0.573172" stroke-linecap="round" stroke-linejoin="round"/>
<path fill-rule="evenodd" clip-rule="evenodd" d="M121.48 106.6C118.617 106.6 116.296 108.921 116.296 111.784C116.296 111.816 116.322 111.842 116.354 111.842H126.723C126.755 111.842 126.781 111.816 126.781 111.784C126.781 108.921 124.46 106.6 121.598 106.6H121.48Z" fill="#D4C7F9" stroke="#D4C7F9" stroke-width="0.573172" stroke-linecap="round" stroke-linejoin="round"/>
<ellipse cx="121.538" cy="103.975" rx="2.62111" ry="2.62081" fill="#D4C7F9" stroke="#D4C7F9" stroke-width="0.573172" stroke-linecap="round" stroke-linejoin="round"/>
<path fill-rule="evenodd" clip-rule="evenodd" d="M108.899 106.6C106.036 106.6 103.716 108.921 103.716 111.784C103.716 111.816 103.742 111.842 103.774 111.842H114.143C114.175 111.842 114.201 111.816 114.201 111.784C114.201 108.921 111.88 106.6 109.017 106.6H108.899Z" fill="#D4C7F9" stroke="#D4C7F9" stroke-width="0.573172" stroke-linecap="round" stroke-linejoin="round"/>
<ellipse cx="108.958" cy="103.975" rx="2.62111" ry="2.62081" fill="#D4C7F9" stroke="#D4C7F9" stroke-width="0.573172" stroke-linecap="round" stroke-linejoin="round"/>
<path fill-rule="evenodd" clip-rule="evenodd" d="M115.051 111.153C111.831 111.153 109.22 113.764 109.22 116.985C109.22 117.021 109.249 117.051 109.285 117.051H109.957H110.694H112.169H115.118H120.95C120.986 117.051 121.016 117.021 121.016 116.985C121.016 113.764 118.405 111.153 115.184 111.153H115.051Z" fill="#A289F5" stroke="#A289F5" stroke-width="0.573172" stroke-linecap="round" stroke-linejoin="round"/>
<ellipse cx="115.118" cy="108.197" rx="2.94875" ry="2.94841" fill="#A289F5" stroke="#A289F5" stroke-width="0.573172" stroke-linecap="round" stroke-linejoin="round"/>
<defs>
<filter id="filter0_d_1716_4387" x="7.25269" y="4.91591" width="56.9294" height="50.1743" filterUnits="userSpaceOnUse" color-interpolation-filters="sRGB">
<feFlood flood-opacity="0" result="BackgroundImageFix"/>
<feColorMatrix in="SourceAlpha" type="matrix" values="0 0 0 0 0 0 0 0 0 0 0 0 0 0 0 0 0 0 127 0" result="hardAlpha"/>
<feOffset dy="2.36733"/>
<feGaussianBlur stdDeviation="2.07141"/>
<feComposite in2="hardAlpha" operator="out"/>
<feColorMatrix type="matrix" values="0 0 0 0 0.248864 0 0 0 0 0.141712 0 0 0 0 0.460677 0 0 0 0.05 0"/>
<feBlend mode="normal" in2="BackgroundImageFix" result="effect1_dropShadow_1716_4387"/>
<feBlend mode="normal" in="SourceGraphic" in2="effect1_dropShadow_1716_4387" result="shape"/>
</filter>
<filter id="filter1_d_1716_4387" x="5.13195" y="4.05447" width="61.1709" height="54.4158" filterUnits="userSpaceOnUse" color-interpolation-filters="sRGB">
<feFlood flood-opacity="0" result="BackgroundImageFix"/>
<feColorMatrix in="SourceAlpha" type="matrix" values="0 0 0 0 0 0 0 0 0 0 0 0 0 0 0 0 0 0 127 0" result="hardAlpha"/>
<feOffset dy="3.62661"/>
<feGaussianBlur stdDeviation="3.13178"/>
<feComposite in2="hardAlpha" operator="out"/>
<feColorMatrix type="matrix" values="0 0 0 0 0.241307 0 0 0 0 0.174658 0 0 0 0 0.458535 0 0 0 0.04 0"/>
<feBlend mode="normal" in2="BackgroundImageFix" result="effect1_dropShadow_1716_4387"/>
<feBlend mode="normal" in="SourceGraphic" in2="effect1_dropShadow_1716_4387" result="shape"/>
</filter>
<filter id="filter2_d_1716_4387" x="88.0296" y="82.0789" width="54.584" height="54.5843" filterUnits="userSpaceOnUse" color-interpolation-filters="sRGB">
<feFlood flood-opacity="0" result="BackgroundImageFix"/>
<feColorMatrix in="SourceAlpha" type="matrix" values="0 0 0 0 0 0 0 0 0 0 0 0 0 0 0 0 0 0 127 0" result="hardAlpha"/>
<feOffset dy="3.47212"/>
<feGaussianBlur stdDeviation="2.99836"/>
<feComposite in2="hardAlpha" operator="out"/>
<feColorMatrix type="matrix" values="0 0 0 0 0.241307 0 0 0 0 0.174658 0 0 0 0 0.458535 0 0 0 0.04 0"/>
<feBlend mode="normal" in2="BackgroundImageFix" result="effect1_dropShadow_1716_4387"/>
<feBlend mode="normal" in="SourceGraphic" in2="effect1_dropShadow_1716_4387" result="shape"/>
</filter>
</defs>
</svg>
