<svg width="779" height="8" viewBox="0 0 779 8" fill="none" xmlns="http://www.w3.org/2000/svg">
<rect width="779" height="8" fill="#886DE0"/>
<mask id="mask0_5706_18917" style="mask-type:alpha" maskUnits="userSpaceOnUse" x="0" y="0" width="779" height="8">
<rect width="779" height="8" fill="#886DE0"/>
</mask>
<g mask="url(#mask0_5706_18917)">
<rect x="3.69531" y="8.51562" width="12.1008" height="3" transform="rotate(-60 3.69531 8.51562)" fill="#B19CF3"/>
<rect x="-3.30469" y="8.51562" width="12.1008" height="3" transform="rotate(-60 -3.30469 8.51562)" fill="#B19CF3"/>
<rect x="10.6953" y="8.51562" width="12.1008" height="3" transform="rotate(-60 10.6953 8.51562)" fill="#B19CF3"/>
<rect x="17.6953" y="8.51562" width="12.1008" height="3" transform="rotate(-60 17.6953 8.51562)" fill="#B19CF3"/>
<rect x="24.6953" y="8.51562" width="12.1008" height="3" transform="rotate(-60 24.6953 8.51562)" fill="#B19CF3"/>
<rect x="31.6953" y="8.51562" width="12.1008" height="3" transform="rotate(-60 31.6953 8.51562)" fill="#B19CF3"/>
<rect x="38.6953" y="8.51562" width="12.1008" height="3" transform="rotate(-60 38.6953 8.51562)" fill="#B19CF3"/>
<rect x="45.6953" y="8.51562" width="12.1008" height="3" transform="rotate(-60 45.6953 8.51562)" fill="#B19CF3"/>
<rect x="52.6953" y="8.51562" width="12.1008" height="3" transform="rotate(-60 52.6953 8.51562)" fill="#B19CF3"/>
<rect x="59.6953" y="8.51562" width="12.1008" height="3" transform="rotate(-60 59.6953 8.51562)" fill="#B19CF3"/>
<rect x="66.6953" y="8.51562" width="12.1008" height="3" transform="rotate(-60 66.6953 8.51562)" fill="#B19CF3"/>
<rect x="73.6953" y="8.51562" width="12.1008" height="3" transform="rotate(-60 73.6953 8.51562)" fill="#B19CF3"/>
<rect x="80.6953" y="8.51562" width="12.1008" height="3" transform="rotate(-60 80.6953 8.51562)" fill="#B19CF3"/>
<rect x="87.6953" y="8.51562" width="12.1008" height="3" transform="rotate(-60 87.6953 8.51562)" fill="#B19CF3"/>
<rect x="94.6953" y="8.51562" width="12.1008" height="3" transform="rotate(-60 94.6953 8.51562)" fill="#B19CF3"/>
<rect x="101.695" y="8.51562" width="12.1008" height="3" transform="rotate(-60 101.695 8.51562)" fill="#B19CF3"/>
<rect x="108.695" y="8.51562" width="12.1008" height="3" transform="rotate(-60 108.695 8.51562)" fill="#B19CF3"/>
<rect x="115.695" y="8.51562" width="12.1008" height="3" transform="rotate(-60 115.695 8.51562)" fill="#B19CF3"/>
<rect x="122.695" y="8.51562" width="12.1008" height="3" transform="rotate(-60 122.695 8.51562)" fill="#B19CF3"/>
<rect x="129.695" y="8.51562" width="12.1008" height="3" transform="rotate(-60 129.695 8.51562)" fill="#B19CF3"/>
<rect x="136.695" y="8.51562" width="12.1008" height="3" transform="rotate(-60 136.695 8.51562)" fill="#B19CF3"/>
<rect x="143.695" y="8.51562" width="12.1008" height="3" transform="rotate(-60 143.695 8.51562)" fill="#B19CF3"/>
<rect x="150.695" y="8.51562" width="12.1008" height="3" transform="rotate(-60 150.695 8.51562)" fill="#B19CF3"/>
<rect x="157.695" y="8.51562" width="12.1008" height="3" transform="rotate(-60 157.695 8.51562)" fill="#B19CF3"/>
<rect x="164.695" y="8.51562" width="12.1008" height="3" transform="rotate(-60 164.695 8.51562)" fill="#B19CF3"/>
<rect x="171.695" y="8.51562" width="12.1008" height="3" transform="rotate(-60 171.695 8.51562)" fill="#B19CF3"/>
<rect x="178.695" y="8.51562" width="12.1008" height="3" transform="rotate(-60 178.695 8.51562)" fill="#B19CF3"/>
<rect x="185.695" y="8.51562" width="12.1008" height="3" transform="rotate(-60 185.695 8.51562)" fill="#B19CF3"/>
<rect x="192.695" y="8.51562" width="12.1008" height="3" transform="rotate(-60 192.695 8.51562)" fill="#B19CF3"/>
<rect x="199.695" y="8.51562" width="12.1008" height="3" transform="rotate(-60 199.695 8.51562)" fill="#B19CF3"/>
<rect x="206.695" y="8.51562" width="12.1008" height="3" transform="rotate(-60 206.695 8.51562)" fill="#B19CF3"/>
<rect x="213.695" y="8.51562" width="12.1008" height="3" transform="rotate(-60 213.695 8.51562)" fill="#B19CF3"/>
<rect x="220.695" y="8.51562" width="12.1008" height="3" transform="rotate(-60 220.695 8.51562)" fill="#B19CF3"/>
<rect x="227.695" y="8.51562" width="12.1008" height="3" transform="rotate(-60 227.695 8.51562)" fill="#B19CF3"/>
<rect x="234.695" y="8.51562" width="12.1008" height="3" transform="rotate(-60 234.695 8.51562)" fill="#B19CF3"/>
<rect x="241.695" y="8.51562" width="12.1008" height="3" transform="rotate(-60 241.695 8.51562)" fill="#B19CF3"/>
<rect x="248.695" y="8.51562" width="12.1008" height="3" transform="rotate(-60 248.695 8.51562)" fill="#B19CF3"/>
<rect x="255.695" y="8.51562" width="12.1008" height="3" transform="rotate(-60 255.695 8.51562)" fill="#B19CF3"/>
<rect x="262.695" y="8.51562" width="12.1008" height="3" transform="rotate(-60 262.695 8.51562)" fill="#B19CF3"/>
<rect x="269.695" y="8.51562" width="12.1008" height="3" transform="rotate(-60 269.695 8.51562)" fill="#B19CF3"/>
<rect x="276.695" y="8.51562" width="12.1008" height="3" transform="rotate(-60 276.695 8.51562)" fill="#B19CF3"/>
<rect x="283.695" y="8.51562" width="12.1008" height="3" transform="rotate(-60 283.695 8.51562)" fill="#B19CF3"/>
<rect x="290.695" y="8.51562" width="12.1008" height="3" transform="rotate(-60 290.695 8.51562)" fill="#B19CF3"/>
<rect x="297.695" y="8.51562" width="12.1008" height="3" transform="rotate(-60 297.695 8.51562)" fill="#B19CF3"/>
<rect x="304.695" y="8.51562" width="12.1008" height="3" transform="rotate(-60 304.695 8.51562)" fill="#B19CF3"/>
<rect x="311.695" y="8.51562" width="12.1008" height="3" transform="rotate(-60 311.695 8.51562)" fill="#B19CF3"/>
<rect x="318.695" y="8.51562" width="12.1008" height="3" transform="rotate(-60 318.695 8.51562)" fill="#B19CF3"/>
<rect x="325.695" y="8.51562" width="12.1008" height="3" transform="rotate(-60 325.695 8.51562)" fill="#B19CF3"/>
<rect x="332.695" y="8.51562" width="12.1008" height="3" transform="rotate(-60 332.695 8.51562)" fill="#B19CF3"/>
<rect x="339.695" y="8.51562" width="12.1008" height="3" transform="rotate(-60 339.695 8.51562)" fill="#B19CF3"/>
<rect x="346.695" y="8.51562" width="12.1008" height="3" transform="rotate(-60 346.695 8.51562)" fill="#B19CF3"/>
<rect x="353.695" y="8.51562" width="12.1008" height="3" transform="rotate(-60 353.695 8.51562)" fill="#B19CF3"/>
<rect x="360.695" y="8.51562" width="12.1008" height="3" transform="rotate(-60 360.695 8.51562)" fill="#B19CF3"/>
<rect x="367.695" y="8.51562" width="12.1008" height="3" transform="rotate(-60 367.695 8.51562)" fill="#B19CF3"/>
<rect x="374.695" y="8.51562" width="12.1008" height="3" transform="rotate(-60 374.695 8.51562)" fill="#B19CF3"/>
<rect x="381.695" y="8.51562" width="12.1008" height="3" transform="rotate(-60 381.695 8.51562)" fill="#B19CF3"/>
<rect x="388.695" y="8.51562" width="12.1008" height="3" transform="rotate(-60 388.695 8.51562)" fill="#B19CF3"/>
<rect x="395.695" y="8.51562" width="12.1008" height="3" transform="rotate(-60 395.695 8.51562)" fill="#B19CF3"/>
<rect x="402.695" y="8.51562" width="12.1008" height="3" transform="rotate(-60 402.695 8.51562)" fill="#B19CF3"/>
<rect x="409.695" y="8.51562" width="12.1008" height="3" transform="rotate(-60 409.695 8.51562)" fill="#B19CF3"/>
<rect x="416.695" y="8.51562" width="12.1008" height="3" transform="rotate(-60 416.695 8.51562)" fill="#B19CF3"/>
<rect x="423.695" y="8.51562" width="12.1008" height="3" transform="rotate(-60 423.695 8.51562)" fill="#B19CF3"/>
<rect x="430.695" y="8.51562" width="12.1008" height="3" transform="rotate(-60 430.695 8.51562)" fill="#B19CF3"/>
<rect x="437.695" y="8.51562" width="12.1008" height="3" transform="rotate(-60 437.695 8.51562)" fill="#B19CF3"/>
<rect x="444.695" y="8.51562" width="12.1008" height="3" transform="rotate(-60 444.695 8.51562)" fill="#B19CF3"/>
<rect x="451.695" y="8.51562" width="12.1008" height="3" transform="rotate(-60 451.695 8.51562)" fill="#B19CF3"/>
<rect x="458.695" y="8.51562" width="12.1008" height="3" transform="rotate(-60 458.695 8.51562)" fill="#B19CF3"/>
<rect x="465.695" y="8.51562" width="12.1008" height="3" transform="rotate(-60 465.695 8.51562)" fill="#B19CF3"/>
<rect x="472.695" y="8.51562" width="12.1008" height="3" transform="rotate(-60 472.695 8.51562)" fill="#B19CF3"/>
<rect x="479.695" y="8.51562" width="12.1008" height="3" transform="rotate(-60 479.695 8.51562)" fill="#B19CF3"/>
<rect x="486.695" y="8.51562" width="12.1008" height="3" transform="rotate(-60 486.695 8.51562)" fill="#B19CF3"/>
<rect x="493.695" y="8.51562" width="12.1008" height="3" transform="rotate(-60 493.695 8.51562)" fill="#B19CF3"/>
<rect x="500.695" y="8.51562" width="12.1008" height="3" transform="rotate(-60 500.695 8.51562)" fill="#B19CF3"/>
<rect x="507.695" y="8.51562" width="12.1008" height="3" transform="rotate(-60 507.695 8.51562)" fill="#B19CF3"/>
<rect x="514.695" y="8.51562" width="12.1008" height="3" transform="rotate(-60 514.695 8.51562)" fill="#B19CF3"/>
<rect x="521.695" y="8.51562" width="12.1008" height="3" transform="rotate(-60 521.695 8.51562)" fill="#B19CF3"/>
<rect x="528.695" y="8.51562" width="12.1008" height="3" transform="rotate(-60 528.695 8.51562)" fill="#B19CF3"/>
<rect x="535.695" y="8.51562" width="12.1008" height="3" transform="rotate(-60 535.695 8.51562)" fill="#B19CF3"/>
<rect x="542.695" y="8.51562" width="12.1008" height="3" transform="rotate(-60 542.695 8.51562)" fill="#B19CF3"/>
<rect x="549.695" y="8.51562" width="12.1008" height="3" transform="rotate(-60 549.695 8.51562)" fill="#B19CF3"/>
<rect x="556.695" y="8.51562" width="12.1008" height="3" transform="rotate(-60 556.695 8.51562)" fill="#B19CF3"/>
<rect x="563.695" y="8.51562" width="12.1008" height="3" transform="rotate(-60 563.695 8.51562)" fill="#B19CF3"/>
<rect x="570.695" y="8.51562" width="12.1008" height="3" transform="rotate(-60 570.695 8.51562)" fill="#B19CF3"/>
<rect x="577.695" y="8.51562" width="12.1008" height="3" transform="rotate(-60 577.695 8.51562)" fill="#B19CF3"/>
<rect x="584.695" y="8.51562" width="12.1008" height="3" transform="rotate(-60 584.695 8.51562)" fill="#B19CF3"/>
<rect x="591.695" y="8.51562" width="12.1008" height="3" transform="rotate(-60 591.695 8.51562)" fill="#B19CF3"/>
<rect x="598.695" y="8.51562" width="12.1008" height="3" transform="rotate(-60 598.695 8.51562)" fill="#B19CF3"/>
<rect x="605.695" y="8.51562" width="12.1008" height="3" transform="rotate(-60 605.695 8.51562)" fill="#B19CF3"/>
<rect x="612.695" y="8.51562" width="12.1008" height="3" transform="rotate(-60 612.695 8.51562)" fill="#B19CF3"/>
<rect x="619.695" y="8.51562" width="12.1008" height="3" transform="rotate(-60 619.695 8.51562)" fill="#B19CF3"/>
<rect x="626.695" y="8.51562" width="12.1008" height="3" transform="rotate(-60 626.695 8.51562)" fill="#B19CF3"/>
<rect x="633.695" y="8.51562" width="12.1008" height="3" transform="rotate(-60 633.695 8.51562)" fill="#B19CF3"/>
<rect x="640.695" y="8.51562" width="12.1008" height="3" transform="rotate(-60 640.695 8.51562)" fill="#B19CF3"/>
<rect x="647.695" y="8.51562" width="12.1008" height="3" transform="rotate(-60 647.695 8.51562)" fill="#B19CF3"/>
<rect x="654.695" y="8.51562" width="12.1008" height="3" transform="rotate(-60 654.695 8.51562)" fill="#B19CF3"/>
<rect x="661.695" y="8.51562" width="12.1008" height="3" transform="rotate(-60 661.695 8.51562)" fill="#B19CF3"/>
<rect x="668.695" y="8.51562" width="12.1008" height="3" transform="rotate(-60 668.695 8.51562)" fill="#B19CF3"/>
<rect x="675.695" y="8.51562" width="12.1008" height="3" transform="rotate(-60 675.695 8.51562)" fill="#B19CF3"/>
<rect x="682.695" y="8.51562" width="12.1008" height="3" transform="rotate(-60 682.695 8.51562)" fill="#B19CF3"/>
<rect x="689.695" y="8.51562" width="12.1008" height="3" transform="rotate(-60 689.695 8.51562)" fill="#B19CF3"/>
<rect x="696.695" y="8.51562" width="12.1008" height="3" transform="rotate(-60 696.695 8.51562)" fill="#B19CF3"/>
<rect x="703.695" y="8.51562" width="12.1008" height="3" transform="rotate(-60 703.695 8.51562)" fill="#B19CF3"/>
<rect x="710.695" y="8.51562" width="12.1008" height="3" transform="rotate(-60 710.695 8.51562)" fill="#B19CF3"/>
<rect x="717.695" y="8.51562" width="12.1008" height="3" transform="rotate(-60 717.695 8.51562)" fill="#B19CF3"/>
<rect x="724.695" y="8.51562" width="12.1008" height="3" transform="rotate(-60 724.695 8.51562)" fill="#B19CF3"/>
<rect x="731.695" y="8.51562" width="12.1008" height="3" transform="rotate(-60 731.695 8.51562)" fill="#B19CF3"/>
<rect x="738.695" y="8.51562" width="12.1008" height="3" transform="rotate(-60 738.695 8.51562)" fill="#B19CF3"/>
<rect x="745.695" y="8.51562" width="12.1008" height="3" transform="rotate(-60 745.695 8.51562)" fill="#B19CF3"/>
<rect x="752.695" y="8.51562" width="12.1008" height="3" transform="rotate(-60 752.695 8.51562)" fill="#B19CF3"/>
<rect x="759.695" y="8.51562" width="12.1008" height="3" transform="rotate(-60 759.695 8.51562)" fill="#B19CF3"/>
<rect x="766.695" y="8.51562" width="12.1008" height="3" transform="rotate(-60 766.695 8.51562)" fill="#B19CF3"/>
<rect x="773.695" y="8.51562" width="12.1008" height="3" transform="rotate(-60 773.695 8.51562)" fill="#B19CF3"/>
</g>
</svg>
