<svg width="179" height="144" viewBox="0 0 179 144" fill="none" xmlns="http://www.w3.org/2000/svg">
<g clip-path="url(#clip0_1716_4242)">
<g opacity="0.2">
<path d="M45.6996 121.259C63.8333 116.755 84.4363 112.169 116.431 112.95C134.322 113.385 138.378 107.828 151.939 100.92C164.026 94.7613 169.963 82.5144 166.317 75.5743C162.636 68.5664 151.423 71.3553 142.244 60.9272C138.06 56.1768 138.798 52.8458 136.382 47.5783C128.739 30.8984 100.083 17.8598 85.9542 24.7607C67.2861 33.8763 83.2461 73.2633 62.3794 84.0194C49.181 90.8276 39.2037 77.7604 26.1728 87.7356C19.7161 92.6785 11.8162 99.608 11.2069 107.137C11.2069 107.137 10.3517 125.539 45.6996 121.259Z" stroke="#0F31AC" stroke-width="0.612251" stroke-miterlimit="10" stroke-linecap="round" stroke-dasharray="1.53 1.53"/>
<path d="M145.882 100.763C145.882 100.763 142.6 105.121 139.314 111.102C136.35 116.494 134.098 123.763 133.602 129.829C132.206 129.765 130.673 129.701 129.016 129.644C119.207 129.294 105.043 129.077 89.2928 129.077C71.3872 129.077 55.5305 129.358 45.792 129.793C45.4571 129.808 45.1292 129.822 44.8085 129.836C32.647 114.754 8.15999 88.4699 30.6943 77.6602C30.6943 77.6602 32.3477 77.1574 34.8206 76.0732C42.6563 72.6531 58.7517 63.4447 56.9629 46.0836C56.9629 46.0836 56.3501 42.8454 56.3501 38.3375C56.3501 27.7953 59.6853 10.3237 81.9452 11.119C95.4252 11.604 107.84 18.4693 115.344 29.4573C122.706 40.2348 134.475 53.4981 144.064 45.9267C146.277 44.1792 149.203 43.5301 151.932 44.2969C158.834 46.237 166.673 56.2799 145.882 100.763Z" fill="#ACBCF8"/>
</g>
<path d="M159.271 58.8171C159.236 59.6517 159.168 60.529 159.068 61.4563C158.762 64.3236 158.135 67.6546 157.105 71.5134C157.033 71.7868 156.959 72.0614 156.88 72.3372C156.754 72.7937 156.624 73.2562 156.488 73.7245C155.95 75.5791 155.323 77.5441 154.607 79.6304C154.448 80.0893 154.285 80.5529 154.119 81.0213C154.019 81.2995 153.918 81.5789 153.816 81.8594C153.092 83.8602 152.284 85.9679 151.389 88.1826C151.09 88.922 150.781 89.6745 150.463 90.4401C150.085 91.3436 149.693 92.2649 149.287 93.204C149.22 93.3562 149.154 93.5095 149.087 93.6641C148.695 94.5676 148.29 95.4877 147.872 96.4244C147.803 96.5766 147.733 96.7311 147.662 96.8881C147.256 97.7892 146.838 98.7069 146.408 99.6413C146.334 99.7958 146.262 99.9504 146.19 100.105C146.088 100.326 145.985 100.547 145.88 100.768C145.88 100.768 145.314 101.521 144.412 102.833C144.31 102.983 144.203 103.14 144.092 103.304C143.575 104.067 142.969 104.984 142.313 106.022C142.057 106.432 141.793 106.856 141.522 107.298C140.81 108.461 140.061 109.741 139.313 111.107C137.36 114.663 135.714 119.032 134.677 123.336C134.506 124.049 134.353 124.759 134.214 125.465C133.925 126.963 133.715 128.429 133.601 129.834C132.204 129.77 130.672 129.706 129.015 129.649C124.255 129.478 118.464 129.338 111.965 129.242C111.782 129.24 111.599 129.237 111.416 129.235C109.189 129.203 106.88 129.174 104.503 129.153C103.734 129.143 102.957 129.136 102.173 129.132C99.586 129.11 96.9277 129.096 94.2125 129.089C94.0628 129.089 93.912 129.089 93.7599 129.089C93.5129 129.086 93.2658 129.085 93.0188 129.085C92.0424 129.083 91.0602 129.082 90.0719 129.082C89.813 129.082 89.5529 129.082 89.2916 129.082C88.807 129.082 88.3247 129.082 87.8449 129.082C86.8923 129.082 85.9468 129.083 85.0085 129.085C79.7883 129.099 74.7818 129.139 70.089 129.196C69.7065 129.201 69.3252 129.205 68.9451 129.21C59.62 129.331 51.6132 129.538 45.7908 129.798C45.4559 129.813 45.128 129.828 44.8073 129.845C43.7776 128.568 42.6622 127.213 41.497 125.793C41.2286 125.468 40.9578 125.14 40.6846 124.809C38.5609 122.227 36.3018 119.456 34.1032 116.585C33.7825 116.167 33.463 115.746 33.1447 115.323C31.0209 112.494 28.9863 109.581 27.2296 106.674C27.0015 106.296 26.7782 105.919 26.5597 105.544C20.8905 95.7468 18.642 86.0963 27.0407 79.8409C27.3686 79.596 27.7142 79.3558 28.0777 79.1205C28.8687 78.6105 29.7382 78.1219 30.6931 77.6654C30.6931 77.6654 32.3465 77.1625 34.8194 76.0819C37.6807 74.8301 41.6396 72.8116 45.4309 69.905C45.9868 69.477 46.5391 69.0312 47.0843 68.564C48.0214 67.7687 48.9301 66.9128 49.7995 65.9998C50.5549 65.2045 51.2783 64.3664 51.9518 63.4819C52.8533 62.3086 53.6693 61.0533 54.3748 59.7159C54.5743 59.3378 54.7644 58.9527 54.9449 58.5604C55.1659 58.0849 55.3713 57.5998 55.5614 57.1053C55.6683 56.8271 55.7704 56.5442 55.8678 56.2565C56.8976 53.2358 57.3502 49.8549 56.9618 46.0888C56.9618 46.0888 56.723 44.8227 56.5449 42.7685C56.495 42.2229 56.4522 41.6201 56.4201 40.9711C56.3774 40.1615 56.3489 39.2806 56.3489 38.3427C56.3489 36.2849 56.4772 33.9596 56.8477 31.563C56.9368 30.9817 57.0402 30.3968 57.1613 29.8119C57.7172 27.0872 58.6151 24.3268 60.0155 21.7876C60.9206 20.1542 62.0359 18.6171 63.4006 17.2405C65.0504 15.5857 67.0637 14.1698 69.5224 13.1142C69.9381 12.9359 70.3669 12.7683 70.8087 12.6113C73.8554 11.5272 77.5291 10.9672 81.9441 11.1242C83.2839 11.1741 84.6165 11.2847 85.9314 11.4558C86.4374 11.5224 86.9398 11.5973 87.4387 11.6805C89.4377 12.0158 91.3939 12.4901 93.3039 13.0999C93.7457 13.2402 94.1852 13.3876 94.6223 13.5422C96.828 14.3268 98.9624 15.2897 101.001 16.4202C101.288 16.5795 101.574 16.7424 101.859 16.9088C103.58 17.9145 105.23 19.0415 106.791 20.2826C107.323 20.7058 107.844 21.1409 108.355 21.5879C110.985 23.8917 113.34 26.5309 115.343 29.4624C115.721 30.0152 116.109 30.5751 116.508 31.1386C116.989 31.8126 117.484 32.4902 117.994 33.1714C121.643 38.0431 126.008 42.8898 130.523 45.7001C131.103 46.0638 131.691 46.3955 132.279 46.6844C136.277 48.6708 140.336 48.8741 144.063 45.9319C144.412 45.6537 144.783 45.404 145.164 45.1829C145.51 44.9868 145.866 44.8085 146.233 44.6587C148.022 43.9204 150.024 43.7671 151.931 44.302C155.676 45.3541 159.695 48.7921 159.271 58.8171Z" fill="#FDFDFE"/>
<path d="M124.461 61.4595L121.076 71.3347L94.1584 71.1208V63.7491L124.461 61.4595Z" fill="#F4F6FC"/>
<path d="M91.8262 79.0447L75.1286 79.1374L75.0823 74.1909L91.8725 73.9163L91.8262 79.0447Z" fill="#F4F6FC"/>
<path d="M121.076 71.8685V79.126H94.1584V71.5261L121.076 71.8685Z" fill="#F4F6FC"/>
<path d="M156.488 73.7201C155.95 75.5746 155.323 77.5397 154.603 79.626C154.446 80.0849 154.285 80.5485 154.118 81.0169H123.485V73.417L156.488 73.7201Z" fill="#F4F6FC"/>
<path d="M153.816 81.8658C153.093 83.8665 152.284 85.9742 151.39 88.1889L123.464 87.2831L123.45 81.6125L153.816 81.8658Z" fill="#F4F6FC"/>
<path d="M91.8268 70.1537L75.1292 62.9211V51.1057L91.9657 62.6465L91.8268 70.1537Z" fill="#F4F6FC"/>
<path d="M91.8246 73.4545L75.127 73.7291V63.7932L91.8246 70.5693V73.4545Z" fill="#E8E1FF"/>
<path d="M100.061 98.4049L83.2248 98.1767L80.1604 91.4897H100.061V98.4049Z" fill="#F4F6FC"/>
<path d="M91.8732 107.069L87.5723 108.075L83.4104 98.4602L90.088 98.6421L91.8732 107.069Z" fill="#F4F6FC"/>
<path d="M100.059 104.956L93.4281 106.514L92.1917 99.8737L100.059 99.5991V104.956Z" fill="#E8E1FF"/>
<path d="M109.249 90.8501V103.022L102.308 104.509L102.301 91.492L109.249 90.8501Z" fill="#F4F6FC"/>
<path d="M116.728 90.02V102.192L109.787 103.679L109.78 90.662L116.728 90.02Z" fill="#F4F6FC"/>
<path d="M124.107 89.2698L131.625 89.5551L131.091 100.646L124.107 101.442L117.166 102.929L117.158 89.9117L124.107 89.2698Z" fill="#E8E1FF"/>
<path d="M86.6582 89.2206L86.7402 81.6064L91.9069 81.6635L91.825 89.2777L86.6582 89.2206Z" fill="#F4F6FC"/>
<path d="M79.3374 89.2563L75.8596 81.6064L86.3286 81.7348L86.2466 89.349L79.3374 89.2563Z" fill="#F4F6FC"/>
<path d="M121.075 81.7269V87.6685L101.156 89.2234L101.242 81.6128L121.075 81.7269Z" fill="#F4F6FC"/>
<path d="M92.2441 89.1957L92.3261 81.5815L100.832 81.6707L100.75 89.2849L92.2441 89.1957Z" fill="#F4F6FC"/>
<path d="M109.246 105.223V111.792L98.553 111.296L98.7347 107.619L109.246 105.223Z" fill="#F4F6FC"/>
<path d="M109.245 112.206V119.129L98.2131 118.615L98.5338 111.707L109.245 112.206Z" fill="#E8E1FF"/>
<path d="M111.417 129.23C109.19 129.198 106.881 129.17 104.504 129.148L97.8655 126.523L98.1256 119.013L109.247 119.533L111.417 129.23Z" fill="#F4F6FC"/>
<path d="M95.8073 108.394L95.2585 126.068L90.0739 129.082C89.815 129.082 89.5549 129.082 89.2936 129.082C88.809 129.082 88.3267 129.082 87.8469 129.082L87.8362 110.12L95.8073 108.394Z" fill="#F4F6FC"/>
<path d="M102.171 129.134C99.588 129.113 96.9297 129.098 94.2145 129.091L94.2109 128.656L96.1387 127.301L102.171 129.134Z" fill="#F4F6FC"/>
<path d="M93.759 129.096C93.5119 129.093 93.2649 129.092 93.0178 129.092L93.7554 128.636L93.759 129.096Z" fill="#F4F6FC"/>
<path d="M85.0097 117.97H70.2327V113.433L85.0097 111.054V117.97Z" fill="#F4F6FC"/>
<path d="M85.0097 125.296H70.2327V118.381H85.0097V125.296Z" fill="#E8E1FF"/>
<path d="M85.0096 125.621V129.094C79.7894 129.109 74.783 129.144 70.0901 129.205L70.2326 125.621H85.0096Z" fill="#F4F6FC"/>
<path d="M75.5832 88.3784L69.9104 88.6744V81.8983L73.0212 81.7842L75.5832 88.3784Z" fill="#F4F6FC"/>
<path d="M78.7422 96.028L69.9124 96.2527V89.2947L75.8595 89.1128L78.7422 96.028Z" fill="#E8E1FF"/>
<path d="M81.6249 102.676L69.9124 103.457V97.0159L78.7422 96.7698L81.6249 102.676Z" fill="#F4F6FC"/>
<path d="M84.048 108.489L69.9658 111.652L69.9124 110.332V103.952L81.6249 103.36L84.048 108.489Z" fill="#F4F6FC"/>
<path d="M72.3335 66.4824V78.7079H45.4983L47.084 68.5545C48.0211 67.7592 48.9297 66.9032 49.7992 65.9902L72.3335 66.4824Z" fill="#F4F6FC"/>
<path d="M72.3334 49.7878V56.6888L59.0388 56.6745L55.8674 56.2537C56.8972 53.2329 57.3498 49.852 56.9614 46.086C56.9614 46.086 56.7226 44.8199 56.5445 42.7657L72.3299 41.7671L72.3334 49.7878Z" fill="#E8E1FF"/>
<path d="M72.3312 57.1069V64.0221H69.9082V57.1069H72.3312Z" fill="#F4F6FC"/>
<path d="M69.3393 57.1069V64.0221H66.9163V57.1069H69.3393Z" fill="#F4F6FC"/>
<path d="M66.3491 57.1069V64.0221H63.926V57.1069H66.3491Z" fill="#F4F6FC"/>
<path d="M63.3549 57.1064V64.0216H60.9319V57.1064H63.3549Z" fill="#F4F6FC"/>
<path d="M60.3608 57.1064V64.0216H57.9377V57.1064H60.3608Z" fill="#F4F6FC"/>
<path d="M57.3666 57.1069V64.0221H54.9436V58.562C55.1645 58.0865 55.37 57.6015 55.5601 57.1069H57.3666Z" fill="#F4F6FC"/>
<path d="M54.3745 59.7134V64.018H51.9514V63.4795C52.8529 62.3061 53.6689 61.0508 54.3745 59.7134Z" fill="#F4F6FC"/>
<path d="M102.031 53.4417V61.1272L94.6624 61.4553L87.4788 56.5088L91.3236 51.1057L102.031 53.4417Z" fill="#F4F6FC"/>
<path d="M97.6974 52.2071L91.8108 50.645C91.8607 50.6236 91.9426 49.971 92.021 49.3968C92.059 49.392 92.0982 49.3896 92.1386 49.3896H97.5263L97.6974 52.2071Z" fill="#F4F6FC"/>
<path d="M109.248 53.9291V60.666L102.442 61.1296V53.4441L109.244 53.7544C109.246 53.8114 109.248 53.8697 109.248 53.9291Z" fill="#F4F6FC"/>
<path d="M116.873 53.3273V60.0642L110.067 60.5278V52.8423L116.869 53.1526C116.871 53.2096 116.873 53.2679 116.873 53.3273Z" fill="#F4F6FC"/>
<path d="M124.46 52.6833V59.4201L117.655 59.8838V52.1982L124.457 52.5085C124.459 52.5656 124.46 52.6238 124.46 52.6833Z" fill="#F4F6FC"/>
<path d="M86.9751 56.0463L81.092 52.43L83.3191 49.3772L85.7279 45.686L91.8211 48.2538L86.9751 56.0463Z" fill="#F4F6FC"/>
<path d="M109.102 52.7278L98.0521 52.2784L98.0022 49.3896H105.107C107.014 49.3896 108.621 50.8019 109.102 52.7278Z" fill="#E8E1FF"/>
<path d="M68.9443 81.7812V110.241H57.6487V81.7812H68.9443Z" fill="#F4F6FC"/>
<path d="M56.7926 81.6075L32.3127 81.0725L43.1808 93.7688L56.7926 94.2324V81.6075Z" fill="#E9EDF9"/>
<path d="M41.3296 94.6229L26.5597 105.543C20.8905 95.7463 18.642 86.0957 27.0407 79.8403L41.3296 94.6229Z" fill="#F4F6FC"/>
<path d="M42.3269 96.2607L56.7939 111.061L49.0259 117.944L34.7014 101.717L42.3269 96.2607Z" fill="#E8E1FF"/>
<path d="M40.2597 109.781L33.1438 115.323C31.0201 112.495 28.9855 109.581 27.2288 106.675L33.7033 102.256L40.2597 109.781Z" fill="#F4F6FC"/>
<path d="M37.6995 127.176L38.0986 127.03L37.8028 127.287L37.6995 127.176Z" fill="#F4F6FC"/>
<path d="M47.564 118.878L40.6832 124.812C38.5595 122.23 36.3004 119.459 34.1018 116.588L40.7937 111.067L47.564 118.878Z" fill="#F4F6FC"/>
<path d="M44.0413 95.3076L56.4059 107.041L56.7622 96.0209L44.0413 95.3076Z" fill="#F4F6FC"/>
<path d="M45.4316 69.9077L43.5039 78.7559L28.0784 79.1232C28.8694 78.6132 29.7389 78.1246 30.6938 77.6681C30.6938 77.6681 32.3472 77.1653 34.8201 76.0847C37.6815 74.8329 41.6403 72.8143 45.4316 69.9077Z" fill="#E8E1FF"/>
<path d="M58.1143 111.774H68.9467V117.409H51.4866L58.1143 111.774Z" fill="#F4F6FC"/>
<path d="M51.8128 118.381H68.9452V124.015H43.5745L51.8128 118.381Z" fill="#E8E1FF"/>
<path d="M37.6995 127.176L38.0986 127.03L37.8028 127.287L37.6995 127.176Z" fill="#F4F6FC"/>
<path d="M68.9464 124.975V129.212C59.6212 129.333 51.6145 129.54 45.7921 129.8C45.4571 129.814 45.1293 129.83 44.8086 129.847C43.7788 128.57 42.6635 127.215 41.4983 125.795L43.7432 124.975H68.9464Z" fill="#F4F6FC"/>
<path d="M145.163 45.1846V58.8188H125.53V52.7203L132.278 46.686C136.276 48.6689 140.335 48.8758 144.062 45.9335C144.411 45.6553 144.782 45.4057 145.163 45.1846Z" fill="#F4F6FC"/>
<path d="M159.272 58.8145H146.234C146.234 58.8145 146.234 49.3494 146.234 44.656C148.023 43.9178 150.026 43.7644 151.932 44.2994C155.677 45.3515 159.697 48.7894 159.272 58.8145Z" fill="#E8E1FF"/>
<path d="M123.465 71.5156L126.672 61.4585H136.15L132.765 71.5156H123.465Z" fill="#E8E1FF"/>
<path d="M133.867 71.5164L137.074 61.4592H146.553L143.168 71.5164H133.867Z" fill="#F4F6FC"/>
<path d="M144.276 71.5164L147.483 61.4592H156.961L153.576 71.5164H144.276Z" fill="#F4F6FC"/>
<path d="M159.068 61.4585C158.762 64.3259 158.134 67.6568 157.105 71.5156H154.678L157.885 61.4585H159.068Z" fill="#F4F6FC"/>
<path d="M132.231 89.5588L139.785 90.0225L139.75 92.8399L132.196 92.3406L132.231 89.5588Z" fill="#F4F6FC"/>
<path d="M132.229 92.8328L139.783 93.2964L139.748 96.1138L131.908 95.6145L132.229 92.8328Z" fill="#F4F6FC"/>
<path d="M131.978 96.1257L139.781 96.5894L139.746 99.4068L131.906 98.9075L131.978 96.1257Z" fill="#E9EDF9"/>
<path d="M132.049 99.3965L139.781 99.8601L139.746 102.678L131.906 102.178L132.049 99.3965Z" fill="#F4F6FC"/>
<path d="M131.942 102.686L139.781 103.149L139.746 105.967L131.906 105.467L131.942 102.686Z" fill="#F4F6FC"/>
<path d="M150.466 90.4373C150.088 91.3408 149.696 92.2621 149.29 93.2012L140.307 92.8018L140.36 90.02L150.466 90.4373Z" fill="#F4F6FC"/>
<path d="M149.088 93.6678C148.696 94.5713 148.291 95.4914 147.873 96.4282L140.176 96.0894L140.251 93.3076L149.088 93.6678Z" fill="#F4F6FC"/>
<path d="M147.663 96.8879C147.256 97.789 146.838 98.7067 146.408 99.6411L140.176 99.3665L140.279 96.5847L147.663 96.8879Z" fill="#F4F6FC"/>
<path d="M146.191 100.1C146.089 100.321 145.985 100.542 145.881 100.763C145.881 100.763 145.314 101.516 144.413 102.828L140.176 102.643L140.383 99.8608L146.191 100.1Z" fill="#F4F6FC"/>
<path d="M144.092 103.304C143.575 104.067 142.97 104.984 142.314 106.021L140.176 105.929L140.226 103.147L144.092 103.304Z" fill="#E9EDF9"/>
<path d="M109.78 105.218L130.696 102.686V115.417L109.78 119.126V105.218Z" fill="#E8E1FF"/>
<path d="M134.213 125.47C133.924 126.964 133.714 128.434 133.6 129.839C132.203 129.775 130.671 129.71 129.014 129.653C124.254 129.482 118.463 129.343 111.964 129.247C111.055 125.623 109.78 120.199 109.78 120.199L130.696 116.597C130.696 116.597 132.574 121.308 134.213 125.47Z" fill="#F4F6FC"/>
<path d="M141.52 107.298C140.808 108.461 140.059 109.741 139.311 111.107C137.358 114.662 135.712 119.031 134.675 123.336L131.906 116.592V106.499L141.52 107.298Z" fill="#E8E1FF"/>
<path d="M130.526 45.701L124.465 51.1147L110.069 51.721L108.287 48.6183L117.997 33.1724C121.646 38.044 126.011 42.8907 130.526 45.701Z" fill="#E8E1FF"/>
<path d="M75.1094 47.8679L80.3831 51.7196L93.0684 30.6067L75.5726 27.3613L75.1094 47.8679Z" fill="#F4F6FC"/>
<path d="M86.4397 44.5539L91.9628 47.1574L99.9802 32.6779L94.4215 30.4668L86.4397 44.5539Z" fill="#E8E1FF"/>
<path d="M106.792 20.281L100.267 32.0678L94.7444 29.4644L101.86 16.9072C103.581 17.9129 105.231 19.0399 106.792 20.281Z" fill="#F4F6FC"/>
<path d="M93.0688 47.1565L106.894 47.9411L110.85 42.0922L97.7011 40.3804L93.0688 47.1565Z" fill="#F4F6FC"/>
<path d="M97.9846 39.1707L110.848 41.0965L114.055 35.7113L102.011 32.6799L97.9846 39.1707Z" fill="#F4F6FC"/>
<path d="M116.508 31.1381L114.52 34.6724L102.832 31.2843L108.355 21.5874C110.985 23.8913 113.34 26.5304 115.343 29.4619C115.72 30.0147 116.109 30.5746 116.508 31.1381Z" fill="#F4F6FC"/>
<path d="M72.3313 40.383L64.8127 40.704V32.6797H72.3313V40.383Z" fill="#F4F6FC"/>
<path d="M63.6368 32.6781V40.7025L56.4211 40.9735C56.3784 40.1639 56.3499 39.283 56.3499 38.3451C56.3499 36.2837 56.4781 33.962 56.8487 31.5654L63.6368 32.6781Z" fill="#F4F6FC"/>
<path d="M72.3294 26.6158V31.6801H64.8108C64.8108 31.6801 59.8436 30.389 57.1604 29.8113C57.7163 27.0901 58.6107 24.3298 60.0146 21.7905L72.3294 26.6158Z" fill="#F4F6FC"/>
<path d="M82.1293 19.5896L79.8845 26.0804L63.6358 21.1945L63.4006 17.243C65.0504 15.5882 67.0637 14.1723 69.5224 13.1167L82.1293 19.5896Z" fill="#F4F6FC"/>
<path d="M85.9315 11.4556L82.1294 18.5883L70.8088 12.6111C73.8555 11.5269 77.5292 10.967 81.9441 11.1239C83.284 11.1739 84.6166 11.2844 85.9315 11.4556Z" fill="#E8E1FF"/>
<path d="M93.3038 13.0976L85.9064 27.3595L81.0959 26.0756L87.4386 11.6782C89.4376 12.0135 91.3939 12.4878 93.3038 13.0976Z" fill="#F4F6FC"/>
<path d="M86.4397 27.689L93.8157 29.3652L96.8089 23.7303L90.395 21.3052L86.4397 27.689Z" fill="#F4F6FC"/>
<path d="M101.002 16.4205L96.8111 22.8685L90.9673 20.4434L94.6232 13.5425C96.8289 14.3271 98.9633 15.29 101.002 16.4205Z" fill="#E8E1FF"/>
<path opacity="0.1" fill-rule="evenodd" clip-rule="evenodd" d="M148.774 61.2442C148.774 63.456 144.683 69.3861 144.683 69.3861C144.683 69.3861 140.592 63.456 140.592 61.2442C140.592 59.0324 142.419 57.239 144.683 57.239C146.941 57.239 148.774 59.0324 148.774 61.2442ZM146.105 60.4432C146.105 59.672 145.466 59.0503 144.683 59.0503C143.895 59.0503 143.262 59.672 143.262 60.4432C143.262 61.2083 143.895 61.83 144.683 61.83C145.466 61.83 146.105 61.2083 146.105 60.4432Z" fill="black"/>
<path fill-rule="evenodd" clip-rule="evenodd" d="M148.617 61.1065C148.617 63.2406 144.669 68.9674 144.669 68.9674C144.669 68.9674 140.715 63.2406 140.715 61.1065C140.715 58.9724 142.489 57.2388 144.669 57.2388C146.849 57.2388 148.617 58.9724 148.617 61.1065ZM146.043 60.3293C146.043 59.5881 145.427 58.9903 144.669 58.9903C143.91 58.9903 143.295 59.5881 143.295 60.3293C143.295 61.0706 143.91 61.6744 144.669 61.6744C145.427 61.6744 146.043 61.0706 146.043 60.3293Z" fill="#0053fa"/>
<path opacity="0.1" fill-rule="evenodd" clip-rule="evenodd" d="M144.671 68.4367C144.319 67.9047 143.632 66.8526 142.951 65.6869C141.356 62.9371 141.016 61.6817 141.016 61.1079C141.016 59.1411 142.658 57.5391 144.671 57.5391C146.684 57.5391 148.32 59.1411 148.32 61.1079C148.32 61.6817 147.986 62.9371 146.385 65.6869C145.71 66.8586 145.023 67.9047 144.671 68.4367ZM144.671 58.6928C143.745 58.6928 142.999 59.4281 142.999 60.3307C142.999 61.2394 143.745 61.9747 144.671 61.9747C145.591 61.9747 146.343 61.2394 146.343 60.3307C146.343 59.4281 145.591 58.6928 144.671 58.6928Z" fill="white"/>
<path opacity="0.2" d="M35.3803 101.992C35.3803 103.793 33.9163 105.259 32.1159 105.259C30.3156 105.259 28.8516 103.793 28.8516 101.992C28.8516 100.19 30.3156 98.7244 32.1159 98.7244C33.9163 98.7244 35.3803 100.19 35.3803 101.992Z" fill="#0053fa"/>
<path opacity="0.2" d="M32.1141 103.78C31.1249 103.78 30.3203 102.974 30.3203 101.984C30.3203 100.994 31.1249 100.189 32.1141 100.189C33.1033 100.189 33.9078 100.994 33.9078 101.984C33.9078 102.974 33.1033 103.78 32.1141 103.78Z" fill="#0053fa"/>
<path d="M32.1147 102.969C31.5739 102.969 31.1387 102.533 31.1387 101.992C31.1387 101.451 31.5739 101.009 32.1147 101.009C32.6555 101.009 33.0907 101.451 33.0907 101.992C33.0907 102.533 32.6555 102.969 32.1147 102.969Z" fill="#0053fa"/>
<path d="M144.141 69.5151L143.057 72.6714L122.342 72.4931V80.5174L104.525 80.446L92.9804 80.4104L50.3989 80.0894L29.3398 79.8398L39.3171 91.1808L42.4276 94.9692L35.3228 100.378" stroke="#00B507" stroke-width="1.08482" stroke-miterlimit="10" stroke-linecap="round"/>
</g>
<g opacity="0.2">
<rect x="20.1348" y="0.03125" width="35.7992" height="35.7992" rx="17.8996" fill="#C7B8F2"/>
</g>
<g opacity="0.2">
<rect x="22.8457" y="2.74512" width="30.3751" height="30.3751" rx="15.1875" fill="#C7B8F2"/>
</g>
<rect x="25.5566" y="5.45557" width="24.951" height="24.951" rx="12.4755" fill="white"/>
<path d="M42.6126 15.2998L43.1446 14.1214L44.323 13.5894C44.5856 13.4682 44.5856 13.0978 44.323 12.9766L43.1446 12.4446L42.6126 11.2595C42.4914 10.9968 42.1211 10.9968 41.9998 11.2595L41.4679 12.4379L40.2827 12.9699C40.0201 13.0911 40.0201 13.4614 40.2827 13.5826L41.4611 14.1146L41.9931 15.2998C42.1143 15.5624 42.4914 15.5624 42.6126 15.2998ZM37.2525 16.3099L36.1818 13.953C35.9461 13.4278 35.1919 13.4278 34.9562 13.953L33.8855 16.3099L31.5287 17.3805C31.0035 17.623 31.0035 18.3704 31.5287 18.6061L33.8855 19.6768L34.9562 22.0336C35.1986 22.5589 35.9461 22.5589 36.1818 22.0336L37.2525 19.6768L39.6093 18.6061C40.1346 18.3637 40.1346 17.6162 39.6093 17.3805L37.2525 16.3099ZM41.9931 20.6869L41.4611 21.8653L40.2827 22.3973C40.0201 22.5185 40.0201 22.8889 40.2827 23.0101L41.4611 23.542L41.9931 24.7272C42.1143 24.9898 42.4847 24.9898 42.6059 24.7272L43.1379 23.5488L44.323 23.0168C44.5856 22.8956 44.5856 22.5252 44.323 22.404L43.1446 21.872L42.6126 20.6869C42.4914 20.4243 42.1143 20.4243 41.9931 20.6869Z" fill="#947CE3"/>
<path d="M106.826 115.562L112.43 129.923L86.4427 130.221L80.7185 116.157L106.826 115.562Z" fill="#CFC2F9"/>
<path d="M134.002 61.6134V114.063C134.002 116.798 131.786 119.021 129.05 119.021H55.0342C52.2987 119.021 50.0762 116.798 50.0762 114.063V63.1901C50.0762 60.4926 52.2291 58.2891 54.9266 58.2321L128.942 56.6554C131.722 56.5984 134.002 58.8336 134.002 61.6134Z" fill="#947CE3"/>
<path d="M54.0098 63.4623L129.235 62.0312V111.511L54.0098 112.106V63.4623Z" fill="white"/>
<path d="M122.525 68.0708V105.424H60.2109L60.3692 101.353L61.642 68.7104L122.525 68.0708Z" fill="white"/>
<path d="M122.523 100.699V105.423H60.209L60.3673 101.351L122.523 100.699Z" fill="#E8E1FF"/>
<path fill-rule="evenodd" clip-rule="evenodd" d="M77.9307 97.4966H63.7464C62.9425 97.4966 62.2871 97.0719 62.2871 96.5475V87.6862C62.2871 87.1619 62.9425 86.7319 63.7464 86.7319H77.9307C78.7345 86.7319 79.3838 87.1619 79.3838 87.6862V96.5475C79.3838 97.0719 78.7345 97.4966 77.9307 97.4966Z" fill="#E8E1FF"/>
<path fill-rule="evenodd" clip-rule="evenodd" d="M77.9288 84.1997H63.7444C62.9406 84.1997 62.2852 83.775 62.2852 83.2506V74.3893C62.2852 73.865 62.9406 73.4351 63.7444 73.4351H77.9288C78.7326 73.4351 79.3818 73.865 79.3818 74.3893V83.2506C79.3818 83.775 78.7326 84.1997 77.9288 84.1997Z" fill="#E8E1FF"/>
<path d="M122.75 78.0582H87.9297V74.7212H122.75V78.0582Z" fill="#E8E1FF"/>
<path d="M122.75 87.2189H87.9297V83.8882H122.75V87.2189Z" fill="#E8E1FF"/>
<path d="M122.75 96.3934H87.9297V93.0627H122.75V96.3934Z" fill="#E8E1FF"/>
<path d="M163.33 130.974C163.33 131.873 130.908 132.601 90.9179 132.601C68.3543 132.601 48.1981 132.367 34.9176 132.003C31.859 131.922 29.1676 131.832 26.8919 131.734C25.392 131.671 24.0757 131.603 22.9569 131.536C20.0785 131.361 18.5059 131.172 18.5059 130.974C18.5059 130.722 21.0587 130.479 25.6137 130.268C27.4807 130.183 29.6803 130.097 32.1812 130.021C45.3335 129.612 66.7401 129.347 90.9179 129.347C112.183 129.347 131.31 129.549 144.556 129.877C156.222 130.169 163.33 130.551 163.33 130.974Z" fill="#E8E1FF"/>
<defs>
<clipPath id="clip0_1716_4242">
<rect width="178.165" height="142.655" fill="white" transform="translate(0.208984 0.57373)"/>
</clipPath>
</defs>
</svg>
