<svg width="100" height="100" viewBox="0 0 100 100" fill="none" xmlns="http://www.w3.org/2000/svg">
<g clip-path="url(#clip0_4777_5157)">
<g clip-path="url(#clip1_4777_5157)">
<g clip-path="url(#clip2_4777_5157)">
<path opacity="0.06" fill-rule="evenodd" clip-rule="evenodd" d="M79.0224 89.1529C87.8985 81.1617 93.4823 69.5598 93.4823 56.6492C93.4823 32.5424 74.0146 13 49.9999 13C25.9853 13 6.51758 32.5424 6.51758 56.6492C6.51758 69.4165 11.9781 80.9036 20.6826 88.8852C34.5529 88.8694 66.2533 89.4437 79.0224 89.1529Z" fill="#B2B2B2"/>
<path d="M29.9799 35.0747C29.2919 35.0747 28.6469 35.276 28.1095 35.6298C27.572 32.7183 25.0513 30.5088 22.02 30.5088C18.9832 30.5088 16.4518 32.7237 15.9251 35.6461C15.2854 35.2815 14.5491 35.0747 13.759 35.0747C11.3189 35.0747 9.34106 37.0773 9.34106 39.548C9.34106 40.027 9.41631 40.4896 9.55605 40.9249H32.592C33.1348 40.3045 33.4626 39.4882 33.4626 38.5957C33.4573 36.6529 31.904 35.0747 29.9799 35.0747Z" fill="#FEFEFE" stroke="#0053fa" stroke-width="0.503913" stroke-linecap="round" stroke-linejoin="round"/>
<path d="M87.5551 26.5058C87.0937 26.5058 86.6612 26.6436 86.3009 26.8857C85.9406 24.8936 84.2504 23.3818 82.218 23.3818C80.1823 23.3818 78.4848 24.8973 78.1318 26.8968C77.7032 26.6474 77.2091 26.5058 76.6794 26.5058C75.0435 26.5058 73.7175 27.8761 73.7175 29.5666C73.7175 29.8943 73.7678 30.2108 73.8615 30.5087H89.3062C89.6699 30.0842 89.8901 29.5257 89.8901 28.915C89.8862 27.5857 88.8449 26.5058 87.5551 26.5058Z" fill="#FEFEFE" stroke="#0053fa" stroke-width="0.503913" stroke-linecap="round" stroke-linejoin="round"/>
<path d="M41.9233 27.1666L41.6772 27.1827L41.6773 27.1845L41.6776 27.1901L41.679 27.2122L41.6844 27.2978C41.689 27.3726 41.6956 27.4811 41.7034 27.6166C41.7189 27.8876 41.7393 28.2658 41.7588 28.6948C41.7978 29.5542 41.8327 30.6115 41.8174 31.4176C41.803 32.2661 41.9678 32.9807 42.1362 33.4831C42.2205 33.7346 42.306 33.9339 42.3711 34.0715C42.3737 34.0769 42.3761 34.0821 42.3786 34.0872C41.0424 35.0885 40.6819 36.8804 40.8145 38.3381C40.8842 39.1044 41.0919 39.8128 41.3941 40.3054C41.545 40.5514 41.7287 40.7588 41.9458 40.8849C42.0532 40.9475 42.1679 40.9892 42.2871 41.0058C42.0975 41.9266 42.276 42.5318 42.5607 42.9188C42.6901 43.0947 42.8352 43.2166 42.9612 43.2991C42.9378 43.3304 42.9134 43.3645 42.8884 43.4016C42.7258 43.6426 42.5367 44.0068 42.4139 44.5123C42.1675 45.526 42.1937 47.0814 43.1866 49.3177C43.4128 49.8272 43.5724 50.6704 43.6685 51.7833C43.7639 52.8886 43.7949 54.2343 43.7772 55.732C43.7418 58.7269 43.5121 62.3127 43.221 65.7656C42.93 69.2174 42.578 72.5328 42.2987 74.9853C42.159 76.2119 42.0376 77.2221 41.9511 77.9258C41.9078 78.2776 41.8733 78.5526 41.8496 78.7395C41.8378 78.8332 41.8286 78.905 41.8224 78.953L41.8154 79.0077L41.8136 79.0213L41.8132 79.0247L41.8131 79.0258C41.813 79.0258 41.813 79.0258 42.0577 79.0574L41.8131 79.0258C41.8039 79.0964 41.8255 79.167 41.8723 79.2206C41.9192 79.2737 41.9867 79.3042 42.0577 79.3042H56.9C56.9671 79.3042 57.0313 79.2771 57.0778 79.2285C57.1243 79.18 57.1491 79.115 57.1465 79.0478L56.9 79.0574C57.1465 79.0478 57.1465 79.0478 57.1465 79.0478V79.0467L57.1463 79.0439L57.1459 79.032L57.1441 78.9851L57.1368 78.801C57.1306 78.6395 57.1214 78.4029 57.1098 78.1014C57.0867 77.4977 57.0539 76.6337 57.0152 75.5918C56.938 73.5086 56.8377 70.715 56.7451 67.8729C56.6525 65.0303 56.5676 62.1404 56.5214 59.8645C56.4983 58.7264 56.4848 57.7431 56.4848 56.9966C56.4848 56.657 56.4877 56.3714 56.4933 56.1442C56.9921 56.6423 57.4651 56.8943 57.9141 56.8859C58.5037 56.8749 58.9186 56.4242 59.1961 55.8517C59.7543 54.7001 59.9273 52.732 59.7932 50.9919C59.6591 49.2527 58.9236 48.39 58.235 47.5822C58.2067 47.549 58.1785 47.516 58.1505 47.483C57.7967 47.0666 57.4697 46.6642 57.2272 46.1478C56.9865 45.635 56.824 44.9979 56.824 44.1143C56.824 42.2089 56.1088 41.0702 55.2599 40.3509C54.8408 39.9957 54.3956 39.748 54.005 39.5599C53.8317 39.4765 53.6672 39.4038 53.5216 39.3396C53.5035 39.3316 53.4857 39.3237 53.4681 39.316C53.3068 39.2446 53.1768 39.1859 53.0768 39.131L53.0762 39.1307C52.7347 38.9444 52.6529 38.664 52.6547 38.4062C52.6556 38.2734 52.6797 38.1504 52.7046 38.0592C52.714 38.0244 52.7234 37.995 52.7312 37.9724C52.9381 37.7793 52.9497 37.5102 52.93 37.3385C52.9187 37.239 52.8953 37.1511 52.8754 37.0892C52.8653 37.0578 52.8558 37.032 52.8486 37.0133C52.8456 37.0057 52.843 36.9993 52.8408 36.9941C52.6658 36.4521 52.5896 35.8855 52.5579 35.4495C52.542 35.2311 52.5373 35.0476 52.5367 34.9192C52.5364 34.8551 52.5371 34.8049 52.5378 34.7711C52.538 34.7625 52.5381 34.755 52.5383 34.7485L52.7103 34.1299L54.8135 34.1552C54.9377 34.1568 55.0436 34.0657 55.0608 33.9427C55.078 33.8197 55.001 33.7031 54.8813 33.6705L52.7312 33.0854L55.1517 31.9014C55.264 31.8465 55.3175 31.7162 55.2761 31.5982C55.2348 31.4802 55.1117 31.4118 54.9896 31.4391L52.1803 32.0658L51.9063 31.762L53.3406 29.172C53.3994 29.0658 53.3722 28.9325 53.2764 28.8578C53.1806 28.7832 53.0446 28.7895 52.956 28.8725L50.638 31.0462L50.2368 30.98L49.5567 27.7772C49.5313 27.6578 49.4225 27.5749 49.3007 27.5822C49.1789 27.5895 49.0807 27.6846 49.0697 27.8061L48.7692 31.115L48.5194 31.181L46.2666 29.2103C46.1757 29.1308 46.0407 29.1287 45.9475 29.2054C45.8542 29.2821 45.8302 29.415 45.8906 29.5195L47.3226 31.995L47.1982 32.1402L45.3146 31.9886C45.2192 31.2437 45.0032 30.2892 44.5156 29.3913C44.2895 28.9729 44.1244 28.3836 43.9993 27.7121C43.875 27.0445 43.7938 26.3158 43.7266 25.6285C43.6965 25.32 43.7274 25.0565 43.775 24.8175C43.7962 24.7108 43.8203 24.6106 43.8445 24.5105C43.8478 24.4969 43.851 24.4833 43.8543 24.4697C43.8811 24.3584 43.9078 24.2442 43.9251 24.1324C43.9603 23.9051 43.9605 23.6638 43.836 23.4195C43.7148 23.1814 43.4922 22.9741 43.1553 22.7712C43.0459 22.7053 42.9227 22.7082 42.8201 22.762C42.7352 22.8063 42.6756 22.8786 42.635 22.9384C42.5511 23.0619 42.4782 23.2395 42.4135 23.4327C42.2816 23.8267 42.1564 24.3719 42.0488 24.9153C41.9406 25.4613 41.8482 26.0157 41.7829 26.4329C41.7502 26.6417 41.7242 26.8165 41.7064 26.9393C41.6975 27.0006 41.6906 27.049 41.686 27.082L41.6807 27.12L41.6794 27.1298L41.679 27.1323L41.6789 27.133C41.6789 27.1331 41.6789 27.1332 41.9233 27.1666ZM41.9233 27.1666L41.6772 27.1827C41.6761 27.1662 41.6766 27.1494 41.6789 27.133L41.9233 27.1666ZM42.0641 31.4222C42.0364 33.0512 42.6969 34.1655 42.6969 34.1655C40.1105 35.8531 40.9874 40.6277 42.3436 40.7642L42.0641 31.4222Z" fill="white"/>
<path d="M41.9233 27.1666L41.6772 27.1827M41.9233 27.1666C41.6789 27.1332 41.6789 27.1331 41.6789 27.133M41.9233 27.1666L41.6789 27.133M41.6772 27.1827L41.6773 27.1845L41.6776 27.1901L41.679 27.2122L41.6844 27.2978C41.689 27.3726 41.6956 27.4811 41.7034 27.6166C41.7189 27.8876 41.7393 28.2658 41.7588 28.6948C41.7978 29.5542 41.8327 30.6115 41.8174 31.4176C41.803 32.2661 41.9678 32.9807 42.1362 33.4831C42.2205 33.7346 42.306 33.9339 42.3711 34.0715C42.3737 34.0769 42.3761 34.0821 42.3786 34.0872C41.0424 35.0885 40.6819 36.8804 40.8145 38.3381C40.8842 39.1044 41.0919 39.8128 41.3941 40.3054C41.545 40.5514 41.7287 40.7588 41.9458 40.8849C42.0532 40.9475 42.1679 40.9892 42.2871 41.0058C42.0975 41.9266 42.276 42.5318 42.5607 42.9188C42.6901 43.0947 42.8352 43.2166 42.9612 43.2991C42.9378 43.3304 42.9134 43.3645 42.8884 43.4016C42.7258 43.6426 42.5367 44.0068 42.4139 44.5123C42.1675 45.526 42.1937 47.0814 43.1866 49.3177C43.4128 49.8272 43.5724 50.6704 43.6685 51.7833C43.7639 52.8886 43.7949 54.2343 43.7772 55.732C43.7418 58.7269 43.5121 62.3127 43.221 65.7656C42.93 69.2174 42.578 72.5328 42.2987 74.9853C42.159 76.2119 42.0376 77.2221 41.9511 77.9258C41.9078 78.2776 41.8733 78.5526 41.8496 78.7395C41.8378 78.8332 41.8286 78.905 41.8224 78.953L41.8154 79.0077L41.8136 79.0213L41.8132 79.0247L41.8131 79.0258M41.6772 27.1827C41.6761 27.1662 41.6766 27.1494 41.6789 27.133M41.8131 79.0258C41.813 79.0258 41.813 79.0258 42.0577 79.0574L41.8131 79.0258ZM41.8131 79.0258C41.8039 79.0964 41.8255 79.167 41.8723 79.2206C41.9192 79.2737 41.9867 79.3042 42.0577 79.3042H56.9C56.9671 79.3042 57.0313 79.2771 57.0778 79.2285C57.1243 79.18 57.1491 79.115 57.1465 79.0478M57.1465 79.0478L56.9 79.0574C57.1465 79.0478 57.1465 79.0478 57.1465 79.0478ZM57.1465 79.0478V79.0467L57.1463 79.0439L57.1459 79.032L57.1441 78.9851L57.1368 78.801C57.1306 78.6395 57.1214 78.4029 57.1098 78.1014C57.0867 77.4977 57.0539 76.6337 57.0152 75.5918C56.938 73.5086 56.8377 70.715 56.7451 67.8729C56.6525 65.0303 56.5676 62.1404 56.5214 59.8645C56.4983 58.7264 56.4848 57.7431 56.4848 56.9966C56.4848 56.657 56.4877 56.3714 56.4933 56.1442C56.9921 56.6423 57.4651 56.8943 57.9141 56.8859C58.5037 56.8749 58.9186 56.4242 59.1961 55.8517C59.7543 54.7001 59.9273 52.732 59.7932 50.9919C59.6591 49.2527 58.9236 48.39 58.235 47.5822C58.2067 47.549 58.1785 47.516 58.1505 47.483C57.7967 47.0666 57.4697 46.6642 57.2272 46.1478C56.9865 45.635 56.824 44.9979 56.824 44.1143C56.824 42.2089 56.1088 41.0702 55.2599 40.3509C54.8408 39.9957 54.3956 39.748 54.005 39.5599C53.8317 39.4765 53.6672 39.4038 53.5216 39.3396C53.5035 39.3316 53.4857 39.3237 53.4681 39.316C53.3068 39.2446 53.1768 39.1859 53.0768 39.131L53.0762 39.1307C52.7347 38.9444 52.6529 38.664 52.6547 38.4062C52.6556 38.2734 52.6797 38.1504 52.7046 38.0592C52.714 38.0244 52.7234 37.995 52.7312 37.9724C52.9381 37.7793 52.9497 37.5102 52.93 37.3385C52.9187 37.239 52.8953 37.1511 52.8754 37.0892C52.8653 37.0578 52.8558 37.032 52.8486 37.0133C52.8456 37.0057 52.843 36.9993 52.8408 36.9941C52.6658 36.4521 52.5896 35.8855 52.5579 35.4495C52.542 35.2311 52.5373 35.0476 52.5367 34.9192C52.5364 34.8551 52.5371 34.8049 52.5378 34.7711C52.538 34.7625 52.5381 34.755 52.5383 34.7485L52.7103 34.1299L54.8135 34.1552C54.9377 34.1568 55.0436 34.0657 55.0608 33.9427C55.078 33.8197 55.001 33.7031 54.8813 33.6705L52.7312 33.0854L55.1517 31.9014C55.264 31.8465 55.3175 31.7162 55.2761 31.5982C55.2348 31.4802 55.1117 31.4118 54.9896 31.4391L52.1803 32.0658L51.9063 31.762L53.3406 29.172C53.3994 29.0658 53.3722 28.9325 53.2764 28.8578C53.1806 28.7832 53.0446 28.7895 52.956 28.8725L50.638 31.0462L50.2368 30.98L49.5567 27.7772C49.5313 27.6578 49.4225 27.5749 49.3007 27.5822C49.1789 27.5895 49.0807 27.6846 49.0697 27.8061L48.7692 31.115L48.5194 31.181L46.2666 29.2103C46.1757 29.1308 46.0407 29.1287 45.9475 29.2054C45.8542 29.2821 45.8302 29.415 45.8906 29.5195L47.3226 31.9949L47.1982 32.1402L45.3146 31.9886C45.2192 31.2437 45.0032 30.2892 44.5156 29.3913C44.2895 28.9729 44.1244 28.3836 43.9993 27.7121C43.875 27.0445 43.7938 26.3158 43.7266 25.6285C43.6965 25.32 43.7274 25.0565 43.775 24.8175C43.7962 24.7108 43.8203 24.6106 43.8445 24.5105C43.8478 24.4969 43.851 24.4833 43.8543 24.4697C43.8811 24.3584 43.9078 24.2442 43.9251 24.1324C43.9603 23.9051 43.9605 23.6638 43.836 23.4195C43.7148 23.1814 43.4922 22.9741 43.1553 22.7712C43.0459 22.7053 42.9227 22.7082 42.8201 22.762C42.7352 22.8063 42.6756 22.8786 42.635 22.9384C42.5511 23.0619 42.4782 23.2395 42.4135 23.4327C42.2816 23.8267 42.1564 24.3719 42.0488 24.9153C41.9406 25.4613 41.8482 26.0157 41.7829 26.4329C41.7502 26.6417 41.7242 26.8165 41.7064 26.9393C41.6975 27.0006 41.6906 27.049 41.686 27.082L41.6807 27.12L41.6794 27.1298L41.679 27.1323L41.6789 27.133M42.0641 31.4222C42.0364 33.0512 42.6969 34.1655 42.6969 34.1655C40.1105 35.8531 40.9874 40.6277 42.3436 40.7642L42.0641 31.4222Z" stroke="#041630" stroke-width="0.493397" stroke-linecap="round" stroke-linejoin="round"/>
<path d="M57.5818 54.7056C57.5818 54.7056 58.6599 55.349 58.8908 53.7295L57.5818 54.7056Z" fill="#FEFEFE"/>
<path d="M57.5818 54.7056C57.5818 54.7056 58.6599 55.349 58.8908 53.7295" stroke="#041630" stroke-width="0.493397" stroke-linecap="round" stroke-linejoin="round"/>
<path d="M41.4864 18.8413C41.4421 18.78 40.9244 17.7545 40.7866 17.2989C40.6077 16.7066 40.76 15.6574 41.2058 14.8895C41.452 16.2256 41.9187 15.6722 41.9187 15.6722C41.9187 15.6722 42.3913 14.2639 42.3913 13.1105C42.3913 11.957 42.8293 15.4338 42.8293 15.4338C42.8293 15.4338 43.1758 16.1177 43.5296 14.8895C43.9592 15.2284 44.1259 16.5768 44.0524 17.0497C43.9829 17.4996 43.2604 18.8413 43.0741 18.8413C43.0605 18.8413 41.5553 18.9353 41.4864 18.8413Z" fill="#D3C5FF" stroke="#0053fa" stroke-width="0.548218" stroke-linecap="round" stroke-linejoin="round"/>
<path d="M42.9841 22.5906L43.4128 21.0534L44.4716 20.594V19.0816C42.0648 18.3376 40.1187 19.0816 40.1187 19.0816V20.5081L41.0336 21.0534L41.4634 22.1953V26.5399C41.4634 26.5399 41.4839 27.4916 42.1976 27.4916C42.9113 27.4916 42.9841 26.5399 42.9841 26.5399V22.5906Z" fill="#FEFEFE" stroke="#041630" stroke-width="0.493397" stroke-linecap="round" stroke-linejoin="round"/>
<path d="M40.3174 20.5081C40.3174 20.5081 41.4143 20.3105 42.1469 20.3105C42.8795 20.3105 44.2257 20.5081 44.2257 20.5081" stroke="#041630" stroke-width="0.493397" stroke-linecap="round" stroke-linejoin="round"/>
<path d="M42.8696 33.5391L43.5319 37.1295" stroke="#041630" stroke-width="0.493397" stroke-linecap="round" stroke-linejoin="round"/>
<path d="M42.9368 34.0686C41.2085 35.334 41.2085 39.2191 43.2587 37.9694C45.309 36.7197 45.2731 32.6338 45.2731 32.6338" stroke="#041630" stroke-width="0.493397" stroke-linecap="round" stroke-linejoin="round"/>
<path d="M45.2732 37.9648C45.2732 37.9648 44.3538 40.0791 42.7812 40.0791" stroke="#041630" stroke-width="0.493397" stroke-linecap="round" stroke-linejoin="round"/>
<path d="M45.1152 32.0381C45.1152 32.0381 46.9067 34.4399 47.1735 36.0412" stroke="#041630" stroke-width="0.493397" stroke-linecap="round" stroke-linejoin="round"/>
<path d="M46.162 40.8535C46.162 40.8535 45.1955 42.6695 43.7451 42.6695" stroke="#041630" stroke-width="0.493397" stroke-linecap="round" stroke-linejoin="round"/>
<path d="M59.0344 52.4882C59.0344 52.4882 59.7428 52.9954 60.231 52.4882C60.7192 51.9809 61.6689 49.9207 61.6689 49.9207L60.8993 48.5918L58.303 52.4882H59.0344Z" fill="#FEFEFE" stroke="#041630" stroke-width="0.493397" stroke-linecap="round" stroke-linejoin="round"/>
<path d="M54.3118 50.3851L59.1251 44.4551L62.9083 46.6158L58.0366 53.7299L54.3118 50.3851Z" fill="white" stroke="#041630" stroke-width="0.548218" stroke-linecap="round" stroke-linejoin="round"/>
<path d="M53.1314 38.7217C56.7506 44.0739 56.7506 60.5713 56.7506 60.5713C56.7506 60.5713 50.1402 62.0289 49.9487 62.6973C49.9208 62.7948 49.9338 62.9725 50.0187 62.9725C52.7787 62.9725 50.4122 64.6753 48.4348 65.785C46.4574 66.8947 42.8702 68.9508 42.8702 68.9508L44.0557 56.7661C44.0557 56.7661 42.231 54.3474 44.0557 50.5458C39.1225 49.0081 49.8764 41.4779 53.1314 38.7217Z" fill="#0053fa" stroke="#041630" stroke-width="0.548218" stroke-linecap="round" stroke-linejoin="round"/>
<path d="M40.4155 23.5159C40.4155 22.2712 41.8101 21.7346 42.0964 23.0781C42.3827 24.4214 41.282 25.3813 41.282 25.3813C41.282 25.3813 40.4155 24.7607 40.4155 23.5159Z" fill="#FEFEFE" stroke="#041630" stroke-width="0.493397" stroke-linecap="round" stroke-linejoin="round"/>
<path d="M43.2455 23.304C42.3873 22.7956 41.7976 21.134 42.3783 21.6102C42.9589 22.0864 43.5319 22.6115 43.5319 22.6115" fill="#FEFEFE"/>
<path d="M43.2455 23.304C42.3873 22.7956 41.7976 21.134 42.3783 21.6102C42.9589 22.0864 43.5319 22.6115 43.5319 22.6115" stroke="#041630" stroke-width="0.548218" stroke-linecap="round" stroke-linejoin="round"/>
<path d="M43.9282 50.8439C46.3257 46.1799 53.0078 41.6748 53.0078 41.6748" stroke="#041630" stroke-width="0.493397" stroke-linecap="round" stroke-linejoin="round"/>
<path d="M44.0793 56.6941C44.0793 56.6941 44.8467 53.2431 48.2469 50.7656" stroke="#041630" stroke-width="0.493397" stroke-linecap="round" stroke-linejoin="round"/>
<path d="M60.0543 51.218C60.0543 51.218 58.7766 50.2748 59.2594 49.5765C59.7422 48.8783 60.7855 49.6585 60.7855 49.6585C60.7855 49.6585 60.7675 49.8968 60.158 48.2267C60.4532 47.4611 61.4117 49.499 61.4117 49.499" fill="#FEFEFE"/>
<path d="M60.0543 51.218C60.0543 51.218 58.7766 50.2748 59.2594 49.5765C59.7422 48.8783 60.7855 49.6585 60.7855 49.6585C60.7855 49.6585 60.7675 49.8968 60.158 48.2267C60.4532 47.4611 61.4117 49.499 61.4117 49.499" stroke="#041630" stroke-width="0.493397" stroke-linecap="round" stroke-linejoin="round"/>
<path d="M46.9495 35.6553C46.9495 35.6553 47.56 36.9079 47.2547 37.965" stroke="#041630" stroke-width="0.493397" stroke-linecap="round" stroke-linejoin="round"/>
<path d="M47.4788 36.8096C47.4788 36.8096 48.6002 37.1648 49.9268 38.7205C51.2535 40.2762 53.0076 39.0215 53.0076 39.0215" stroke="#041630" stroke-width="0.493397" stroke-linecap="round" stroke-linejoin="round"/>
<path d="M50.2432 37.13C48.7131 37.13 47.4788 33.7373 47.4788 33.7373C47.4788 33.7373 48.3556 31.8721 50.0183 31.8721C51.681 31.8721 52.3007 33.5396 52.3007 33.5396C52.3007 33.5396 51.7732 37.13 50.2432 37.13Z" fill="#FCF0F1" stroke="#041630" stroke-width="0.548218" stroke-linecap="round" stroke-linejoin="round"/>
<path d="M48.4678 35.8529V37.3274L47.4788 37.0078L47.9733 35.6221" stroke="#041630" stroke-width="0.493397" stroke-linecap="round" stroke-linejoin="round"/>
<path d="M51.441 36.4746C51.441 36.4746 51.3962 37.8598 52.1031 38.721" stroke="#041630" stroke-width="0.493397" stroke-linecap="round" stroke-linejoin="round"/>
<path d="M45.7667 67.4189L44.8779 78.4313" stroke="#041630" stroke-width="0.493397" stroke-linecap="round" stroke-linejoin="round"/>
<path d="M48.5282 65.7744L47.8574 78.5287" stroke="#041630" stroke-width="0.493397" stroke-linecap="round" stroke-linejoin="round"/>
<path d="M54.1682 61.7324L54.6632 78.4656" stroke="#041630" stroke-width="0.493397" stroke-linecap="round" stroke-linejoin="round"/>
<path d="M51.7707 62.3262L51.7017 78.2959" stroke="#041630" stroke-width="0.493397" stroke-linecap="round" stroke-linejoin="round"/>
<path d="M50.0637 62.5239L51.5218 46.8135" stroke="#041630" stroke-width="0.493397" stroke-linecap="round" stroke-linejoin="round"/>
<path d="M59.5494 78.1104H39.6003V80.9602H59.5494V78.1104Z" fill="#E4DCFF" stroke="#041630" stroke-width="0.547703" stroke-linecap="round" stroke-linejoin="round"/>
<path d="M63.5508 80.96H35.3176V83.9752H63.5508V80.96Z" fill="#E4DCFF" stroke="#041630" stroke-width="0.547703" stroke-linecap="round" stroke-linejoin="round"/>
</g>
</g>
</g>
<defs>
<clipPath id="clip0_4777_5157">
<rect width="86.9647" height="76.2353" fill="white" transform="translate(6.51758 10)"/>
</clipPath>
<clipPath id="clip1_4777_5157">
<rect width="86.9647" height="76.2353" fill="white" transform="translate(6.51758 10)"/>
</clipPath>
<clipPath id="clip2_4777_5157">
<rect width="86.9647" height="76.2353" fill="white" transform="translate(6.51758 10)"/>
</clipPath>
</defs>
</svg>
