<svg width="48" height="48" viewBox="0 0 48 48" fill="none" xmlns="http://www.w3.org/2000/svg">
<path d="M30.5149 25.3153C30.5949 24.8703 30.6349 24.3903 30.6349 23.8903C30.6349 23.3903 30.5949 22.9003 30.5099 22.4453C30.0249 19.7503 28.1549 18.0903 25.5249 17.6603C25.0749 17.5853 24.6049 17.5503 24.1199 17.5503C23.6349 17.5503 23.1199 17.5903 22.6549 17.6703C20.0299 18.1103 18.1599 19.7653 17.6749 22.4453C17.5949 22.9003 17.5499 23.3803 17.5499 23.8903C17.5499 24.4003 17.5899 24.8703 17.6699 25.3153C18.1499 27.9903 20.0199 29.6503 22.6549 30.0903C23.1199 30.1703 23.6099 30.2103 24.1199 30.2103C24.6299 30.2103 25.0799 30.1753 25.5249 30.1003C28.1549 29.6703 30.0299 28.0103 30.5099 25.3153H30.5149Z" fill="#FCA700"/>
<path d="M8.84497 23.1801L16.645 9.81006L24.445 23.1801H8.84497Z" fill="#BF63F3"/>
<path d="M21.415 17.9902C19.445 18.6802 18.0749 20.2052 17.6749 22.4452C17.6299 22.6852 17.6 22.9252 17.575 23.1802H24.44L21.415 17.9902Z" fill="#AE2A19"/>
<path d="M35.8999 25.0601H24.9399V36.0201H35.8999V25.0601Z" fill="#82B536"/>
<path d="M24.9399 25.0649V30.1749C25.1399 30.1549 25.3349 30.1299 25.5299 30.0999C28.1599 29.6749 30.0299 28.0099 30.5149 25.3149C30.5299 25.2349 30.5449 25.1499 30.5549 25.0649H24.9399Z" fill="#AE2A19"/>
</svg>
