<svg width="48" height="48" viewBox="0 0 48 48" fill="none" xmlns="http://www.w3.org/2000/svg">
<path fill-rule="evenodd" clip-rule="evenodd" d="M12.025 17V37.7L18.02 32.56H36.015V17H12.025Z" fill="#FCA700"/>
<path d="M22.68 17.615C22.68 16.13 23.865 14.94 25.33 14.94C26.795 14.94 27.98 16.125 27.98 17.615C27.98 18.37 27.8 18.715 27.635 18.935C27.44 19.19 27.195 19.37 26.765 19.685C26.695 19.74 26.615 19.795 26.53 19.855C25.995 20.25 25.315 20.79 24.805 21.685C24.29 22.585 24.005 23.715 24.005 25.21H26.655C26.655 24.05 26.87 23.405 27.1 23.01C27.33 22.605 27.645 22.33 28.105 21.99C28.16 21.95 28.22 21.905 28.285 21.86C28.7 21.56 29.29 21.135 29.735 20.55C30.31 19.8 30.63 18.86 30.63 17.615C30.63 14.685 28.28 12.29 25.33 12.29C22.38 12.29 20.03 14.685 20.03 17.615V18.94H22.68V17.615Z" fill="#1868DB"/>
<path d="M25.33 27.2051C24.415 27.2051 23.675 27.9451 23.675 28.8601C23.675 29.7751 24.415 30.5151 25.33 30.5151C26.245 30.5151 26.9851 29.7751 26.9851 28.8601C26.9851 27.9451 26.245 27.2051 25.33 27.2051Z" fill="#1868DB"/>
<path fill-rule="evenodd" clip-rule="evenodd" d="M20.06 17H22.75C22.7 17.195 22.675 17.405 22.675 17.615V18.94H20.025V17.615C20.025 17.41 20.035 17.205 20.06 17Z" fill="#AE2A19"/>
<path fill-rule="evenodd" clip-rule="evenodd" d="M26.985 28.8601C26.985 29.7751 26.245 30.5201 25.33 30.5201C24.415 30.5201 23.67 29.7751 23.67 28.8601C23.67 27.9451 24.415 27.2051 25.33 27.2051C26.245 27.2051 26.985 27.9451 26.985 28.8601Z" fill="#AE2A19"/>
<path fill-rule="evenodd" clip-rule="evenodd" d="M30.63 17.615C30.63 18.865 30.31 19.8 29.735 20.55C29.29 21.135 28.7 21.56 28.285 21.86C28.22 21.91 28.16 21.95 28.105 21.99C27.645 22.335 27.33 22.61 27.1 23.015C26.87 23.415 26.655 24.06 26.655 25.215H24.005C24.005 23.72 24.285 22.59 24.8 21.695C25.315 20.8 25.995 20.26 26.525 19.86C26.61 19.8 26.69 19.745 26.76 19.69C27.195 19.37 27.435 19.195 27.63 18.94C27.8 18.715 27.98 18.37 27.98 17.615C27.98 17.405 27.955 17.195 27.905 17H30.595C30.62 17.205 30.63 17.41 30.63 17.615Z" fill="#AE2A19"/>
</svg>
