<svg width="68" height="69" viewBox="0 0 68 69" fill="none" xmlns="http://www.w3.org/2000/svg">
<rect y="0.235596" width="68" height="68" rx="34" fill="#101214"/>
<path d="M51.8451 19.086C51.8451 17.2993 50.7571 16.2878 48.6576 16.2878H19.1184C17.0206 16.2878 15.9326 17.3078 15.9326 19.086V21.7958L48.7426 21.7295C50.7639 21.7295 51.8519 20.7962 51.8519 19.086" fill="#0C9ED9"/>
<path d="M15.9277 31.6388V49.4633C15.9277 51.3333 17.0157 52.1833 19.1152 52.1833H48.9638C50.9851 52.1833 52.0731 51.3333 52.0731 49.4633C52.0731 47.6749 50.9851 46.7433 48.9638 46.7433H23.2377C22.2279 46.7433 21.8386 46.2758 21.8386 45.3442V37.1519H41.2713C43.3708 37.1519 44.4588 36.2186 44.4588 34.4319C44.4588 32.7319 43.3708 31.7119 41.2713 31.7119L15.9277 31.6388Z" fill="white"/>
</svg>
