<svg width="48" height="48" viewBox="0 0 48 48" fill="none" xmlns="http://www.w3.org/2000/svg">
<path fill-rule="evenodd" clip-rule="evenodd" d="M16.41 11.2451H21.075L22.54 15.1601L26.665 14.4751L28.995 18.5151L26.34 21.7451L28.995 24.9701L26.665 29.0101L22.545 28.3251L21.08 32.2401H16.415L14.95 28.3251L10.83 29.0101L8.5 24.9701L11.155 21.7451L8.5 18.5201L10.83 14.4801L14.955 15.1651L16.42 11.2501L16.41 11.2451ZM18.74 25.6751C20.915 25.6751 22.675 23.9151 22.675 21.7401C22.675 19.5651 20.915 17.8051 18.74 17.8051C16.565 17.8051 14.805 19.5651 14.805 21.7401C14.805 23.9151 16.565 25.6751 18.74 25.6751Z" fill="#82B536"/>
<path fill-rule="evenodd" clip-rule="evenodd" d="M29.555 20.52H33.405L34.615 23.75L38.02 23.185L39.945 26.52L37.75 29.185L39.94 31.85L38.015 35.185L34.61 34.62L33.4 37.85H29.55L28.34 34.62L24.935 35.185L23.01 31.85L25.2 29.185L23.01 26.52L24.935 23.185L28.34 23.75L29.55 20.52H29.555ZM31.48 32.435C33.275 32.435 34.73 30.98 34.73 29.185C34.73 27.39 33.275 25.935 31.48 25.935C29.685 25.935 28.23 27.39 28.23 29.185C28.23 30.98 29.685 32.435 31.48 32.435Z" fill="#FCA700"/>
<path fill-rule="evenodd" clip-rule="evenodd" d="M26.34 21.74L28.995 18.515L26.665 14.475L22.54 15.16L21.075 11.25H16.41L14.94 15.16L10.82 14.475L8.48999 18.515L11.145 21.74L8.48999 24.97L10.82 29.01L14.94 28.32L16.41 32.235H21.075L22.54 28.32L24.81 28.7L26.665 29.01L28.995 24.97L27.935 23.68L26.34 21.74ZM18.74 25.675C16.57 25.675 14.805 23.915 14.805 21.74C14.805 19.565 16.57 17.805 18.74 17.805C20.91 17.805 22.675 19.57 22.675 21.74C22.675 23.91 20.915 25.675 18.74 25.675Z" fill="#82B536"/>
<path fill-rule="evenodd" clip-rule="evenodd" d="M27.935 23.6801L24.94 23.1851L23.015 26.5201L24.81 28.7001L26.665 29.0101L28.995 24.9701L27.935 23.6801Z" fill="#AE2A19"/>
</svg>
