<svg width="328" height="330" viewBox="0 0 328 330" fill="none" xmlns="http://www.w3.org/2000/svg">
<rect width="328" height="329.518" rx="8" fill="#F9F9F9"/>
<rect x="24" y="24" width="280" height="159.518" rx="4.34276" fill="white"/>
<rect x="38.4761" y="38.4766" width="125.523" height="6.6065" rx="1.65162" fill="#ECECEC"/>
<path opacity="0.4" d="M38.4761 56.6621H289.524" stroke="#B9B9B9" stroke-width="0.361897"/>
<rect x="47.1616" y="76.9297" width="8.68552" height="8.68552" rx="1.44759" fill="#886DE0"/>
<path d="M53.3258 79.9729C53.3006 79.9474 53.2705 79.9272 53.2375 79.9135C53.2044 79.8997 53.1689 79.8926 53.1331 79.8926C53.0972 79.8926 53.0618 79.8997 53.0287 79.9135C52.9956 79.9272 52.9656 79.9474 52.9404 79.9729L50.9183 81.9977L50.0687 81.1454C50.0425 81.1201 50.0116 81.1002 49.9777 81.0868C49.9438 81.0735 49.9076 81.0669 49.8712 81.0676C49.8348 81.0682 49.7988 81.076 49.7654 81.0905C49.732 81.105 49.7018 81.126 49.6765 81.1522C49.6512 81.1784 49.6313 81.2093 49.6179 81.2432C49.6046 81.2771 49.598 81.3133 49.5987 81.3497C49.5993 81.3861 49.6071 81.4221 49.6216 81.4555C49.6361 81.4889 49.6571 81.5191 49.6833 81.5444L50.7256 82.5867C50.7508 82.6121 50.7808 82.6323 50.8139 82.6461C50.847 82.6599 50.8824 82.6669 50.9183 82.6669C50.9541 82.6669 50.9896 82.6599 51.0227 82.6461C51.0557 82.6323 51.0857 82.6121 51.111 82.5867L53.3258 80.3719C53.3533 80.3464 53.3753 80.3156 53.3904 80.2813C53.4054 80.2469 53.4132 80.2098 53.4132 80.1724C53.4132 80.1349 53.4054 80.0978 53.3904 80.0635C53.3753 80.0291 53.3533 79.9983 53.3258 79.9729Z" fill="white"/>
<rect x="61.6377" y="76.9297" width="203" height="8" rx="2" fill="#F9F9F9"/>
<rect x="61.6377" y="88.9297" width="172" height="8" rx="2" fill="#F9F9F9"/>
<rect x="47.3426" y="114.482" width="8.32362" height="8.32362" rx="1.26664" fill="white" stroke="#B9B9B9" stroke-width="0.361897"/>
<rect x="61.6377" y="114.301" width="184" height="8.68552" rx="2" fill="#F9F9F9"/>
<rect x="47.1616" y="140.357" width="8.68552" height="8.68552" rx="1.44759" fill="#886DE0"/>
<path d="M53.3258 143.401C53.3006 143.375 53.2705 143.355 53.2375 143.341C53.2044 143.327 53.1689 143.32 53.1331 143.32C53.0972 143.32 53.0618 143.327 53.0287 143.341C52.9956 143.355 52.9656 143.375 52.9404 143.401L50.9183 145.425L50.0687 144.573C50.0425 144.548 50.0116 144.528 49.9777 144.515C49.9438 144.501 49.9076 144.495 49.8712 144.495C49.8348 144.496 49.7988 144.504 49.7654 144.518C49.732 144.533 49.7018 144.554 49.6765 144.58C49.6512 144.606 49.6313 144.637 49.6179 144.671C49.6046 144.705 49.598 144.741 49.5987 144.777C49.5993 144.814 49.6071 144.85 49.6216 144.883C49.6361 144.917 49.6571 144.947 49.6833 144.972L50.7256 146.014C50.7508 146.04 50.7808 146.06 50.8139 146.074C50.847 146.088 50.8824 146.095 50.9183 146.095C50.9541 146.095 50.9896 146.088 51.0227 146.074C51.0557 146.06 51.0857 146.04 51.111 146.014L53.3258 143.8C53.3533 143.774 53.3753 143.743 53.3904 143.709C53.4054 143.675 53.4132 143.638 53.4132 143.6C53.4132 143.563 53.4054 143.526 53.3904 143.491C53.3753 143.457 53.3533 143.426 53.3258 143.401Z" fill="white"/>
<rect x="61.6377" y="140.357" width="192" height="8" rx="2" fill="#F9F9F9"/>
<rect x="61.6377" y="152.357" width="85" height="8" rx="2" fill="#F9F9F9"/>
<rect x="24" y="207.518" width="280" height="98" rx="4" fill="white"/>
<path d="M40 223.518L59.2222 255.222L78.4444 262.134L97.6667 230.629L116.889 277.089L136.111 273.367L155.333 223.518L174.556 273.3L193.778 240.4L213 259.076V289.518H193.778H174.556H155.333H136.111H116.889H97.6667H78.4444H59.2222H40V223.518Z" fill="#886DE0"/>
<rect x="237" y="223.518" width="51" height="38" rx="2" fill="#F9F9F9"/>
<rect x="237" y="269.518" width="51" height="8" rx="2" fill="#F9F9F9"/>
<rect x="237" y="281.518" width="44" height="8" rx="2" fill="#F9F9F9"/>
</svg>
