<svg width="16" height="16" viewBox="0 0 16 16" fill="none" xmlns="http://www.w3.org/2000/svg">
<path d="M13.5 2H2.5C1.39543 2 0.5 2.89543 0.5 4V12C0.5 13.1046 1.39543 14 2.5 14H13.5C14.6046 14 15.5 13.1046 15.5 12V4C15.5 2.89543 14.6046 2 13.5 2Z" fill="white"/>
<path d="M0.819336 2.923H15.1813C14.8258 2.369 14.2078 2 13.5003 2H2.50034C1.79334 2 1.17534 2.369 0.819336 2.923Z" fill="#A62842"/>
<path d="M1.015 3.84375C1.011 3.89525 1 3.94475 1 3.99775V4.76725H15.5V3.99775C15.5 3.94525 15.489 3.89575 15.485 3.84375H1.015Z" fill="#A62842"/>
<path d="M1 5.69531H15.5V6.61831H1V5.69531Z" fill="#A62842"/>
<path d="M1 7.53906H15.5V8.46206H1V7.53906Z" fill="#A62842"/>
<path d="M0.5 9.38281H15.5V10.3058H0.5V9.38281Z" fill="#A62842"/>
<path d="M0.5 12.0039C0.5 12.0564 0.5115 12.1059 0.5155 12.1579H15.4845C15.4885 12.1064 15.5 12.0569 15.5 12.0039V11.2344H0.5V12.0039Z" fill="#A62842"/>
<path d="M15.1813 13.0781H0.819336C1.17484 13.6321 1.79284 14.0011 2.50034 14.0011H13.5003C14.2073 14.0011 14.8253 13.6321 15.1813 13.0781Z" fill="#A62842"/>
<path d="M2.5 2H8V8.4615H0.5V4C0.5 2.896 1.396 2 2.5 2Z" fill="#102D5E"/>
<path opacity="0.15" d="M13.5 2H2.5C1.3955 2 0.5 2.8955 0.5 4V12C0.5 13.1045 1.3955 14 2.5 14H13.5C14.6045 14 15.5 13.1045 15.5 12V4C15.5 2.8955 14.6045 2 13.5 2ZM15 12C15 12.827 14.327 13.5 13.5 13.5H2.5C1.673 13.5 1 12.827 1 12V4C1 3.173 1.673 2.5 2.5 2.5H13.5C14.327 2.5 15 3.173 15 4V12Z" fill="black"/>
<path opacity="0.2" d="M13.5 2.5H2.5C1.6715 2.5 1 3.1715 1 4V4.5C1 3.6715 1.6715 3 2.5 3H13.5C14.3285 3 15 3.6715 15 4.5V4C15 3.1715 14.3285 2.5 13.5 2.5Z" fill="white"/>
<path d="M2.30065 3.73438L2.59665 3.51938H2.23115L2.11815 3.17188L2.00515 3.51938H1.63965L1.93515 3.73438L1.82215 4.08188L2.11815 3.86738L2.41365 4.08188L2.30065 3.73438Z" fill="white"/>
<path d="M3.78991 3.73438L4.08591 3.51938H3.72041L3.60741 3.17188L3.49441 3.51938H3.12891L3.42441 3.73438L3.31141 4.08188L3.60741 3.86738L3.90291 4.08188L3.78991 3.73438Z" fill="white"/>
<path d="M5.27966 3.73438L5.57516 3.51938H5.20966L5.09666 3.17188L4.98366 3.51938H4.61816L4.91366 3.73438L4.80116 4.08188L5.09666 3.86738L5.39216 4.08188L5.27966 3.73438Z" fill="white"/>
<path d="M3.03307 4.64062L3.32907 4.42613H2.96357L2.85057 4.07812L2.73757 4.42613H2.37207L2.66757 4.64062L2.55457 4.98862L2.85057 4.77362L3.14607 4.98862L3.03307 4.64062Z" fill="white"/>
<path d="M4.52283 4.64062L4.81833 4.42613H4.45283L4.33983 4.07812L4.22683 4.42613H3.86133L4.15683 4.64062L4.04433 4.98862L4.33983 4.77362L4.63533 4.98862L4.52283 4.64062Z" fill="white"/>
<path d="M6.01209 4.64062L6.30759 4.42613H5.94209L5.82909 4.07812L5.71609 4.42613H5.35059L5.64659 4.64062L5.53359 4.98862L5.82909 4.77362L6.12509 4.98862L6.01209 4.64062Z" fill="white"/>
<path d="M3.03307 6.46094L3.32907 6.24594H2.96357L2.85057 5.89844L2.73757 6.24594H2.37207L2.66757 6.46094L2.55457 6.80844L2.85057 6.59394L3.14607 6.80844L3.03307 6.46094Z" fill="white"/>
<path d="M4.52283 6.46094L4.81833 6.24594H4.45283L4.33983 5.89844L4.22683 6.24594H3.86133L4.15683 6.46094L4.04433 6.80844L4.33983 6.59394L4.63533 6.80844L4.52283 6.46094Z" fill="white"/>
<path d="M6.01209 6.46094L6.30759 6.24594H5.94209L5.82909 5.89844L5.71609 6.24594H5.35059L5.64659 6.46094L5.53359 6.80844L5.82909 6.59394L6.12509 6.80844L6.01209 6.46094Z" fill="white"/>
<path d="M6.7699 3.73438L7.0654 3.51938H6.6999L6.5869 3.17188L6.4739 3.51938H6.1084L6.4044 3.73438L6.2914 4.08188L6.5869 3.86738L6.8829 4.08188L6.7699 3.73438Z" fill="white"/>
<path d="M2.30065 5.55469L2.59665 5.33969H2.23115L2.11815 4.99219L2.00515 5.33969H1.63965L1.93515 5.55469L1.82215 5.90219L2.11815 5.68719L2.41365 5.90219L2.30065 5.55469Z" fill="white"/>
<path d="M3.78991 5.55469L4.08591 5.33969H3.72041L3.60741 4.99219L3.49441 5.33969H3.12891L3.42441 5.55469L3.31141 5.90219L3.60741 5.68719L3.90291 5.90219L3.78991 5.55469Z" fill="white"/>
<path d="M5.27966 5.55469L5.57516 5.33969H5.20966L5.09666 4.99219L4.98366 5.33969H4.61816L4.91366 5.55469L4.80116 5.90219L5.09666 5.68719L5.39216 5.90219L5.27966 5.55469Z" fill="white"/>
<path d="M6.7699 5.55469L7.0654 5.33969H6.6999L6.5869 4.99219L6.4739 5.33969H6.1084L6.4044 5.55469L6.2914 5.90219L6.5869 5.68719L6.8829 5.90219L6.7699 5.55469Z" fill="white"/>
<path d="M2.30065 7.375L2.59665 7.1605H2.23115L2.11815 6.8125L2.00515 7.1605H1.63965L1.93515 7.375L1.82215 7.723L2.11815 7.508L2.41365 7.723L2.30065 7.375Z" fill="white"/>
<path d="M3.78991 7.375L4.08591 7.1605H3.72041L3.60741 6.8125L3.49441 7.1605H3.12891L3.42441 7.375L3.31141 7.723L3.60741 7.508L3.90291 7.723L3.78991 7.375Z" fill="white"/>
<path d="M5.27966 7.375L5.57516 7.1605H5.20966L5.09666 6.8125L4.98366 7.1605H4.61816L4.91366 7.375L4.80116 7.723L5.09666 7.508L5.39216 7.723L5.27966 7.375Z" fill="white"/>
<path d="M6.7699 7.375L7.0654 7.1605H6.6999L6.5869 6.8125L6.4739 7.1605H6.1084L6.4044 7.375L6.2914 7.723L6.5869 7.508L6.8829 7.723L6.7699 7.375Z" fill="white"/>
</svg>
