<svg width="171" height="145" viewBox="0 0 171 145" fill="none" xmlns="http://www.w3.org/2000/svg">
<g id="Group 1171276361">
<g id="Group 1171276360">
<path id="Vector" d="M152.859 130.249H12.8775C11.8101 129.241 10.8169 128.145 9.90528 126.966C1.47795 116.1 1.11477 99.4314 8.70456 87.8913C11.4766 83.674 14.9973 80.2572 18.1621 76.1881C25.537 66.6937 23.4394 52.6854 28.1386 41.7383C32.5931 31.3692 40.5609 22.8457 50.1519 18.7618C64.368 12.7138 82.6087 17.5537 94.5344 27.4781C104.407 35.6977 111.945 43.8951 124.708 44.8809C140.785 46.1112 154.756 51.3736 164.125 67.7758C169.217 76.6847 171.122 87.5355 170.062 98.0009C168.565 112.802 161.961 123.142 152.859 130.249Z" fill="url(#paint0_linear_6126_21768)"/>
<path id="Vector_2" d="M5.79181 86.7282C7.50396 84.1341 9.42364 81.9106 11.4619 79.5536C12.8331 77.9823 14.0635 76.5519 15.2642 75.0102C19.5335 69.5107 20.6304 62.3287 21.6978 55.3765C22.4612 50.3661 23.2543 45.1853 25.2184 40.6049C29.7841 29.9764 37.8335 21.5715 47.3207 17.5395C54.0952 14.6563 62.0926 14.0856 70.4533 15.8941C78.2358 17.5839 85.833 21.2676 91.8514 26.2779C93.2967 27.4861 94.7495 28.7312 96.0243 29.8356C104.103 36.7952 111.07 42.8062 121.936 43.6437C130.86 44.3256 138.146 46.2156 144.217 49.4174C151.376 53.1974 157.024 58.823 161.479 66.6127C166.43 75.2771 168.542 86.0538 167.438 96.9639C166.059 110.572 160.248 121.467 150.153 129.346L150.131 129.368H105.811V129.131H150.065C160.085 121.304 165.859 110.468 167.23 96.9342C168.335 86.076 166.23 75.3586 161.301 66.7387C156.869 58.986 151.25 53.3901 144.128 49.6324C138.087 46.4379 130.823 44.5553 121.929 43.8734C110.996 43.0359 104 37.0027 95.8983 30.0209C94.6235 28.9239 93.1707 27.6713 91.7254 26.4706C85.7366 21.4751 78.1616 17.8063 70.4162 16.1238C62.0926 14.3228 54.1322 14.8935 47.3874 17.7618C37.9595 21.7716 29.9472 30.132 25.4037 40.7086C23.4544 45.2594 22.6613 50.4254 21.8979 55.4284C20.8306 62.4028 19.7336 69.6145 15.4199 75.1659C14.2191 76.7075 12.9814 78.1454 11.6102 79.7167C9.57929 82.0662 7.65961 84.2823 5.96228 86.8616C2.27857 92.4649 0.366295 99.4839 0.573828 106.621C0.773949 113.811 3.11611 120.652 7.16301 125.877C8.04503 127.011 9.04564 128.108 10.1129 129.131H40.2233V129.368H10.0759L10.024 129.361L9.99436 129.324C8.91222 128.293 7.9042 127.182 7.00736 126.025C2.9234 120.763 0.566416 113.877 0.358883 106.629C0.158762 99.4394 2.08586 92.3686 5.79181 86.7282Z" fill="url(#paint1_linear_6126_21768)"/>
</g>
<g id="Group 1171276357">
<g id="Group 1171276351">
<path id="Vector_3" d="M100.073 45.2617C100.073 45.3021 100.052 45.3424 100.032 45.3626C100.005 45.3492 99.9919 45.3357 99.9919 45.3223C99.9784 45.3223 99.9717 45.3223 99.9717 45.3223C99.9717 45.2953 99.9717 45.2752 99.9717 45.2617C99.9717 45.2348 99.9717 45.2079 99.9717 45.181C99.9717 45.181 99.9784 45.181 99.9919 45.181C99.9919 45.1675 100.005 45.1541 100.032 45.1406C100.052 45.1608 100.073 45.2012 100.073 45.2617Z" fill="#0053fa"/>
<path id="Vector_4" d="M104.654 48.1843H104.695L104.675 48.1641L104.654 48.1843Z" fill="#0053fa"/>
<path id="Vector_5" d="M98.7197 48.1843H98.7602L98.74 48.1641L98.7197 48.1843Z" fill="#0053fa"/>
<g id="Group 1171276348">
<path id="Vector_6" fill-rule="evenodd" clip-rule="evenodd" d="M121.201 13.5268C121.201 13.4864 121.161 13.4461 121.12 13.4461V12.2958C121.12 11.9729 120.878 11.7307 120.575 11.6904V11.4886C120.575 11.1859 120.454 10.9034 120.273 10.7217C120.232 10.6679 120.185 10.6208 120.131 10.5805C119.97 10.4594 119.788 10.3988 119.586 10.3988H118.9C118.396 10.3988 117.992 10.8024 117.911 11.307H114.683C114.582 11.307 114.501 11.4079 114.501 11.5289V11.6904H113.108L102.715 1.72128V1.11587C102.715 1.01496 102.614 0.914062 102.493 0.914062H98.4975C98.3966 0.914062 98.2957 1.01496 98.2957 1.11587V1.6002L83.0188 9.55126L82.9179 9.38982L81.808 9.97505L81.8887 10.1365L81.6062 10.2778C81.6062 10.2778 81.5994 10.2778 81.586 10.2778C81.5254 10.197 81.4245 10.1567 81.3236 10.1567H81.142C80.92 10.1567 80.7384 10.3181 80.7182 10.5401L80.698 10.863H68.2263L68.1859 10.5401C68.1859 10.4863 68.1725 10.4392 68.1456 10.3988C68.085 10.2576 67.9438 10.1567 67.7823 10.1567H67.6007C67.3787 10.1567 67.1971 10.3181 67.1769 10.5401L67.1567 10.863H54.685L54.6446 10.5401C54.6244 10.3181 54.463 10.1567 54.241 10.1567H54.0594C53.8374 10.1567 53.6759 10.3181 53.6557 10.5401L53.6154 10.863L53.5548 10.9235L51.1533 13.9304H52.909V14.2735C52.909 14.334 52.9494 14.3744 53.0301 14.3744H56.2591L56.2994 14.5762C56.3196 14.6165 56.3398 14.6569 56.3801 14.6569H56.8443L57.9139 25.2112H57.8533C57.6919 25.2112 57.5708 25.3525 57.5708 25.5139V25.9377H57.3286C57.1672 25.9377 57.0461 26.0588 57.0461 26.2203V26.5633C57.0461 26.5768 57.0461 26.5902 57.0461 26.6037L57.369 28.7226C57.3892 28.8639 57.5103 28.9648 57.6314 28.9648H58.2771V29.3482C58.2771 29.3617 58.2839 29.3818 58.2973 29.4088C58.4588 29.5904 58.6404 29.9133 58.5799 30.0545C58.5395 30.1151 58.4588 30.1151 58.3982 30.1151C58.3982 30.1151 58.3915 30.1151 58.378 30.1151C58.378 30.1151 58.3713 30.1083 58.3579 30.0949C58.3579 30.0949 58.3511 30.0949 58.3377 30.0949C58.3242 30.0949 58.3175 30.0949 58.3175 30.0949C58.3175 30.1083 58.3108 30.1151 58.2973 30.1151C58.2166 30.1151 58.1359 30.0949 58.1157 30.0343C58.0552 29.9334 58.1964 29.6913 58.2771 29.5904C58.3175 29.55 58.2973 29.4895 58.257 29.4693C58.2166 29.4289 58.1762 29.4289 58.1359 29.4693C58.1157 29.5097 57.8332 29.8729 57.9542 30.1151C57.9946 30.2092 58.0686 30.2698 58.1762 30.2967L55.1289 34.9987H55.2904L58.2368 30.4783L57.5506 34.9987H57.6919L58.3377 30.6398L58.9835 34.9987H59.1247L58.4588 30.4783L61.4052 34.9987H61.5666L58.4991 30.2967C58.6202 30.2698 58.7009 30.216 58.7413 30.1353C58.8624 29.8729 58.5597 29.4491 58.4588 29.3079V28.9648H59.1046C59.2256 28.9648 59.3467 28.8639 59.3669 28.7226L59.6898 26.6037C59.6898 26.5902 59.6898 26.5768 59.6898 26.5633V26.2203C59.6898 26.0588 59.5687 25.9377 59.4073 25.9377H59.1651V25.5139C59.1651 25.3525 59.044 25.2112 58.8826 25.2112H58.822L59.8916 14.6569H60.4365C60.4499 14.6434 60.4634 14.6367 60.4768 14.6367C60.4903 14.6233 60.5038 14.6031 60.5172 14.5762L60.5576 14.3744H61.95C62.0106 14.3744 62.051 14.334 62.051 14.2735V14.2533L97.9324 13.9909V15.3027H92.6854V18.027H97.9324V18.2894H98.6589V19.48H97.9324V42.082H97.9526V63.1705H96.1969V64.6841H104.632V63.1705H103.079V41.6179H103.058V19.48H102.332V18.2894H103.058V18.027H108.326V15.3027H103.058V14.1322H105.581C105.763 14.1322 105.904 14.0515 106.025 13.9304V13.9506C106.025 13.9909 106.045 14.0111 106.085 14.0111H106.287C106.328 14.0111 106.348 13.9909 106.348 13.9506V13.9304H107.337V13.9506C107.337 13.9909 107.357 14.0111 107.397 14.0111H107.599C107.639 14.0111 107.68 13.9909 107.68 13.9506V13.9304H107.861V13.9506C107.861 13.9909 107.902 14.0111 107.942 14.0111H108.144C108.184 14.0111 108.204 13.9909 108.204 13.9506V13.9304H109.193V13.9506C109.193 13.9909 109.214 14.0111 109.254 14.0111H109.456C109.496 14.0111 109.536 13.9909 109.536 13.9506V13.9304H109.718V13.9506C109.718 13.9909 109.758 14.0111 109.799 14.0111H110.001C110.041 14.0111 110.061 13.9909 110.061 13.9506V13.9304H111.05V13.9506C111.05 13.9909 111.07 14.0111 111.111 14.0111H111.312C111.353 14.0111 111.393 13.9909 111.393 13.9506V13.9304H111.575V13.9506C111.575 13.9909 111.615 14.0111 111.655 14.0111H111.857C111.898 14.0111 111.918 13.9909 111.918 13.9506V13.9304H112.281V15.9484C112.281 16.0695 112.382 16.1704 112.503 16.1704H113.451V18.5517C113.451 18.7333 113.593 18.8746 113.754 18.8746H119.021C119.203 18.8746 119.344 18.7333 119.344 18.5517V16.1704H120.333C120.474 16.1704 120.575 16.0695 120.575 15.9484V13.9304H120.858V13.9506C120.858 13.9909 120.878 14.0111 120.918 14.0111H121.12C121.161 14.0111 121.201 13.9909 121.201 13.9506V13.9304H121.261V13.5268H121.201ZM93.6339 17.5831H93.2303V15.7265H93.6339V17.5831ZM94.5622 17.5831H93.8761V15.7466H94.5622V17.5831ZM95.5107 17.5831H95.2686V15.7265H95.5107V17.5831ZM96.4592 17.5831H95.7731V15.7466H96.4592V17.5831ZM96.7418 17.5831H96.7014V15.7265H96.7418V17.5831ZM97.3876 17.5831H97.2866V15.7466H97.3876V17.5831ZM107.397 15.7265H107.781V17.5831H107.397V15.7265ZM106.449 15.7265H107.135V17.5629H106.449V15.7265ZM105.5 15.7265H105.742V17.5831H105.5V15.7265ZM104.572 15.7265H105.258V17.5629H104.572V15.7265ZM104.269 15.7265H104.31V17.5831H104.269V15.7265ZM103.623 15.7265H103.724V17.5629H103.623V15.7265ZM100.374 5.99952L100.516 5.83808L100.637 5.99952L100.798 7.12962H100.213L100.374 5.99952ZM100.173 7.65431H100.879L100.96 8.32026L100.516 8.84495L100.072 8.32026L100.173 7.65431ZM100.173 42.1426H100.939L100.556 42.5664L100.173 42.1426ZM100.193 42.9498L99.8294 43.3332V42.5664L100.193 42.9498ZM100.152 41.5573L100.536 41.1336L100.939 41.5573H100.152ZM100.899 40.7501L101.262 40.3667V41.1336L100.899 40.7501ZM100.536 40.3465L99.8092 39.5797V38.5706H101.262V39.5797L100.536 40.3465ZM99.8092 38.046V37.0369L100.536 36.2499L101.262 37.0369V38.046H99.8092ZM100.152 34.5346L100.536 34.1108L100.919 34.5346H100.152ZM100.939 35.0593L100.556 35.4831L100.152 35.0593H100.939ZM99.8294 34.1108V33.3439L100.193 33.7274L99.8294 34.1108ZM100.193 35.8665L99.8294 36.2499V35.4831L100.193 35.8665ZM100.919 35.8665L101.282 35.4831V36.2499L100.919 35.8665ZM100.919 33.7274L101.282 33.3439V34.1108L100.919 33.7274ZM100.556 33.3439L99.8294 32.5569V31.5479H101.282V32.5569L100.556 33.3439ZM99.8294 31.0434V30.0343L100.556 29.2675L101.282 30.0343V31.0434H99.8294ZM100.152 27.532L100.556 27.1284L100.939 27.532H100.152ZM100.939 28.0567L100.536 28.4805L100.152 28.0567H100.939ZM99.8294 27.1082V26.3413L100.173 26.7248L99.8294 27.1082ZM100.193 28.8639L99.8294 29.2473V28.4805L100.193 28.8639ZM100.939 28.8639L101.303 28.4805V29.2473L100.939 28.8639ZM100.939 26.7248L101.303 26.3413V27.1082L100.939 26.7248ZM100.556 26.3413L99.8294 25.5543V24.5655H101.282V25.5543L100.556 26.3413ZM99.8294 24.0408V23.0519L100.556 22.2649L101.282 23.0519V24.0408H99.8294ZM100.96 21.0743L100.556 21.4779L100.173 21.0743H100.96ZM100.294 17.24V17.1189L100.576 16.8162L100.859 17.1189V17.24H100.294ZM100.213 21.8815L99.8496 22.2649V21.4981L100.213 21.8815ZM100.939 21.8815L101.303 21.4981V22.2649L100.939 21.8815ZM101.262 15.3027H99.8698L99.8496 15.2623V14.2533H101.303V15.2623L101.262 15.3027ZM100.213 9.28892L99.9505 9.59163L100.031 9.04675L100.213 9.28892ZM82.9381 11.3271L81.8887 12.6389L80.8393 11.3271H82.9381ZM98.0132 13.547H97.4279L95.4098 10.9437L95.3493 10.9033L95.3291 10.5603C95.3291 10.5065 95.3157 10.4594 95.2887 10.419C95.2484 10.3181 95.1677 10.2576 95.0668 10.2172C95.0264 10.1903 94.9793 10.1769 94.9255 10.1769H94.7439C94.5219 10.1769 94.3402 10.3383 94.3201 10.5603L94.2999 10.8832H81.8281L81.7878 10.5603C81.7878 10.5199 81.7676 10.4997 81.7676 10.4594L82.0501 10.3181L82.1309 10.4796L83.2408 9.89433L83.1601 9.73289L98.3562 1.84236V2.14507C98.3562 2.26615 98.4571 2.36705 98.5782 2.36705H100.011L98.0132 10.5199V13.547ZM91.4342 12.7196L91.1719 13.4864H90.3848L90.1426 12.7196L90.7884 12.2756L91.4342 12.7196ZM90.7884 11.8316L90.0417 11.307H91.5553L90.7884 11.8316ZM90.4454 12.0738L90.0014 12.3563L89.7592 11.5895L90.4454 12.0738ZM89.7592 12.9819L89.9408 13.5066H88.9923L89.7592 12.9819ZM88.73 13.2443L89.2547 11.6702L89.3152 11.5895L89.6381 12.6187L88.73 13.2443ZM87.8218 12.6389L86.7926 11.3271H88.8713L87.8218 12.6389ZM88.508 12.5985L88.3062 13.2443L88.1649 13.0425L88.508 12.5985ZM87.4788 13.0626L87.3375 13.2443L87.1357 12.6187L87.4788 13.0626ZM86.8935 13.2443L85.9854 12.6187L86.3285 11.5895L86.3688 11.6702L86.8935 13.2443ZM86.6312 13.5066H85.6827L85.8643 12.9819L86.6312 13.5066ZM85.6221 12.3563L85.1983 12.0536L85.8845 11.5895L85.6221 12.3563ZM85.5011 12.7196L85.2387 13.5066H84.4718L84.2095 12.7196L84.8553 12.2756L85.5011 12.7196ZM84.8755 11.8316L84.1086 11.307H85.6221L84.8755 11.8316ZM84.5526 12.0738L84.1086 12.3765L83.8462 11.5895L84.5526 12.0738ZM83.8866 13.0021L84.048 13.5268H83.1197L83.8866 13.0021ZM82.8372 13.2443L83.3821 11.6702L83.4224 11.6097L83.7655 12.6187L82.8372 13.2443ZM82.595 12.6187L82.3932 13.2443L82.2519 13.0626L82.595 12.6187ZM81.5658 13.0626L81.4245 13.2443L81.2227 12.6389L81.5658 13.0626ZM80.4155 11.5895L80.4559 11.65L80.9806 13.2241L80.0724 12.5985L80.4155 11.5895ZM80.698 13.5066H79.7697L79.9312 12.9819L80.698 13.5066ZM79.7092 12.3563L79.2652 12.0738L79.9715 11.5895L79.7092 12.3563ZM79.5881 12.7398L79.3257 13.5066H78.5387L78.2965 12.7398L78.9423 12.2958L79.5881 12.7398ZM79.7092 11.3271L78.9423 11.8316L78.1956 11.3271H79.7092ZM78.6194 12.0738L78.1754 12.3563L77.9332 11.5895L78.6194 12.0738ZM78.1149 13.5066H77.1664L77.9332 12.9819L78.1149 13.5066ZM77.4893 11.5895L77.8323 12.6187L76.904 13.2443L77.4287 11.6702L77.4893 11.5895ZM77.0453 11.307L75.9959 12.6389L74.9465 11.307H77.0453ZM76.682 12.5985L76.4802 13.2443L76.3188 13.0425L76.682 12.5985ZM75.673 13.0626L75.5317 13.2443L75.3299 12.6187L75.673 13.0626ZM74.5025 11.5895L74.5631 11.6702L75.0878 13.2443L74.1594 12.6187L74.5025 11.5895ZM74.8052 13.5066H73.8567L74.0384 12.9819L74.8052 13.5066ZM73.8164 12.3563L73.3724 12.0536L74.0787 11.5895L73.8164 12.3563ZM73.6751 12.7196L73.4128 13.4864H72.6459L72.4037 12.7196L73.0495 12.2756L73.6751 12.7196ZM73.776 11.307L73.0293 11.8316L72.2826 11.307H73.776ZM72.6862 12.0536L72.2423 12.3563L72.0001 11.5693L72.6862 12.0536ZM72.1615 13.5066H71.2332L72.0001 12.9819L72.1615 13.5066ZM71.5359 11.5895L71.8588 12.6187L70.9507 13.2443L71.4754 11.65L71.5359 11.5895ZM71.092 11.3271L70.0426 12.6389L68.9932 11.3271H71.092ZM70.7287 12.6187L70.5269 13.2443L70.3654 13.0626L70.7287 12.6187ZM69.7197 13.0626L69.5582 13.2443L69.3564 12.6187L69.7197 13.0626ZM68.5694 11.6097L68.6299 11.6702L69.1344 13.2443L68.2263 12.6187L68.5694 11.6097ZM68.8721 13.5268H67.9236L68.1052 13.0021L68.8721 13.5268ZM68.1254 11.6097L67.8832 12.3765L67.4392 12.094L68.1254 11.6097ZM67.7419 12.7398L67.4796 13.5268H66.7127L66.4504 12.7398L67.0962 12.2958L67.7419 12.7398ZM67.863 11.3271L67.1163 11.8518L66.3495 11.3271H67.863ZM66.7733 12.0738L66.3495 12.3765L66.0871 11.6097L66.7733 12.0738ZM66.2687 13.5066H65.3404L66.1073 12.9819L66.2687 13.5066ZM65.6431 11.5895L65.966 12.6187L65.0377 13.2443L65.5826 11.65L65.6431 11.5895ZM65.1992 11.3271L64.1296 12.6389L63.1004 11.3271H65.1992ZM64.8359 12.6187L64.6139 13.2443L64.4726 13.0626L64.8359 12.6187ZM63.8067 13.0626L63.6654 13.2443L63.4636 12.6389L63.8067 13.0626ZM62.6564 11.5895L62.7169 11.65L63.2214 13.2443L62.3133 12.5985L62.6564 11.5895ZM61.95 11.3271L61.1832 11.8518L60.4365 11.3271H61.95ZM59.7302 11.5895L60.0732 12.6187L59.1449 13.2443L59.6696 11.6702L59.7302 11.5895ZM59.2862 11.307L58.2368 12.6389L57.1874 11.307H59.2862ZM58.9229 12.5985L58.7211 13.2443L58.5597 13.0425L58.9229 12.5985ZM57.9139 13.0626L57.7726 13.2443L57.5506 12.6187L57.9139 13.0626ZM56.7636 11.5895L56.8241 11.6702L57.3488 13.2443L56.4205 12.6187L56.7636 11.5895ZM56.0573 11.307L55.3106 11.8316L54.5437 11.307H56.0573ZM54.2813 11.5895L54.9675 12.0536L54.5437 12.3563L54.2813 11.5895ZM55.6738 13.5066H54.907L54.6446 12.7398L55.2904 12.2958L55.9362 12.7398L55.6738 13.5066ZM55.6335 12.0536L56.3196 11.5895L56.0573 12.3563L55.6335 12.0536ZM56.138 13.5066L56.2994 12.9617L57.0663 13.5066H56.138ZM58.8018 25.2314H58.2368L57.1874 14.6569H57.6515C57.6784 14.6569 57.6986 14.6434 57.7121 14.6165C57.7255 14.6031 57.7323 14.5964 57.7323 14.5964L57.7726 14.3946H59.3467L59.4073 14.5964C59.4073 14.6367 59.4476 14.6569 59.488 14.6569H59.8512L58.8018 25.2314ZM59.488 13.5066L60.2549 12.9819L60.4163 13.5066H59.488ZM60.497 12.3563L60.2347 11.5895L60.941 12.0536L60.497 12.3563ZM61.6473 13.5066H60.8603L60.6181 12.7398L61.2639 12.2958L61.9097 12.7398L61.6473 13.5066ZM61.5868 12.0536L62.2931 11.5895L62.0308 12.3563L61.5868 12.0536ZM62.0711 13.4864L62.2528 12.9617L63.0196 13.4864H62.0711ZM62.2124 14.1726V13.9506H67.3989H92.2213L62.2124 14.1726ZM91.6966 13.4864L91.858 12.9617L92.6249 13.4864H91.6966ZM91.9993 12.5985L92.3424 11.5693L92.4029 11.65L92.9276 13.2241L91.9993 12.5985ZM93.3514 13.2241L93.1496 12.5985L93.4927 13.0425L93.3514 13.2241ZM92.7863 11.307H94.8851L93.8155 12.6187L92.7863 11.307ZM94.865 10.5603C94.865 10.5468 94.865 10.5266 94.865 10.4997C94.865 10.4997 94.8717 10.4997 94.8851 10.4997C94.8851 10.4863 94.8986 10.4728 94.9255 10.4594C94.9457 10.4796 94.986 10.5199 94.986 10.5603C94.986 10.6208 94.9457 10.6612 94.9255 10.6814C94.8986 10.6679 94.8851 10.6545 94.8851 10.641C94.8717 10.641 94.865 10.641 94.865 10.641C94.865 10.6141 94.865 10.5872 94.865 10.5603ZM94.2999 13.2443L94.1586 13.0626L94.5219 12.5985L94.2999 13.2443ZM94.643 13.5066L95.2686 11.6702L95.3089 11.6097L95.3493 11.6702L95.9547 13.5066H94.643ZM96.3987 13.5066L96.096 12.6187L96.8023 13.5268L96.3987 13.5066ZM91.2122 12.0536L91.8984 11.5895L91.636 12.3563L91.2122 12.0536ZM98.9818 14.2735H99.2038V14.4753L98.9818 14.2735ZM99.1836 15.2825V15.3229H98.6993L98.6388 15.1009V14.7174L99.1836 15.2825ZM98.6388 13.325V12.9214L99.1836 11.1859V12.7398L98.6388 13.325ZM98.6388 12.1545V10.7621H99.0626L98.6388 12.1545ZM98.7195 10.2576L99.002 9.0064L99.1433 10.2576H98.7195ZM98.6388 17.2602V15.8879L98.9213 16.7355V17.2602H98.6388ZM98.6388 21.0944H99.0626L98.6388 22.4667V21.0944ZM98.6388 23.2739L99.1836 21.5182V23.0721L98.6388 23.6573V23.2739ZM98.9617 24.0811L99.1836 23.8592V24.0811H98.9617ZM99.1635 24.6058V24.8278L98.9617 24.6058H99.1635ZM98.6186 25.0296L99.1635 25.6148V27.1687L98.6186 25.413V25.0296ZM98.6186 26.2203L99.0424 27.5925H98.6186V26.2203ZM98.6186 28.1172H99.0424L98.6186 29.5097V28.1172ZM98.6186 30.2765L99.1635 28.541V30.0949L98.6186 30.6801V30.2765ZM98.9415 31.0837L99.1635 30.8617V31.0837H98.9415ZM99.1433 31.6084V31.8304L98.9415 31.6084H99.1433ZM98.5984 32.0322L99.1433 32.6174V34.1511L98.5984 32.4156V32.0322ZM98.5984 33.2027L99.0222 34.5951H98.5984V33.2027ZM98.5984 35.0996H99.0222L98.5984 36.4921V35.0996ZM98.5984 37.2589L99.1433 35.5234V37.0571L98.5984 37.6424V37.2589ZM98.9213 38.0863L99.1433 37.8643V38.0863H98.9213ZM99.1231 38.5908V38.8128L98.9213 38.5908H99.1231ZM98.5782 39.0348L99.1231 39.5998V41.1537L98.5782 39.4182V39.0348ZM98.5782 40.2053L99.002 41.5977H98.5782V40.2053ZM99.0222 42.1628L98.5984 43.535V42.1628H99.0222ZM98.5782 48.6407V47.2684L99.0222 48.6407H98.5782ZM99.002 49.1653L98.5782 50.5578V49.1653H99.002ZM98.558 55.6432V54.271L99.002 55.6432H98.558ZM98.9818 56.1679L98.558 57.5604V56.1679H98.9818ZM98.5379 62.666V61.2736L98.9818 62.666H98.5379ZM99.0827 62.2422L98.5379 60.4865V60.1031L99.0827 60.6883V62.2422ZM99.0827 59.9013L98.8607 59.6793H99.0827V59.9013ZM99.0827 59.1546H98.8607L99.0827 58.9326V59.1546ZM99.0827 58.1658L98.5379 58.7308V58.3474L99.0827 56.6119V58.1658ZM99.0827 55.2396L98.5379 53.5041V53.1005L99.0827 53.6857V55.2396ZM99.0827 52.8987L98.8607 52.6969H99.0827V52.8987ZM99.0827 52.152H98.8607L99.0827 51.9301V52.152ZM99.0827 51.143L98.5379 51.7283V51.3246L99.0827 49.5891V51.143ZM99.0827 48.2169L98.5379 46.4814V46.0979L99.0827 46.663V48.2169ZM99.0827 45.8961L98.8607 45.6741H99.0827V45.8961ZM99.0827 45.1494H98.8607L99.0827 44.9275V45.1494ZM99.0827 44.1404L98.5379 44.7257V44.3422L99.0827 42.5865V44.1404ZM99.1635 9.61181L99.0424 8.32026L99.1029 8.01755L99.3451 8.30008L99.1635 9.61181ZM99.6074 6.1206L99.5065 6.24168L99.6074 5.89861L99.668 5.75735L99.6074 6.1206ZM99.7689 40.3869L100.132 40.7703L99.7689 41.1537V40.3869ZM100.132 49.1653H100.899L100.516 49.5891L100.132 49.1653ZM100.152 49.9726L99.7891 50.356V49.5891L100.152 49.9726ZM100.132 48.6407L100.516 48.2169L100.919 48.6407H100.132ZM99.7891 48.2169V47.45L100.152 47.8334L99.7891 48.2169ZM100.132 56.1679H100.899L100.516 56.5917L100.132 56.1679ZM100.152 56.9751L99.7891 57.3586V56.5917L100.152 56.9751ZM100.132 55.6432L100.516 55.2195L100.919 55.6432H100.132ZM99.7891 55.2195V54.4526L100.152 54.836L99.7891 55.2195ZM99.7891 61.4552L100.152 61.8386L99.7891 62.222V61.4552ZM100.112 62.6458L100.516 62.222L100.899 62.6458H100.112ZM101.222 62.222L100.879 61.8386L101.222 61.4552V62.222ZM101.222 60.6682L100.495 61.4552L99.7689 60.6682V59.6591H101.222V60.6682ZM101.222 59.1546H99.7689V58.1456L100.495 57.3586L101.222 58.1456V59.1546ZM101.222 57.3586L100.879 56.9751L101.222 56.5917V57.3586ZM101.222 55.2195L100.879 54.836L101.222 54.4526V55.2195ZM101.222 53.6656L100.495 54.4526L99.7689 53.6656V52.6767H101.222V53.6656ZM101.222 52.1319H99.7689V51.1228L100.495 50.356L101.222 51.1228V52.1319ZM101.222 50.3358L100.879 49.9524L101.222 49.5891V50.3358ZM101.222 48.1967L100.879 47.8133L101.222 47.4298V48.1967ZM101.222 46.6428L100.495 47.4097L99.7689 46.6428V45.6338H101.222V46.6428ZM101.222 45.1091H99.7689V44.1001L100.495 43.3332L101.222 44.1001V45.1091ZM101.222 43.3332L100.879 42.9498L101.222 42.5664V43.3332ZM105.561 8.74405H102.715H102.614L101.04 2.32669H102.473C102.594 2.32669 102.695 2.22579 102.695 2.12489V1.96344L112.826 11.6702H106.166V9.34946C106.166 9.00639 105.904 8.74405 105.561 8.74405ZM101.726 8.74405L101.666 8.25972L101.888 7.97719L101.969 8.2799L101.908 8.74405H101.726ZM102.17 14.2533L101.969 14.4753V14.2533H102.17ZM102.17 24.0408H101.948V23.8188L102.17 24.0408ZM101.969 23.0318V21.4779L102.513 23.2336V23.617L101.969 23.0318ZM102.17 24.5655L101.969 24.7673V24.5655H102.17ZM102.513 24.9893V25.3727L101.969 27.1082V25.5543L102.513 24.9893ZM102.07 27.5522L102.513 26.1799V27.5522H102.07ZM102.493 28.0768V29.4491L102.07 28.0768H102.493ZM102.493 30.2362V30.6398L101.948 30.0545V28.5006L102.493 30.2362ZM102.15 31.0434H101.948V30.8214L102.15 31.0434ZM102.15 31.5681L101.928 31.79V31.5681H102.15ZM102.493 31.9918V32.3955L101.948 34.131V32.5771L102.493 31.9918ZM102.07 34.5548L102.493 33.1623V34.5548H102.07ZM102.513 35.0794V36.4517L102.07 35.0794H102.513ZM102.513 37.2387V37.6222L101.969 37.0571V35.5032L102.513 37.2387ZM102.17 38.046H101.969V37.824L102.17 38.046ZM102.17 38.5706L101.969 38.7926V38.5706H102.17ZM102.513 38.9944V39.3779L101.969 41.1336V39.5797L102.513 38.9944ZM102.513 40.1649V41.5573H102.07L102.513 40.1649ZM101.989 45.1091V44.8871L102.211 45.1091H101.989ZM102.191 45.6338L101.989 45.8558V45.6338H102.191ZM101.969 52.1117V51.8897L102.191 52.1117H101.969ZM102.17 52.6364L101.969 52.8584V52.6364H102.17ZM101.948 59.1143V58.8923L102.17 59.1143H101.948ZM102.15 59.639L101.948 59.8609V59.639H102.15ZM102.473 62.6257H102.049L102.473 61.2332V62.6257ZM102.473 60.4664L101.928 62.2019V60.6682L102.473 60.0829V60.4664ZM102.473 58.6905L101.928 58.1254V56.5715L102.473 58.3071V58.6905ZM102.473 57.52L102.049 56.1478H102.473V57.52ZM102.473 55.6029H102.049L102.473 54.2306V55.6029ZM102.473 53.4234L101.928 55.1791V53.6252L102.473 53.04V53.4234ZM102.473 51.6677L101.928 51.0825V49.5286L102.473 51.2641V51.6677ZM102.473 50.4972L102.049 49.125H102.473V50.4972ZM102.473 48.6003H102.049L102.473 47.2079V48.6003ZM102.473 46.441L101.928 48.1765V46.6226L102.473 46.0374V46.441ZM102.473 44.6853L101.928 44.1001V42.5462L102.473 44.3019V44.6853ZM102.473 43.5148L102.049 42.1224H102.473V43.5148ZM102.453 21.0541V22.4263L102.029 21.0541H102.453ZM102.453 17.2198H102.191V16.6951L102.453 15.8475V17.2198ZM102.453 15.0403L102.372 15.2825H101.908V15.2421L102.453 14.6569V15.0403ZM101.343 6.08024L101.282 5.69681L101.343 5.83808L101.424 6.20132L101.343 6.08024ZM107.377 13.4259H107.357C107.317 13.4259 107.296 13.4663 107.296 13.4864V13.5066H106.307V13.4864C106.307 13.4663 106.287 13.4259 106.247 13.4259H106.227V12.9214H107.377V13.4259ZM107.377 12.7196H106.227V12.2554C106.227 12.0335 106.429 11.8316 106.651 11.8316H107.377V12.7196ZM107.902 13.4259C107.861 13.4259 107.821 13.4461 107.821 13.4864V13.5066H107.639V13.4864C107.639 13.4461 107.599 13.4259 107.559 13.4259V12.9012H107.902V13.4259ZM107.902 12.7398H107.559V11.8518H107.902V12.7398ZM109.234 13.4259H109.214C109.173 13.4259 109.153 13.4663 109.153 13.5066H108.164C108.164 13.4663 108.144 13.4259 108.104 13.4259H108.083V12.9214H109.234V13.4259ZM109.234 12.7398H108.083V11.8518H109.234V12.7398ZM109.758 13.4259C109.718 13.4259 109.678 13.4663 109.678 13.4864V13.5066H109.496V13.4864C109.496 13.4663 109.456 13.4259 109.415 13.4259V12.9214H109.758V13.4259ZM109.758 12.7196H109.415V11.8316H109.758V12.7196ZM111.09 13.4259H111.07C111.03 13.4259 111.01 13.4461 111.01 13.4864V13.5066H110.021V13.4864C110.021 13.4461 110.001 13.4259 109.96 13.4259H109.94V12.9012H111.09V13.4259ZM111.09 12.7398H109.94V11.8518H111.09V12.7398ZM111.615 13.4259H111.595C111.575 13.4259 111.534 13.4663 111.534 13.5066H111.332C111.332 13.4663 111.312 13.4259 111.272 13.4259V12.9214H111.615V13.4259ZM111.615 12.7196H111.272V11.8316H111.615V12.7196ZM112.927 13.4259C112.886 13.4259 112.866 13.4461 112.866 13.4864V13.5066H111.877V13.4864C111.877 13.4461 111.837 13.4259 111.817 13.4259H111.797V12.9214H112.927V13.4259ZM112.927 12.7196H111.797V11.8316H112.927V12.7196ZM113.472 13.4259H113.451C113.431 13.4259 113.391 13.4461 113.391 13.4864V13.5066H113.189V13.4864C113.189 13.4461 113.169 13.4259 113.129 13.4259V12.9012H113.472V13.4259ZM113.472 12.7398H113.129V11.9729L113.472 12.2958V12.7398ZM113.472 12.0738L113.25 11.8518H113.472V12.0738ZM114.461 12.7599H114.178L113.653 12.2554V11.872H114.461V12.7599ZM114.461 13.547H113.734V13.5268C113.734 13.4864 113.694 13.4663 113.673 13.4663H113.653V12.9416H114.117L114.461 13.2846V13.547ZM113.653 12.5178L113.916 12.7801H113.653V12.5178ZM120.898 13.4663H120.878C120.838 13.4663 120.817 13.4864 120.817 13.5268V13.547H120.535V12.9416H120.898V13.4663ZM120.898 12.7801H120.535V11.9124C120.737 11.9325 120.898 12.094 120.898 12.316V12.7801Z" fill="url(#paint2_linear_6126_21768)"/>
<path id="Vector_7" d="M67.7422 10.5586C67.7422 10.5989 67.722 10.6393 67.6816 10.6595C67.6682 10.646 67.6547 10.6326 67.6413 10.6191C67.6278 10.5922 67.6211 10.572 67.6211 10.5586C67.6211 10.5317 67.6278 10.5048 67.6413 10.4779C67.6547 10.4644 67.6682 10.451 67.6816 10.4375C67.722 10.4577 67.7422 10.498 67.7422 10.5586Z" fill="url(#paint3_linear_6126_21768)"/>
<path id="Vector_8" d="M100.493 16.0293L100.211 15.7266H100.776L100.493 16.0293Z" fill="url(#paint4_linear_6126_21768)"/>
<path id="Vector_9" d="M97.0039 15.9082L97.0443 15.7266H97.0039V15.9082Z" fill="url(#paint5_linear_6126_21768)"/>
<path id="Vector_10" d="M93.5137 15.7266H93.4531L93.5137 15.9082V15.7266Z" fill="url(#paint6_linear_6126_21768)"/>
<path id="Vector_11" d="M94.5234 11.2999L94.5435 11.1997L94.5234 11.1797V11.2999Z" fill="url(#paint7_linear_6126_21768)"/>
<path id="Vector_12" d="M93.794 13.5274V13.5078L93.7744 13.5274H93.794Z" fill="url(#paint8_linear_6126_21768)"/>
<path id="Vector_13" d="M109.255 12.9375H109.173L109.255 13.0192V12.9375Z" fill="url(#paint9_linear_6126_21768)"/>
<path id="Vector_14" d="M100.939 11.9874C100.953 11.934 100.98 11.8939 101.02 11.8672H100.939V11.9874Z" fill="url(#paint10_linear_6126_21768)"/>
<path id="Vector_15" d="M75.9756 10.4375C75.9621 10.451 75.9487 10.4644 75.9352 10.4779C75.9218 10.5048 75.915 10.5317 75.915 10.5586C75.915 10.572 75.9218 10.5922 75.9352 10.6191C75.9487 10.6326 75.9621 10.646 75.9756 10.6595C75.989 10.6595 75.9958 10.6528 75.9958 10.6393C75.9554 10.6393 75.9352 10.5989 75.9352 10.5586C75.9352 10.5384 75.9554 10.498 75.9756 10.498C75.9756 10.4779 75.9756 10.4779 75.9958 10.4779V10.4577C75.9958 10.4442 75.989 10.4375 75.9756 10.4375Z" fill="url(#paint11_linear_6126_21768)"/>
<path id="Vector_16" d="M88.4082 13.4812H88.4487L88.4284 13.4609L88.4082 13.4812Z" fill="url(#paint12_linear_6126_21768)"/>
<path id="Vector_17" d="M82.4736 13.4812H82.5141L82.4939 13.4609L82.4736 13.4812Z" fill="url(#paint13_linear_6126_21768)"/>
<path id="Vector_18" d="M76.54 13.4812H76.6008L76.5805 13.4609L76.54 13.4812Z" fill="url(#paint14_linear_6126_21768)"/>
<path id="Vector_19" d="M70.6299 13.4812H70.6704L70.6501 13.4609L70.6299 13.4812Z" fill="url(#paint15_linear_6126_21768)"/>
<path id="Vector_20" d="M64.6963 13.4812H64.757L64.7165 13.4609L64.6963 13.4812Z" fill="url(#paint16_linear_6126_21768)"/>
<path id="Vector_21" d="M54.1006 42.138H62.5563V34.8125H54.1006V42.138Z" fill="url(#paint17_linear_6126_21768)"/>
</g>
<g id="Group 1171276350">
<path id="Vector_22" d="M14.8682 123.238V105.439H15.7965V105.237H16.1396V96.0352H18.0366V93.6337H22.436V85.4405H24.8577V79.6285H27.8242V71.173H28.8736V79.6285H31.8402V85.4405H34.2417V93.6337H38.6412V96.0352H40.5583V105.439H41.2041V92.3422H42.2535V100.737H43.4442V80.7385H44.4936V89.1335H47.4602V86.0257H48.8526V74.6238H49.7002V74.4422H51.0927V63.0403H52.1018V64.7152H68.5088V59.6096H71.3139V41.5078H72.4238V59.6096H76.3187V64.7152H78.1148V88.7097H86.5302V81.5053H83.5233V80.1129H86.5302V78.3168H94.5218V59.9123H96.5197V57.1072H105.924V59.9123H107.316V85.3194H111.716V97.1249H113.976V87.7209H115.873V85.3194H120.273V77.106H122.694V71.3142H125.661V62.8587H126.71V71.3142H129.677V77.106H132.078V85.3194H136.478V87.7209H138.375V97.1249H141.281V72.404H142.33V80.8192H146.124V97.1249H147.537V66.1077H148.929V54.7058H149.938V58.7419L157.163 62.112V66.1077H160.533V97.1249H162.874V106.024H164.468V123.238H14.8682Z" fill="url(#paint18_linear_6126_21768)"/>
<g id="Group 1171276349">
<path id="Vector_23" d="M61.2676 66.9348H62.3977V65.8047H61.2676V66.9348Z" fill="white"/>
<path id="Vector_24" d="M61.2676 68.8612H62.3977V67.7109H61.2676V68.8612Z" fill="white"/>
<path id="Vector_25" d="M61.2676 76.4426H62.3977V75.3125H61.2676V76.4426Z" fill="white"/>
<path id="Vector_26" d="M61.2676 78.369H62.3977V77.2188H61.2676V78.369Z" fill="white"/>
<path id="Vector_27" d="M61.2676 80.2629H62.3977V79.1328H61.2676V80.2629Z" fill="white"/>
<path id="Vector_28" d="M61.2676 85.966H62.3977V84.8359H61.2676V85.966Z" fill="white"/>
<path id="Vector_29" d="M61.2676 87.8489H62.3977V86.7188H61.2676V87.8489Z" fill="white"/>
<path id="Vector_30" d="M63.0635 74.5598H64.1936V73.4297H63.0635V74.5598Z" fill="white"/>
<path id="Vector_31" d="M63.0635 76.4426H64.1936V75.3125H63.0635V76.4426Z" fill="white"/>
<path id="Vector_32" d="M63.0635 78.369H64.1936V77.2188H63.0635V78.369Z" fill="white"/>
<path id="Vector_33" d="M63.0635 80.2629H64.1936V79.1328H63.0635V80.2629Z" fill="white"/>
<path id="Vector_34" d="M63.0635 82.1614H64.1936V81.0312H63.0635V82.1614Z" fill="white"/>
<path id="Vector_35" d="M63.0635 85.966H64.1936V84.8359H63.0635V85.966Z" fill="white"/>
<path id="Vector_36" d="M63.0635 87.8489H64.1936V86.7188H63.0635V87.8489Z" fill="white"/>
<path id="Vector_37" d="M64.8594 66.9348H65.9895V65.8047H64.8594V66.9348Z" fill="white"/>
<path id="Vector_38" d="M64.8594 68.8612H65.9895V67.7109H64.8594V68.8612Z" fill="white"/>
<path id="Vector_39" d="M64.8594 70.7629H65.9895V69.6328H64.8594V70.7629Z" fill="white"/>
<path id="Vector_40" d="M64.8594 72.6535H65.9895V71.5234H64.8594V72.6535Z" fill="white"/>
<path id="Vector_41" d="M64.8594 74.5598H65.9895V73.4297H64.8594V74.5598Z" fill="white"/>
<path id="Vector_42" d="M64.8594 76.4426H65.9895V75.3125H64.8594V76.4426Z" fill="white"/>
<path id="Vector_43" d="M64.8594 78.369H65.9895V77.2188H64.8594V78.369Z" fill="white"/>
<path id="Vector_44" d="M64.8594 80.2629H65.9895V79.1328H64.8594V80.2629Z" fill="white"/>
<path id="Vector_45" d="M64.8594 82.1614H65.9895V81.0312H64.8594V82.1614Z" fill="white"/>
<path id="Vector_46" d="M64.8594 84.0598H65.9895V82.9297H64.8594V84.0598Z" fill="white"/>
<path id="Vector_47" d="M64.8594 87.8489H65.9895V86.7188H64.8594V87.8489Z" fill="white"/>
<path id="Vector_48" d="M66.6562 66.9348H67.8066V65.8047H66.6562V66.9348Z" fill="white"/>
<path id="Vector_49" d="M66.6562 68.8612H67.8066V67.7109H66.6562V68.8612Z" fill="white"/>
<path id="Vector_50" d="M66.6562 70.7629H67.8066V69.6328H66.6562V70.7629Z" fill="white"/>
<path id="Vector_51" d="M66.6562 72.6535H67.8066V71.5234H66.6562V72.6535Z" fill="white"/>
<path id="Vector_52" d="M66.6562 74.5598H67.8066V73.4297H66.6562V74.5598Z" fill="white"/>
<path id="Vector_53" d="M66.6562 76.4426H67.8066V75.3125H66.6562V76.4426Z" fill="white"/>
<path id="Vector_54" d="M66.6562 78.369H67.8066V77.2188H66.6562V78.369Z" fill="white"/>
<path id="Vector_55" d="M66.6562 95.4582H67.8066V94.3281H66.6562V95.4582Z" fill="white"/>
<path id="Vector_56" d="M68.4707 66.9348H69.6008V65.8047H68.4707V66.9348Z" fill="white"/>
<path id="Vector_57" d="M68.4707 68.8612H69.6008V67.7109H68.4707V68.8612Z" fill="white"/>
<path id="Vector_58" d="M68.4707 70.7629H69.6008V69.6328H68.4707V70.7629Z" fill="white"/>
<path id="Vector_59" d="M68.4707 72.6535H69.6008V71.5234H68.4707V72.6535Z" fill="white"/>
<path id="Vector_60" d="M68.4707 74.5598H69.6008V73.4297H68.4707V74.5598Z" fill="white"/>
<path id="Vector_61" d="M68.4707 76.4426H69.6008V75.3125H68.4707V76.4426Z" fill="white"/>
<path id="Vector_62" d="M68.4707 78.369H69.6008V77.2188H68.4707V78.369Z" fill="white"/>
<path id="Vector_63" d="M68.4707 80.2629H69.6008V79.1328H68.4707V80.2629Z" fill="white"/>
<path id="Vector_64" d="M68.4707 91.6692H69.6008V90.5391H68.4707V91.6692Z" fill="white"/>
<path id="Vector_65" d="M68.4707 93.5598H69.6008V92.4297H68.4707V93.5598Z" fill="white"/>
<path id="Vector_66" d="M68.4707 95.4582H69.6008V94.3281H68.4707V95.4582Z" fill="white"/>
<path id="Vector_67" d="M68.4707 97.3489H69.6008V96.2188H68.4707V97.3489Z" fill="white"/>
<path id="Vector_68" d="M68.4707 104.966H69.6008V103.836H68.4707V104.966Z" fill="white"/>
<path id="Vector_69" d="M70.2666 66.9348H71.3967V65.8047H70.2666V66.9348Z" fill="white"/>
<path id="Vector_70" d="M70.2666 68.8612H71.3967V67.7109H70.2666V68.8612Z" fill="white"/>
<path id="Vector_71" d="M70.2666 70.7629H71.3967V69.6328H70.2666V70.7629Z" fill="white"/>
<path id="Vector_72" d="M70.2666 72.6535H71.3967V71.5234H70.2666V72.6535Z" fill="white"/>
<path id="Vector_73" d="M70.2666 74.5598H71.3967V73.4297H70.2666V74.5598Z" fill="white"/>
<path id="Vector_74" d="M70.2666 76.4426H71.3967V75.3125H70.2666V76.4426Z" fill="white"/>
<path id="Vector_75" d="M70.2666 78.369H71.3967V77.2188H70.2666V78.369Z" fill="white"/>
<path id="Vector_76" d="M70.2666 80.2629H71.3967V79.1328H70.2666V80.2629Z" fill="white"/>
<path id="Vector_77" d="M70.2666 82.1614H71.3967V81.0312H70.2666V82.1614Z" fill="white"/>
<path id="Vector_78" d="M70.2666 84.0598H71.3967V82.9297H70.2666V84.0598Z" fill="white"/>
<path id="Vector_79" d="M70.2666 89.7597H71.3967V88.6094H70.2666V89.7597Z" fill="white"/>
<path id="Vector_80" d="M70.2666 91.6692H71.3967V90.5391H70.2666V91.6692Z" fill="white"/>
<path id="Vector_81" d="M70.2666 93.5598H71.3967V92.4297H70.2666V93.5598Z" fill="white"/>
<path id="Vector_82" d="M70.2666 95.4582H71.3967V94.3281H70.2666V95.4582Z" fill="white"/>
<path id="Vector_83" d="M70.2666 97.3489H71.3967V96.2188H70.2666V97.3489Z" fill="white"/>
<path id="Vector_84" d="M70.2666 104.966H71.3967V103.836H70.2666V104.966Z" fill="white"/>
<path id="Vector_85" d="M72.0654 66.9348H73.1956V65.8047H72.0654V66.9348Z" fill="white"/>
<path id="Vector_86" d="M72.0654 68.8612H73.1956V67.7109H72.0654V68.8612Z" fill="white"/>
<path id="Vector_87" d="M72.0654 70.7629H73.1956V69.6328H72.0654V70.7629Z" fill="white"/>
<path id="Vector_88" d="M72.0654 72.6535H73.1956V71.5234H72.0654V72.6535Z" fill="white"/>
<path id="Vector_89" d="M72.0654 74.5598H73.1956V73.4297H72.0654V74.5598Z" fill="white"/>
<path id="Vector_90" d="M72.0654 76.4426H73.1956V75.3125H72.0654V76.4426Z" fill="white"/>
<path id="Vector_91" d="M72.0654 78.369H73.1956V77.2188H72.0654V78.369Z" fill="white"/>
<path id="Vector_92" d="M72.0654 80.2629H73.1956V79.1328H72.0654V80.2629Z" fill="white"/>
<path id="Vector_93" d="M72.0654 82.1614H73.1956V81.0312H72.0654V82.1614Z" fill="white"/>
<path id="Vector_94" d="M72.0654 84.0598H73.1956V82.9297H72.0654V84.0598Z" fill="white"/>
<path id="Vector_95" d="M72.0654 85.966H73.1956V84.8359H72.0654V85.966Z" fill="white"/>
<path id="Vector_96" d="M72.0654 87.8489H73.1956V86.7188H72.0654V87.8489Z" fill="white"/>
<path id="Vector_97" d="M72.0654 89.7597H73.1956V88.6094H72.0654V89.7597Z" fill="white"/>
<path id="Vector_98" d="M72.0654 91.6692H73.1956V90.5391H72.0654V91.6692Z" fill="white"/>
<path id="Vector_99" d="M72.0654 93.5598H73.1956V92.4297H72.0654V93.5598Z" fill="white"/>
<path id="Vector_100" d="M72.0654 95.4582H73.1956V94.3281H72.0654V95.4582Z" fill="white"/>
<path id="Vector_101" d="M72.0654 97.3489H73.1956V96.2188H72.0654V97.3489Z" fill="white"/>
<path id="Vector_102" d="M72.0654 99.2629H73.1956V98.1328H72.0654V99.2629Z" fill="white"/>
<path id="Vector_103" d="M73.8613 66.9348H74.9915V65.8047H73.8613V66.9348Z" fill="white"/>
<path id="Vector_104" d="M73.8613 68.8612H74.9915V67.7109H73.8613V68.8612Z" fill="white"/>
<path id="Vector_105" d="M73.8613 70.7629H74.9915V69.6328H73.8613V70.7629Z" fill="white"/>
<path id="Vector_106" d="M73.8613 72.6535H74.9915V71.5234H73.8613V72.6535Z" fill="white"/>
<path id="Vector_107" d="M73.8613 74.5598H74.9915V73.4297H73.8613V74.5598Z" fill="white"/>
<path id="Vector_108" d="M73.8613 76.4426H74.9915V75.3125H73.8613V76.4426Z" fill="white"/>
<path id="Vector_109" d="M73.8613 78.369H74.9915V77.2188H73.8613V78.369Z" fill="white"/>
<path id="Vector_110" d="M73.8613 80.2629H74.9915V79.1328H73.8613V80.2629Z" fill="white"/>
<path id="Vector_111" d="M73.8613 82.1614H74.9915V81.0312H73.8613V82.1614Z" fill="white"/>
<path id="Vector_112" d="M73.8613 84.0598H74.9915V82.9297H73.8613V84.0598Z" fill="white"/>
<path id="Vector_113" d="M73.8613 89.7597H74.9915V88.6094H73.8613V89.7597Z" fill="white"/>
<path id="Vector_114" d="M73.8613 91.6692H74.9915V90.5391H73.8613V91.6692Z" fill="white"/>
<path id="Vector_115" d="M73.8613 93.5598H74.9915V92.4297H73.8613V93.5598Z" fill="white"/>
<path id="Vector_116" d="M73.8613 95.4582H74.9915V94.3281H73.8613V95.4582Z" fill="white"/>
<path id="Vector_117" d="M75.6572 66.9348H76.8075V65.8047H75.6572V66.9348Z" fill="white"/>
<path id="Vector_118" d="M75.6572 68.8612H76.8075V67.7109H75.6572V68.8612Z" fill="white"/>
<path id="Vector_119" d="M75.6572 70.7629H76.8075V69.6328H75.6572V70.7629Z" fill="white"/>
<path id="Vector_120" d="M75.6572 72.6535H76.8075V71.5234H75.6572V72.6535Z" fill="white"/>
<path id="Vector_121" d="M75.6572 74.5598H76.8075V73.4297H75.6572V74.5598Z" fill="white"/>
<path id="Vector_122" d="M75.6572 76.4426H76.8075V75.3125H75.6572V76.4426Z" fill="white"/>
<path id="Vector_123" d="M75.6572 78.369H76.8075V77.2188H75.6572V78.369Z" fill="white"/>
<path id="Vector_124" d="M75.6572 80.2629H76.8075V79.1328H75.6572V80.2629Z" fill="white"/>
<path id="Vector_125" d="M75.6572 82.1614H76.8075V81.0312H75.6572V82.1614Z" fill="white"/>
<path id="Vector_126" d="M75.6572 84.0598H76.8075V82.9297H75.6572V84.0598Z" fill="white"/>
<path id="Vector_127" d="M75.6572 89.7597H76.8075V88.6094H75.6572V89.7597Z" fill="white"/>
<path id="Vector_128" d="M75.6572 91.6692H76.8075V90.5391H75.6572V91.6692Z" fill="white"/>
<path id="Vector_129" d="M75.6572 93.5598H76.8075V92.4297H75.6572V93.5598Z" fill="white"/>
<path id="Vector_130" d="M95.9375 62.0207H97.0676V60.8906H95.9375V62.0207Z" fill="white"/>
<path id="Vector_131" d="M95.9375 63.9192H97.0676V62.7891H95.9375V63.9192Z" fill="white"/>
<path id="Vector_132" d="M95.9375 65.8176H97.0676V64.6875H95.9375V65.8176Z" fill="white"/>
<path id="Vector_133" d="M95.9375 67.716H97.0676V66.5859H95.9375V67.716Z" fill="white"/>
<path id="Vector_134" d="M95.9375 69.6268H97.0676V68.4766H95.9375V69.6268Z" fill="white"/>
<path id="Vector_135" d="M95.9375 71.5285H97.0676V70.3984H95.9375V71.5285Z" fill="white"/>
<path id="Vector_136" d="M95.9375 73.427H97.0676V72.2969H95.9375V73.427Z" fill="white"/>
<path id="Vector_137" d="M95.9375 75.3176H97.0676V74.1875H95.9375V75.3176Z" fill="white"/>
<path id="Vector_138" d="M95.9375 81.0331H97.0676V79.8828H95.9375V81.0331Z" fill="white"/>
<path id="Vector_139" d="M95.9375 82.927H97.0676V81.7969H95.9375V82.927Z" fill="white"/>
<path id="Vector_140" d="M97.7354 62.0207H98.8655V60.8906H97.7354V62.0207Z" fill="white"/>
<path id="Vector_141" d="M97.7354 63.9192H98.8655V62.7891H97.7354V63.9192Z" fill="white"/>
<path id="Vector_142" d="M97.7354 65.8176H98.8655V64.6875H97.7354V65.8176Z" fill="white"/>
<path id="Vector_143" d="M97.7354 67.716H98.8655V66.5859H97.7354V67.716Z" fill="white"/>
<path id="Vector_144" d="M97.7354 69.6268H98.8655V68.4766H97.7354V69.6268Z" fill="white"/>
<path id="Vector_145" d="M97.7354 71.5285H98.8655V70.3984H97.7354V71.5285Z" fill="white"/>
<path id="Vector_146" d="M97.7354 73.427H98.8655V72.2969H97.7354V73.427Z" fill="white"/>
<path id="Vector_147" d="M97.7354 75.3176H98.8655V74.1875H97.7354V75.3176Z" fill="white"/>
<path id="Vector_148" d="M97.7354 82.927H98.8655V81.7969H97.7354V82.927Z" fill="white"/>
<path id="Vector_149" d="M99.5303 62.0207H100.681V60.8906H99.5303V62.0207Z" fill="white"/>
<path id="Vector_150" d="M99.5303 63.9192H100.681V62.7891H99.5303V63.9192Z" fill="white"/>
<path id="Vector_151" d="M99.5303 65.8176H100.681V64.6875H99.5303V65.8176Z" fill="white"/>
<path id="Vector_152" d="M99.5303 67.716H100.681V66.5859H99.5303V67.716Z" fill="white"/>
<path id="Vector_153" d="M99.5303 69.6268H100.681V68.4766H99.5303V69.6268Z" fill="white"/>
<path id="Vector_154" d="M99.5303 71.5285H100.681V70.3984H99.5303V71.5285Z" fill="white"/>
<path id="Vector_155" d="M99.5303 73.427H100.681V72.2969H99.5303V73.427Z" fill="white"/>
<path id="Vector_156" d="M99.5303 75.3176H100.681V74.1875H99.5303V75.3176Z" fill="white"/>
<path id="Vector_157" d="M101.348 62.0207H102.478V60.8906H101.348V62.0207Z" fill="white"/>
<path id="Vector_158" d="M101.348 63.9192H102.478V62.7891H101.348V63.9192Z" fill="white"/>
<path id="Vector_159" d="M101.348 65.8176H102.478V64.6875H101.348V65.8176Z" fill="white"/>
<path id="Vector_160" d="M101.348 67.716H102.478V66.5859H101.348V67.716Z" fill="white"/>
<path id="Vector_161" d="M101.348 69.6268H102.478V68.4766H101.348V69.6268Z" fill="white"/>
<path id="Vector_162" d="M101.348 71.5285H102.478V70.3984H101.348V71.5285Z" fill="white"/>
<path id="Vector_163" d="M101.348 75.3176H102.478V74.1875H101.348V75.3176Z" fill="white"/>
<path id="Vector_164" d="M101.348 77.216H102.478V76.0859H101.348V77.216Z" fill="white"/>
<path id="Vector_165" d="M101.348 82.927H102.478V81.7969H101.348V82.927Z" fill="white"/>
<path id="Vector_166" d="M101.348 84.8254H102.478V83.6953H101.348V84.8254Z" fill="white"/>
<path id="Vector_167" d="M101.348 86.716H102.478V85.5859H101.348V86.716Z" fill="white"/>
<path id="Vector_168" d="M101.348 88.6223H102.478V87.4922H101.348V88.6223Z" fill="white"/>
<path id="Vector_169" d="M101.348 90.5331H102.478V89.3828H101.348V90.5331Z" fill="white"/>
<path id="Vector_170" d="M101.348 92.4348H102.478V91.3047H101.348V92.4348Z" fill="white"/>
<path id="Vector_171" d="M101.348 94.3254H102.478V93.1953H101.348V94.3254Z" fill="white"/>
<path id="Vector_172" d="M103.143 62.0207H104.273V60.8906H103.143V62.0207Z" fill="white"/>
<path id="Vector_173" d="M103.142 63.9192H104.272V62.7891H103.142V63.9192Z" fill="white"/>
<path id="Vector_174" d="M103.142 65.8176H104.272V64.6875H103.142V65.8176Z" fill="white"/>
<path id="Vector_175" d="M103.142 67.716H104.272V66.5859H103.142V67.716Z" fill="white"/>
<path id="Vector_176" d="M103.142 69.6268H104.272V68.4766H103.142V69.6268Z" fill="white"/>
<path id="Vector_177" d="M103.143 71.5285H104.273V70.3984H103.143V71.5285Z" fill="white"/>
<path id="Vector_178" d="M103.142 77.216H104.272V76.0859H103.142V77.216Z" fill="white"/>
<path id="Vector_179" d="M103.142 79.1268H104.272V77.9766H103.142V79.1268Z" fill="white"/>
<path id="Vector_180" d="M103.142 81.0331H104.272V79.8828H103.142V81.0331Z" fill="white"/>
<path id="Vector_181" d="M103.142 82.927H104.272V81.7969H103.142V82.927Z" fill="white"/>
<path id="Vector_182" d="M103.143 84.8254H104.273V83.6953H103.143V84.8254Z" fill="white"/>
<path id="Vector_183" d="M103.143 86.716H104.273V85.5859H103.143V86.716Z" fill="white"/>
<path id="Vector_184" d="M103.142 88.6223H104.272V87.4922H103.142V88.6223Z" fill="white"/>
<path id="Vector_185" d="M103.142 90.5331H104.272V89.3828H103.142V90.5331Z" fill="white"/>
<path id="Vector_186" d="M103.142 92.4348H104.272V91.3047H103.142V92.4348Z" fill="white"/>
<path id="Vector_187" d="M103.142 94.3254H104.272V93.1953H103.142V94.3254Z" fill="white"/>
<path id="Vector_188" d="M103.142 96.2317H104.272V95.1016H103.142V96.2317Z" fill="white"/>
<path id="Vector_189" d="M103.142 100.021H104.272V98.8906H103.142V100.021Z" fill="white"/>
<path id="Vector_190" d="M104.938 62.0207H106.069V60.8906H104.938V62.0207Z" fill="white"/>
<path id="Vector_191" d="M104.938 63.9192H106.069V62.7891H104.938V63.9192Z" fill="white"/>
<path id="Vector_192" d="M104.938 65.8176H106.069V64.6875H104.938V65.8176Z" fill="white"/>
<path id="Vector_193" d="M104.938 67.716H106.069V66.5859H104.938V67.716Z" fill="white"/>
<path id="Vector_194" d="M104.938 69.6268H106.069V68.4766H104.938V69.6268Z" fill="white"/>
<path id="Vector_195" d="M104.938 71.5285H106.069V70.3984H104.938V71.5285Z" fill="white"/>
<path id="Vector_196" d="M104.938 77.216H106.069V76.0859H104.938V77.216Z" fill="white"/>
<path id="Vector_197" d="M104.938 79.1268H106.069V77.9766H104.938V79.1268Z" fill="white"/>
<path id="Vector_198" d="M104.938 81.0331H106.069V79.8828H104.938V81.0331Z" fill="white"/>
<path id="Vector_199" d="M104.938 82.927H106.069V81.7969H104.938V82.927Z" fill="white"/>
<path id="Vector_200" d="M104.938 88.6223H106.069V87.4922H104.938V88.6223Z" fill="white"/>
<path id="Vector_201" d="M104.938 90.5331H106.069V89.3828H104.938V90.5331Z" fill="white"/>
<path id="Vector_202" d="M104.938 92.4348H106.069V91.3047H104.938V92.4348Z" fill="white"/>
<path id="Vector_203" d="M104.938 94.3254H106.069V93.1953H104.938V94.3254Z" fill="white"/>
<path id="Vector_204" d="M104.938 96.2317H106.069V95.1016H104.938V96.2317Z" fill="white"/>
<path id="Vector_205" d="M104.938 100.021H106.069V98.8906H104.938V100.021Z" fill="white"/>
<path id="Vector_206" d="M104.938 101.939H106.069V100.789H104.938V101.939Z" fill="white"/>
<path id="Vector_207" d="M121.264 79.6972H122.414V78.5469H121.264V79.6972Z" fill="white"/>
<path id="Vector_208" d="M121.264 81.5989H122.414V80.4688H121.264V81.5989Z" fill="white"/>
<path id="Vector_209" d="M121.264 83.4895H122.414V82.3594H121.264V83.4895Z" fill="white"/>
<path id="Vector_210" d="M121.264 85.3879H122.414V84.2578H121.264V85.3879Z" fill="white"/>
<path id="Vector_211" d="M121.264 87.2785H122.414V86.1484H121.264V87.2785Z" fill="white"/>
<path id="Vector_212" d="M121.264 89.1848H122.414V88.0547H121.264V89.1848Z" fill="white"/>
<path id="Vector_213" d="M121.264 91.0956H122.414V89.9453H121.264V91.0956Z" fill="white"/>
<path id="Vector_214" d="M121.264 96.7864H122.414V95.6562H121.264V96.7864Z" fill="white"/>
<path id="Vector_215" d="M121.264 98.6848H122.414V97.5547H121.264V98.6848Z" fill="white"/>
<path id="Vector_216" d="M121.264 100.575H122.414V99.4453H121.264V100.575Z" fill="white"/>
<path id="Vector_217" d="M123.081 79.6972H124.211V78.5469H123.081V79.6972Z" fill="white"/>
<path id="Vector_218" d="M123.081 81.5989H124.211V80.4688H123.081V81.5989Z" fill="white"/>
<path id="Vector_219" d="M123.081 83.4895H124.211V82.3594H123.081V83.4895Z" fill="white"/>
<path id="Vector_220" d="M123.081 85.3879H124.211V84.2578H123.081V85.3879Z" fill="white"/>
<path id="Vector_221" d="M123.081 87.2785H124.211V86.1484H123.081V87.2785Z" fill="white"/>
<path id="Vector_222" d="M123.081 89.1848H124.211V88.0547H123.081V89.1848Z" fill="white"/>
<path id="Vector_223" d="M123.081 91.0956H124.211V89.9453H123.081V91.0956Z" fill="white"/>
<path id="Vector_224" d="M124.877 79.6972H126.007V78.5469H124.877V79.6972Z" fill="white"/>
<path id="Vector_225" d="M124.877 81.5989H126.007V80.4688H124.877V81.5989Z" fill="white"/>
<path id="Vector_226" d="M124.877 83.4895H126.007V82.3594H124.877V83.4895Z" fill="white"/>
<path id="Vector_227" d="M124.877 85.3879H126.007V84.2578H124.877V85.3879Z" fill="white"/>
<path id="Vector_228" d="M124.877 87.2785H126.007V86.1484H124.877V87.2785Z" fill="white"/>
<path id="Vector_229" d="M124.877 89.1848H126.007V88.0547H124.877V89.1848Z" fill="white"/>
<path id="Vector_230" d="M124.877 91.0956H126.007V89.9453H124.877V91.0956Z" fill="white"/>
<path id="Vector_231" d="M126.673 79.6972H127.803V78.5469H126.673V79.6972Z" fill="white"/>
<path id="Vector_232" d="M126.673 81.5989H127.803V80.4688H126.673V81.5989Z" fill="white"/>
<path id="Vector_233" d="M126.673 83.4895H127.803V82.3594H126.673V83.4895Z" fill="white"/>
<path id="Vector_234" d="M126.673 85.3879H127.803V84.2578H126.673V85.3879Z" fill="white"/>
<path id="Vector_235" d="M126.673 87.2785H127.803V86.1484H126.673V87.2785Z" fill="white"/>
<path id="Vector_236" d="M126.673 89.1848H127.803V88.0547H126.673V89.1848Z" fill="white"/>
<path id="Vector_237" d="M126.673 91.0956H127.803V89.9453H126.673V91.0956Z" fill="white"/>
<path id="Vector_238" d="M126.673 92.9895H127.803V91.8594H126.673V92.9895Z" fill="white"/>
<path id="Vector_239" d="M126.673 94.8879H127.803V93.7578H126.673V94.8879Z" fill="white"/>
<path id="Vector_240" d="M126.673 96.7864H127.803V95.6562H126.673V96.7864Z" fill="white"/>
<path id="Vector_241" d="M126.673 98.6848H127.803V97.5547H126.673V98.6848Z" fill="white"/>
<path id="Vector_242" d="M128.47 79.6972H129.62V78.5469H128.47V79.6972Z" fill="white"/>
<path id="Vector_243" d="M128.47 81.5989H129.62V80.4688H128.47V81.5989Z" fill="white"/>
<path id="Vector_244" d="M128.47 83.4895H129.62V82.3594H128.47V83.4895Z" fill="white"/>
<path id="Vector_245" d="M128.47 85.3879H129.62V84.2578H128.47V85.3879Z" fill="white"/>
<path id="Vector_246" d="M128.47 87.2785H129.62V86.1484H128.47V87.2785Z" fill="white"/>
<path id="Vector_247" d="M128.47 89.1848H129.62V88.0547H128.47V89.1848Z" fill="white"/>
<path id="Vector_248" d="M128.47 91.0956H129.62V89.9453H128.47V91.0956Z" fill="white"/>
<path id="Vector_249" d="M128.47 92.9895H129.62V91.8594H128.47V92.9895Z" fill="white"/>
<path id="Vector_250" d="M128.47 94.8879H129.62V93.7578H128.47V94.8879Z" fill="white"/>
<path id="Vector_251" d="M128.47 96.7864H129.62V95.6562H128.47V96.7864Z" fill="white"/>
<path id="Vector_252" d="M128.47 98.6848H129.62V97.5547H128.47V98.6848Z" fill="white"/>
<path id="Vector_253" d="M128.47 100.575H129.62V99.4453H128.47V100.575Z" fill="white"/>
<path id="Vector_254" d="M128.47 106.294H129.62V105.164H128.47V106.294Z" fill="white"/>
<path id="Vector_255" d="M130.286 79.6972H131.416V78.5469H130.286V79.6972Z" fill="white"/>
<path id="Vector_256" d="M130.286 81.5989H131.416V80.4688H130.286V81.5989Z" fill="white"/>
<path id="Vector_257" d="M130.286 83.4895H131.416V82.3594H130.286V83.4895Z" fill="white"/>
<path id="Vector_258" d="M130.286 89.1848H131.416V88.0547H130.286V89.1848Z" fill="white"/>
<path id="Vector_259" d="M130.286 91.0956H131.416V89.9453H130.286V91.0956Z" fill="white"/>
<path id="Vector_260" d="M130.286 92.9895H131.416V91.8594H130.286V92.9895Z" fill="white"/>
<path id="Vector_261" d="M130.286 94.8879H131.416V93.7578H130.286V94.8879Z" fill="white"/>
<path id="Vector_262" d="M130.286 96.7864H131.416V95.6562H130.286V96.7864Z" fill="white"/>
<path id="Vector_263" d="M130.286 98.6848H131.416V97.5547H130.286V98.6848Z" fill="white"/>
<path id="Vector_264" d="M130.286 100.575H131.416V99.4453H130.286V100.575Z" fill="white"/>
<path id="Vector_265" d="M130.286 106.294H131.416V105.164H130.286V106.294Z" fill="white"/>
<path id="Vector_266" d="M149.156 68.2909H150.286V67.1406H149.156V68.2909Z" fill="white"/>
<path id="Vector_267" d="M149.156 70.2004H150.286V69.0703H149.156V70.2004Z" fill="white"/>
<path id="Vector_268" d="M149.156 72.0832H150.286V70.9531H149.156V72.0832Z" fill="white"/>
<path id="Vector_269" d="M149.156 73.9895H150.286V72.8594H149.156V73.9895Z" fill="white"/>
<path id="Vector_270" d="M149.156 75.8801H150.286V74.75H149.156V75.8801Z" fill="white"/>
<path id="Vector_271" d="M149.156 77.7785H150.286V76.6484H149.156V77.7785Z" fill="white"/>
<path id="Vector_272" d="M149.156 79.6972H150.286V78.5469H149.156V79.6972Z" fill="white"/>
<path id="Vector_273" d="M149.156 81.5989H150.286V80.4688H149.156V81.5989Z" fill="white"/>
<path id="Vector_274" d="M149.156 83.4895H150.286V82.3594H149.156V83.4895Z" fill="white"/>
<path id="Vector_275" d="M149.156 85.3879H150.286V84.2578H149.156V85.3879Z" fill="white"/>
<path id="Vector_276" d="M149.156 87.2785H150.286V86.1484H149.156V87.2785Z" fill="white"/>
<path id="Vector_277" d="M149.156 89.1848H150.286V88.0547H149.156V89.1848Z" fill="white"/>
<path id="Vector_278" d="M149.156 91.0956H150.286V89.9453H149.156V91.0956Z" fill="white"/>
<path id="Vector_279" d="M149.156 92.9895H150.286V91.8594H149.156V92.9895Z" fill="white"/>
<path id="Vector_280" d="M149.156 94.8879H150.286V93.7578H149.156V94.8879Z" fill="white"/>
<path id="Vector_281" d="M149.156 96.7864H150.286V95.6562H149.156V96.7864Z" fill="white"/>
<path id="Vector_282" d="M149.156 98.6848H150.286V97.5547H149.156V98.6848Z" fill="white"/>
<path id="Vector_283" d="M149.156 100.575H150.286V99.4453H149.156V100.575Z" fill="white"/>
<path id="Vector_284" d="M149.156 102.502H150.286V101.352H149.156V102.502Z" fill="white"/>
<path id="Vector_285" d="M149.156 104.404H150.286V103.273H149.156V104.404Z" fill="white"/>
<path id="Vector_286" d="M149.156 106.294H150.286V105.164H149.156V106.294Z" fill="white"/>
<path id="Vector_287" d="M150.951 68.2909H152.081V67.1406H150.951V68.2909Z" fill="white"/>
<path id="Vector_288" d="M150.951 70.2004H152.081V69.0703H150.951V70.2004Z" fill="white"/>
<path id="Vector_289" d="M150.951 72.0832H152.081V70.9531H150.951V72.0832Z" fill="white"/>
<path id="Vector_290" d="M150.951 73.9895H152.081V72.8594H150.951V73.9895Z" fill="white"/>
<path id="Vector_291" d="M150.951 75.8801H152.081V74.75H150.951V75.8801Z" fill="white"/>
<path id="Vector_292" d="M150.951 77.7785H152.081V76.6484H150.951V77.7785Z" fill="white"/>
<path id="Vector_293" d="M150.951 79.6972H152.081V78.5469H150.951V79.6972Z" fill="white"/>
<path id="Vector_294" d="M150.951 81.5989H152.081V80.4688H150.951V81.5989Z" fill="white"/>
<path id="Vector_295" d="M150.951 83.4895H152.081V82.3594H150.951V83.4895Z" fill="white"/>
<path id="Vector_296" d="M150.951 85.3879H152.081V84.2578H150.951V85.3879Z" fill="white"/>
<path id="Vector_297" d="M150.951 87.2785H152.081V86.1484H150.951V87.2785Z" fill="white"/>
<path id="Vector_298" d="M150.951 89.1848H152.081V88.0547H150.951V89.1848Z" fill="white"/>
<path id="Vector_299" d="M150.951 91.0956H152.081V89.9453H150.951V91.0956Z" fill="white"/>
<path id="Vector_300" d="M150.951 92.9895H152.081V91.8594H150.951V92.9895Z" fill="white"/>
<path id="Vector_301" d="M150.951 94.8879H152.081V93.7578H150.951V94.8879Z" fill="white"/>
<path id="Vector_302" d="M150.951 96.7864H152.081V95.6562H150.951V96.7864Z" fill="white"/>
<path id="Vector_303" d="M150.951 98.6848H152.081V97.5547H150.951V98.6848Z" fill="white"/>
<path id="Vector_304" d="M150.951 100.575H152.081V99.4453H150.951V100.575Z" fill="white"/>
<path id="Vector_305" d="M150.951 102.502H152.081V101.352H150.951V102.502Z" fill="white"/>
<path id="Vector_306" d="M152.748 68.2909H153.878V67.1406H152.748V68.2909Z" fill="white"/>
<path id="Vector_307" d="M152.748 70.2004H153.878V69.0703H152.748V70.2004Z" fill="white"/>
<path id="Vector_308" d="M152.748 72.0832H153.878V70.9531H152.748V72.0832Z" fill="white"/>
<path id="Vector_309" d="M152.748 73.9895H153.878V72.8594H152.748V73.9895Z" fill="white"/>
<path id="Vector_310" d="M152.748 75.8801H153.878V74.75H152.748V75.8801Z" fill="white"/>
<path id="Vector_311" d="M152.748 77.7785H153.878V76.6484H152.748V77.7785Z" fill="white"/>
<path id="Vector_312" d="M152.748 79.6972H153.878V78.5469H152.748V79.6972Z" fill="white"/>
<path id="Vector_313" d="M152.748 81.5989H153.878V80.4688H152.748V81.5989Z" fill="white"/>
<path id="Vector_314" d="M152.748 83.4895H153.878V82.3594H152.748V83.4895Z" fill="white"/>
<path id="Vector_315" d="M152.748 85.3879H153.878V84.2578H152.748V85.3879Z" fill="white"/>
<path id="Vector_316" d="M152.748 87.2785H153.878V86.1484H152.748V87.2785Z" fill="white"/>
<path id="Vector_317" d="M152.748 89.1848H153.878V88.0547H152.748V89.1848Z" fill="white"/>
<path id="Vector_318" d="M152.748 91.0956H153.878V89.9453H152.748V91.0956Z" fill="white"/>
<path id="Vector_319" d="M152.748 92.9895H153.878V91.8594H152.748V92.9895Z" fill="white"/>
<path id="Vector_320" d="M152.748 94.8879H153.878V93.7578H152.748V94.8879Z" fill="white"/>
<path id="Vector_321" d="M152.748 96.7864H153.878V95.6562H152.748V96.7864Z" fill="white"/>
<path id="Vector_322" d="M152.748 98.6848H153.878V97.5547H152.748V98.6848Z" fill="white"/>
<path id="Vector_323" d="M152.748 100.575H153.878V99.4453H152.748V100.575Z" fill="white"/>
<path id="Vector_324" d="M152.748 102.502H153.878V101.352H152.748V102.502Z" fill="white"/>
<path id="Vector_325" d="M154.543 68.2909H155.673V67.1406H154.543V68.2909Z" fill="white"/>
<path id="Vector_326" d="M154.543 70.2004H155.673V69.0703H154.543V70.2004Z" fill="white"/>
<path id="Vector_327" d="M154.543 72.0832H155.673V70.9531H154.543V72.0832Z" fill="white"/>
<path id="Vector_328" d="M154.543 73.9895H155.673V72.8594H154.543V73.9895Z" fill="white"/>
<path id="Vector_329" d="M154.543 75.8801H155.673V74.75H154.543V75.8801Z" fill="white"/>
<path id="Vector_330" d="M154.543 77.7785H155.673V76.6484H154.543V77.7785Z" fill="white"/>
<path id="Vector_331" d="M154.543 79.6972H155.673V78.5469H154.543V79.6972Z" fill="white"/>
<path id="Vector_332" d="M154.543 81.5989H155.673V80.4688H154.543V81.5989Z" fill="white"/>
<path id="Vector_333" d="M154.543 83.4895H155.673V82.3594H154.543V83.4895Z" fill="white"/>
<path id="Vector_334" d="M154.543 85.3879H155.673V84.2578H154.543V85.3879Z" fill="white"/>
<path id="Vector_335" d="M154.543 87.2785H155.673V86.1484H154.543V87.2785Z" fill="white"/>
<path id="Vector_336" d="M154.543 89.1848H155.673V88.0547H154.543V89.1848Z" fill="white"/>
<path id="Vector_337" d="M154.543 91.0956H155.673V89.9453H154.543V91.0956Z" fill="white"/>
<path id="Vector_338" d="M154.543 92.9895H155.673V91.8594H154.543V92.9895Z" fill="white"/>
<path id="Vector_339" d="M154.543 94.8879H155.673V93.7578H154.543V94.8879Z" fill="white"/>
<path id="Vector_340" d="M156.339 68.2909H157.489V67.1406H156.339V68.2909Z" fill="white"/>
<path id="Vector_341" d="M156.339 70.2004H157.489V69.0703H156.339V70.2004Z" fill="white"/>
<path id="Vector_342" d="M156.339 72.0832H157.489V70.9531H156.339V72.0832Z" fill="white"/>
<path id="Vector_343" d="M156.339 73.9895H157.489V72.8594H156.339V73.9895Z" fill="white"/>
<path id="Vector_344" d="M156.339 75.8801H157.489V74.75H156.339V75.8801Z" fill="white"/>
<path id="Vector_345" d="M156.339 77.7785H157.489V76.6484H156.339V77.7785Z" fill="white"/>
<path id="Vector_346" d="M156.339 79.6972H157.489V78.5469H156.339V79.6972Z" fill="white"/>
<path id="Vector_347" d="M156.339 81.5989H157.489V80.4688H156.339V81.5989Z" fill="white"/>
<path id="Vector_348" d="M156.339 83.4895H157.489V82.3594H156.339V83.4895Z" fill="white"/>
<path id="Vector_349" d="M156.339 85.3879H157.489V84.2578H156.339V85.3879Z" fill="white"/>
<path id="Vector_350" d="M156.339 87.2785H157.489V86.1484H156.339V87.2785Z" fill="white"/>
<path id="Vector_351" d="M156.339 89.1848H157.489V88.0547H156.339V89.1848Z" fill="white"/>
<path id="Vector_352" d="M156.339 91.0956H157.489V89.9453H156.339V91.0956Z" fill="white"/>
<path id="Vector_353" d="M158.154 67.1406V68.2909H159.284V67.1406H158.154Z" fill="white"/>
<path id="Vector_354" d="M158.154 70.2004H159.284V69.0703H158.154V70.2004Z" fill="white"/>
<path id="Vector_355" d="M158.154 72.0832H159.284V70.9531H158.154V72.0832Z" fill="white"/>
<path id="Vector_356" d="M158.154 73.9895H159.284V72.8594H158.154V73.9895Z" fill="white"/>
<path id="Vector_357" d="M158.154 75.8801H159.284V74.75H158.154V75.8801Z" fill="white"/>
<path id="Vector_358" d="M158.154 77.7785H159.284V76.6484H158.154V77.7785Z" fill="white"/>
<path id="Vector_359" d="M158.154 79.6972H159.284V78.5469H158.154V79.6972Z" fill="white"/>
<path id="Vector_360" d="M158.154 81.5989H159.284V80.4688H158.154V81.5989Z" fill="white"/>
<path id="Vector_361" d="M158.154 83.4895H159.284V82.3594H158.154V83.4895Z" fill="white"/>
<path id="Vector_362" d="M158.154 85.3879H159.284V84.2578H158.154V85.3879Z" fill="white"/>
<path id="Vector_363" d="M158.154 87.2785H159.284V86.1484H158.154V87.2785Z" fill="white"/>
<path id="Vector_364" d="M158.154 89.1848H159.284V88.0547H158.154V89.1848Z" fill="white"/>
<path id="Vector_365" d="M25.8506 82.1614H26.9807V81.0312H25.8506V82.1614Z" fill="white"/>
<path id="Vector_366" d="M25.8506 84.0598H26.9807V82.9297H25.8506V84.0598Z" fill="white"/>
<path id="Vector_367" d="M25.8506 85.966H26.9807V84.8359H25.8506V85.966Z" fill="white"/>
<path id="Vector_368" d="M25.8506 87.8489H26.9807V86.7188H25.8506V87.8489Z" fill="white"/>
<path id="Vector_369" d="M25.8506 89.7597H26.9807V88.6094H25.8506V89.7597Z" fill="white"/>
<path id="Vector_370" d="M25.8506 91.6692H26.9807V90.5391H25.8506V91.6692Z" fill="white"/>
<path id="Vector_371" d="M25.8506 93.5598H26.9807V92.4297H25.8506V93.5598Z" fill="white"/>
<path id="Vector_372" d="M25.8506 95.4582H26.9807V94.3281H25.8506V95.4582Z" fill="white"/>
<path id="Vector_373" d="M25.8506 97.3489H26.9807V96.2188H25.8506V97.3489Z" fill="white"/>
<path id="Vector_374" d="M25.8506 99.2629H26.9807V98.1328H25.8506V99.2629Z" fill="white"/>
<path id="Vector_375" d="M25.8506 101.158H26.9807V100.008H25.8506V101.158Z" fill="white"/>
<path id="Vector_376" d="M25.8506 103.068H26.9807V101.938H25.8506V103.068Z" fill="white"/>
<path id="Vector_377" d="M25.8506 104.966H26.9807V103.836H25.8506V104.966Z" fill="white"/>
<path id="Vector_378" d="M25.8506 106.864H26.9807V105.734H25.8506V106.864Z" fill="white"/>
<path id="Vector_379" d="M27.6455 82.1614H28.7958V81.0312H27.6455V82.1614Z" fill="white"/>
<path id="Vector_380" d="M27.6455 84.0598H28.7958V82.9297H27.6455V84.0598Z" fill="white"/>
<path id="Vector_381" d="M27.6455 85.966H28.7958V84.8359H27.6455V85.966Z" fill="white"/>
<path id="Vector_382" d="M27.6455 87.8489H28.7958V86.7188H27.6455V87.8489Z" fill="white"/>
<path id="Vector_383" d="M27.6455 89.7597H28.7958V88.6094H27.6455V89.7597Z" fill="white"/>
<path id="Vector_384" d="M27.6455 91.6692H28.7958V90.5391H27.6455V91.6692Z" fill="white"/>
<path id="Vector_385" d="M27.6455 93.5598H28.7958V92.4297H27.6455V93.5598Z" fill="white"/>
<path id="Vector_386" d="M27.6455 95.4582H28.7958V94.3281H27.6455V95.4582Z" fill="white"/>
<path id="Vector_387" d="M27.6455 97.3489H28.7958V96.2188H27.6455V97.3489Z" fill="white"/>
<path id="Vector_388" d="M27.6455 99.2629H28.7958V98.1328H27.6455V99.2629Z" fill="white"/>
<path id="Vector_389" d="M27.6455 101.158H28.7958V100.008H27.6455V101.158Z" fill="white"/>
<path id="Vector_390" d="M27.6455 103.068H28.7958V101.938H27.6455V103.068Z" fill="white"/>
<path id="Vector_391" d="M27.6455 104.966H28.7958V103.836H27.6455V104.966Z" fill="white"/>
<path id="Vector_392" d="M27.6455 106.864H28.7958V105.734H27.6455V106.864Z" fill="white"/>
<path id="Vector_393" d="M29.4619 82.1614H30.592V81.0312H29.4619V82.1614Z" fill="white"/>
<path id="Vector_394" d="M29.4619 84.0598H30.592V82.9297H29.4619V84.0598Z" fill="white"/>
<path id="Vector_395" d="M29.4619 85.966H30.592V84.8359H29.4619V85.966Z" fill="white"/>
<path id="Vector_396" d="M29.4619 87.8489H30.592V86.7188H29.4619V87.8489Z" fill="white"/>
<path id="Vector_397" d="M29.4619 89.7597H30.592V88.6094H29.4619V89.7597Z" fill="white"/>
<path id="Vector_398" d="M29.4619 91.6692H30.592V90.5391H29.4619V91.6692Z" fill="white"/>
<path id="Vector_399" d="M29.4619 93.5598H30.592V92.4297H29.4619V93.5598Z" fill="white"/>
<path id="Vector_400" d="M29.4619 95.4582H30.592V94.3281H29.4619V95.4582Z" fill="white"/>
<path id="Vector_401" d="M29.4619 97.3489H30.592V96.2188H29.4619V97.3489Z" fill="white"/>
<path id="Vector_402" d="M29.4619 99.2629H30.592V98.1328H29.4619V99.2629Z" fill="white"/>
<path id="Vector_403" d="M29.4619 101.158H30.592V100.008H29.4619V101.158Z" fill="white"/>
<path id="Vector_404" d="M29.4619 103.068H30.592V101.938H29.4619V103.068Z" fill="white"/>
<path id="Vector_405" d="M29.4619 104.966H30.592V103.836H29.4619V104.966Z" fill="white"/>
<path id="Vector_406" d="M29.4619 106.864H30.592V105.734H29.4619V106.864Z" fill="white"/>
<path id="Vector_407" d="M19.1299 96.0285H20.26V94.8984H19.1299V96.0285Z" fill="white"/>
<path id="Vector_408" d="M19.1299 97.927H20.26V96.7969H19.1299V97.927Z" fill="white"/>
<path id="Vector_409" d="M19.1299 99.8254H20.26V98.6953H19.1299V99.8254Z" fill="white"/>
<path id="Vector_410" d="M19.1299 101.736H20.26V100.586H19.1299V101.736Z" fill="white"/>
<path id="Vector_411" d="M19.1299 103.622H20.26V102.492H19.1299V103.622Z" fill="white"/>
<path id="Vector_412" d="M19.1299 105.529H20.26V104.398H19.1299V105.529Z" fill="white"/>
<path id="Vector_413" d="M19.1299 107.419H20.26V106.289H19.1299V107.419Z" fill="white"/>
<path id="Vector_414" d="M20.9248 96.0285H22.0549V94.8984H20.9248V96.0285Z" fill="white"/>
<path id="Vector_415" d="M20.9248 97.927H22.0549V96.7969H20.9248V97.927Z" fill="white"/>
<path id="Vector_416" d="M20.9248 99.8254H22.0549V98.6953H20.9248V99.8254Z" fill="white"/>
<path id="Vector_417" d="M20.9248 101.736H22.0549V100.586H20.9248V101.736Z" fill="white"/>
<path id="Vector_418" d="M20.9248 103.622H22.0549V102.492H20.9248V103.622Z" fill="white"/>
<path id="Vector_419" d="M20.9248 105.529H22.0549V104.398H20.9248V105.529Z" fill="white"/>
<path id="Vector_420" d="M20.9248 107.419H22.0549V106.289H20.9248V107.419Z" fill="white"/>
<path id="Vector_421" d="M22.7217 96.0285H23.8518V94.8984H22.7217V96.0285Z" fill="white"/>
<path id="Vector_422" d="M22.7217 97.927H23.8518V96.7969H22.7217V97.927Z" fill="white"/>
<path id="Vector_423" d="M22.7217 99.8254H23.8518V98.6953H22.7217V99.8254Z" fill="white"/>
<path id="Vector_424" d="M22.7217 101.736H23.8518V100.586H22.7217V101.736Z" fill="white"/>
<path id="Vector_425" d="M22.7217 103.622H23.8518V102.492H22.7217V103.622Z" fill="white"/>
<path id="Vector_426" d="M22.7217 105.529H23.8518V104.398H22.7217V105.529Z" fill="white"/>
<path id="Vector_427" d="M22.7217 107.419H23.8518V106.289H22.7217V107.419Z" fill="white"/>
<path id="Vector_428" d="M32.7334 96.5832H33.8635V95.4531H32.7334V96.5832Z" fill="white"/>
<path id="Vector_429" d="M32.7334 98.4895H33.8635V97.3594H32.7334V98.4895Z" fill="white"/>
<path id="Vector_430" d="M32.7334 100.4H33.8635V99.25H32.7334V100.4Z" fill="white"/>
<path id="Vector_431" d="M32.7334 102.31H33.8635V101.18H32.7334V102.31Z" fill="white"/>
<path id="Vector_432" d="M32.7334 104.193H33.8635V103.062H32.7334V104.193Z" fill="white"/>
<path id="Vector_433" d="M32.7334 106.099H33.8635V104.969H32.7334V106.099Z" fill="white"/>
<path id="Vector_434" d="M34.5283 96.5832H35.6584V95.4531H34.5283V96.5832Z" fill="white"/>
<path id="Vector_435" d="M34.5283 98.4895H35.6584V97.3594H34.5283V98.4895Z" fill="white"/>
<path id="Vector_436" d="M34.5283 100.4H35.6584V99.25H34.5283V100.4Z" fill="white"/>
<path id="Vector_437" d="M34.5283 102.31H35.6584V101.18H34.5283V102.31Z" fill="white"/>
<path id="Vector_438" d="M34.5283 104.193H35.6584V103.062H34.5283V104.193Z" fill="white"/>
<path id="Vector_439" d="M34.5283 106.099H35.6584V104.969H34.5283V106.099Z" fill="white"/>
<path id="Vector_440" d="M36.3232 96.5832H37.4534V95.4531H36.3232V96.5832Z" fill="white"/>
<path id="Vector_441" d="M36.3232 98.4895H37.4534V97.3594H36.3232V98.4895Z" fill="white"/>
<path id="Vector_442" d="M36.3232 100.4H37.4534V99.25H36.3232V100.4Z" fill="white"/>
<path id="Vector_443" d="M36.3232 102.31H37.4534V101.18H36.3232V102.31Z" fill="white"/>
<path id="Vector_444" d="M36.3232 104.193H37.4534V103.062H36.3232V104.193Z" fill="white"/>
<path id="Vector_445" d="M36.3232 106.099H37.4534V104.969H36.3232V106.099Z" fill="white"/>
<path id="Vector_446" d="M53.0518 67.716H54.2021V66.5859H53.0518V67.716Z" fill="white"/>
<path id="Vector_447" d="M53.0518 69.6268H54.2021V68.4766H53.0518V69.6268Z" fill="white"/>
<path id="Vector_448" d="M53.0518 71.5285H54.2021V70.3984H53.0518V71.5285Z" fill="white"/>
<path id="Vector_449" d="M53.0518 73.427H54.2021V72.2969H53.0518V73.427Z" fill="white"/>
<path id="Vector_450" d="M53.0518 75.3176H54.2021V74.1875H53.0518V75.3176Z" fill="white"/>
<path id="Vector_451" d="M53.0518 77.216H54.2021V76.0859H53.0518V77.216Z" fill="white"/>
<path id="Vector_452" d="M53.0518 79.1268H54.2021V77.9766H53.0518V79.1268Z" fill="white"/>
<path id="Vector_453" d="M53.0518 81.0331H54.2021V79.8828H53.0518V81.0331Z" fill="white"/>
<path id="Vector_454" d="M53.0518 82.927H54.2021V81.7969H53.0518V82.927Z" fill="white"/>
<path id="Vector_455" d="M53.0518 84.8254H54.2021V83.6953H53.0518V84.8254Z" fill="white"/>
<path id="Vector_456" d="M53.0518 86.716H54.2021V85.5859H53.0518V86.716Z" fill="white"/>
<path id="Vector_457" d="M53.0518 88.6223H54.2021V87.4922H53.0518V88.6223Z" fill="white"/>
<path id="Vector_458" d="M53.0518 90.5331H54.2021V89.3828H53.0518V90.5331Z" fill="white"/>
<path id="Vector_459" d="M53.0518 92.4348H54.2021V91.3047H53.0518V92.4348Z" fill="white"/>
<path id="Vector_460" d="M53.0518 94.3254H54.2021V93.1953H53.0518V94.3254Z" fill="white"/>
<path id="Vector_461" d="M53.0518 96.2317H54.2021V95.1016H53.0518V96.2317Z" fill="white"/>
<path id="Vector_462" d="M53.0518 98.1223H54.2021V96.9922H53.0518V98.1223Z" fill="white"/>
<path id="Vector_463" d="M53.0518 101.939H54.2021V100.789H53.0518V101.939Z" fill="white"/>
<path id="Vector_464" d="M53.0518 103.833H54.2021V102.703H53.0518V103.833Z" fill="white"/>
<path id="Vector_465" d="M53.0518 105.732H54.2021V104.602H53.0518V105.732Z" fill="white"/>
<path id="Vector_466" d="M53.0518 107.63H54.2021V106.5H53.0518V107.63Z" fill="white"/>
<path id="Vector_467" d="M54.8691 67.716H55.9993V66.5859H54.8691V67.716Z" fill="white"/>
<path id="Vector_468" d="M54.8691 69.6268H55.9993V68.4766H54.8691V69.6268Z" fill="white"/>
<path id="Vector_469" d="M54.8691 71.5285H55.9993V70.3984H54.8691V71.5285Z" fill="white"/>
<path id="Vector_470" d="M54.8691 73.427H55.9993V72.2969H54.8691V73.427Z" fill="white"/>
<path id="Vector_471" d="M54.8691 75.3176H55.9993V74.1875H54.8691V75.3176Z" fill="white"/>
<path id="Vector_472" d="M54.8691 77.216H55.9993V76.0859H54.8691V77.216Z" fill="white"/>
<path id="Vector_473" d="M54.8691 79.1268H55.9993V77.9766H54.8691V79.1268Z" fill="white"/>
<path id="Vector_474" d="M54.8691 81.0331H55.9993V79.8828H54.8691V81.0331Z" fill="white"/>
<path id="Vector_475" d="M54.8691 82.927H55.9993V81.7969H54.8691V82.927Z" fill="white"/>
<path id="Vector_476" d="M54.8691 84.8254H55.9993V83.6953H54.8691V84.8254Z" fill="white"/>
<path id="Vector_477" d="M54.8691 86.716H55.9993V85.5859H54.8691V86.716Z" fill="white"/>
<path id="Vector_478" d="M54.8691 88.6223H55.9993V87.4922H54.8691V88.6223Z" fill="white"/>
<path id="Vector_479" d="M54.8691 90.5331H55.9993V89.3828H54.8691V90.5331Z" fill="white"/>
<path id="Vector_480" d="M54.8691 92.4348H55.9993V91.3047H54.8691V92.4348Z" fill="white"/>
<path id="Vector_481" d="M54.8691 94.3254H55.9993V93.1953H54.8691V94.3254Z" fill="white"/>
<path id="Vector_482" d="M54.8691 96.2317H55.9993V95.1016H54.8691V96.2317Z" fill="white"/>
<path id="Vector_483" d="M54.8691 107.63H55.9993V106.5H54.8691V107.63Z" fill="white"/>
<path id="Vector_484" d="M56.667 67.716H57.7971V66.5859H56.667V67.716Z" fill="white"/>
<path id="Vector_485" d="M56.667 69.6268H57.7971V68.4766H56.667V69.6268Z" fill="white"/>
<path id="Vector_486" d="M56.667 71.5285H57.7971V70.3984H56.667V71.5285Z" fill="white"/>
<path id="Vector_487" d="M56.667 73.427H57.7971V72.2969H56.667V73.427Z" fill="white"/>
<path id="Vector_488" d="M56.667 75.3176H57.7971V74.1875H56.667V75.3176Z" fill="white"/>
<path id="Vector_489" d="M56.667 77.216H57.7971V76.0859H56.667V77.216Z" fill="white"/>
<path id="Vector_490" d="M56.667 79.1268H57.7971V77.9766H56.667V79.1268Z" fill="white"/>
<path id="Vector_491" d="M56.667 81.0331H57.7971V79.8828H56.667V81.0331Z" fill="white"/>
<path id="Vector_492" d="M56.667 82.927H57.7971V81.7969H56.667V82.927Z" fill="white"/>
<path id="Vector_493" d="M56.667 84.8254H57.7971V83.6953H56.667V84.8254Z" fill="white"/>
<path id="Vector_494" d="M56.667 86.716H57.7971V85.5859H56.667V86.716Z" fill="white"/>
<path id="Vector_495" d="M56.667 88.6223H57.7971V87.4922H56.667V88.6223Z" fill="white"/>
<path id="Vector_496" d="M56.667 90.5331H57.7971V89.3828H56.667V90.5331Z" fill="white"/>
<path id="Vector_497" d="M56.667 92.4348H57.7971V91.3047H56.667V92.4348Z" fill="white"/>
<path id="Vector_498" d="M56.667 94.3254H57.7971V93.1953H56.667V94.3254Z" fill="white"/>
<path id="Vector_499" d="M56.667 96.2317H57.7971V95.1016H56.667V96.2317Z" fill="white"/>
<path id="Vector_500" d="M56.667 100.021H57.7971V98.8906H56.667V100.021Z" fill="white"/>
<path id="Vector_501" d="M56.667 101.939H57.7971V100.789H56.667V101.939Z" fill="white"/>
<path id="Vector_502" d="M56.667 103.833H57.7971V102.703H56.667V103.833Z" fill="white"/>
<path id="Vector_503" d="M56.667 105.732H57.7971V104.602H56.667V105.732Z" fill="white"/>
<path id="Vector_504" d="M46.5352 91.6692H47.6653V90.5391H46.5352V91.6692Z" fill="white"/>
<path id="Vector_505" d="M46.5352 93.5598H47.6653V92.4297H46.5352V93.5598Z" fill="white"/>
<path id="Vector_506" d="M46.5352 95.4582H47.6653V94.3281H46.5352V95.4582Z" fill="white"/>
<path id="Vector_507" d="M46.5352 97.3489H47.6653V96.2188H46.5352V97.3489Z" fill="white"/>
<path id="Vector_508" d="M46.5352 99.2629H47.6653V98.1328H46.5352V99.2629Z" fill="white"/>
<path id="Vector_509" d="M46.5352 101.158H47.6653V100.008H46.5352V101.158Z" fill="white"/>
<path id="Vector_510" d="M46.5352 103.068H47.6653V101.938H46.5352V103.068Z" fill="white"/>
<path id="Vector_511" d="M46.5352 106.864H47.6653V105.734H46.5352V106.864Z" fill="white"/>
<path id="Vector_512" d="M48.3311 91.6692H49.4612V90.5391H48.3311V91.6692Z" fill="white"/>
<path id="Vector_513" d="M48.3311 93.5598H49.4612V92.4297H48.3311V93.5598Z" fill="white"/>
<path id="Vector_514" d="M48.3311 95.4582H49.4612V94.3281H48.3311V95.4582Z" fill="white"/>
<path id="Vector_515" d="M48.3311 97.3489H49.4612V96.2188H48.3311V97.3489Z" fill="white"/>
<path id="Vector_516" d="M48.3311 99.2629H49.4612V98.1328H48.3311V99.2629Z" fill="white"/>
<path id="Vector_517" d="M48.3311 101.158H49.4612V100.008H48.3311V101.158Z" fill="white"/>
<path id="Vector_518" d="M48.3311 106.864H49.4612V105.734H48.3311V106.864Z" fill="white"/>
<path id="Vector_519" d="M50.127 91.6692H51.2571V90.5391H50.127V91.6692Z" fill="white"/>
<path id="Vector_520" d="M50.127 93.5598H51.2571V92.4297H50.127V93.5598Z" fill="white"/>
<path id="Vector_521" d="M50.127 95.4582H51.2571V94.3281H50.127V95.4582Z" fill="white"/>
<path id="Vector_522" d="M50.127 97.3489H51.2571V96.2188H50.127V97.3489Z" fill="white"/>
<path id="Vector_523" d="M50.127 99.2629H51.2571V98.1328H50.127V99.2629Z" fill="white"/>
<path id="Vector_524" d="M50.127 101.158H51.2571V100.008H50.127V101.158Z" fill="white"/>
<path id="Vector_525" d="M50.127 104.966H51.2571V103.836H50.127V104.966Z" fill="white"/>
<path id="Vector_526" d="M50.127 106.864H51.2571V105.734H50.127V106.864Z" fill="white"/>
<path id="Vector_527" d="M88.0674 81.0331H89.1975V79.8828H88.0674V81.0331Z" fill="white"/>
<path id="Vector_528" d="M88.0674 82.927H89.1975V81.7969H88.0674V82.927Z" fill="white"/>
<path id="Vector_529" d="M88.0674 84.8254H89.1975V83.6953H88.0674V84.8254Z" fill="white"/>
<path id="Vector_530" d="M88.0674 86.716H89.1975V85.5859H88.0674V86.716Z" fill="white"/>
<path id="Vector_531" d="M88.0674 88.6223H89.1975V87.4922H88.0674V88.6223Z" fill="white"/>
<path id="Vector_532" d="M88.0674 90.5331H89.1975V89.3828H88.0674V90.5331Z" fill="white"/>
<path id="Vector_533" d="M88.0674 92.4348H89.1975V91.3047H88.0674V92.4348Z" fill="white"/>
<path id="Vector_534" d="M88.0674 94.3254H89.1975V93.1953H88.0674V94.3254Z" fill="white"/>
<path id="Vector_535" d="M88.0674 96.2317H89.1975V95.1016H88.0674V96.2317Z" fill="white"/>
<path id="Vector_536" d="M88.0674 98.1223H89.1975V96.9922H88.0674V98.1223Z" fill="white"/>
<path id="Vector_537" d="M88.0674 100.021H89.1975V98.8906H88.0674V100.021Z" fill="white"/>
<path id="Vector_538" d="M88.0674 101.939H89.1975V100.789H88.0674V101.939Z" fill="white"/>
<path id="Vector_539" d="M88.0674 103.833H89.1975V102.703H88.0674V103.833Z" fill="white"/>
<path id="Vector_540" d="M88.0674 107.63H89.1975V106.5H88.0674V107.63Z" fill="white"/>
<path id="Vector_541" d="M89.8643 81.0331H90.9944V79.8828H89.8643V81.0331Z" fill="white"/>
<path id="Vector_542" d="M89.8643 82.927H90.9944V81.7969H89.8643V82.927Z" fill="white"/>
<path id="Vector_543" d="M89.8643 84.8254H90.9944V83.6953H89.8643V84.8254Z" fill="white"/>
<path id="Vector_544" d="M89.8643 86.716H90.9944V85.5859H89.8643V86.716Z" fill="white"/>
<path id="Vector_545" d="M89.8643 88.6223H90.9944V87.4922H89.8643V88.6223Z" fill="white"/>
<path id="Vector_546" d="M89.8643 90.5331H90.9944V89.3828H89.8643V90.5331Z" fill="white"/>
<path id="Vector_547" d="M89.8643 92.4348H90.9944V91.3047H89.8643V92.4348Z" fill="white"/>
<path id="Vector_548" d="M89.8643 94.3254H90.9944V93.1953H89.8643V94.3254Z" fill="white"/>
<path id="Vector_549" d="M89.8643 96.2317H90.9944V95.1016H89.8643V96.2317Z" fill="white"/>
<path id="Vector_550" d="M89.8643 98.1223H90.9944V96.9922H89.8643V98.1223Z" fill="white"/>
<path id="Vector_551" d="M89.8643 100.021H90.9944V98.8906H89.8643V100.021Z" fill="white"/>
<path id="Vector_552" d="M89.8643 101.939H90.9944V100.789H89.8643V101.939Z" fill="white"/>
<path id="Vector_553" d="M89.8643 103.833H90.9944V102.703H89.8643V103.833Z" fill="white"/>
<path id="Vector_554" d="M91.6592 81.0331H92.8095V79.8828H91.6592V81.0331Z" fill="white"/>
<path id="Vector_555" d="M91.6592 82.927H92.8095V81.7969H91.6592V82.927Z" fill="white"/>
<path id="Vector_556" d="M91.6592 84.8254H92.8095V83.6953H91.6592V84.8254Z" fill="white"/>
<path id="Vector_557" d="M91.6592 86.716H92.8095V85.5859H91.6592V86.716Z" fill="white"/>
<path id="Vector_558" d="M91.6592 88.6223H92.8095V87.4922H91.6592V88.6223Z" fill="white"/>
<path id="Vector_559" d="M91.6592 90.5331H92.8095V89.3828H91.6592V90.5331Z" fill="white"/>
<path id="Vector_560" d="M91.6592 92.4348H92.8095V91.3047H91.6592V92.4348Z" fill="white"/>
<path id="Vector_561" d="M91.6592 94.3254H92.8095V93.1953H91.6592V94.3254Z" fill="white"/>
<path id="Vector_562" d="M91.6592 96.2317H92.8095V95.1016H91.6592V96.2317Z" fill="white"/>
<path id="Vector_563" d="M91.6592 98.1223H92.8095V96.9922H91.6592V98.1223Z" fill="white"/>
<path id="Vector_564" d="M91.6592 100.021H92.8095V98.8906H91.6592V100.021Z" fill="white"/>
<path id="Vector_565" d="M91.6592 101.939H92.8095V100.789H91.6592V101.939Z" fill="white"/>
<path id="Vector_566" d="M91.6592 103.833H92.8095V102.703H91.6592V103.833Z" fill="white"/>
<path id="Vector_567" d="M91.6592 105.732H92.8095V104.602H91.6592V105.732Z" fill="white"/>
<path id="Vector_568" d="M80.7402 91.8612H81.8704V90.7109H80.7402V91.8612Z" fill="white"/>
<path id="Vector_569" d="M80.7402 93.7707H81.8704V92.6406H80.7402V93.7707Z" fill="white"/>
<path id="Vector_570" d="M80.7402 95.6613H81.8704V94.5312H80.7402V95.6613Z" fill="white"/>
<path id="Vector_571" d="M80.7402 97.5676H81.8704V96.4375H80.7402V97.5676Z" fill="white"/>
<path id="Vector_572" d="M80.7402 99.4582H81.8704V98.3281H80.7402V99.4582Z" fill="white"/>
<path id="Vector_573" d="M80.7402 101.357H81.8704V100.227H80.7402V101.357Z" fill="white"/>
<path id="Vector_574" d="M80.7402 107.068H81.8704V105.938H80.7402V107.068Z" fill="white"/>
<path id="Vector_575" d="M82.5391 91.8612H83.6692V90.7109H82.5391V91.8612Z" fill="white"/>
<path id="Vector_576" d="M82.5391 93.7707H83.6692V92.6406H82.5391V93.7707Z" fill="white"/>
<path id="Vector_577" d="M82.5391 95.6613H83.6692V94.5312H82.5391V95.6613Z" fill="white"/>
<path id="Vector_578" d="M82.5391 97.5676H83.6692V96.4375H82.5391V97.5676Z" fill="white"/>
<path id="Vector_579" d="M82.5391 99.4582H83.6692V98.3281H82.5391V99.4582Z" fill="white"/>
<path id="Vector_580" d="M82.5391 101.357H83.6692V100.227H82.5391V101.357Z" fill="white"/>
<path id="Vector_581" d="M82.5391 107.068H83.6692V105.938H82.5391V107.068Z" fill="white"/>
<path id="Vector_582" d="M142.354 83.4895H143.485V82.3594H142.354V83.4895Z" fill="white"/>
<path id="Vector_583" d="M142.354 85.3879H143.485V84.2578H142.354V85.3879Z" fill="white"/>
<path id="Vector_584" d="M142.354 87.2785H143.485V86.1484H142.354V87.2785Z" fill="white"/>
<path id="Vector_585" d="M142.354 89.1848H143.485V88.0547H142.354V89.1848Z" fill="white"/>
<path id="Vector_586" d="M142.354 91.0956H143.485V89.9453H142.354V91.0956Z" fill="white"/>
<path id="Vector_587" d="M142.354 92.9895H143.485V91.8594H142.354V92.9895Z" fill="white"/>
<path id="Vector_588" d="M142.354 94.8879H143.485V93.7578H142.354V94.8879Z" fill="white"/>
<path id="Vector_589" d="M142.354 96.7864H143.485V95.6562H142.354V96.7864Z" fill="white"/>
<path id="Vector_590" d="M142.354 98.6848H143.485V97.5547H142.354V98.6848Z" fill="white"/>
<path id="Vector_591" d="M142.354 100.575H143.485V99.4453H142.354V100.575Z" fill="white"/>
<path id="Vector_592" d="M142.354 102.502H143.485V101.352H142.354V102.502Z" fill="white"/>
<path id="Vector_593" d="M142.354 106.294H143.485V105.164H142.354V106.294Z" fill="white"/>
<path id="Vector_594" d="M144.149 83.4895H145.28V82.3594H144.149V83.4895Z" fill="white"/>
<path id="Vector_595" d="M144.149 85.3879H145.28V84.2578H144.149V85.3879Z" fill="white"/>
<path id="Vector_596" d="M144.149 87.2785H145.28V86.1484H144.149V87.2785Z" fill="white"/>
<path id="Vector_597" d="M144.149 89.1848H145.28V88.0547H144.149V89.1848Z" fill="white"/>
<path id="Vector_598" d="M144.149 91.0956H145.28V89.9453H144.149V91.0956Z" fill="white"/>
<path id="Vector_599" d="M144.149 92.9895H145.28V91.8594H144.149V92.9895Z" fill="white"/>
<path id="Vector_600" d="M144.149 94.8879H145.28V93.7578H144.149V94.8879Z" fill="white"/>
<path id="Vector_601" d="M144.149 96.7864H145.28V95.6562H144.149V96.7864Z" fill="white"/>
<path id="Vector_602" d="M144.149 98.6848H145.28V97.5547H144.149V98.6848Z" fill="white"/>
<path id="Vector_603" d="M144.149 100.575H145.28V99.4453H144.149V100.575Z" fill="white"/>
<path id="Vector_604" d="M144.149 102.502H145.28V101.352H144.149V102.502Z" fill="white"/>
<path id="Vector_605" d="M144.149 104.404H145.28V103.273H144.149V104.404Z" fill="white"/>
<path id="Vector_606" d="M144.149 106.294H145.28V105.164H144.149V106.294Z" fill="white"/>
<path id="Vector_607" d="M133.475 90.8957H134.605V89.7656H133.475V90.8957Z" fill="white"/>
<path id="Vector_608" d="M133.475 92.7863H134.605V91.6562H133.475V92.7863Z" fill="white"/>
<path id="Vector_609" d="M133.475 94.6926H134.605V93.5625H133.475V94.6926Z" fill="white"/>
<path id="Vector_610" d="M133.475 96.5832H134.605V95.4531H133.475V96.5832Z" fill="white"/>
<path id="Vector_611" d="M133.475 98.4895H134.605V97.3594H133.475V98.4895Z" fill="white"/>
<path id="Vector_612" d="M133.475 100.4H134.605V99.25H133.475V100.4Z" fill="white"/>
<path id="Vector_613" d="M133.475 102.31H134.605V101.18H133.475V102.31Z" fill="white"/>
<path id="Vector_614" d="M133.475 104.193H134.605V103.062H133.475V104.193Z" fill="white"/>
<path id="Vector_615" d="M133.475 106.099H134.605V104.969H133.475V106.099Z" fill="white"/>
<path id="Vector_616" d="M135.27 90.8957H136.42V89.7656H135.27V90.8957Z" fill="white"/>
<path id="Vector_617" d="M135.27 92.7863H136.42V91.6562H135.27V92.7863Z" fill="white"/>
<path id="Vector_618" d="M135.27 94.6926H136.42V93.5625H135.27V94.6926Z" fill="white"/>
<path id="Vector_619" d="M135.27 96.5832H136.42V95.4531H135.27V96.5832Z" fill="white"/>
<path id="Vector_620" d="M135.27 98.4895H136.42V97.3594H135.27V98.4895Z" fill="white"/>
<path id="Vector_621" d="M135.27 100.4H136.42V99.25H135.27V100.4Z" fill="white"/>
<path id="Vector_622" d="M135.27 102.31H136.42V101.18H135.27V102.31Z" fill="white"/>
<path id="Vector_623" d="M135.27 104.193H136.42V103.062H135.27V104.193Z" fill="white"/>
<path id="Vector_624" d="M135.27 106.099H136.42V104.969H135.27V106.099Z" fill="white"/>
</g>
</g>
</g>
</g>
<g id="Group 1171276358">
<path id="Vector_625" d="M108.257 123.39L61.0187 120.867L7.72559 123.39L60.7664 128.49L108.257 123.39Z" fill="#6245C0"/>
<path id="Vector_626" d="M7.72559 138.952L59.4298 143.35L64.7604 136.901L59.4298 128.839L7.72559 125.406C8.7895 129.87 8.7895 134.488 7.72559 138.952Z" fill="white"/>
<path id="Vector_627" d="M7.72623 138.943L59.429 142.869C61.4909 138.559 61.4909 133.634 59.429 129.324L7.72623 125.398C7.13396 125.398 6.65137 124.948 6.65137 124.389C6.65137 123.84 7.13396 123.391 7.72623 123.391L60.7671 127.317L108.258 123.391C111.395 128.874 111.395 135.466 108.258 140.95L60.7671 144.876L7.72623 140.95C7.13396 140.95 6.65137 140.5 6.65137 139.952C6.65137 139.392 7.13396 138.943 7.72623 138.943Z" fill="#0053fa"/>
<path id="Vector_628" d="M57.2479 132.542L8.30762 128.615L8.34051 128.297L57.2698 132.223L57.2479 132.542Z" fill="#0053fa"/>
<path id="Vector_629" d="M57.2479 136.132L8.30762 132.206L8.34051 131.898L57.2698 135.825L57.2479 136.132Z" fill="#0053fa"/>
<path id="Vector_630" d="M57.2479 139.726L8.30762 135.799L8.34051 135.492L57.2698 139.419L57.2479 139.726Z" fill="#0053fa"/>
<path id="Vector_631" d="M67.2689 142.346L78.8733 141.381C79.7727 136.917 79.6082 132.3 78.3797 127.891L67.2031 128.812C68.8155 133.199 68.8374 137.948 67.2689 142.346Z" fill="#BBA6FF"/>
<path id="Vector_632" d="M13.3496 102.121L47.7669 97.4922L113.881 101.419L71.315 107.648L13.3496 102.121Z" fill="#AD94FF"/>
<path id="Vector_633" d="M113.883 120.806L72.6535 126.411L66.248 119.556L72.6535 107.809L113.883 103.422C112.819 107.886 112.819 116.353 113.883 120.806Z" fill="white"/>
<path id="Vector_634" d="M113.883 120.813L72.6542 125.88C70.5922 121.559 70.5922 112.806 72.6542 108.496L113.883 103.429C114.475 103.429 114.957 102.979 114.957 102.431C114.957 101.872 114.475 101.422 113.883 101.422L71.3161 106.489L13.3507 102.124C10.2138 107.608 10.2138 116.272 13.3507 121.756L71.3161 127.887L113.883 122.82C114.475 122.82 114.957 122.37 114.957 121.822C114.957 121.262 114.475 120.813 113.883 120.813Z" fill="#977EEB"/>
<path id="Vector_635" d="M74.8456 113.715L74.8018 113.408L113.256 108.352L113.311 108.659L74.8456 113.715Z" fill="#0053fa"/>
<path id="Vector_636" d="M74.8456 117.324L74.8018 117.017L113.256 111.961L113.311 112.268L74.8456 117.324Z" fill="#0053fa"/>
<path id="Vector_637" d="M74.8456 120.934L74.8018 120.627L113.256 115.57L113.311 115.877L74.8456 120.934Z" fill="#0053fa"/>
<path id="Vector_638" d="M81.1963 120.608L83.3351 118.995L85.4629 120.048V112.195L81.1963 112.755V120.608Z" fill="#0053fa"/>
<path id="Vector_639" d="M61.9956 124.871L65.0228 125.189C62.8072 119.65 62.7853 113.563 64.968 108.013L62.1491 107.805C60.131 113.333 60.0761 119.31 61.9956 124.871Z" fill="#6245C0"/>
<path id="Vector_640" d="M18.1318 120.242L21.1591 120.56C19.1519 115.449 19.0312 109.877 20.7642 104.701L17.9673 104.492C16.355 109.636 16.4098 115.12 18.1318 120.242Z" fill="#6245C0"/>
<path id="Vector_641" d="M47.7803 98.5234L24.5605 101.474L45.2795 102.834L70.4297 99.6422L47.7803 98.5234Z" fill="#6245C0"/>
<path id="Vector_642" d="M27.6885 87.7135L51.3134 85.0703L101.514 87.7135L70.2549 92.6051L27.6885 87.7135Z" fill="#A890F5"/>
<path id="Vector_643" d="M101.512 99.9156L71.2396 104.533L66.5342 98.9284L71.2396 92.5889L101.512 89.2656C100.733 92.7754 100.733 96.4058 101.512 99.9156Z" fill="white"/>
<path id="Vector_644" d="M101.513 99.9368L71.242 103.907C69.7284 100.518 69.7284 96.6574 71.242 93.2684L101.513 89.2871C101.952 89.2871 102.303 88.9362 102.303 88.5084C102.303 88.0697 101.952 87.7188 101.513 87.7188L70.2549 91.6891L27.6884 87.7188C25.3851 92.0291 25.3851 97.2058 27.6884 101.516L70.2549 105.486L101.513 101.516C101.952 101.516 102.303 101.165 102.303 100.726C102.303 100.288 101.952 99.9368 101.513 99.9368Z" fill="#0053fa"/>
<path id="Vector_645" d="M34.4108 100.95L31.7894 100.697C30.6706 96.9683 30.5829 93.0198 31.5261 89.2578L33.9721 89.4882C32.952 93.2502 33.0946 97.2425 34.4108 100.95Z" fill="#AD94FF"/>
<path id="Vector_646" d="M39.4324 101.423L36.811 101.182C35.7142 97.4527 35.6484 93.5042 36.6245 89.7422L39.0595 89.9725C38.0175 93.7236 38.1381 97.7269 39.4324 101.423Z" fill="#AD94FF"/>
<path id="Vector_647" d="M64.1301 103.728L61.5636 103.486C60.6642 99.7353 60.7848 95.7978 61.9365 92.1016L64.4153 92.3319C63.1649 96.0171 63.0662 99.9876 64.1301 103.728Z" fill="#AD94FF"/>
<path id="Vector_648" d="M72.8522 95.7647L72.8193 95.5673L101.063 91.5859L101.084 91.7834L72.8522 95.7647Z" fill="#0053fa"/>
<path id="Vector_649" d="M72.8522 98.5819L72.8193 98.3845L101.063 94.4141L101.084 94.6115L72.8522 98.5819Z" fill="#0053fa"/>
<path id="Vector_650" d="M72.8522 101.41L72.8193 101.213L101.063 97.2422L101.084 97.4286L72.8522 101.41Z" fill="#0053fa"/>
<path id="Vector_651" d="M100.569 70.7709L75.2989 67.1406L26.7549 70.2225L58.0134 75.1141L100.569 70.7709Z" fill="#A890F5"/>
<path id="Vector_652" d="M26.7549 85.452L57.0272 90.267L61.7326 84.4649L57.0272 74.9666L26.7549 71.7969C27.5336 75.2957 27.5336 81.9423 26.7549 85.452Z" fill="white"/>
<path id="Vector_653" d="M26.7565 85.4529L57.0279 89.4341C58.5415 86.0342 58.5415 79.1574 57.0279 75.7684L26.7565 71.7981C26.3178 71.7981 25.9668 71.4471 25.9668 71.0084C25.9668 70.5697 26.3178 70.2188 26.7565 70.2188L58.015 74.1891L100.571 70.7671C102.874 75.0774 102.874 81.8774 100.571 86.1987L58.015 91.0025L26.7565 87.0322C26.3178 87.0322 25.9668 86.6813 25.9668 86.2425C25.9668 85.8038 26.3178 85.4529 26.7565 85.4529Z" fill="#BBA6FF"/>
<path id="Vector_654" d="M55.4151 79.8632L27.1719 75.8927L27.2048 75.6953L55.448 79.6657L55.4151 79.8632Z" fill="#0053fa"/>
<path id="Vector_655" d="M55.4151 82.6991L27.1719 78.7177L27.2048 78.5312L55.448 82.5017L55.4151 82.6991Z" fill="#0053fa"/>
<path id="Vector_656" d="M55.4151 85.496L27.1719 81.5256L27.2048 81.3281L55.448 85.3095L55.4151 85.496Z" fill="#0053fa"/>
<path id="Vector_657" d="M50.7422 85.2981L49.1847 84.0367L47.6162 84.8593V78.6953L50.7422 79.134V85.2981Z" fill="#0053fa"/>
<path id="Vector_658" d="M64.8564 88.6326L62.6299 88.8849C64.2532 84.5306 64.2642 79.7485 62.6628 75.3942L64.7468 75.2188C66.2275 79.5731 66.2604 84.2674 64.8564 88.6326Z" fill="#A890F5"/>
<path id="Vector_659" d="M97.0593 85.0079L94.8438 85.2601C96.3025 81.2459 96.4012 76.8696 95.1289 72.8005L97.18 72.625C98.3646 76.6722 98.3207 80.9826 97.0593 85.0079Z" fill="#A890F5"/>
<path id="Vector_660" d="M75.286 67.9453L92.3416 70.2596L77.1287 71.3344L58.6582 68.8228L75.286 67.9453Z" fill="#BBA6FF"/>
<path id="Vector_661" d="M94.3064 59.3309L67.1162 57.7734L36.46 59.3309L66.9736 62.4678L94.3064 59.3309Z" fill="#AD94FF"/>
<path id="Vector_662" d="M36.46 68.9092L66.2058 71.7718L69.2769 67.6369L66.2058 62.4709L36.46 60.5625C37.0742 63.3155 37.0742 66.1562 36.46 68.9092Z" fill="white"/>
<path id="Vector_663" d="M36.4628 68.9185L66.2078 71.3314C67.3923 68.6772 67.3923 65.6502 66.2078 62.996L36.4628 60.5721C36.1228 60.5721 35.8486 60.2979 35.8486 59.9579C35.8486 59.6179 36.1228 59.3438 36.4628 59.3438L66.9756 61.7566L94.3076 59.3438C96.1063 62.7218 96.1063 66.7689 94.3076 70.1469L66.9756 72.5708L36.4628 70.1469C36.1228 70.1469 35.8486 69.8727 35.8486 69.5327C35.8486 69.1927 36.1228 68.9185 36.4628 68.9185Z" fill="#0053fa"/>
<path id="Vector_664" d="M64.9565 64.9259L64.9674 64.7723L36.812 62.3594L36.79 62.5129L64.9565 64.9259Z" fill="#0053fa"/>
<path id="Vector_665" d="M64.9565 67.1478L64.9674 66.9942L36.812 64.5703L36.79 64.7239L64.9565 67.1478Z" fill="#0053fa"/>
<path id="Vector_666" d="M64.9565 69.3665L64.9674 69.213L36.812 66.7891L36.79 66.9426L64.9565 69.3665Z" fill="#0053fa"/>
<path id="Vector_667" d="M70.7155 70.981L77.3952 70.3997C77.9216 67.6467 77.8229 64.806 77.11 62.0859L70.6826 62.6563C71.6149 65.3544 71.6259 68.2829 70.7155 70.981Z" fill="#AD94FF"/>
</g>
</g>
<defs>
<linearGradient id="paint0_linear_6126_21768" x1="36.6245" y1="-47.7126" x2="35.0393" y2="138.556" gradientUnits="userSpaceOnUse">
<stop stop-color="#0053fa"/>
<stop offset="1" stop-color="#E4DCFF" stop-opacity="0"/>
</linearGradient>
<linearGradient id="paint1_linear_6126_21768" x1="84.0345" y1="14.8594" x2="84.0345" y2="129.368" gradientUnits="userSpaceOnUse">
<stop stop-color="#0053fa"/>
<stop offset="1" stop-color="#0053fa" stop-opacity="0"/>
</linearGradient>
<linearGradient id="paint2_linear_6126_21768" x1="54.8142" y1="12.6206" x2="86.2065" y2="64.6846" gradientUnits="userSpaceOnUse">
<stop stop-color="#9372FF"/>
<stop offset="1" stop-color="#C7B7FE" stop-opacity="0.22"/>
</linearGradient>
<linearGradient id="paint3_linear_6126_21768" x1="67.6274" y1="10.4783" x2="67.7487" y2="10.578" gradientUnits="userSpaceOnUse">
<stop stop-color="#C1AEFF"/>
<stop offset="1" stop-color="#C7B7FE" stop-opacity="0.22"/>
</linearGradient>
<linearGradient id="paint4_linear_6126_21768" x1="100.24" y1="15.7821" x2="100.347" y2="16.0814" gradientUnits="userSpaceOnUse">
<stop stop-color="#C1AEFF"/>
<stop offset="1" stop-color="#C7B7FE" stop-opacity="0.22"/>
</linearGradient>
<linearGradient id="paint5_linear_6126_21768" x1="97.006" y1="15.7599" x2="97.067" y2="15.7803" gradientUnits="userSpaceOnUse">
<stop stop-color="#C1AEFF"/>
<stop offset="1" stop-color="#C7B7FE" stop-opacity="0.22"/>
</linearGradient>
<linearGradient id="paint6_linear_6126_21768" x1="93.4563" y1="15.7599" x2="93.5374" y2="15.8007" gradientUnits="userSpaceOnUse">
<stop stop-color="#C1AEFF"/>
<stop offset="1" stop-color="#C7B7FE" stop-opacity="0.22"/>
</linearGradient>
<linearGradient id="paint7_linear_6126_21768" x1="94.5245" y1="11.2018" x2="94.5561" y2="11.2097" gradientUnits="userSpaceOnUse">
<stop stop-color="#C1AEFF"/>
<stop offset="1" stop-color="#C7B7FE" stop-opacity="0.22"/>
</linearGradient>
<linearGradient id="paint8_linear_6126_21768" x1="93.7754" y1="13.5114" x2="93.7855" y2="13.5266" gradientUnits="userSpaceOnUse">
<stop stop-color="#C1AEFF"/>
<stop offset="1" stop-color="#C7B7FE" stop-opacity="0.22"/>
</linearGradient>
<linearGradient id="paint9_linear_6126_21768" x1="109.177" y1="12.9525" x2="109.219" y2="13.0157" gradientUnits="userSpaceOnUse">
<stop stop-color="#C1AEFF"/>
<stop offset="1" stop-color="#C7B7FE" stop-opacity="0.22"/>
</linearGradient>
<linearGradient id="paint10_linear_6126_21768" x1="100.944" y1="11.8893" x2="101.011" y2="11.9566" gradientUnits="userSpaceOnUse">
<stop stop-color="#C1AEFF"/>
<stop offset="1" stop-color="#C7B7FE" stop-opacity="0.22"/>
</linearGradient>
<linearGradient id="paint11_linear_6126_21768" x1="75.9193" y1="10.4783" x2="76.0235" y2="10.5354" gradientUnits="userSpaceOnUse">
<stop stop-color="#C1AEFF"/>
<stop offset="1" stop-color="#C7B7FE" stop-opacity="0.22"/>
</linearGradient>
<linearGradient id="paint12_linear_6126_21768" x1="88.4103" y1="13.4647" x2="88.4171" y2="13.485" gradientUnits="userSpaceOnUse">
<stop stop-color="#C1AEFF"/>
<stop offset="1" stop-color="#C7B7FE" stop-opacity="0.22"/>
</linearGradient>
<linearGradient id="paint13_linear_6126_21768" x1="82.4757" y1="13.4647" x2="82.4825" y2="13.485" gradientUnits="userSpaceOnUse">
<stop stop-color="#C1AEFF"/>
<stop offset="1" stop-color="#C7B7FE" stop-opacity="0.22"/>
</linearGradient>
<linearGradient id="paint14_linear_6126_21768" x1="76.5432" y1="13.4647" x2="76.548" y2="13.4862" gradientUnits="userSpaceOnUse">
<stop stop-color="#C1AEFF"/>
<stop offset="1" stop-color="#C7B7FE" stop-opacity="0.22"/>
</linearGradient>
<linearGradient id="paint15_linear_6126_21768" x1="70.632" y1="13.4647" x2="70.6387" y2="13.485" gradientUnits="userSpaceOnUse">
<stop stop-color="#C1AEFF"/>
<stop offset="1" stop-color="#C7B7FE" stop-opacity="0.22"/>
</linearGradient>
<linearGradient id="paint16_linear_6126_21768" x1="64.6995" y1="13.4647" x2="64.7042" y2="13.4862" gradientUnits="userSpaceOnUse">
<stop stop-color="#C1AEFF"/>
<stop offset="1" stop-color="#C7B7FE" stop-opacity="0.22"/>
</linearGradient>
<linearGradient id="paint17_linear_6126_21768" x1="54.5421" y1="36.1573" x2="58.0639" y2="42.2899" gradientUnits="userSpaceOnUse">
<stop stop-color="#9372FF"/>
<stop offset="1" stop-color="#C7B7FE" stop-opacity="0.22"/>
</linearGradient>
<linearGradient id="paint18_linear_6126_21768" x1="132.284" y1="60.2003" x2="130.277" y2="112.487" gradientUnits="userSpaceOnUse">
<stop stop-color="#C7B7FE"/>
<stop offset="1" stop-color="#EFEAFF" stop-opacity="0"/>
</linearGradient>
</defs>
</svg>
