<svg width="48" height="48" viewBox="0 0 48 48" fill="none" xmlns="http://www.w3.org/2000/svg">
<circle cx="24" cy="24" r="24" fill="white"/>
<path d="M20.4125 16.4411C20.5424 16.3013 20.6967 16.1903 20.8665 16.1146C21.0364 16.039 21.2185 16 21.4024 16C21.5864 16 21.7685 16.039 21.9383 16.1146C22.1082 16.1903 22.2625 16.3013 22.3924 16.4411L28.6729 23.1531C28.7766 23.2642 28.8588 23.3962 28.915 23.5415C28.9711 23.6868 29 23.8425 29 23.9998C29 24.1571 28.9711 24.3129 28.915 24.4582C28.8588 24.6035 28.7766 24.7355 28.6729 24.8466L22.3924 31.5586C21.8443 32.1471 20.9606 32.1471 20.4125 31.5586C19.8644 30.9701 19.8644 30.0213 20.4125 29.4327L25.4961 23.9938L20.4013 18.5549C19.8644 17.9784 19.8644 17.0176 20.4125 16.4411Z" fill="black"/>
</svg>
