<svg width="48" height="48" viewBox="0 0 48 48" fill="none" xmlns="http://www.w3.org/2000/svg">
<circle cx="24" cy="24" r="24" transform="matrix(-1 0 0 1 48 0)" fill="white"/>
<path d="M27.5875 16.4411C27.4576 16.3013 27.3033 16.1903 27.1335 16.1146C26.9636 16.039 26.7815 16 26.5976 16C26.4136 16 26.2315 16.039 26.0617 16.1146C25.8918 16.1903 25.7375 16.3013 25.6076 16.4411L19.3271 23.1531C19.2234 23.2642 19.1412 23.3962 19.085 23.5415C19.0289 23.6868 19 23.8425 19 23.9998C19 24.1571 19.0289 24.3129 19.085 24.4582C19.1412 24.6035 19.2234 24.7355 19.3271 24.8466L25.6076 31.5586C26.1557 32.1471 27.0394 32.1471 27.5875 31.5586C28.1356 30.9701 28.1356 30.0213 27.5875 29.4327L22.5039 23.9938L27.5987 18.5549C28.1356 17.9784 28.1356 17.0176 27.5875 16.4411Z" fill="black"/>
</svg>
