<svg width="100" height="100" viewBox="0 0 100 100" fill="none" xmlns="http://www.w3.org/2000/svg">
<path opacity="0.06" fill-rule="evenodd" clip-rule="evenodd" d="M78.7007 87.4245C87.478 79.5217 93 68.0488 93 55.2813C93 31.4419 73.7482 12.1162 50 12.1162C26.2518 12.1162 7 31.4419 7 55.2813C7 67.9069 12.3999 79.2665 21.0079 87.1597C34.7243 87.1442 66.0729 87.7118 78.7007 87.4245Z" fill="#B2B2B2"/>
<path d="M30.2021 36.9127C29.5218 36.9127 28.884 37.1118 28.3524 37.4617C27.8209 34.5824 25.3282 32.3975 22.3305 32.3975C19.3275 32.3975 16.8241 34.5878 16.3032 37.4778C15.6707 37.1172 14.9425 36.9127 14.1612 36.9127C11.7482 36.9127 9.79224 38.8932 9.79224 41.3365C9.79224 41.8101 9.86665 42.2675 10.0048 42.6981H32.7852C33.322 42.0845 33.6463 41.2773 33.6463 40.3947C33.6409 38.4734 32.1049 36.9127 30.2021 36.9127Z" fill="#F2F2F2" stroke="#886DE0" stroke-width="0.5" stroke-linecap="round" stroke-linejoin="round"/>
<path d="M87.1385 28.439C86.6823 28.439 86.2547 28.5752 85.8984 28.8146C85.542 26.8446 83.8707 25.3496 81.8609 25.3496C79.8475 25.3496 78.1691 26.8483 77.8199 28.8256C77.3958 28.5789 76.9076 28.439 76.3838 28.439C74.766 28.439 73.4546 29.7941 73.4546 31.4658C73.4546 31.7898 73.5045 32.1028 73.5971 32.3974H88.8703C89.2302 31.9776 89.4476 31.4253 89.4476 30.8214C89.4441 29.5068 88.4142 28.439 87.1385 28.439Z" fill="#F2F2F2" stroke="#886DE0" stroke-width="0.5" stroke-linecap="round" stroke-linejoin="round"/>
<path d="M43.9964 82.7337L43.9964 29.7047L40.8225 27.1787L39.0044 82.7337L43.9964 82.7337Z" fill="#E4DCFF" stroke="#041630" stroke-width="0.5" stroke-linecap="round" stroke-linejoin="round"/>
<path d="M41.0565 20.4238L39.1787 82.5282" stroke="#041630" stroke-width="0.5" stroke-linecap="round" stroke-linejoin="round"/>
<path d="M43.9966 82.734L43.9966 29.7051C46.7435 33.0363 53.1419 41.5747 56.76 49.0789C60.3781 56.583 59.4959 74.6423 58.6026 82.734L43.9966 82.734Z" fill="white" stroke="#041630" stroke-width="0.5" stroke-linecap="round" stroke-linejoin="round"/>
<path d="M43.9966 70.4746H57.6396L43.9966 82.2577" stroke="#041630" stroke-width="0.5" stroke-linejoin="round"/>
<path d="M44.2581 57.3516H57.3037L44.2581 70.4753" stroke="#041630" stroke-width="0.5" stroke-linejoin="round"/>
<path d="M43.9966 41.8798H51.7542L43.9966 57.3509" stroke="#041630" stroke-width="0.5" stroke-linejoin="round"/>
<path d="M57.2404 82.5272C61.9226 47.8253 46.9241 33.5828 41.0564 27.207C45.4066 30.0515 55.0175 38.889 58.6595 51.483C62.3015 64.0771 60.8852 77.4267 59.7218 82.5272H57.2404Z" fill="#886DE0" stroke="#041630" stroke-width="0.5" stroke-linecap="round" stroke-linejoin="round"/>
<path d="M54.9019 45.2389L57.6394 41.9199" stroke="#041630" stroke-width="0.5" stroke-linecap="round" stroke-linejoin="round"/>
<path d="M44.6838 41.9199H60.8239" stroke="#041630" stroke-width="0.5" stroke-linecap="round" stroke-linejoin="round"/>
<path d="M43.9966 35.2812H47.9988" stroke="#041630" stroke-width="0.5" stroke-linecap="round" stroke-linejoin="round"/>
<path d="M44.4875 45.2393H53.2924" stroke="#041630" stroke-width="0.5" stroke-linecap="round" stroke-linejoin="round"/>
<path d="M43.9966 38.6006H49.5997" stroke="#041630" stroke-width="0.5" stroke-linecap="round" stroke-linejoin="round"/>
<path d="M43.9966 48.5586H54.4023" stroke="#041630" stroke-width="0.5" stroke-linecap="round" stroke-linejoin="round"/>
<path d="M43.9966 60.4648H57.3039" stroke="#041630" stroke-width="0.5" stroke-linecap="round" stroke-linejoin="round"/>
<path d="M44.0537 73.6211H57.6612" stroke="#041630" stroke-width="0.5" stroke-linecap="round" stroke-linejoin="round"/>
<path d="M43.9966 51.5781H55.5973" stroke="#041630" stroke-width="0.5" stroke-linecap="round" stroke-linejoin="round"/>
<path d="M43.9966 63.7783H57.6396" stroke="#041630" stroke-width="0.5" stroke-linecap="round" stroke-linejoin="round"/>
<path d="M44.0537 76.9346H57.6968" stroke="#041630" stroke-width="0.5" stroke-linecap="round" stroke-linejoin="round"/>
<path d="M43.9966 54.3857H56.2707" stroke="#041630" stroke-width="0.5" stroke-linecap="round" stroke-linejoin="round"/>
<path d="M43.9966 67.0928H57.9406" stroke="#041630" stroke-width="0.5" stroke-linecap="round" stroke-linejoin="round"/>
<path d="M44.0537 80.248H57.261" stroke="#041630" stroke-width="0.5" stroke-linecap="round" stroke-linejoin="round"/>
<path d="M70.9415 84.3041H29.0583C29.0583 83.0704 30.0584 82.0703 31.2921 82.0703H68.7077C69.9414 82.0703 70.9415 83.0704 70.9415 84.3041Z" fill="#E4DCFF" stroke="#041630" stroke-width="0.5" stroke-linecap="round" stroke-linejoin="round"/>
</svg>
