<svg width="30" height="30" viewBox="0 0 30 30" fill="none" xmlns="http://www.w3.org/2000/svg">
<g id="Technical training" clip-path="url(#clip0_5405_13797)">
<g id="Clip path group">
<mask id="mask0_5405_13797" style="mask-type:luminance" maskUnits="userSpaceOnUse" x="0" y="0" width="31" height="30">
<g id="clip0_4838_4464">
<path id="Vector" d="M30.0005 0H0.000488281V30H30.0005V0Z" fill="white"/>
</g>
</mask>
<g mask="url(#mask0_5405_13797)">
<g id="Group 1171276224">
<g id="Training and Mentoring">
<g id="Group-2">
<rect id="Rectangle" x="5.14551" y="3.57031" width="18.8219" height="11.499" stroke="#0053fa" stroke-width="2.25" stroke-linecap="round" stroke-linejoin="round"/>
<g id="Group 1171276223">
<path id="Shape-path" fill-rule="evenodd" clip-rule="evenodd" d="M12.1992 9.21216L12.2069 8.83571C12.2069 8.83571 12.8232 8.27549 12.8083 8.23651L12.5801 7.6529C12.563 7.61281 11.7289 7.61838 11.7289 7.61838L11.4676 7.34439C11.4676 7.34439 11.4996 6.50796 11.4605 6.4907L10.8866 6.23064C10.8458 6.21226 10.2708 6.80701 10.2708 6.80701L9.89376 6.79197C9.89376 6.79197 9.32099 6.16883 9.28241 6.18386L8.69751 6.40271C8.65837 6.41664 8.67766 7.24805 8.67766 7.24805L8.40478 7.50589C8.40478 7.50589 7.5652 7.46022 7.54811 7.49809L7.29618 8.0661C7.27854 8.1062 7.88328 8.68925 7.88328 8.68925L7.87556 9.06347C7.87556 9.06347 7.2598 9.6248 7.27468 9.66378L7.50346 10.2479C7.51999 10.2869 8.35407 10.2808 8.35407 10.2808L8.61482 10.5559C8.61482 10.5559 8.5845 11.3923 8.62364 11.4096L9.19751 11.6685C9.2372 11.6869 9.81273 11.0955 9.81273 11.0955L10.1903 11.1083C10.1903 11.1083 10.762 11.7315 10.8017 11.7175L11.3849 11.4987C11.4252 11.4848 11.4059 10.6522 11.4059 10.6522L11.6782 10.3966C11.6782 10.3966 12.5178 10.4401 12.5354 10.4022L12.7874 9.83419C12.8034 9.79521 12.1992 9.21216 12.1992 9.21216Z" stroke="#0053fa" stroke-width="0.9" stroke-linecap="round" stroke-linejoin="round"/>
<path id="Shape-path_2" fill-rule="evenodd" clip-rule="evenodd" d="M10.8871 9.33619C10.683 9.79884 10.138 10.0042 9.67092 9.79264C9.20602 9.58219 8.99247 9.03322 9.19656 8.56944C9.39954 8.10792 9.94619 7.90368 10.4111 8.11413C10.8765 8.32683 11.0901 8.87467 10.8871 9.33619Z" stroke="#0053fa" stroke-width="0.9" stroke-linecap="round" stroke-linejoin="round"/>
</g>
<path id="Polygon 2" d="M20.3938 5.83416C20.8589 5.69632 21.3305 6.02966 21.3559 6.51412L21.4786 8.86459C21.5113 9.49007 20.8083 9.87768 20.2968 9.51619L17.9173 7.83447C17.4059 7.47298 17.5366 6.68088 18.1371 6.50291L20.3938 5.83416Z" fill="#0053fa"/>
<g id="Group-5">
<g id="Group 1171276219">
<path id="Path" d="M13.874 12.0401L16.0032 9.46805L17.9213 10.7825L19.8414 7.71094" stroke="#0053fa" stroke-width="1.5" stroke-linecap="round" stroke-linejoin="round"/>
</g>
</g>
</g>
</g>
<g id="Group 1171276220">
<circle id="Ellipse 3267" cx="23.9409" cy="20.3413" r="2.09912" stroke="#0053fa" stroke-width="1.5" stroke-linecap="round" stroke-linejoin="round"/>
<path id="Rectangle 41326" d="M19.9404 25.8438C19.9404 24.1869 21.2836 22.8438 22.9404 22.8438H24.9414C26.5983 22.8438 27.9414 24.1869 27.9414 25.8438V26.4092H19.9404V25.8438Z" stroke="#0053fa" stroke-width="1.5" stroke-linecap="round" stroke-linejoin="round"/>
</g>
<g id="Group 1171276221">
<circle id="Ellipse 3267_2" cx="15.2749" cy="20.3413" r="2.09912" stroke="#0053fa" stroke-width="1.5" stroke-linecap="round" stroke-linejoin="round"/>
<path id="Rectangle 41326_2" d="M11.2744 25.8438C11.2744 24.1869 12.6176 22.8438 14.2744 22.8438H16.2754C17.9322 22.8438 19.2754 24.1869 19.2754 25.8438V26.4092H11.2744V25.8438Z" stroke="#0053fa" stroke-width="1.5" stroke-linecap="round" stroke-linejoin="round"/>
</g>
<g id="Group 1171276222">
<circle id="Ellipse 3267_3" cx="7.27393" cy="20.3413" r="2.09912" stroke="#0053fa" stroke-width="1.5" stroke-linecap="round" stroke-linejoin="round"/>
<path id="Rectangle 41326_3" d="M3.27344 25.8438C3.27344 24.1869 4.61658 22.8438 6.27344 22.8438H8.27441C9.93127 22.8438 11.2744 24.1869 11.2744 25.8438V26.4092H3.27344V25.8438Z" stroke="#0053fa" stroke-width="1.5" stroke-linecap="round" stroke-linejoin="round"/>
</g>
</g>
</g>
</g>
</g>
<defs>
<clipPath id="clip0_5405_13797">
<rect width="30" height="30" fill="white"/>
</clipPath>
</defs>
</svg>
