<svg width="30" height="30" viewBox="0 0 30 30" fill="none" xmlns="http://www.w3.org/2000/svg">
<g clip-path="url(#clip0_5405_13896)">
<mask id="mask0_5405_13896" style="mask-type:luminance" maskUnits="userSpaceOnUse" x="0" y="0" width="31" height="30">
<path d="M30.0005 0H0.000488281V30H30.0005V0Z" fill="white"/>
</mask>
<g mask="url(#mask0_5405_13896)">
<path d="M14.0881 21.8999H2.6869C1.98798 21.8999 1.42139 21.3333 1.42139 20.6344V3.26942C1.42139 2.5705 1.98798 2.00391 2.6869 2.00391H22.0096C22.7085 2.00391 23.2751 2.5705 23.2751 3.26942V7.78324" stroke="#886DE0" stroke-width="1.89827" stroke-linecap="round"/>
<path d="M5.9873 6.98047L14.0885 6.98047" stroke="#886DE0" stroke-width="2.25" stroke-linecap="round" stroke-linejoin="round"/>
<path d="M5.9873 11.9531L10.0365 11.9531" stroke="#886DE0" stroke-width="2.25" stroke-linecap="round" stroke-linejoin="round"/>
<path d="M5.9873 16.9219H9.25683" stroke="#886DE0" stroke-width="2.25" stroke-linecap="round" stroke-linejoin="round"/>
<path d="M18.4734 9.62481C19.3013 8.45295 21.0395 8.45295 21.8674 9.62481V9.62481C22.2815 10.211 22.9687 10.5419 23.6851 10.5002V10.5002C25.1175 10.4168 26.2013 11.7758 25.8012 13.1537V13.1537C25.6011 13.8429 25.7709 14.5866 26.2502 15.1207V15.1207C27.2085 16.1885 26.8217 17.8832 25.495 18.4295V18.4295C24.8314 18.7028 24.3558 19.2992 24.237 20.0069V20.0069C23.9996 21.4219 22.4335 22.1761 21.1792 21.4795V21.4795C20.5518 21.1311 19.789 21.1311 19.1616 21.4795V21.4795C17.9073 22.1761 16.3412 21.4219 16.1038 20.0069V20.0069C15.985 19.2992 15.5094 18.7028 14.8458 18.4295V18.4295C13.5191 17.8832 13.1323 16.1885 14.0906 15.1207V15.1207C14.5699 14.5866 14.7397 13.8429 14.5396 13.1537V13.1537C14.1395 11.7758 15.2233 10.4168 16.6557 10.5002V10.5002C17.3721 10.5419 18.0593 10.211 18.4734 9.62481V9.62481Z" stroke="#886DE0" stroke-width="1.89827" stroke-linecap="round"/>
<ellipse cx="20.1708" cy="15.4794" rx="3.19421" ry="3.19421" stroke="#886DE0" stroke-width="1.89827" stroke-linecap="round"/>
<path d="M17.5161 22.1758V26.6063L20.169 25.2598L22.8219 26.6063V22.1758" stroke="#886DE0" stroke-width="2.25" stroke-linecap="round" stroke-linejoin="round"/>
</g>
</g>
<defs>
<clipPath id="clip0_5405_13896">
<rect width="30" height="30" fill="white"/>
</clipPath>
</defs>
</svg>
