<svg width="20" height="20" viewBox="0 0 20 20" fill="none" xmlns="http://www.w3.org/2000/svg">
<path d="M6.88333 13.3L3.58333 10L6.88333 6.7L8.16667 8.00625L6.17292 10L8.16667 11.9938L6.88333 13.3ZM13.1167 13.3L11.8333 11.9938L13.8271 10L11.8333 8.00625L13.1167 6.7L16.4167 10L13.1167 13.3ZM3.58333 18.25C3.07917 18.25 2.64757 18.0705 2.28854 17.7115C1.92951 17.3524 1.75 16.9208 1.75 16.4167V12.75H3.58333V16.4167H7.25V18.25H3.58333ZM12.75 18.25V16.4167H16.4167V12.75H18.25V16.4167C18.25 16.9208 18.0705 17.3524 17.7115 17.7115C17.3524 18.0705 16.9208 18.25 16.4167 18.25H12.75ZM1.75 7.25V3.58333C1.75 3.07917 1.92951 2.64757 2.28854 2.28854C2.64757 1.92951 3.07917 1.75 3.58333 1.75H7.25V3.58333H3.58333V7.25H1.75ZM16.4167 7.25V3.58333H12.75V1.75H16.4167C16.9208 1.75 17.3524 1.92951 17.7115 2.28854C18.0705 2.64757 18.25 3.07917 18.25 3.58333V7.25H16.4167Z" fill="#886DE0"/>
</svg>
