<svg width="21" height="20" viewBox="0 0 21 20" fill="none" xmlns="http://www.w3.org/2000/svg">
<path d="M17.1328 2.5H15.2578V1.875C15.2578 1.70924 15.192 1.55027 15.0748 1.43306C14.9575 1.31585 14.7986 1.25 14.6328 1.25C14.4671 1.25 14.3081 1.31585 14.1909 1.43306C14.0737 1.55027 14.0078 1.70924 14.0078 1.875V2.5H7.75781V1.875C7.75781 1.70924 7.69196 1.55027 7.57475 1.43306C7.45754 1.31585 7.29857 1.25 7.13281 1.25C6.96705 1.25 6.80808 1.31585 6.69087 1.43306C6.57366 1.55027 6.50781 1.70924 6.50781 1.875V2.5H4.63281C4.30129 2.5 3.98335 2.6317 3.74893 2.86612C3.51451 3.10054 3.38281 3.41848 3.38281 3.75V16.25C3.38281 16.5815 3.51451 16.8995 3.74893 17.1339C3.98335 17.3683 4.30129 17.5 4.63281 17.5H17.1328C17.4643 17.5 17.7823 17.3683 18.0167 17.1339C18.2511 16.8995 18.3828 16.5815 18.3828 16.25V3.75C18.3828 3.41848 18.2511 3.10054 18.0167 2.86612C17.7823 2.6317 17.4643 2.5 17.1328 2.5ZM6.50781 3.75V4.375C6.50781 4.54076 6.57366 4.69973 6.69087 4.81694C6.80808 4.93415 6.96705 5 7.13281 5C7.29857 5 7.45754 4.93415 7.57475 4.81694C7.69196 4.69973 7.75781 4.54076 7.75781 4.375V3.75H14.0078V4.375C14.0078 4.54076 14.0737 4.69973 14.1909 4.81694C14.3081 4.93415 14.4671 5 14.6328 5C14.7986 5 14.9575 4.93415 15.0748 4.81694C15.192 4.69973 15.2578 4.54076 15.2578 4.375V3.75H17.1328V6.25H4.63281V3.75H6.50781ZM17.1328 16.25H4.63281V7.5H17.1328V16.25ZM11.8203 10.3125C11.8203 10.4979 11.7653 10.6792 11.6623 10.8333C11.5593 10.9875 11.4129 11.1077 11.2416 11.1786C11.0703 11.2496 10.8818 11.2682 10.6999 11.232C10.5181 11.1958 10.351 11.1065 10.2199 10.9754C10.0888 10.8443 9.9995 10.6773 9.96333 10.4954C9.92715 10.3135 9.94572 10.125 10.0167 9.95373C10.0876 9.78243 10.2078 9.63601 10.362 9.533C10.5161 9.42998 10.6974 9.375 10.8828 9.375C11.1315 9.375 11.3699 9.47377 11.5457 9.64959C11.7215 9.8254 11.8203 10.0639 11.8203 10.3125ZM15.2578 10.3125C15.2578 10.4979 15.2028 10.6792 15.0998 10.8333C14.9968 10.9875 14.8504 11.1077 14.6791 11.1786C14.5078 11.2496 14.3193 11.2682 14.1374 11.232C13.9556 11.1958 13.7885 11.1065 13.6574 10.9754C13.5263 10.8443 13.437 10.6773 13.4008 10.4954C13.3647 10.3135 13.3832 10.125 13.4542 9.95373C13.5251 9.78243 13.6453 9.63601 13.7995 9.533C13.9536 9.42998 14.1349 9.375 14.3203 9.375C14.569 9.375 14.8074 9.47377 14.9832 9.64959C15.159 9.8254 15.2578 10.0639 15.2578 10.3125ZM8.38281 13.4375C8.38281 13.6229 8.32783 13.8042 8.22482 13.9583C8.1218 14.1125 7.97538 14.2327 7.80408 14.3036C7.63277 14.3746 7.44427 14.3932 7.26241 14.357C7.08056 14.3208 6.91351 14.2315 6.7824 14.1004C6.65129 13.9693 6.562 13.8023 6.52583 13.6204C6.48965 13.4385 6.50822 13.25 6.57918 13.0787C6.65013 12.9074 6.77029 12.761 6.92447 12.658C7.07864 12.555 7.25989 12.5 7.44531 12.5C7.69395 12.5 7.93241 12.5988 8.10823 12.7746C8.28404 12.9504 8.38281 13.1889 8.38281 13.4375ZM11.8203 13.4375C11.8203 13.6229 11.7653 13.8042 11.6623 13.9583C11.5593 14.1125 11.4129 14.2327 11.2416 14.3036C11.0703 14.3746 10.8818 14.3932 10.6999 14.357C10.5181 14.3208 10.351 14.2315 10.2199 14.1004C10.0888 13.9693 9.9995 13.8023 9.96333 13.6204C9.92715 13.4385 9.94572 13.25 10.0167 13.0787C10.0876 12.9074 10.2078 12.761 10.362 12.658C10.5161 12.555 10.6974 12.5 10.8828 12.5C11.1315 12.5 11.3699 12.5988 11.5457 12.7746C11.7215 12.9504 11.8203 13.1889 11.8203 13.4375ZM15.2578 13.4375C15.2578 13.6229 15.2028 13.8042 15.0998 13.9583C14.9968 14.1125 14.8504 14.2327 14.6791 14.3036C14.5078 14.3746 14.3193 14.3932 14.1374 14.357C13.9556 14.3208 13.7885 14.2315 13.6574 14.1004C13.5263 13.9693 13.437 13.8023 13.4008 13.6204C13.3647 13.4385 13.3832 13.25 13.4542 13.0787C13.5251 12.9074 13.6453 12.761 13.7995 12.658C13.9536 12.555 14.1349 12.5 14.3203 12.5C14.569 12.5 14.8074 12.5988 14.9832 12.7746C15.159 12.9504 15.2578 13.1889 15.2578 13.4375Z" fill="#0053FA"/>
</svg>
