<svg width="17" height="17" viewBox="0 0 17 17" fill="none" xmlns="http://www.w3.org/2000/svg">
<path d="M14.0061 9.28542L9.50609 13.7854C9.41227 13.8792 9.28503 13.932 9.15234 13.932C9.01966 13.932 8.89241 13.8792 8.79859 13.7854C8.70477 13.6916 8.65207 13.5644 8.65207 13.4317C8.65207 13.299 8.70477 13.1717 8.79859 13.0779L12.4455 9.43167H2.65234C2.51974 9.43167 2.39256 9.379 2.29879 9.28523C2.20502 9.19146 2.15234 9.06428 2.15234 8.93167C2.15234 8.79907 2.20502 8.67189 2.29879 8.57812C2.39256 8.48435 2.51974 8.43167 2.65234 8.43167H12.4455L8.79859 4.78542C8.70477 4.6916 8.65207 4.56436 8.65207 4.43167C8.65207 4.29899 8.70477 4.17174 8.79859 4.07792C8.89241 3.9841 9.01966 3.9314 9.15234 3.9314C9.28503 3.9314 9.41227 3.9841 9.50609 4.07792L14.0061 8.57792C14.0526 8.62436 14.0895 8.67951 14.1146 8.7402C14.1398 8.8009 14.1527 8.86597 14.1527 8.93167C14.1527 8.99738 14.1398 9.06245 14.1146 9.12314C14.0895 9.18384 14.0526 9.23899 14.0061 9.28542Z" fill="#002E3B"/>
</svg>
