<svg width="17" height="17" viewBox="0 0 17 17" fill="none" xmlns="http://www.w3.org/2000/svg">
<path d="M12.6521 4.93164V11.4316C12.6521 11.5642 12.5995 11.6914 12.5057 11.7852C12.4119 11.879 12.2847 11.9316 12.1521 11.9316C12.0195 11.9316 11.8923 11.879 11.7986 11.7852C11.7048 11.6914 11.6521 11.5642 11.6521 11.4316V6.13852L4.50588 13.2854C4.41206 13.3792 4.28482 13.4319 4.15213 13.4319C4.01945 13.4319 3.8922 13.3792 3.79838 13.2854C3.70456 13.1916 3.65186 13.0643 3.65186 12.9316C3.65186 12.799 3.70456 12.6717 3.79838 12.5779L10.9453 5.43164H5.65213C5.51953 5.43164 5.39235 5.37896 5.29858 5.28519C5.20481 5.19143 5.15213 5.06425 5.15213 4.93164C5.15213 4.79903 5.20481 4.67186 5.29858 4.57809C5.39235 4.48432 5.51953 4.43164 5.65213 4.43164H12.1521C12.2847 4.43164 12.4119 4.48432 12.5057 4.57809C12.5995 4.67186 12.6521 4.79903 12.6521 4.93164Z" fill="#0053FA"/>
</svg>
