<svg width="21" height="21" viewBox="0 0 21 21" fill="none" xmlns="http://www.w3.org/2000/svg">
<path d="M17.0273 5.30664H13.9023V4.68164C13.9023 4.18436 13.7048 3.70745 13.3532 3.35582C13.0015 3.00418 12.5246 2.80664 12.0273 2.80664H8.27734C7.78006 2.80664 7.30315 3.00418 6.95152 3.35582C6.59989 3.70745 6.40234 4.18436 6.40234 4.68164V5.30664H3.27734C2.94582 5.30664 2.62788 5.43834 2.39346 5.67276C2.15904 5.90718 2.02734 6.22512 2.02734 6.55664V16.5566C2.02734 16.8882 2.15904 17.2061 2.39346 17.4405C2.62788 17.6749 2.94582 17.8066 3.27734 17.8066H17.0273C17.3589 17.8066 17.6768 17.6749 17.9112 17.4405C18.1456 17.2061 18.2773 16.8882 18.2773 16.5566V6.55664C18.2773 6.22512 18.1456 5.90718 17.9112 5.67276C17.6768 5.43834 17.3589 5.30664 17.0273 5.30664ZM7.65234 4.68164C7.65234 4.51588 7.71819 4.35691 7.8354 4.2397C7.95261 4.12249 8.11158 4.05664 8.27734 4.05664H12.0273C12.1931 4.05664 12.3521 4.12249 12.4693 4.2397C12.5865 4.35691 12.6523 4.51588 12.6523 4.68164V5.30664H7.65234V4.68164ZM17.0273 6.55664V9.80742C14.9178 10.9557 12.5542 11.5571 10.1523 11.5566C7.75063 11.5571 5.38705 10.956 3.27734 9.8082V6.55664H17.0273ZM17.0273 16.5566H3.27734V11.216C5.41791 12.263 7.76943 12.8071 10.1523 12.8066C12.5353 12.8067 14.8868 12.2624 17.0273 11.2152V16.5566ZM8.27734 9.68164C8.27734 9.51588 8.34319 9.35691 8.4604 9.2397C8.57761 9.12249 8.73658 9.05664 8.90234 9.05664H11.4023C11.5681 9.05664 11.7271 9.12249 11.8443 9.2397C11.9615 9.35691 12.0273 9.51588 12.0273 9.68164C12.0273 9.8474 11.9615 10.0064 11.8443 10.1236C11.7271 10.2408 11.5681 10.3066 11.4023 10.3066H8.90234C8.73658 10.3066 8.57761 10.2408 8.4604 10.1236C8.34319 10.0064 8.27734 9.8474 8.27734 9.68164Z" fill="#022E3B"/>
</svg>
