<svg width="16" height="17" viewBox="0 0 16 17" fill="none" xmlns="http://www.w3.org/2000/svg">
<path d="M14.7578 9V15.25C14.7578 15.5815 14.6261 15.8995 14.3917 16.1339C14.1573 16.3683 13.8393 16.5 13.5078 16.5H1.63281C1.30129 16.5 0.983349 16.3683 0.748929 16.1339C0.514509 15.8995 0.382813 15.5815 0.382812 15.25V3.375C0.382812 3.04348 0.514509 2.72554 0.748929 2.49112C0.983349 2.2567 1.30129 2.125 1.63281 2.125H7.88281C8.04857 2.125 8.20754 2.19085 8.32475 2.30806C8.44197 2.42527 8.50781 2.58424 8.50781 2.75C8.50781 2.91576 8.44197 3.07473 8.32475 3.19194C8.20754 3.30915 8.04857 3.375 7.88281 3.375H1.63281V15.25H13.5078V9C13.5078 8.83424 13.5737 8.67527 13.6909 8.55806C13.8081 8.44085 13.9671 8.375 14.1328 8.375C14.2986 8.375 14.4575 8.44085 14.5748 8.55806C14.692 8.67527 14.7578 8.83424 14.7578 9ZM16.0078 3.6875C16.0078 4.24376 15.8429 4.78753 15.5338 5.25004C15.2248 5.71255 14.7855 6.07304 14.2716 6.28591C13.7577 6.49878 13.1922 6.55448 12.6466 6.44596C12.101 6.33744 11.5999 6.06957 11.2066 5.67624C10.8132 5.2829 10.5454 4.78176 10.4369 4.23619C10.3283 3.69062 10.384 3.12512 10.5969 2.6112C10.8098 2.09729 11.1703 1.65803 11.6328 1.34899C12.0953 1.03995 12.6391 0.875 13.1953 0.875C13.9412 0.875 14.6566 1.17132 15.184 1.69876C15.7115 2.22621 16.0078 2.94158 16.0078 3.6875ZM14.7578 3.6875C14.7578 3.37847 14.6662 3.07637 14.4945 2.81942C14.3228 2.56247 14.0788 2.3622 13.7933 2.24394C13.5077 2.12568 13.1936 2.09473 12.8905 2.15502C12.5874 2.21531 12.309 2.36413 12.0905 2.58265C11.8719 2.80117 11.7231 3.07958 11.6628 3.38267C11.6025 3.68577 11.6335 3.99993 11.7518 4.28544C11.87 4.57095 12.0703 4.81498 12.3272 4.98667C12.5842 5.15836 12.8863 5.25 13.1953 5.25C13.6097 5.25 14.0071 5.08538 14.3002 4.79235C14.5932 4.49933 14.7578 4.1019 14.7578 3.6875Z" fill="#0053FA"/>
</svg>
