<svg width="20" height="21" viewBox="0 0 20 21" fill="none" xmlns="http://www.w3.org/2000/svg">
<path d="M9.88282 0.75C7.95445 0.75 6.06939 1.32183 4.46601 2.39317C2.86263 3.46451 1.61295 4.98726 0.874991 6.76884C0.137037 8.55042 -0.0560455 10.5108 0.32016 12.4021C0.696366 14.2934 1.62496 16.0307 2.98853 17.3943C4.35209 18.7579 6.08937 19.6865 7.98069 20.0627C9.872 20.4389 11.8324 20.2458 13.614 19.5078C15.3956 18.7699 16.9183 17.5202 17.9896 15.9168C19.061 14.3134 19.6328 12.4284 19.6328 10.5C19.6301 7.91498 18.602 5.43661 16.7741 3.60872C14.9462 1.78084 12.4678 0.75273 9.88282 0.75ZM14.1634 8.78063L8.91344 14.0306C8.84379 14.1004 8.76107 14.1557 8.67002 14.1934C8.57897 14.2312 8.48138 14.2506 8.38282 14.2506C8.28426 14.2506 8.18666 14.2312 8.09561 14.1934C8.00456 14.1557 7.92185 14.1004 7.85219 14.0306L5.60219 11.7806C5.46146 11.6399 5.3824 11.449 5.3824 11.25C5.3824 11.051 5.46146 10.8601 5.60219 10.7194C5.74292 10.5786 5.93379 10.4996 6.13282 10.4996C6.33184 10.4996 6.52271 10.5786 6.66344 10.7194L8.38282 12.4397L13.1022 7.71937C13.1719 7.64969 13.2546 7.59442 13.3456 7.5567C13.4367 7.51899 13.5343 7.49958 13.6328 7.49958C13.7314 7.49958 13.8289 7.51899 13.92 7.5567C14.011 7.59442 14.0938 7.64969 14.1634 7.71937C14.2331 7.78906 14.2884 7.87178 14.3261 7.96283C14.3638 8.05387 14.3832 8.15145 14.3832 8.25C14.3832 8.34855 14.3638 8.44613 14.3261 8.53717C14.2884 8.62822 14.2331 8.71094 14.1634 8.78063Z" fill="#0053FA"/>
</svg>
