<svg width="21" height="21" viewBox="0 0 21 21" fill="none" xmlns="http://www.w3.org/2000/svg">
<path d="M7.96484 5.30664H3.27734C2.94582 5.30664 2.62788 5.43834 2.39346 5.67276C2.15904 5.90718 2.02734 6.22512 2.02734 6.55664V11.5566C2.02734 11.8882 2.15904 12.2061 2.39346 12.4405C2.62788 12.6749 2.94582 12.8066 3.27734 12.8066H7.96484V13.4316C7.96484 14.0947 7.70145 14.7306 7.23261 15.1994C6.76377 15.6682 6.12788 15.9316 5.46484 15.9316C5.29908 15.9316 5.14011 15.9975 5.0229 16.1147C4.90569 16.2319 4.83984 16.3909 4.83984 16.5566C4.83984 16.7224 4.90569 16.8814 5.0229 16.9986C5.14011 17.1158 5.29908 17.1816 5.46484 17.1816C6.45909 17.1806 7.41231 16.7852 8.11535 16.0821C8.81839 15.3791 9.21381 14.4259 9.21484 13.4316V6.55664C9.21484 6.22512 9.08315 5.90718 8.84873 5.67276C8.61431 5.43834 8.29636 5.30664 7.96484 5.30664ZM7.96484 11.5566H3.27734V6.55664H7.96484V11.5566ZM17.0273 5.30664H12.3398C12.0083 5.30664 11.6904 5.43834 11.456 5.67276C11.2215 5.90718 11.0898 6.22512 11.0898 6.55664V11.5566C11.0898 11.8882 11.2215 12.2061 11.456 12.4405C11.6904 12.6749 12.0083 12.8066 12.3398 12.8066H17.0273V13.4316C17.0273 14.0947 16.764 14.7306 16.2951 15.1994C15.8263 15.6682 15.1904 15.9316 14.5273 15.9316C14.3616 15.9316 14.2026 15.9975 14.0854 16.1147C13.9682 16.2319 13.9023 16.3909 13.9023 16.5566C13.9023 16.7224 13.9682 16.8814 14.0854 16.9986C14.2026 17.1158 14.3616 17.1816 14.5273 17.1816C15.5216 17.1806 16.4748 16.7852 17.1779 16.0821C17.8809 15.3791 18.2763 14.4259 18.2773 13.4316V6.55664C18.2773 6.22512 18.1456 5.90718 17.9112 5.67276C17.6768 5.43834 17.3589 5.30664 17.0273 5.30664ZM17.0273 11.5566H12.3398V6.55664H17.0273V11.5566Z" fill="#022E3B"/>
</svg>
