<svg width="21" height="21" viewBox="0 0 21 21" fill="none" xmlns="http://www.w3.org/2000/svg">
<path d="M9.25291 16.7458H3.72266V2.92017H14.7832V7.21524" stroke="#022E3B" stroke-width="1.29039" stroke-linecap="round" stroke-linejoin="round"/>
<path d="M5.81836 6.16235H11.8081" stroke="#022E3B" stroke-width="1.29039" stroke-linecap="round" stroke-linejoin="round"/>
<path d="M5.81836 9.37329H8.69801" stroke="#022E3B" stroke-width="1.29039" stroke-linecap="round" stroke-linejoin="round"/>
<path d="M17.2322 13.303H12.7303C12.2213 13.303 11.8086 13.7156 11.8086 14.2247V18.0215C11.8086 18.5306 12.2213 18.9433 12.7303 18.9433H17.2322C17.7412 18.9433 18.1539 18.5306 18.1539 18.0215V14.2247C18.1539 13.7156 17.7412 13.303 17.2322 13.303Z" stroke="#022E3B" stroke-width="1.29039" stroke-linecap="round"/>
<path d="M16.5766 13.3009V11.5073C16.5766 10.6264 15.8624 9.91235 14.9816 9.91235C14.1008 9.91235 13.3867 10.6264 13.3867 11.5073V13.3009" stroke="#022E3B" stroke-width="1.29039" stroke-linecap="round"/>
<path d="M15.527 15.4707C15.527 15.7716 15.2831 16.0155 14.9822 16.0155C14.6813 16.0155 14.4374 15.7716 14.4374 15.4707C14.4374 15.1698 14.6813 14.9259 14.9822 14.9259C15.283 14.9259 15.527 15.1698 15.527 15.4707Z" fill="white" stroke="#022E3B" stroke-width="0.92171"/>
<path d="M14.9824 15.7717V17.1818" stroke="#022E3B" stroke-width="0.92171" stroke-linecap="round"/>
</svg>
