<svg width="21" height="21" viewBox="0 0 21 21" fill="none" xmlns="http://www.w3.org/2000/svg">
<path d="M17.0273 4.05664H10.7773V2.80664C10.7773 2.64088 10.7115 2.48191 10.5943 2.3647C10.4771 2.24749 10.3181 2.18164 10.1523 2.18164C9.98658 2.18164 9.82761 2.24749 9.7104 2.3647C9.59319 2.48191 9.52734 2.64088 9.52734 2.80664V4.05664H3.27734C2.94582 4.05664 2.62788 4.18834 2.39346 4.42276C2.15904 4.65718 2.02734 4.97512 2.02734 5.30664V14.6816C2.02734 15.0132 2.15904 15.3311 2.39346 15.5655C2.62788 15.7999 2.94582 15.9316 3.27734 15.9316H6.35234L4.66406 18.041C4.56046 18.1705 4.51255 18.3359 4.53086 18.5007C4.54918 18.6655 4.63222 18.8163 4.76172 18.9199C4.89122 19.0235 5.05657 19.0714 5.2214 19.0531C5.38622 19.0348 5.53702 18.9518 5.64062 18.8223L7.95234 15.9316H12.3523L14.6641 18.8223C14.7154 18.8864 14.7788 18.9398 14.8507 18.9794C14.9226 19.019 15.0017 19.0441 15.0833 19.0531C15.1649 19.0622 15.2475 19.0551 15.3264 19.0322C15.4052 19.0094 15.4788 18.9712 15.543 18.9199C15.6071 18.8686 15.6605 18.8052 15.7001 18.7333C15.7397 18.6613 15.7648 18.5823 15.7738 18.5007C15.7829 18.4191 15.7758 18.3365 15.7529 18.2576C15.7301 18.1787 15.6919 18.1051 15.6406 18.041L13.9523 15.9316H17.0273C17.3589 15.9316 17.6768 15.7999 17.9112 15.5655C18.1456 15.3311 18.2773 15.0132 18.2773 14.6816V5.30664C18.2773 4.97512 18.1456 4.65718 17.9112 4.42276C17.6768 4.18834 17.3589 4.05664 17.0273 4.05664ZM17.0273 14.6816H3.27734V5.30664H17.0273V14.6816ZM8.27734 10.3066V12.1816C8.27734 12.3474 8.2115 12.5064 8.09429 12.6236C7.97708 12.7408 7.8181 12.8066 7.65234 12.8066C7.48658 12.8066 7.32761 12.7408 7.2104 12.6236C7.09319 12.5064 7.02734 12.3474 7.02734 12.1816V10.3066C7.02734 10.1409 7.09319 9.98191 7.2104 9.8647C7.32761 9.74749 7.48658 9.68164 7.65234 9.68164C7.8181 9.68164 7.97708 9.74749 8.09429 9.8647C8.2115 9.98191 8.27734 10.1409 8.27734 10.3066ZM10.7773 9.05664V12.1816C10.7773 12.3474 10.7115 12.5064 10.5943 12.6236C10.4771 12.7408 10.3181 12.8066 10.1523 12.8066C9.98658 12.8066 9.82761 12.7408 9.7104 12.6236C9.59319 12.5064 9.52734 12.3474 9.52734 12.1816V9.05664C9.52734 8.89088 9.59319 8.73191 9.7104 8.6147C9.82761 8.49749 9.98658 8.43164 10.1523 8.43164C10.3181 8.43164 10.4771 8.49749 10.5943 8.6147C10.7115 8.73191 10.7773 8.89088 10.7773 9.05664ZM13.2773 7.80664V12.1816C13.2773 12.3474 13.2115 12.5064 13.0943 12.6236C12.9771 12.7408 12.8181 12.8066 12.6523 12.8066C12.4866 12.8066 12.3276 12.7408 12.2104 12.6236C12.0932 12.5064 12.0273 12.3474 12.0273 12.1816V7.80664C12.0273 7.64088 12.0932 7.48191 12.2104 7.3647C12.3276 7.24749 12.4866 7.18164 12.6523 7.18164C12.8181 7.18164 12.9771 7.24749 13.0943 7.3647C13.2115 7.48191 13.2773 7.64088 13.2773 7.80664Z" fill="#022E3B"/>
</svg>
