<svg width="17" height="18" viewBox="0 0 17 18" fill="none" xmlns="http://www.w3.org/2000/svg">
<path d="M15.7578 2.125H9.50781V0.875C9.50781 0.70924 9.44197 0.550268 9.32475 0.433058C9.20754 0.315848 9.04857 0.25 8.88281 0.25C8.71705 0.25 8.55808 0.315848 8.44087 0.433058C8.32366 0.550268 8.25781 0.70924 8.25781 0.875V2.125H2.00781C1.67629 2.125 1.35835 2.2567 1.12393 2.49112C0.889509 2.72554 0.757813 3.04348 0.757812 3.375V12.75C0.757813 13.0815 0.889509 13.3995 1.12393 13.6339C1.35835 13.8683 1.67629 14 2.00781 14H5.08281L3.39453 16.1094C3.29093 16.2389 3.24302 16.4042 3.26133 16.5691C3.27965 16.7339 3.36269 16.8847 3.49219 16.9883C3.62169 17.0919 3.78704 17.1398 3.95187 17.1215C4.11669 17.1032 4.26749 17.0201 4.37109 16.8906L6.68281 14H11.0828L13.3945 16.8906C13.4458 16.9547 13.5093 17.0081 13.5812 17.0477C13.6531 17.0874 13.7321 17.1124 13.8138 17.1215C13.8954 17.1305 13.978 17.1235 14.0568 17.1006C14.1357 17.0777 14.2093 17.0396 14.2734 16.9883C14.3376 16.937 14.391 16.8736 14.4306 16.8016C14.4702 16.7297 14.4952 16.6507 14.5043 16.5691C14.5134 16.4874 14.5063 16.4048 14.4834 16.326C14.4606 16.2471 14.4224 16.1735 14.3711 16.1094L12.6828 14H15.7578C16.0893 14 16.4073 13.8683 16.6417 13.6339C16.8761 13.3995 17.0078 13.0815 17.0078 12.75V3.375C17.0078 3.04348 16.8761 2.72554 16.6417 2.49112C16.4073 2.2567 16.0893 2.125 15.7578 2.125ZM15.7578 12.75H2.00781V3.375H15.7578V12.75ZM7.00781 8.375V10.25C7.00781 10.4158 6.94196 10.5747 6.82475 10.6919C6.70754 10.8092 6.54857 10.875 6.38281 10.875C6.21705 10.875 6.05808 10.8092 5.94087 10.6919C5.82366 10.5747 5.75781 10.4158 5.75781 10.25V8.375C5.75781 8.20924 5.82366 8.05027 5.94087 7.93306C6.05808 7.81585 6.21705 7.75 6.38281 7.75C6.54857 7.75 6.70754 7.81585 6.82475 7.93306C6.94196 8.05027 7.00781 8.20924 7.00781 8.375ZM9.50781 7.125V10.25C9.50781 10.4158 9.44197 10.5747 9.32475 10.6919C9.20754 10.8092 9.04857 10.875 8.88281 10.875C8.71705 10.875 8.55808 10.8092 8.44087 10.6919C8.32366 10.5747 8.25781 10.4158 8.25781 10.25V7.125C8.25781 6.95924 8.32366 6.80027 8.44087 6.68306C8.55808 6.56585 8.71705 6.5 8.88281 6.5C9.04857 6.5 9.20754 6.56585 9.32475 6.68306C9.44197 6.80027 9.50781 6.95924 9.50781 7.125ZM12.0078 5.875V10.25C12.0078 10.4158 11.942 10.5747 11.8248 10.6919C11.7075 10.8092 11.5486 10.875 11.3828 10.875C11.2171 10.875 11.0581 10.8092 10.9409 10.6919C10.8237 10.5747 10.7578 10.4158 10.7578 10.25V5.875C10.7578 5.70924 10.8237 5.55027 10.9409 5.43306C11.0581 5.31585 11.2171 5.25 11.3828 5.25C11.5486 5.25 11.7075 5.31585 11.8248 5.43306C11.942 5.55027 12.0078 5.70924 12.0078 5.875Z" fill="#0053FA"/>
</svg>
