<svg width="164" height="27" viewBox="0 0 164 27" fill="none" xmlns="http://www.w3.org/2000/svg">
<path d="M0.403145 25.8086V1.44403H4.70977V10.5569H4.88822C5.1103 10.1128 5.42358 9.6409 5.82807 9.14124C6.23256 8.63364 6.77981 8.20139 7.46982 7.84449C8.15983 7.47966 9.04019 7.29724 10.1109 7.29724C11.5226 7.29724 12.7956 7.65811 13.9298 8.37984C15.0718 9.09365 15.976 10.1525 16.6422 11.5563C17.3164 12.9522 17.6534 14.6653 17.6534 16.6957C17.6534 18.7023 17.3243 20.4075 16.666 21.8113C16.0077 23.2151 15.1115 24.2858 13.9773 25.0234C12.8432 25.761 11.5583 26.1298 10.1228 26.1298C9.07588 26.1298 8.20742 25.9553 7.51741 25.6063C6.82739 25.2574 6.27221 24.837 5.85186 24.3453C5.43944 23.8456 5.11823 23.3737 4.88822 22.9296H4.63839V25.8086H0.403145ZM4.62649 16.6719C4.62649 17.8536 4.79305 18.8886 5.12616 19.7769C5.4672 20.6652 5.95497 21.3592 6.58946 21.8589C7.23188 22.3506 8.00914 22.5965 8.92122 22.5965C9.87296 22.5965 10.67 22.3427 11.3125 21.8351C11.9549 21.3196 12.4387 20.6176 12.7639 19.7294C13.097 18.8331 13.2635 17.814 13.2635 16.6719C13.2635 15.5377 13.101 14.5305 12.7758 13.6501C12.4506 12.7697 11.9668 12.0797 11.3244 11.5801C10.6819 11.0804 9.8809 10.8306 8.92122 10.8306C8.00121 10.8306 7.21999 11.0725 6.57756 11.5563C5.93514 12.0401 5.44737 12.7182 5.11426 13.5906C4.78908 14.4631 4.62649 15.4901 4.62649 16.6719ZM33.1291 18.1233V7.53517H37.4357V25.8086H33.26V22.5608H33.0696C32.6572 23.5839 31.9791 24.4206 31.0353 25.071C30.0994 25.7214 28.9454 26.0465 27.5733 26.0465C26.3757 26.0465 25.3169 25.7808 24.3969 25.2494C23.4848 24.7101 22.771 23.9289 22.2555 22.9058C21.7399 21.8747 21.4822 20.6295 21.4822 19.1702V7.53517H25.7888V18.504C25.7888 19.6619 26.1061 20.582 26.7405 21.264C27.375 21.9461 28.2078 22.2872 29.2389 22.2872C29.8734 22.2872 30.488 22.1325 31.0829 21.8232C31.6777 21.5139 32.1655 21.0539 32.5462 20.4432C32.9348 19.8245 33.1291 19.0512 33.1291 18.1233ZM42.0318 25.8086V7.53517H46.3384V25.8086H42.0318ZM44.197 4.94168C43.5149 4.94168 42.928 4.71564 42.4363 4.26356C41.9446 3.80356 41.6987 3.25234 41.6987 2.60991C41.6987 1.95956 41.9446 1.40834 42.4363 0.956265C42.928 0.496257 43.5149 0.266254 44.197 0.266254C44.887 0.266254 45.4739 0.496257 45.9577 0.956265C46.4495 1.40834 46.6953 1.95956 46.6953 2.60991C46.6953 3.25234 46.4495 3.80356 45.9577 4.26356C45.4739 4.71564 44.887 4.94168 44.197 4.94168ZM55.2411 1.44403V25.8086H50.9345V1.44403H55.2411ZM66.6184 26.1298C65.1828 26.1298 63.898 25.761 62.7638 25.0234C61.6297 24.2858 60.7334 23.2151 60.0751 21.8113C59.4169 20.4075 59.0877 18.7023 59.0877 16.6957C59.0877 14.6653 59.4208 12.9522 60.087 11.5563C60.7612 10.1525 61.6693 9.09365 62.8114 8.37984C63.9535 7.65811 65.2264 7.29724 66.6303 7.29724C67.701 7.29724 68.5813 7.47966 69.2713 7.84449C69.9613 8.20139 70.5086 8.63364 70.9131 9.14124C71.3176 9.6409 71.6309 10.1128 71.8529 10.5569H72.0314V1.44403H76.3499V25.8086H72.1147V22.9296H71.8529C71.6309 23.3737 71.3096 23.8456 70.8893 24.3453C70.4689 24.837 69.9138 25.2574 69.2237 25.6063C68.5337 25.9553 67.6653 26.1298 66.6184 26.1298ZM67.8199 22.5965C68.732 22.5965 69.5093 22.3506 70.1517 21.8589C70.7941 21.3592 71.2819 20.6652 71.615 19.7769C71.9481 18.8886 72.1147 17.8536 72.1147 16.6719C72.1147 15.4901 71.9481 14.4631 71.615 13.5906C71.2898 12.7182 70.806 12.0401 70.1636 11.5563C69.5291 11.0725 68.7479 10.8306 67.8199 10.8306C66.8603 10.8306 66.0592 11.0804 65.4168 11.5801C64.7744 12.0797 64.2906 12.7697 63.9654 13.6501C63.6402 14.5305 63.4776 15.5377 63.4776 16.6719C63.4776 17.814 63.6402 18.8331 63.9654 19.7294C64.2985 20.6176 64.7863 21.3196 65.4287 21.8351C66.079 22.3427 66.8761 22.5965 67.8199 22.5965ZM88.6105 8.10919V10.432H79.041V8.10919H88.6105ZM82.2799 3.80703H85.3061V21.4246C85.3061 22.0244 85.3988 22.477 85.5842 22.7824C85.7696 23.0877 86.0095 23.2895 86.304 23.3876C86.5984 23.4858 86.9147 23.5348 87.2528 23.5348C87.5036 23.5348 87.7653 23.513 88.0379 23.4694C88.3215 23.4149 88.5341 23.3712 88.6759 23.3385L88.6923 25.8086C88.4523 25.8849 88.1361 25.9558 87.7435 26.0212C87.3618 26.0976 86.8983 26.1358 86.3531 26.1358C85.6115 26.1358 84.9299 25.9885 84.3083 25.6941C83.6867 25.3996 83.1905 24.9089 82.8197 24.2219C82.4598 23.5239 82.2799 22.5861 82.2799 21.4083V3.80703ZM96.8098 22.6678L101.357 8.10919H103.353L102.96 11.0046L98.3311 25.8086H96.3845L96.8098 22.6678ZM93.7508 8.10919L97.6277 22.8314L97.9058 25.8086H95.861L90.7246 8.10919H93.7508ZM107.704 22.7169L111.401 8.10919H114.411L109.275 25.8086H107.246L107.704 22.7169ZM103.795 8.10919L108.244 22.4225L108.751 25.8086H106.821L102.061 10.9718L101.668 8.10919H103.795ZM120.975 8.10919V25.8086H117.932V8.10919H120.975ZM117.703 3.41443C117.703 2.92369 117.85 2.50929 118.145 2.17122C118.45 1.83316 118.897 1.66412 119.486 1.66412C120.064 1.66412 120.506 1.83316 120.811 2.17122C121.127 2.50929 121.285 2.92369 121.285 3.41443C121.285 3.88336 121.127 4.28686 120.811 4.62493C120.506 4.95209 120.064 5.11567 119.486 5.11567C118.897 5.11567 118.45 4.95209 118.145 4.62493C117.85 4.28686 117.703 3.88336 117.703 3.41443ZM129.027 11.8879V25.8086H126V8.10919H128.863L129.027 11.8879ZM128.307 16.2882L127.047 16.2391C127.058 15.0286 127.238 13.9108 127.587 12.8857C127.936 11.8497 128.427 10.95 129.059 10.1867C129.692 9.42329 130.444 8.8344 131.317 8.41999C132.2 7.99469 133.176 7.78203 134.245 7.78203C135.117 7.78203 135.902 7.90199 136.6 8.14191C137.298 8.37092 137.893 8.7417 138.383 9.25426C138.885 9.76681 139.267 10.432 139.528 11.2499C139.79 12.0569 139.921 13.0439 139.921 14.2107V25.8086H136.878V14.178C136.878 13.2511 136.742 12.5095 136.47 11.9533C136.197 11.3863 135.799 10.9773 135.275 10.7265C134.752 10.4648 134.109 10.3339 133.345 10.3339C132.593 10.3339 131.906 10.492 131.284 10.8083C130.673 11.1245 130.144 11.5607 129.697 12.1169C129.261 12.6731 128.918 13.311 128.667 14.0308C128.427 14.7397 128.307 15.4921 128.307 16.2882ZM150.278 14.9112V6.13135H154.728C155.084 6.13135 155.473 6.23446 155.893 6.44067C156.314 6.63895 156.671 6.94827 156.964 7.36862C157.266 7.78104 157.416 8.3045 157.416 8.93899C157.416 9.58142 157.262 10.1287 156.952 10.5807C156.643 11.0249 156.266 11.362 155.822 11.592C155.386 11.822 154.973 11.937 154.585 11.937H151.373V10.5094H153.99C154.252 10.5094 154.533 10.3785 154.835 10.1168C155.144 9.85504 155.299 9.46245 155.299 8.93899C155.299 8.39967 155.144 8.03484 154.835 7.84449C154.533 7.65414 154.268 7.55897 154.038 7.55897H152.205V14.9112H150.278ZM155.584 10.7711L157.773 14.9112H155.655L153.514 10.7711H155.584ZM153.609 20.1457C152.293 20.1457 151.059 19.8999 149.909 19.4081C148.759 18.9164 147.748 18.2343 146.876 17.3619C146.003 16.4895 145.321 15.4782 144.829 14.3282C144.338 13.1782 144.092 11.9449 144.092 10.6283C144.092 9.31176 144.338 8.07846 144.829 6.92844C145.321 5.77842 146.003 4.76719 146.876 3.89477C147.748 3.02234 148.759 2.34026 149.909 1.84852C151.059 1.35679 152.293 1.11092 153.609 1.11092C154.926 1.11092 156.159 1.35679 157.309 1.84852C158.459 2.34026 159.47 3.02234 160.343 3.89477C161.215 4.76719 161.897 5.77842 162.389 6.92844C162.881 8.07846 163.127 9.31176 163.127 10.6283C163.127 11.9449 162.881 13.1782 162.389 14.3282C161.897 15.4782 161.215 16.4895 160.343 17.3619C159.47 18.2343 158.459 18.9164 157.309 19.4081C156.159 19.8999 154.926 20.1457 153.609 20.1457ZM153.609 17.8616C154.942 17.8616 156.155 17.5364 157.25 16.886C158.344 16.2357 159.217 15.3632 159.867 14.2687C160.517 13.1742 160.842 11.9608 160.842 10.6283C160.842 9.29589 160.517 8.08242 159.867 6.98792C159.217 5.89342 158.344 5.02099 157.25 4.37063C156.155 3.72028 154.942 3.3951 153.609 3.3951C152.277 3.3951 151.063 3.72028 149.969 4.37063C148.874 5.02099 148.002 5.89342 147.352 6.98792C146.701 8.08242 146.376 9.29589 146.376 10.6283C146.376 11.9608 146.701 13.1742 147.352 14.2687C148.002 15.3632 148.874 16.2357 149.969 16.886C151.063 17.5364 152.277 17.8616 153.609 17.8616Z" fill="#0053FA"/>
</svg>
