<svg width="172" height="47" viewBox="0 0 172 47" fill="none" xmlns="http://www.w3.org/2000/svg">
<path d="M8.07383 34.8086V11.4592H12.201V20.1924H12.372C12.5848 19.7668 12.8851 19.3146 13.2727 18.8357C13.6603 18.3493 14.1848 17.935 14.8461 17.593C15.5073 17.2434 16.351 17.0685 17.3771 17.0685C18.73 17.0685 19.9499 17.4144 21.0368 18.106C22.1313 18.7901 22.9978 19.8048 23.6363 21.1501C24.2823 22.4878 24.6054 24.1296 24.6054 26.0754C24.6054 27.9984 24.2899 29.6325 23.6591 30.9778C23.0282 32.3232 22.1693 33.3493 21.0824 34.0561C19.9955 34.763 18.7642 35.1164 17.3885 35.1164C16.3852 35.1164 15.5529 34.9492 14.8917 34.6148C14.2304 34.2803 13.6984 33.8775 13.2955 33.4063C12.9003 32.9274 12.5924 32.4752 12.372 32.0495H12.1326V34.8086H8.07383ZM12.1212 26.0526C12.1212 27.1851 12.2808 28.177 12.6 29.0283C12.9269 29.8795 13.3943 30.5446 14.0024 31.0234C14.618 31.4947 15.3629 31.7303 16.237 31.7303C17.1491 31.7303 17.9129 31.4871 18.5286 31.0006C19.1443 30.5066 19.6079 29.8339 19.9195 28.9827C20.2388 28.1238 20.3984 27.1471 20.3984 26.0526C20.3984 24.9657 20.2426 24.0004 19.9309 23.1567C19.6193 22.313 19.1557 21.6518 18.54 21.1729C17.9243 20.6941 17.1567 20.4547 16.237 20.4547C15.3553 20.4547 14.6066 20.6865 13.991 21.1501C13.3753 21.6138 12.9079 22.2636 12.5886 23.0997C12.277 23.9358 12.1212 24.9201 12.1212 26.0526ZM39.4362 27.4435V17.2966H43.5634V34.8086H39.5616V31.6961H39.3792C38.984 32.6766 38.3341 33.4785 37.4296 34.1017C36.5327 34.725 35.4268 35.0366 34.1119 35.0366C32.9642 35.0366 31.9495 34.782 31.0678 34.2727C30.1937 33.7559 29.5097 33.0072 29.0156 32.0267C28.5216 31.0386 28.2746 29.8453 28.2746 28.4468V17.2966H32.4017V27.8083C32.4017 28.918 32.7058 29.7997 33.3138 30.4534C33.9219 31.107 34.72 31.4339 35.7081 31.4339C36.3161 31.4339 36.9052 31.2857 37.4752 30.9892C38.0453 30.6928 38.5127 30.252 38.8776 29.6667C39.25 29.0739 39.4362 28.3328 39.4362 27.4435ZM47.968 34.8086V17.2966H52.0951V34.8086H47.968ZM50.043 14.8111C49.3893 14.8111 48.8268 14.5945 48.3556 14.1613C47.8844 13.7204 47.6487 13.1922 47.6487 12.5765C47.6487 11.9533 47.8844 11.425 48.3556 10.9918C48.8268 10.5509 49.3893 10.3305 50.043 10.3305C50.7042 10.3305 51.2667 10.5509 51.7303 10.9918C52.2016 11.425 52.4372 11.9533 52.4372 12.5765C52.4372 13.1922 52.2016 13.7204 51.7303 14.1613C51.2667 14.5945 50.7042 14.8111 50.043 14.8111ZM60.6269 11.4592V34.8086H56.4997V11.4592H60.6269ZM71.5301 35.1164C70.1543 35.1164 68.923 34.763 67.8361 34.0561C66.7492 33.3493 65.8904 32.3232 65.2595 30.9778C64.6286 29.6325 64.3132 27.9984 64.3132 26.0754C64.3132 24.1296 64.6324 22.4878 65.2709 21.1501C65.917 19.8048 66.7872 18.7901 67.8817 18.106C68.9762 17.4144 70.1962 17.0685 71.5415 17.0685C72.5676 17.0685 73.4112 17.2434 74.0725 17.593C74.7338 17.935 75.2582 18.3493 75.6459 18.8357C76.0335 19.3146 76.3337 19.7668 76.5465 20.1924H76.7176V11.4592H80.8561V34.8086H76.7974V32.0495H76.5465C76.3337 32.4752 76.0259 32.9274 75.6231 33.4063C75.2202 33.8775 74.6882 34.2803 74.0269 34.6148C73.3656 34.9492 72.5334 35.1164 71.5301 35.1164ZM72.6816 31.7303C73.5557 31.7303 74.3005 31.4947 74.9162 31.0234C75.5318 30.5446 75.9993 29.8795 76.3185 29.0283C76.6378 28.177 76.7974 27.1851 76.7974 26.0526C76.7974 24.9201 76.6378 23.9358 76.3185 23.0997C76.0069 22.2636 75.5432 21.6138 74.9276 21.1501C74.3195 20.6865 73.5709 20.4547 72.6816 20.4547C71.7619 20.4547 70.9942 20.6941 70.3786 21.1729C69.7629 21.6518 69.2993 22.313 68.9876 23.1567C68.676 24.0004 68.5202 24.9657 68.5202 26.0526C68.5202 27.1471 68.676 28.1238 68.9876 28.9827C69.3069 29.8339 69.7743 30.5066 70.39 31.0006C71.0132 31.4871 71.7771 31.7303 72.6816 31.7303ZM92.6058 17.8467V20.0727H83.4351V17.8467H92.6058ZM86.5391 13.7238H89.4392V30.6073C89.4392 31.1821 89.528 31.6158 89.7057 31.9084C89.8834 32.2011 90.1133 32.3944 90.3955 32.4885C90.6776 32.5825 90.9807 32.6296 91.3047 32.6296C91.5451 32.6296 91.7959 32.6087 92.0572 32.5669C92.3289 32.5146 92.5327 32.4728 92.6686 32.4414L92.6842 34.8086C92.4543 34.8818 92.1512 34.9497 91.775 35.0124C91.4092 35.0855 90.965 35.1221 90.4425 35.1221C89.7318 35.1221 89.0786 34.981 88.4829 34.6989C87.8872 34.4167 87.4117 33.9464 87.0564 33.288C86.7115 32.6191 86.5391 31.7203 86.5391 30.5916V13.7238ZM100.464 31.7987L104.822 17.8467H106.734L106.358 20.6214L101.921 34.8086H100.056L100.464 31.7987ZM97.532 17.8467L101.247 31.9555L101.514 34.8086H99.5543L94.6319 17.8467H97.532ZM110.904 31.8457L114.447 17.8467H117.331L112.409 34.8086H110.465L110.904 31.8457ZM107.157 17.8467L111.421 31.5636L111.907 34.8086H110.058L105.496 20.59L105.119 17.8467H107.157ZM123.621 17.8467V34.8086H120.706V17.8467H123.621ZM120.486 13.3475C120.486 12.8772 120.627 12.4801 120.909 12.1561C121.202 11.8321 121.63 11.6701 122.195 11.6701C122.749 11.6701 123.172 11.8321 123.465 12.1561C123.768 12.4801 123.919 12.8772 123.919 13.3475C123.919 13.7969 123.768 14.1836 123.465 14.5076C123.172 14.8211 122.749 14.9779 122.195 14.9779C121.63 14.9779 121.202 14.8211 120.909 14.5076C120.627 14.1836 120.486 13.7969 120.486 13.3475ZM131.338 21.4679V34.8086H128.438V17.8467H131.181L131.338 21.4679ZM130.648 25.6849L129.441 25.6379C129.452 24.4778 129.624 23.4066 129.958 22.4242C130.293 21.4314 130.763 20.5691 131.369 19.8376C131.975 19.106 132.697 18.5417 133.533 18.1445C134.379 17.7369 135.315 17.5331 136.339 17.5331C137.175 17.5331 137.927 17.6481 138.596 17.878C139.265 18.0975 139.835 18.4528 140.305 18.944C140.786 19.4352 141.151 20.0727 141.402 20.8565C141.653 21.6299 141.779 22.5757 141.779 23.694V34.8086H138.863V23.6626C138.863 22.7743 138.732 22.0636 138.471 21.5306C138.209 20.9872 137.828 20.5953 137.326 20.3549C136.825 20.1041 136.208 19.9787 135.477 19.9787C134.755 19.9787 134.097 20.1302 133.501 20.4333C132.916 20.7364 132.409 21.1544 131.981 21.6874C131.563 22.2204 131.233 22.8318 130.993 23.5215C130.763 24.2009 130.648 24.922 130.648 25.6849ZM151.704 24.3652V15.9512H155.968C156.31 15.9512 156.682 16.05 157.085 16.2477C157.488 16.4377 157.83 16.7341 158.111 17.137C158.4 17.5322 158.545 18.0338 158.545 18.6419C158.545 19.2575 158.396 19.782 158.1 20.2152C157.804 20.6409 157.443 20.9639 157.017 21.1843C156.599 21.4047 156.204 21.515 155.831 21.515H152.753V20.1468H155.261C155.512 20.1468 155.782 20.0214 156.071 19.7706C156.367 19.5198 156.515 19.1435 156.515 18.6419C156.515 18.125 156.367 17.7754 156.071 17.593C155.782 17.4106 155.527 17.3194 155.307 17.3194H153.551V24.3652H151.704ZM156.789 20.3977L158.887 24.3652H156.857L154.805 20.3977H156.789ZM154.896 29.3817C153.635 29.3817 152.453 29.1461 151.351 28.6748C150.248 28.2036 149.279 27.5499 148.443 26.7138C147.607 25.8778 146.954 24.9087 146.482 23.8066C146.011 22.7045 145.775 21.5226 145.775 20.2608C145.775 18.9991 146.011 17.8172 146.482 16.7151C146.954 15.613 147.607 14.6439 148.443 13.8078C149.279 12.9718 150.248 12.3181 151.351 11.8469C152.453 11.3756 153.635 11.14 154.896 11.14C156.158 11.14 157.34 11.3756 158.442 11.8469C159.544 12.3181 160.513 12.9718 161.349 13.8078C162.185 14.6439 162.839 15.613 163.31 16.7151C163.782 17.8172 164.017 18.9991 164.017 20.2608C164.017 21.5226 163.782 22.7045 163.31 23.8066C162.839 24.9087 162.185 25.8778 161.349 26.7138C160.513 27.5499 159.544 28.2036 158.442 28.6748C157.34 29.1461 156.158 29.3817 154.896 29.3817ZM154.896 27.1927C156.173 27.1927 157.336 26.8811 158.385 26.2578C159.434 25.6345 160.27 24.7985 160.893 23.7496C161.517 22.7007 161.828 21.5378 161.828 20.2608C161.828 18.9839 161.517 17.821 160.893 16.7721C160.27 15.7232 159.434 14.8871 158.385 14.2639C157.336 13.6406 156.173 13.329 154.896 13.329C153.619 13.329 152.457 13.6406 151.408 14.2639C150.359 14.8871 149.523 15.7232 148.899 16.7721C148.276 17.821 147.964 18.9839 147.964 20.2608C147.964 21.5378 148.276 22.7007 148.899 23.7496C149.523 24.7985 150.359 25.6345 151.408 26.2578C152.457 26.8811 153.619 27.1927 154.896 27.1927Z" fill="#0053FA"/>
</svg>
