<svg width="20" height="21" viewBox="0 0 20 21" fill="none" xmlns="http://www.w3.org/2000/svg">
<g clip-path="url(#clip0_308_3208)">
<path d="M10.7891 5.93853C10.7891 5.2283 11.589 4.81251 12.1702 5.22063L14.4977 6.85477C14.9953 7.20409 14.9953 7.94128 14.4977 8.29059L12.1702 9.92473C11.589 10.3329 10.7891 9.91706 10.7891 9.20683V5.93853Z" fill="#022E3B"/>
<path d="M18.0117 7.45238C18.0117 4.43248 15.5636 1.98438 12.5437 1.98438C9.52379 1.98438 7.07568 4.43248 7.07568 7.45238C7.07568 10.4723 9.52379 12.9204 12.5437 12.9204C15.5636 12.9204 18.0117 10.4723 18.0117 7.45238Z" stroke="#022E3B" stroke-width="1.3" stroke-linecap="round"/>
<path d="M3.58057 13.5808H5.38516C6.35408 13.5808 7.13954 14.3663 7.13954 15.3352V17.5208C7.13954 18.4898 6.35408 19.2752 5.38517 19.2752H3.58057V13.5808Z" stroke="#022E3B" stroke-width="1.3" stroke-linecap="round" stroke-linejoin="round"/>
<path d="M3.2561 15.1062H0.854492" stroke="#022E3B" stroke-width="1.3" stroke-linecap="round"/>
<path d="M3.2561 17.7419H0.854492" stroke="#022E3B" stroke-width="1.3" stroke-linecap="round"/>
<path d="M17.9186 8.60425C17.9186 12.9242 14.4166 16.4262 10.0966 16.4262H7.46045" stroke="#022E3B" stroke-width="1.3" stroke-linecap="round"/>
</g>
<defs>
<clipPath id="clip0_308_3208">
<rect width="18.9474" height="20" fill="white" transform="translate(0.152344 0.931641)"/>
</clipPath>
</defs>
</svg>
