<svg width="21" height="21" viewBox="0 0 21 21" fill="none" xmlns="http://www.w3.org/2000/svg">
<path d="M10.1523 11.5566C10.1523 11.7224 10.0865 11.8814 9.96929 11.9986C9.85208 12.1158 9.6931 12.1816 9.52734 12.1816H5.77734C5.61158 12.1816 5.45261 12.1158 5.3354 11.9986C5.21819 11.8814 5.15234 11.7224 5.15234 11.5566C5.15234 11.3909 5.21819 11.2319 5.3354 11.1147C5.45261 10.9975 5.61158 10.9316 5.77734 10.9316H9.52734C9.6931 10.9316 9.85208 10.9975 9.96929 11.1147C10.0865 11.2319 10.1523 11.3909 10.1523 11.5566ZM9.52734 8.43164H5.77734C5.61158 8.43164 5.45261 8.49749 5.3354 8.6147C5.21819 8.73191 5.15234 8.89088 5.15234 9.05664C5.15234 9.2224 5.21819 9.38137 5.3354 9.49858C5.45261 9.61579 5.61158 9.68164 5.77734 9.68164H9.52734C9.6931 9.68164 9.85208 9.61579 9.96929 9.49858C10.0865 9.38137 10.1523 9.2224 10.1523 9.05664C10.1523 8.89088 10.0865 8.73191 9.96929 8.6147C9.85208 8.49749 9.6931 8.43164 9.52734 8.43164ZM18.2773 13.5465V18.4316C18.2783 18.5418 18.2502 18.6503 18.1957 18.7461C18.1413 18.8419 18.0625 18.9216 17.9673 18.9771C17.8721 19.0326 17.7639 19.062 17.6538 19.0623C17.5436 19.0625 17.4353 19.0336 17.3398 18.9785L15.4648 17.9051L13.5898 18.9785C13.4944 19.0336 13.3861 19.0625 13.2759 19.0623C13.1657 19.062 13.0576 19.0326 12.9624 18.9771C12.8672 18.9216 12.7884 18.8419 12.734 18.7461C12.6795 18.6503 12.6514 18.5418 12.6523 18.4316V16.5566H3.27734C2.94582 16.5566 2.62788 16.4249 2.39346 16.1905C2.15904 15.9561 2.02734 15.6382 2.02734 15.3066V5.30664C2.02734 4.97512 2.15904 4.65718 2.39346 4.42276C2.62788 4.18834 2.94582 4.05664 3.27734 4.05664H17.0273C17.3589 4.05664 17.6768 4.18834 17.9112 4.42276C18.1456 4.65718 18.2773 4.97512 18.2773 5.30664V7.6918C18.6724 8.07014 18.9868 8.52455 19.2016 9.02765C19.4164 9.53074 19.5272 10.0721 19.5272 10.6191C19.5272 11.1662 19.4164 11.7075 19.2016 12.2106C18.9868 12.7137 18.6724 13.1681 18.2773 13.5465ZM12.6523 15.3066V13.5465C11.9713 12.8896 11.5408 12.0156 11.4353 11.0753C11.3298 10.135 11.5558 9.18735 12.0744 8.39588C12.593 7.60442 13.3715 7.01879 14.2758 6.74006C15.18 6.46133 16.1532 6.50699 17.0273 6.86914V5.30664H3.27734V15.3066H12.6523ZM17.0273 14.3691C16.5324 14.5759 16.0013 14.6824 15.4648 14.6824C14.9284 14.6824 14.3973 14.5759 13.9023 14.3691V17.3551L15.1523 16.6395C15.2468 16.5855 15.3537 16.5571 15.4625 16.5571C15.5713 16.5571 15.6782 16.5855 15.7727 16.6395L17.0227 17.3551L17.0273 14.3691ZM18.2773 10.6191C18.2773 10.0629 18.1124 9.51911 17.8034 9.0566C17.4943 8.59409 17.0551 8.2336 16.5411 8.02073C16.0272 7.80786 15.4617 7.75216 14.9162 7.86068C14.3706 7.9692 13.8694 8.23707 13.4761 8.6304C13.0828 9.02374 12.8149 9.52488 12.7064 10.0704C12.5979 10.616 12.6536 11.1815 12.8664 11.6954C13.0793 12.2094 13.4398 12.6486 13.9023 12.9576C14.3648 13.2667 14.9086 13.4316 15.4648 13.4316C15.8342 13.4316 16.1999 13.3589 16.5411 13.2176C16.8824 13.0762 17.1924 12.869 17.4536 12.6079C17.7147 12.3467 17.9219 12.0367 18.0633 11.6954C18.2046 11.3542 18.2773 10.9885 18.2773 10.6191Z" fill="#022E3B"/>
</svg>
