<svg width="20" height="15" viewBox="0 0 20 15" fill="none" xmlns="http://www.w3.org/2000/svg">
<path d="M10.4022 10.2503C11.3819 9.64011 12.1363 8.72738 12.5511 7.65024C12.966 6.5731 13.0187 5.39016 12.7014 4.28038C12.384 3.17061 11.7139 2.19437 10.7923 1.49939C9.8707 0.804398 8.74784 0.428467 7.59358 0.428467C6.43932 0.428467 5.31647 0.804398 4.39489 1.49939C3.47331 2.19437 2.80315 3.17061 2.48581 4.28038C2.16846 5.39016 2.2212 6.5731 2.63603 7.65024C3.05086 8.72738 3.80523 9.64011 4.78499 10.2503C3.17171 10.7785 1.72015 11.7652 0.552958 13.1542C0.49827 13.2168 0.456599 13.2896 0.43038 13.3684C0.404161 13.4473 0.393921 13.5305 0.400259 13.6134C0.406596 13.6962 0.429384 13.7769 0.467289 13.8509C0.505194 13.9248 0.557457 13.9904 0.621021 14.0439C0.684585 14.0974 0.758175 14.1377 0.837489 14.1624C0.916802 14.1871 1.00025 14.1957 1.08295 14.1878C1.16564 14.1799 1.24594 14.1556 1.31913 14.1163C1.39232 14.077 1.45694 14.0235 1.50921 13.9589C3.07796 12.0871 5.2389 11.0566 7.58968 11.0566C9.94046 11.0566 12.1014 12.0871 13.6733 13.9589C13.78 14.0859 13.9328 14.1654 14.098 14.1797C14.2633 14.1941 14.4275 14.1422 14.5545 14.0355C14.6815 13.9288 14.761 13.776 14.7753 13.6107C14.7897 13.4455 14.7378 13.2813 14.6311 13.1542C13.4631 11.7652 12.0116 10.7785 10.4022 10.2503ZM3.52718 5.74409C3.52718 4.9406 3.76544 4.15516 4.21183 3.48709C4.65822 2.81901 5.2927 2.29831 6.03503 1.99083C6.77735 1.68335 7.59418 1.6029 8.38223 1.75965C9.17028 1.9164 9.89415 2.30332 10.4623 2.87147C11.0304 3.43962 11.4174 4.16349 11.5741 4.95154C11.7309 5.73958 11.6504 6.55642 11.3429 7.29874C11.0355 8.04107 10.5148 8.67554 9.84668 9.12194C9.17861 9.56833 8.39316 9.80659 7.58968 9.80659C6.51262 9.80535 5.48002 9.37694 4.71843 8.61534C3.95683 7.85374 3.52842 6.82115 3.52718 5.74409ZM18.8592 9.10894L18.4951 8.89878C18.5379 8.67265 18.5379 8.44053 18.4951 8.2144L18.8592 8.00425C18.9303 7.96321 18.9926 7.90857 19.0426 7.84345C19.0926 7.77832 19.1293 7.70399 19.1505 7.6247C19.1718 7.54541 19.1772 7.46271 19.1665 7.38132C19.1558 7.29992 19.1292 7.22144 19.0881 7.15034C19.0471 7.07924 18.9924 7.01692 18.9273 6.96694C18.8622 6.91696 18.7879 6.88029 18.7086 6.85904C18.6293 6.83778 18.5466 6.83235 18.4652 6.84306C18.3838 6.85376 18.3053 6.8804 18.2342 6.92143L17.8694 7.13237C17.6948 6.98257 17.494 6.8663 17.2772 6.7894V6.36909C17.2772 6.20333 17.2113 6.04436 17.0941 5.92715C16.9769 5.80994 16.8179 5.74409 16.6522 5.74409C16.4864 5.74409 16.3274 5.80994 16.2102 5.92715C16.093 6.04436 16.0272 6.20333 16.0272 6.36909V6.7894C15.8104 6.8663 15.6096 6.98257 15.435 7.13237L15.0701 6.92143C14.999 6.8804 14.9206 6.85376 14.8392 6.84306C14.7578 6.83235 14.6751 6.83778 14.5958 6.85904C14.5165 6.88029 14.4422 6.91696 14.377 6.96694C14.3119 7.01692 14.2573 7.07924 14.2162 7.15034C14.1752 7.22144 14.1486 7.29992 14.1379 7.38132C14.1272 7.46271 14.1326 7.54541 14.1538 7.6247C14.1751 7.70399 14.2118 7.77832 14.2617 7.84345C14.3117 7.90857 14.374 7.96321 14.4451 8.00425L14.8092 8.2144C14.7665 8.44053 14.7665 8.67265 14.8092 8.89878L14.4451 9.10894C14.374 9.14997 14.3117 9.20461 14.2617 9.26974C14.2118 9.33486 14.1751 9.40919 14.1538 9.48848C14.1326 9.56777 14.1272 9.65048 14.1379 9.73187C14.1486 9.81326 14.1752 9.89174 14.2162 9.96284C14.2573 10.0339 14.3119 10.0963 14.377 10.1462C14.4422 10.1962 14.5165 10.2329 14.5958 10.2541C14.6751 10.2754 14.7578 10.2808 14.8392 10.2701C14.9206 10.2594 14.999 10.2328 15.0701 10.1917L15.435 9.98081C15.6096 10.1306 15.8104 10.2469 16.0272 10.3238V10.7441C16.0272 10.9099 16.093 11.0688 16.2102 11.186C16.3274 11.3032 16.4864 11.3691 16.6522 11.3691C16.8179 11.3691 16.9769 11.3032 17.0941 11.186C17.2113 11.0688 17.2772 10.9099 17.2772 10.7441V10.3238C17.494 10.2469 17.6948 10.1306 17.8694 9.98081L18.2342 10.1917C18.3291 10.2468 18.437 10.2757 18.5467 10.2753C18.6843 10.2754 18.8181 10.23 18.9273 10.1463C19.0365 10.0625 19.115 9.94503 19.1507 9.81209C19.1863 9.67915 19.177 9.53817 19.1243 9.41103C19.0716 9.28389 18.9784 9.1777 18.8592 9.10894ZM16.0272 8.55659C16.0272 8.43298 16.0638 8.31214 16.1325 8.20936C16.2012 8.10658 16.2988 8.02647 16.413 7.97917C16.5272 7.93186 16.6529 7.91948 16.7741 7.9436C16.8953 7.96772 17.0067 8.02724 17.0941 8.11465C17.1815 8.20206 17.2411 8.31342 17.2652 8.43466C17.2893 8.5559 17.2769 8.68156 17.2296 8.79577C17.1823 8.90997 17.1022 9.00758 16.9994 9.07626C16.8966 9.14494 16.7758 9.18159 16.6522 9.18159C16.4864 9.18159 16.3274 9.11574 16.2102 8.99853C16.093 8.88132 16.0272 8.72235 16.0272 8.55659Z" fill="#022E3B"/>
</svg>
