<svg width="127" height="87" viewBox="0 0 127 87" fill="none" xmlns="http://www.w3.org/2000/svg">
<path d="M16.7498 5.10299L17.0231 4.86001L17.3375 5.04692C28.0666 11.4264 36.7759 19.2617 43.4564 28.555C50.4414 37.8699 53.9421 48.0729 53.9421 59.1512C53.9421 66.4962 51.2936 72.8237 46.014 78.1079C41.0171 83.6875 34.8257 86.4884 27.4705 86.4884C20.1119 86.4884 13.7784 83.6853 8.49465 78.108L8.49411 78.1074C3.49978 72.8193 0.999023 66.4918 0.999023 59.1512C0.999023 52.9786 2.91282 47.5282 6.73813 42.8201C10.4677 38.2299 15.1844 35.1761 20.8751 33.667C20.5228 30.1443 19.1283 26.4661 16.6613 22.6286L16.6543 22.6176L16.6478 22.6063C14.3606 18.6036 11.7952 15.3293 8.956 12.7741L8.54049 12.4001L8.9583 12.0287L16.7498 5.10299ZM85.5941 5.08626L85.8644 4.87L86.162 5.04692C96.8912 11.4264 105.6 19.2617 112.281 28.555C119.266 37.8699 122.767 48.0729 122.767 59.1512C122.767 66.4986 120.116 72.8277 114.833 78.1129C109.551 83.6869 103.219 86.4884 95.8622 86.4884C88.5035 86.4884 82.1701 83.6853 76.8863 78.108L76.8858 78.1074C71.8915 72.8193 69.3907 66.4918 69.3907 59.1512C69.3907 52.9786 71.3045 47.5282 75.1298 42.8201C78.8523 38.2385 83.5583 35.1876 89.2347 33.6755C88.6164 30.1447 87.0852 26.463 84.6202 22.6286L84.6131 22.6176L84.6066 22.6063C82.3194 18.6036 79.754 15.3293 76.9148 12.7741L76.477 12.38L76.937 12.012L85.5941 5.08626Z" stroke="#0053FA"/>
<path d="M49.6506 72.7641C54.8449 67.5698 57.4421 61.3655 57.4421 54.1512C57.4421 43.1854 53.9792 33.0854 47.0535 23.8511C40.4163 14.6167 31.7591 6.82527 21.0819 0.476692L13.2905 7.40243C16.1762 9.99958 18.7734 13.3182 21.0819 17.3582C23.6791 21.3982 25.122 25.2939 25.4105 29.0454C19.6391 30.4882 14.8776 33.5182 11.1262 38.1354C7.37474 42.7525 5.49902 48.0911 5.49902 54.1512C5.49902 61.3655 7.95189 67.5698 12.8576 72.7641C18.0519 78.247 24.2562 80.9884 31.4705 80.9884C38.6849 80.9884 44.7449 78.247 49.6506 72.7641ZM118.475 72.7641C123.669 67.5698 126.267 61.3655 126.267 54.1512C126.267 43.1854 122.804 33.0854 115.878 23.8511C109.241 14.6167 100.584 6.82527 89.9065 0.476692L81.2493 7.40243C84.135 9.99958 86.7322 13.3182 89.0408 17.3582C91.6379 21.3982 93.225 25.2939 93.8022 29.0454C88.0307 30.4882 83.2693 33.5182 79.5179 38.1354C75.7664 42.7525 73.8907 48.0911 73.8907 54.1512C73.8907 61.3655 76.3436 67.5698 81.2493 72.7641C86.4436 78.247 92.6479 80.9884 99.8622 80.9884C107.077 80.9884 113.281 78.247 118.475 72.7641Z" fill="#0053FA"/>
</svg>
