<svg width="18" height="18" viewBox="0 0 18 18" fill="none" xmlns="http://www.w3.org/2000/svg">
<path d="M16.7148 3.92734L16.3507 3.71719C16.3934 3.49106 16.3934 3.25894 16.3507 3.03281L16.7148 2.82266C16.8584 2.73978 16.9632 2.60325 17.0061 2.44311C17.049 2.28297 17.0266 2.11234 16.9437 1.96875C16.8608 1.82516 16.7243 1.72038 16.5642 1.67745C16.404 1.63452 16.2334 1.65696 16.0898 1.73984L15.725 1.95078C15.5504 1.80098 15.3496 1.68471 15.1328 1.60781V1.1875C15.1328 1.02174 15.0669 0.862768 14.9497 0.745558C14.8325 0.628348 14.6735 0.5625 14.5078 0.5625C14.342 0.5625 14.183 0.628348 14.0658 0.745558C13.9486 0.862768 13.8828 1.02174 13.8828 1.1875V1.60781C13.6659 1.68471 13.4652 1.80098 13.2906 1.95078L12.9257 1.73984C12.8546 1.69881 12.7762 1.67217 12.6948 1.66147C12.6134 1.65076 12.5307 1.65619 12.4514 1.67745C12.3721 1.6987 12.2978 1.73537 12.2326 1.78535C12.1675 1.83533 12.1129 1.89765 12.0718 1.96875C12.0308 2.03985 12.0042 2.11833 11.9935 2.19972C11.9828 2.28112 11.9882 2.36382 12.0094 2.44311C12.0307 2.5224 12.0674 2.59673 12.1173 2.66186C12.1673 2.72698 12.2296 2.78162 12.3007 2.82266L12.6648 3.03281C12.6221 3.25894 12.6221 3.49106 12.6648 3.71719L12.3007 3.92734C12.1815 3.9961 12.0883 4.10229 12.0356 4.22943C11.9829 4.35657 11.9737 4.49755 12.0093 4.63049C12.0449 4.76343 12.1234 4.8809 12.2326 4.96466C12.3418 5.04843 12.4756 5.0938 12.6132 5.09375C12.723 5.09409 12.8308 5.06524 12.9257 5.01016L13.2906 4.79922C13.4652 4.94902 13.6659 5.06529 13.8828 5.14219V5.5625C13.8828 5.72826 13.9486 5.88723 14.0658 6.00444C14.183 6.12165 14.342 6.1875 14.5078 6.1875C14.6735 6.1875 14.8325 6.12165 14.9497 6.00444C15.0669 5.88723 15.1328 5.72826 15.1328 5.5625V5.14219C15.3496 5.06529 15.5504 4.94902 15.725 4.79922L16.0898 5.01016C16.1847 5.06524 16.2926 5.09409 16.4023 5.09375C16.5399 5.0938 16.6737 5.04843 16.7829 4.96466C16.8921 4.8809 16.9706 4.76343 17.0063 4.63049C17.0419 4.49755 17.0326 4.35657 16.9799 4.22943C16.9272 4.10229 16.834 3.9961 16.7148 3.92734ZM13.8828 3.375C13.8828 3.25139 13.9194 3.13055 13.9881 3.02777C14.0568 2.92499 14.1544 2.84488 14.2686 2.79758C14.3828 2.75027 14.5085 2.73789 14.6297 2.76201C14.7509 2.78612 14.8623 2.84565 14.9497 2.93306C15.0371 3.02047 15.0966 3.13183 15.1208 3.25307C15.1449 3.37431 15.1325 3.49997 15.0852 3.61418C15.0379 3.72838 14.9578 3.82599 14.855 3.89467C14.7522 3.96334 14.6314 4 14.5078 4C14.342 4 14.183 3.93415 14.0658 3.81694C13.9486 3.69973 13.8828 3.54076 13.8828 3.375ZM16.1757 7.13359C16.0123 7.16095 15.8663 7.25213 15.7701 7.38706C15.6738 7.522 15.6351 7.68964 15.6625 7.85313C15.7259 8.23212 15.7578 8.61573 15.7578 9C15.7593 10.683 15.1407 12.3075 14.0203 13.5633C13.3232 12.5532 12.3431 11.7717 11.2031 11.3172C11.8154 10.8349 12.2623 10.1737 12.4815 9.4257C12.7007 8.67766 12.6813 7.87992 12.4261 7.1434C12.1708 6.40687 11.6924 5.76819 11.0574 5.31616C10.4224 4.86414 9.66226 4.62123 8.88277 4.62123C8.10328 4.62123 7.34317 4.86414 6.70813 5.31616C6.0731 5.76819 5.5947 6.40687 5.33948 7.1434C5.08426 7.87992 5.06489 8.67766 5.28408 9.4257C5.50326 10.1737 5.9501 10.8349 6.56246 11.3172C5.42247 11.7717 4.44233 12.5532 3.74527 13.5633C2.86615 12.5726 2.29189 11.3491 2.09156 10.0399C1.89122 8.73063 2.07334 7.39139 2.616 6.18318C3.15867 4.97497 4.03879 3.94923 5.15052 3.2293C6.26226 2.50937 7.55829 2.1259 8.88277 2.125C9.26704 2.12494 9.65066 2.15682 10.0296 2.22031C10.1924 2.24599 10.3587 2.20637 10.4924 2.11007C10.6261 2.01377 10.7163 1.86858 10.7435 1.70608C10.7707 1.54358 10.7326 1.37692 10.6375 1.24235C10.5425 1.10778 10.3981 1.01619 10.2359 0.9875C8.53859 0.701965 6.79444 0.96323 5.2553 1.73357C3.71615 2.50392 2.46165 3.74348 1.67292 5.27328C0.884182 6.80308 0.602033 8.54397 0.867207 10.2446C1.13238 11.9452 1.93115 13.5175 3.1482 14.7346C4.36524 15.9516 5.93758 16.7504 7.63819 17.0156C9.33881 17.2807 11.0797 16.9986 12.6095 16.2099C14.1393 15.4211 15.3789 14.1666 16.1492 12.6275C16.9195 11.0883 17.1808 9.34419 16.8953 7.64687C16.8679 7.4834 16.7767 7.33748 16.6418 7.24122C16.5069 7.14497 16.3392 7.10625 16.1757 7.13359ZM6.38277 8.375C6.38277 7.88055 6.5294 7.3972 6.8041 6.98607C7.0788 6.57495 7.46925 6.25452 7.92606 6.0653C8.38288 5.87608 8.88555 5.82657 9.3705 5.92304C9.85545 6.0195 10.3009 6.2576 10.6505 6.60723C11.0002 6.95686 11.2383 7.40232 11.3347 7.88727C11.4312 8.37223 11.3817 8.87489 11.1925 9.33171C11.0033 9.78852 10.6828 10.179 10.2717 10.4537C9.86057 10.7284 9.37723 10.875 8.88277 10.875C8.21973 10.875 7.58385 10.6116 7.11501 10.1428C6.64616 9.67393 6.38277 9.03804 6.38277 8.375ZM4.67027 14.4297C5.12241 13.7226 5.74528 13.1406 6.48146 12.7375C7.21765 12.3345 8.04346 12.1232 8.88277 12.1232C9.72209 12.1232 10.5479 12.3345 11.2841 12.7375C12.0203 13.1406 12.6431 13.7226 13.0953 14.4297C11.8908 15.3664 10.4086 15.8749 8.88277 15.8749C7.35697 15.8749 5.8747 15.3664 4.67027 14.4297Z" fill="#0053FA"/>
</svg>
