<svg width="14" height="14" viewBox="0 0 14 14" fill="none" xmlns="http://www.w3.org/2000/svg">
<path d="M13.6327 1V10.75C13.6327 10.9489 13.5537 11.1397 13.4131 11.2803C13.2724 11.421 13.0817 11.5 12.8827 11.5C12.6838 11.5 12.4931 11.421 12.3524 11.2803C12.2118 11.1397 12.1327 10.9489 12.1327 10.75V2.81031L1.41337 13.5306C1.27264 13.6714 1.08176 13.7504 0.882741 13.7504C0.683718 13.7504 0.492847 13.6714 0.352116 13.5306C0.211386 13.3899 0.132324 13.199 0.132324 13C0.132324 12.801 0.211386 12.6101 0.352116 12.4694L11.0724 1.75H3.13274C2.93383 1.75 2.74306 1.67098 2.60241 1.53033C2.46176 1.38968 2.38274 1.19891 2.38274 1C2.38274 0.801088 2.46176 0.610322 2.60241 0.46967C2.74306 0.329018 2.93383 0.25 3.13274 0.25H12.8827C13.0817 0.25 13.2724 0.329018 13.4131 0.46967C13.5537 0.610322 13.6327 0.801088 13.6327 1Z" fill="#002E3B"/>
</svg>
